<?xml version="1.0" encoding="utf-8" standalone="no"?>
<!DOCTYPE svg PUBLIC "-//W3C//DTD SVG 1.1//EN"
  "http://www.w3.org/Graphics/SVG/1.1/DTD/svg11.dtd">
<svg xmlns:xlink="http://www.w3.org/1999/xlink" width="720pt" height="360pt" viewBox="0 0 720 360" xmlns="http://www.w3.org/2000/svg" version="1.1">
 <metadata>
  <rdf:RDF xmlns:dc="http://purl.org/dc/elements/1.1/" xmlns:cc="http://creativecommons.org/ns#" xmlns:rdf="http://www.w3.org/1999/02/22-rdf-syntax-ns#">
   <cc:Work>
    <dc:type rdf:resource="http://purl.org/dc/dcmitype/StillImage"/>
    <dc:date>2022-10-03T20:22:58.715702</dc:date>
    <dc:format>image/svg+xml</dc:format>
    <dc:creator>
     <cc:Agent>
      <dc:title>Matplotlib v3.5.3, https://matplotlib.org/</dc:title>
     </cc:Agent>
    </dc:creator>
   </cc:Work>
  </rdf:RDF>
 </metadata>
 <defs>
  <style type="text/css">*{stroke-linejoin: round; stroke-linecap: butt}</style>
 </defs>
 <g id="figure_1">
  <g id="patch_1">
   <path d="M 0 360 
L 720 360 
L 720 0 
L 0 0 
z
" style="fill: #ffffff"/>
  </g>
  <g id="axes_1">
   <g id="patch_2">
    <path d="M 90 320.4 
L 648 320.4 
L 648 43.2 
L 90 43.2 
z
" style="fill: #ffffff"/>
   </g>
   <g id="PathCollection_1">
    <defs>
     <path id="mdcd83cf668" d="M -3 3 
L 3 -3 
M -3 -3 
L 3 3 
" style="stroke: #ff0000; stroke-width: 1.5"/>
    </defs>
    <g clip-path="url(#p4b22eb1374)">
     <use xlink:href="#mdcd83cf668" x="120.260636" y="240.701664" style="fill: #ff0000; stroke: #ff0000; stroke-width: 1.5"/>
     <use xlink:href="#mdcd83cf668" x="128.482759" y="238.414221" style="fill: #ff0000; stroke: #ff0000; stroke-width: 1.5"/>
     <use xlink:href="#mdcd83cf668" x="134.719884" y="239.557943" style="fill: #ff0000; stroke: #ff0000; stroke-width: 1.5"/>
     <use xlink:href="#mdcd83cf668" x="141.934393" y="238.03298" style="fill: #ff0000; stroke: #ff0000; stroke-width: 1.5"/>
     <use xlink:href="#mdcd83cf668" x="154.751232" y="235.364297" style="fill: #ff0000; stroke: #ff0000; stroke-width: 1.5"/>
     <use xlink:href="#mdcd83cf668" x="165.583072" y="236.508018" style="fill: #ff0000; stroke: #ff0000; stroke-width: 1.5"/>
     <use xlink:href="#mdcd83cf668" x="173.805195" y="236.508018" style="fill: #ff0000; stroke: #ff0000; stroke-width: 1.5"/>
     <use xlink:href="#mdcd83cf668" x="180.032244" y="234.983056" style="fill: #ff0000; stroke: #ff0000; stroke-width: 1.5"/>
     <use xlink:href="#mdcd83cf668" x="188.264442" y="233.458094" style="fill: #ff0000; stroke: #ff0000; stroke-width: 1.5"/>
     <use xlink:href="#mdcd83cf668" x="194.481415" y="235.745537" style="fill: #ff0000; stroke: #ff0000; stroke-width: 1.5"/>
     <use xlink:href="#mdcd83cf668" x="202.713614" y="234.601815" style="fill: #ff0000; stroke: #ff0000; stroke-width: 1.5"/>
     <use xlink:href="#mdcd83cf668" x="210.915584" y="233.839334" style="fill: #ff0000; stroke: #ff0000; stroke-width: 1.5"/>
     <use xlink:href="#mdcd83cf668" x="219.147783" y="231.933132" style="fill: #ff0000; stroke: #ff0000; stroke-width: 1.5"/>
     <use xlink:href="#mdcd83cf668" x="225.384908" y="231.933132" style="fill: #ff0000; stroke: #ff0000; stroke-width: 1.5"/>
     <use xlink:href="#mdcd83cf668" x="233.617107" y="236.889259" style="fill: #ff0000; stroke: #ff0000; stroke-width: 1.5"/>
     <use xlink:href="#mdcd83cf668" x="244.076131" y="56.562481" style="fill: #ff0000; stroke: #ff0000; stroke-width: 1.5"/>
     <use xlink:href="#mdcd83cf668" x="256.530228" y="56.562481" style="fill: #ff0000; stroke: #ff0000; stroke-width: 1.5"/>
     <use xlink:href="#mdcd83cf668" x="266.717197" y="55.8" style="fill: #ff0000; stroke: #ff0000; stroke-width: 1.5"/>
     <use xlink:href="#mdcd83cf668" x="277.549037" y="78.293192" style="fill: #ff0000; stroke: #ff0000; stroke-width: 1.5"/>
     <use xlink:href="#mdcd83cf668" x="293.418943" y="299.031467" style="fill: #ff0000; stroke: #ff0000; stroke-width: 1.5"/>
     <use xlink:href="#mdcd83cf668" x="300.643529" y="294.456581" style="fill: #ff0000; stroke: #ff0000; stroke-width: 1.5"/>
     <use xlink:href="#mdcd83cf668" x="308.875728" y="287.975492" style="fill: #ff0000; stroke: #ff0000; stroke-width: 1.5"/>
     <use xlink:href="#mdcd83cf668" x="316.100313" y="285.688048" style="fill: #ff0000; stroke: #ff0000; stroke-width: 1.5"/>
     <use xlink:href="#mdcd83cf668" x="324.332512" y="280.350681" style="fill: #ff0000; stroke: #ff0000; stroke-width: 1.5"/>
     <use xlink:href="#mdcd83cf668" x="330.579713" y="276.919516" style="fill: #ff0000; stroke: #ff0000; stroke-width: 1.5"/>
     <use xlink:href="#mdcd83cf668" x="339.799373" y="272.72587" style="fill: #ff0000; stroke: #ff0000; stroke-width: 1.5"/>
     <use xlink:href="#mdcd83cf668" x="350.631214" y="270.819667" style="fill: #ff0000; stroke: #ff0000; stroke-width: 1.5"/>
     <use xlink:href="#mdcd83cf668" x="356.848186" y="267.769743" style="fill: #ff0000; stroke: #ff0000; stroke-width: 1.5"/>
     <use xlink:href="#mdcd83cf668" x="364.697492" y="265.4823" style="fill: #ff0000; stroke: #ff0000; stroke-width: 1.5"/>
     <use xlink:href="#mdcd83cf668" x="374.914689" y="260.907413" style="fill: #ff0000; stroke: #ff0000; stroke-width: 1.5"/>
     <use xlink:href="#mdcd83cf668" x="389.958352" y="256.332526" style="fill: #ff0000; stroke: #ff0000; stroke-width: 1.5"/>
     <use xlink:href="#mdcd83cf668" x="409.23399" y="255.570045" style="fill: #ff0000; stroke: #ff0000; stroke-width: 1.5"/>
     <use xlink:href="#mdcd83cf668" x="424.317958" y="249.851437" style="fill: #ff0000; stroke: #ff0000; stroke-width: 1.5"/>
     <use xlink:href="#mdcd83cf668" x="442.193014" y="249.851437" style="fill: #ff0000; stroke: #ff0000; stroke-width: 1.5"/>
     <use xlink:href="#mdcd83cf668" x="458.677564" y="249.851437" style="fill: #ff0000; stroke: #ff0000; stroke-width: 1.5"/>
     <use xlink:href="#mdcd83cf668" x="468.904837" y="245.657791" style="fill: #ff0000; stroke: #ff0000; stroke-width: 1.5"/>
     <use xlink:href="#mdcd83cf668" x="486.779893" y="246.039032" style="fill: #ff0000; stroke: #ff0000; stroke-width: 1.5"/>
     <use xlink:href="#mdcd83cf668" x="502.841245" y="241.464145" style="fill: #ff0000; stroke: #ff0000; stroke-width: 1.5"/>
     <use xlink:href="#mdcd83cf668" x="519.28549" y="242.607867" style="fill: #ff0000; stroke: #ff0000; stroke-width: 1.5"/>
     <use xlink:href="#mdcd83cf668" x="528.746977" y="239.557943" style="fill: #ff0000; stroke: #ff0000; stroke-width: 1.5"/>
     <use xlink:href="#mdcd83cf668" x="543.760412" y="238.795461" style="fill: #ff0000; stroke: #ff0000; stroke-width: 1.5"/>
     <use xlink:href="#mdcd83cf668" x="564.456785" y="232.314372" style="fill: #ff0000; stroke: #ff0000; stroke-width: 1.5"/>
     <use xlink:href="#mdcd83cf668" x="579.530676" y="239.557943" style="fill: #ff0000; stroke: #ff0000; stroke-width: 1.5"/>
     <use xlink:href="#mdcd83cf668" x="590.755486" y="238.414221" style="fill: #ff0000; stroke: #ff0000; stroke-width: 1.5"/>
     <use xlink:href="#mdcd83cf668" x="600.58979" y="236.508018" style="fill: #ff0000; stroke: #ff0000; stroke-width: 1.5"/>
     <use xlink:href="#mdcd83cf668" x="611.441782" y="238.03298" style="fill: #ff0000; stroke: #ff0000; stroke-width: 1.5"/>
    </g>
   </g>
   <g id="matplotlib.axis_1">
    <g id="xtick_1">
     <g id="line2d_1">
      <defs>
       <path id="m16fc934c69" d="M 0 0 
L 0 3.5 
" style="stroke: #000000; stroke-width: 0.8"/>
      </defs>
      <g>
       <use xlink:href="#m16fc934c69" x="114.718764" y="320.4" style="stroke: #000000; stroke-width: 0.8"/>
      </g>
     </g>
     <g id="text_1">
      <!-- 0 -->
      <g transform="translate(111.537514 334.998438)scale(0.1 -0.1)">
       <defs>
        <path id="DejaVuSans-30" d="M 2034 4250 
Q 1547 4250 1301 3770 
Q 1056 3291 1056 2328 
Q 1056 1369 1301 889 
Q 1547 409 2034 409 
Q 2525 409 2770 889 
Q 3016 1369 3016 2328 
Q 3016 3291 2770 3770 
Q 2525 4250 2034 4250 
z
M 2034 4750 
Q 2819 4750 3233 4129 
Q 3647 3509 3647 2328 
Q 3647 1150 3233 529 
Q 2819 -91 2034 -91 
Q 1250 -91 836 529 
Q 422 1150 422 2328 
Q 422 3509 836 4129 
Q 1250 4750 2034 4750 
z
" transform="scale(0.015625)"/>
       </defs>
       <use xlink:href="#DejaVuSans-30"/>
      </g>
     </g>
    </g>
    <g id="xtick_2">
     <g id="line2d_2">
      <g>
       <use xlink:href="#m16fc934c69" x="215.480072" y="320.4" style="stroke: #000000; stroke-width: 0.8"/>
      </g>
     </g>
     <g id="text_2">
      <!-- 10 -->
      <g transform="translate(209.117572 334.998438)scale(0.1 -0.1)">
       <defs>
        <path id="DejaVuSans-31" d="M 794 531 
L 1825 531 
L 1825 4091 
L 703 3866 
L 703 4441 
L 1819 4666 
L 2450 4666 
L 2450 531 
L 3481 531 
L 3481 0 
L 794 0 
L 794 531 
z
" transform="scale(0.015625)"/>
       </defs>
       <use xlink:href="#DejaVuSans-31"/>
       <use xlink:href="#DejaVuSans-30" x="63.623047"/>
      </g>
     </g>
    </g>
    <g id="xtick_3">
     <g id="line2d_3">
      <g>
       <use xlink:href="#m16fc934c69" x="316.241379" y="320.4" style="stroke: #000000; stroke-width: 0.8"/>
      </g>
     </g>
     <g id="text_3">
      <!-- 20 -->
      <g transform="translate(309.878879 334.998438)scale(0.1 -0.1)">
       <defs>
        <path id="DejaVuSans-32" d="M 1228 531 
L 3431 531 
L 3431 0 
L 469 0 
L 469 531 
Q 828 903 1448 1529 
Q 2069 2156 2228 2338 
Q 2531 2678 2651 2914 
Q 2772 3150 2772 3378 
Q 2772 3750 2511 3984 
Q 2250 4219 1831 4219 
Q 1534 4219 1204 4116 
Q 875 4013 500 3803 
L 500 4441 
Q 881 4594 1212 4672 
Q 1544 4750 1819 4750 
Q 2544 4750 2975 4387 
Q 3406 4025 3406 3419 
Q 3406 3131 3298 2873 
Q 3191 2616 2906 2266 
Q 2828 2175 2409 1742 
Q 1991 1309 1228 531 
z
" transform="scale(0.015625)"/>
       </defs>
       <use xlink:href="#DejaVuSans-32"/>
       <use xlink:href="#DejaVuSans-30" x="63.623047"/>
      </g>
     </g>
    </g>
    <g id="xtick_4">
     <g id="line2d_4">
      <g>
       <use xlink:href="#m16fc934c69" x="417.002687" y="320.4" style="stroke: #000000; stroke-width: 0.8"/>
      </g>
     </g>
     <g id="text_4">
      <!-- 30 -->
      <g transform="translate(410.640187 334.998438)scale(0.1 -0.1)">
       <defs>
        <path id="DejaVuSans-33" d="M 2597 2516 
Q 3050 2419 3304 2112 
Q 3559 1806 3559 1356 
Q 3559 666 3084 287 
Q 2609 -91 1734 -91 
Q 1441 -91 1130 -33 
Q 819 25 488 141 
L 488 750 
Q 750 597 1062 519 
Q 1375 441 1716 441 
Q 2309 441 2620 675 
Q 2931 909 2931 1356 
Q 2931 1769 2642 2001 
Q 2353 2234 1838 2234 
L 1294 2234 
L 1294 2753 
L 1863 2753 
Q 2328 2753 2575 2939 
Q 2822 3125 2822 3475 
Q 2822 3834 2567 4026 
Q 2313 4219 1838 4219 
Q 1578 4219 1281 4162 
Q 984 4106 628 3988 
L 628 4550 
Q 988 4650 1302 4700 
Q 1616 4750 1894 4750 
Q 2613 4750 3031 4423 
Q 3450 4097 3450 3541 
Q 3450 3153 3228 2886 
Q 3006 2619 2597 2516 
z
" transform="scale(0.015625)"/>
       </defs>
       <use xlink:href="#DejaVuSans-33"/>
       <use xlink:href="#DejaVuSans-30" x="63.623047"/>
      </g>
     </g>
    </g>
    <g id="xtick_5">
     <g id="line2d_5">
      <g>
       <use xlink:href="#m16fc934c69" x="517.763995" y="320.4" style="stroke: #000000; stroke-width: 0.8"/>
      </g>
     </g>
     <g id="text_5">
      <!-- 40 -->
      <g transform="translate(511.401495 334.998438)scale(0.1 -0.1)">
       <defs>
        <path id="DejaVuSans-34" d="M 2419 4116 
L 825 1625 
L 2419 1625 
L 2419 4116 
z
M 2253 4666 
L 3047 4666 
L 3047 1625 
L 3713 1625 
L 3713 1100 
L 3047 1100 
L 3047 0 
L 2419 0 
L 2419 1100 
L 313 1100 
L 313 1709 
L 2253 4666 
z
" transform="scale(0.015625)"/>
       </defs>
       <use xlink:href="#DejaVuSans-34"/>
       <use xlink:href="#DejaVuSans-30" x="63.623047"/>
      </g>
     </g>
    </g>
    <g id="xtick_6">
     <g id="line2d_6">
      <g>
       <use xlink:href="#m16fc934c69" x="618.525302" y="320.4" style="stroke: #000000; stroke-width: 0.8"/>
      </g>
     </g>
     <g id="text_6">
      <!-- 50 -->
      <g transform="translate(612.162802 334.998438)scale(0.1 -0.1)">
       <defs>
        <path id="DejaVuSans-35" d="M 691 4666 
L 3169 4666 
L 3169 4134 
L 1269 4134 
L 1269 2991 
Q 1406 3038 1543 3061 
Q 1681 3084 1819 3084 
Q 2600 3084 3056 2656 
Q 3513 2228 3513 1497 
Q 3513 744 3044 326 
Q 2575 -91 1722 -91 
Q 1428 -91 1123 -41 
Q 819 9 494 109 
L 494 744 
Q 775 591 1075 516 
Q 1375 441 1709 441 
Q 2250 441 2565 725 
Q 2881 1009 2881 1497 
Q 2881 1984 2565 2268 
Q 2250 2553 1709 2553 
Q 1456 2553 1204 2497 
Q 953 2441 691 2322 
L 691 4666 
z
" transform="scale(0.015625)"/>
       </defs>
       <use xlink:href="#DejaVuSans-35"/>
       <use xlink:href="#DejaVuSans-30" x="63.623047"/>
      </g>
     </g>
    </g>
   </g>
   <g id="matplotlib.axis_2">
    <g id="ytick_1">
     <g id="line2d_7">
      <defs>
       <path id="m1d232c2f6d" d="M 0 0 
L -3.5 0 
" style="stroke: #000000; stroke-width: 0.8"/>
      </defs>
      <g>
       <use xlink:href="#m1d232c2f6d" x="90" y="285.344932" style="stroke: #000000; stroke-width: 0.8"/>
      </g>
     </g>
     <g id="text_7">
      <!-- −3.5 -->
      <g transform="translate(58.717187 289.144151)scale(0.1 -0.1)">
       <defs>
        <path id="DejaVuSans-2212" d="M 678 2272 
L 4684 2272 
L 4684 1741 
L 678 1741 
L 678 2272 
z
" transform="scale(0.015625)"/>
        <path id="DejaVuSans-2e" d="M 684 794 
L 1344 794 
L 1344 0 
L 684 0 
L 684 794 
z
" transform="scale(0.015625)"/>
       </defs>
       <use xlink:href="#DejaVuSans-2212"/>
       <use xlink:href="#DejaVuSans-33" x="83.789062"/>
       <use xlink:href="#DejaVuSans-2e" x="147.412109"/>
       <use xlink:href="#DejaVuSans-35" x="179.199219"/>
      </g>
     </g>
    </g>
    <g id="ytick_2">
     <g id="line2d_8">
      <g>
       <use xlink:href="#m1d232c2f6d" x="90" y="246.344024" style="stroke: #000000; stroke-width: 0.8"/>
      </g>
     </g>
     <g id="text_8">
      <!-- −3.0 -->
      <g transform="translate(58.717187 250.143243)scale(0.1 -0.1)">
       <use xlink:href="#DejaVuSans-2212"/>
       <use xlink:href="#DejaVuSans-33" x="83.789062"/>
       <use xlink:href="#DejaVuSans-2e" x="147.412109"/>
       <use xlink:href="#DejaVuSans-30" x="179.199219"/>
      </g>
     </g>
    </g>
    <g id="ytick_3">
     <g id="line2d_9">
      <g>
       <use xlink:href="#m1d232c2f6d" x="90" y="207.343116" style="stroke: #000000; stroke-width: 0.8"/>
      </g>
     </g>
     <g id="text_9">
      <!-- −2.5 -->
      <g transform="translate(58.717187 211.142335)scale(0.1 -0.1)">
       <use xlink:href="#DejaVuSans-2212"/>
       <use xlink:href="#DejaVuSans-32" x="83.789062"/>
       <use xlink:href="#DejaVuSans-2e" x="147.412109"/>
       <use xlink:href="#DejaVuSans-35" x="179.199219"/>
      </g>
     </g>
    </g>
    <g id="ytick_4">
     <g id="line2d_10">
      <g>
       <use xlink:href="#m1d232c2f6d" x="90" y="168.342209" style="stroke: #000000; stroke-width: 0.8"/>
      </g>
     </g>
     <g id="text_10">
      <!-- −2.0 -->
      <g transform="translate(58.717187 172.141428)scale(0.1 -0.1)">
       <use xlink:href="#DejaVuSans-2212"/>
       <use xlink:href="#DejaVuSans-32" x="83.789062"/>
       <use xlink:href="#DejaVuSans-2e" x="147.412109"/>
       <use xlink:href="#DejaVuSans-30" x="179.199219"/>
      </g>
     </g>
    </g>
    <g id="ytick_5">
     <g id="line2d_11">
      <g>
       <use xlink:href="#m1d232c2f6d" x="90" y="129.341301" style="stroke: #000000; stroke-width: 0.8"/>
      </g>
     </g>
     <g id="text_11">
      <!-- −1.5 -->
      <g transform="translate(58.717187 133.14052)scale(0.1 -0.1)">
       <use xlink:href="#DejaVuSans-2212"/>
       <use xlink:href="#DejaVuSans-31" x="83.789062"/>
       <use xlink:href="#DejaVuSans-2e" x="147.412109"/>
       <use xlink:href="#DejaVuSans-35" x="179.199219"/>
      </g>
     </g>
    </g>
    <g id="ytick_6">
     <g id="line2d_12">
      <g>
       <use xlink:href="#m1d232c2f6d" x="90" y="90.340393" style="stroke: #000000; stroke-width: 0.8"/>
      </g>
     </g>
     <g id="text_12">
      <!-- −1.0 -->
      <g transform="translate(58.717187 94.139612)scale(0.1 -0.1)">
       <use xlink:href="#DejaVuSans-2212"/>
       <use xlink:href="#DejaVuSans-31" x="83.789062"/>
       <use xlink:href="#DejaVuSans-2e" x="147.412109"/>
       <use xlink:href="#DejaVuSans-30" x="179.199219"/>
      </g>
     </g>
    </g>
    <g id="ytick_7">
     <g id="line2d_13">
      <g>
       <use xlink:href="#m1d232c2f6d" x="90" y="51.339486" style="stroke: #000000; stroke-width: 0.8"/>
      </g>
     </g>
     <g id="text_13">
      <!-- −0.5 -->
      <g transform="translate(58.717187 55.138704)scale(0.1 -0.1)">
       <use xlink:href="#DejaVuSans-2212"/>
       <use xlink:href="#DejaVuSans-30" x="83.789062"/>
       <use xlink:href="#DejaVuSans-2e" x="147.412109"/>
       <use xlink:href="#DejaVuSans-35" x="179.199219"/>
      </g>
     </g>
    </g>
   </g>
   <g id="line2d_14">
    <path d="M 115.363636 248.707716 
L 116.028661 241.464145 
L 116.673533 244.51407 
L 117.650918 241.082905 
L 118.638379 241.082905 
L 119.615764 245.276551 
L 120.260636 240.701664 
L 121.288401 244.51407 
L 122.265786 241.082905 
L 123.243171 242.226626 
L 123.898119 245.657791 
L 124.875504 241.464145 
L 125.862965 239.557943 
L 126.850425 242.989107 
L 127.495298 241.845386 
L 128.482759 238.414221 
L 129.460143 239.176702 
L 130.115092 242.989107 
L 131.092476 240.701664 
L 133.077474 239.176702 
L 134.064935 240.701664 
L 134.719884 239.557943 
L 135.707344 239.939183 
L 136.694805 238.795461 
L 137.67219 242.607867 
L 139.314599 238.795461 
L 140.291984 241.082905 
L 140.957009 241.845386 
L 141.934393 238.03298 
L 142.911778 240.320424 
L 143.899239 240.320424 
L 144.554187 240.701664 
L 145.541648 241.082905 
L 146.539185 238.03298 
L 148.171518 242.607867 
L 149.158979 238.414221 
L 150.166592 239.939183 
L 151.143977 239.939183 
L 152.131438 237.65174 
L 152.786386 239.176702 
L 153.763771 239.557943 
L 154.751232 235.364297 
L 155.738692 238.795461 
L 156.393641 239.939183 
L 157.381102 238.03298 
L 158.368562 237.65174 
L 159.345947 236.889259 
L 160.010972 241.464145 
L 160.988356 238.03298 
L 161.965741 237.65174 
L 162.953202 239.176702 
L 163.60815 241.082905 
L 164.595611 237.270499 
L 165.583072 236.508018 
L 166.590685 236.508018 
L 167.56807 238.795461 
L 168.233094 238.795461 
L 169.210479 238.03298 
L 170.19794 236.508018 
L 171.185401 237.270499 
L 171.830273 238.795461 
L 172.817734 236.889259 
L 173.805195 236.508018 
L 174.450067 240.320424 
L 176.424989 235.745537 
L 177.41245 237.65174 
L 178.067398 239.176702 
L 179.044783 237.270499 
L 180.032244 234.983056 
L 181.019704 239.176702 
L 181.664577 237.65174 
L 182.662114 236.889259 
L 183.669727 235.364297 
L 184.647112 236.889259 
L 185.634572 236.508018 
L 186.299597 239.557943 
L 187.276982 237.270499 
L 188.264442 233.458094 
L 189.241827 240.701664 
L 189.896776 239.557943 
L 190.884236 236.126778 
L 191.861621 235.745537 
L 192.51657 240.320424 
L 193.50403 236.889259 
L 194.481415 235.745537 
L 195.468876 236.126778 
L 196.466413 238.414221 
L 197.111285 238.414221 
L 198.08867 236.508018 
L 199.086207 238.414221 
L 200.063592 237.270499 
L 201.071205 238.414221 
L 202.713614 234.601815 
L 204.356023 238.03298 
L 205.333408 235.364297 
L 206.330945 237.65174 
L 207.30833 234.220575 
L 207.963278 241.845386 
L 208.950739 236.508018 
L 209.928124 235.745537 
L 210.915584 233.839334 
L 211.570533 238.795461 
L 212.557994 236.126778 
L 213.535378 234.220575 
L 214.522839 238.795461 
L 215.177788 236.126778 
L 216.165249 236.889259 
L 217.182938 236.508018 
L 218.170399 234.983056 
L 219.147783 231.933132 
L 220.135244 238.03298 
L 220.790193 238.414221 
L 221.777653 236.126778 
L 223.742499 239.176702 
L 224.407524 237.270499 
L 225.384908 231.933132 
L 226.372369 236.508018 
L 228.014778 238.414221 
L 229.002239 234.983056 
L 229.9897 239.557943 
L 230.977161 237.65174 
L 231.622033 241.082905 
L 232.639722 238.414221 
L 233.617107 236.889259 
L 234.594492 238.03298 
L 235.24944 239.939183 
L 236.236901 238.795461 
L 237.214286 236.126778 
L 238.201747 235.364297 
L 238.846619 231.933132 
L 240.811464 228.120726 
L 244.076131 56.562481 
L 246.706001 226.977005 
L 248.03605 239.939183 
L 248.690999 239.557943 
L 249.668383 239.939183 
L 250.655844 243.751589 
L 251.300717 242.989107 
L 252.278101 234.220575 
L 253.265562 223.54584 
L 253.910434 222.020877 
L 256.530228 56.562481 
L 258.495074 215.921029 
L 259.472459 231.170651 
L 260.137483 233.458094 
L 261.114868 237.270499 
L 262.092253 236.508018 
L 263.099866 227.358245 
L 263.754814 228.883207 
L 266.717197 55.8 
L 269.336991 238.03298 
L 270.002015 255.570045 
L 271.311912 257.857489 
L 271.966861 262.432375 
L 272.954322 256.332526 
L 273.941782 254.426324 
L 274.919167 255.188805 
L 275.584192 250.613918 
L 277.549037 78.293192 
L 282.173981 283.781846 
L 283.151366 284.163086 
L 283.816391 287.594251 
L 284.803851 294.837821 
L 285.781236 307.037519 
L 286.788849 307.8 
L 287.806538 306.275038 
L 288.793999 307.037519 
L 289.448948 304.750076 
L 290.436408 303.606354 
L 291.423869 300.55643 
L 293.418943 299.031467 
L 295.393865 302.843873 
L 296.048813 297.887746 
L 297.04635 298.268986 
L 298.023735 296.744024 
L 299.00112 299.412708 
L 299.666144 298.268986 
L 300.643529 294.456581 
L 301.63099 295.219062 
L 302.285938 295.981543 
L 303.273399 293.312859 
L 304.250784 291.025416 
L 305.238245 296.744024 
L 305.893193 293.312859 
L 306.89073 288.737973 
L 308.875728 287.975492 
L 309.863189 289.500454 
L 310.518137 291.787897 
L 311.505598 288.737973 
L 312.493059 286.83177 
L 314.125392 287.975492 
L 315.112853 287.594251 
L 316.100313 285.688048 
L 317.087774 287.213011 
L 318.075235 287.594251 
L 318.730184 283.781846 
L 319.707568 283.019365 
L 320.705105 283.400605 
L 321.349978 285.688048 
L 322.337438 282.256884 
L 323.324899 281.113162 
L 324.332512 280.350681 
L 325.309897 281.494402 
L 325.974922 284.544327 
L 326.962382 280.731921 
L 327.959919 278.825719 
L 328.937304 279.5882 
L 329.582176 281.875643 
L 330.579713 276.919516 
L 331.557098 278.063238 
L 332.212047 283.400605 
L 333.199507 280.731921 
L 334.186968 277.300756 
L 335.164353 275.775794 
L 336.16189 278.063238 
L 336.806762 279.206959 
L 337.794223 276.919516 
L 338.79176 275.013313 
L 339.799373 272.72587 
L 340.776758 272.72587 
L 341.774295 276.919516 
L 342.419167 274.250832 
L 343.406628 273.488351 
L 344.394089 273.10711 
L 345.371473 276.157035 
L 346.036498 273.488351 
L 347.023959 273.488351 
L 348.01142 271.963389 
L 348.988804 275.775794 
L 350.631214 270.819667 
L 351.628751 270.819667 
L 352.606135 271.200908 
L 353.261084 272.344629 
L 354.248545 270.438427 
L 354.883341 271.200908 
L 355.860725 268.913464 
L 356.848186 267.769743 
L 357.835647 268.913464 
L 358.490596 269.294705 
L 359.46798 268.150983 
L 360.445365 268.150983 
L 361.100313 269.675946 
L 362.087774 267.007262 
L 363.055083 266.244781 
L 363.720107 268.913464 
L 364.697492 265.4823 
L 365.674877 266.244781 
L 366.329825 268.532224 
L 367.317286 265.86354 
L 368.294671 263.576097 
L 369.282132 267.769743 
L 370.733094 267.769743 
L 373.514107 262.432375 
L 374.914689 260.907413 
L 376.305195 263.576097 
L 377.353112 263.194856 
L 378.763771 265.101059 
L 380.154277 262.432375 
L 381.544783 261.288654 
L 383.983206 261.288654 
L 385.373712 257.857489 
L 387.147112 260.526172 
L 388.55777 259.382451 
L 389.958352 256.332526 
L 392.406852 259.763691 
L 393.807434 257.857489 
L 395.208016 257.857489 
L 396.598522 256.332526 
L 399.409763 260.144932 
L 400.810345 259.00121 
L 402.210927 259.763691 
L 403.641738 256.713767 
L 406.432826 256.713767 
L 407.833408 257.476248 
L 409.23399 255.570045 
L 410.644648 255.951286 
L 411.692566 256.713767 
L 413.093148 256.332526 
L 414.49373 254.426324 
L 415.884236 254.045083 
L 417.284819 252.901362 
L 418.695477 254.426324 
L 421.516794 255.951286 
L 422.917376 253.282602 
L 424.317958 249.851437 
L 425.71854 253.282602 
L 427.109046 250.995159 
L 428.509628 255.570045 
L 429.567622 255.188805 
L 430.958128 252.520121 
L 432.35871 256.332526 
L 433.769369 253.663843 
L 435.542768 253.663843 
L 436.590685 252.520121 
L 437.981191 252.520121 
L 439.39185 251.75764 
L 440.782356 250.613918 
L 442.193014 249.851437 
L 443.58352 250.995159 
L 444.994178 250.613918 
L 446.384684 251.75764 
L 447.785266 252.520121 
L 448.84326 250.995159 
L 450.233766 251.376399 
L 452.017241 250.995159 
L 453.417824 250.995159 
L 454.828482 252.13888 
L 456.218988 250.232678 
L 457.61957 250.232678 
L 458.677564 249.851437 
L 460.471115 250.232678 
L 463.262203 248.707716 
L 464.682938 248.326475 
L 466.08352 248.326475 
L 467.474026 246.420272 
L 468.904837 245.657791 
L 470.315495 247.945234 
L 471.706001 247.182753 
L 473.106583 247.182753 
L 474.507165 247.945234 
L 475.917824 246.420272 
L 477.30833 246.801513 
L 478.708912 249.470197 
L 480.109494 247.945234 
L 481.510076 249.851437 
L 482.557994 250.995159 
L 483.958576 246.039032 
L 485.742051 247.945234 
L 486.779893 246.039032 
L 488.170399 247.563994 
L 489.570981 246.801513 
L 490.971563 246.420272 
L 492.362069 246.801513 
L 493.39991 247.563994 
L 494.800493 246.039032 
L 497.591581 244.51407 
L 498.982087 247.563994 
L 500.412897 245.276551 
L 501.803403 246.420272 
L 502.841245 241.464145 
L 504.241827 244.51407 
L 507.032915 242.989107 
L 508.423421 246.801513 
L 509.83408 245.657791 
L 510.871921 247.563994 
L 512.262427 244.89531 
L 513.652933 243.370348 
L 515.053515 242.989107 
L 516.091357 244.89531 
L 517.874832 245.276551 
L 519.28549 242.607867 
L 522.076579 243.370348 
L 523.477161 244.51407 
L 524.877743 246.420272 
L 525.925661 243.370348 
L 527.326243 242.607867 
L 528.746977 239.557943 
L 530.137483 241.845386 
L 531.538065 242.226626 
L 532.928571 243.370348 
L 534.319077 242.226626 
L 535.366995 242.989107 
L 536.757501 241.845386 
L 538.158083 241.845386 
L 539.578818 242.989107 
L 542.369906 239.939183 
L 543.760412 238.795461 
L 545.17107 242.607867 
L 547.962159 243.370348 
L 549.403045 241.464145 
L 550.803627 242.226626 
L 552.20421 239.939183 
L 553.594716 242.989107 
L 554.652709 242.607867 
L 556.39588 241.082905 
L 557.443798 240.320424 
L 558.854456 239.557943 
L 560.244962 238.03298 
L 561.65562 236.889259 
L 564.456785 232.314372 
L 565.877519 236.508018 
L 567.278101 234.983056 
L 568.668607 236.126778 
L 570.079266 238.03298 
L 571.479848 239.176702 
L 572.88043 240.701664 
L 574.270936 240.320424 
L 575.681594 241.845386 
L 577.0721 241.464145 
L 578.472682 241.464145 
L 579.530676 239.557943 
L 580.921182 240.320424 
L 582.704657 239.557943 
L 584.10524 240.320424 
L 585.505822 241.845386 
L 586.553739 239.176702 
L 588.306986 244.132829 
L 589.354904 242.989107 
L 590.755486 238.414221 
L 592.156068 238.414221 
L 593.55665 239.176702 
L 596.357815 237.65174 
L 597.758397 240.320424 
L 599.179131 238.03298 
L 600.58979 236.508018 
L 601.980296 238.795461 
L 603.380878 239.176702 
L 604.78146 242.989107 
L 606.192118 239.557943 
L 607.5927 239.176702 
L 608.983206 240.320424 
L 610.0412 239.557943 
L 611.441782 238.03298 
L 612.832288 239.557943 
L 614.615764 239.557943 
L 615.663681 242.607867 
L 617.054187 240.320424 
L 618.444693 239.939183 
L 619.845275 238.795461 
L 621.245858 239.176702 
L 622.636364 239.939183 
L 622.636364 239.939183 
" clip-path="url(#p4b22eb1374)" style="fill: none; stroke: #1f77b4; stroke-width: 1.5; stroke-linecap: square"/>
   </g>
   <g id="patch_3">
    <path d="M 90 320.4 
L 90 43.2 
" style="fill: none; stroke: #000000; stroke-width: 0.8; stroke-linejoin: miter; stroke-linecap: square"/>
   </g>
   <g id="patch_4">
    <path d="M 648 320.4 
L 648 43.2 
" style="fill: none; stroke: #000000; stroke-width: 0.8; stroke-linejoin: miter; stroke-linecap: square"/>
   </g>
   <g id="patch_5">
    <path d="M 90 320.4 
L 648 320.4 
" style="fill: none; stroke: #000000; stroke-width: 0.8; stroke-linejoin: miter; stroke-linecap: square"/>
   </g>
   <g id="patch_6">
    <path d="M 90 43.2 
L 648 43.2 
" style="fill: none; stroke: #000000; stroke-width: 0.8; stroke-linejoin: miter; stroke-linecap: square"/>
   </g>
   <g id="text_14">
    <!-- 1234-2 -->
    <g transform="translate(347.747813 37.2)scale(0.12 -0.12)">
     <defs>
      <path id="DejaVuSans-2d" d="M 313 2009 
L 1997 2009 
L 1997 1497 
L 313 1497 
L 313 2009 
z
" transform="scale(0.015625)"/>
     </defs>
     <use xlink:href="#DejaVuSans-31"/>
     <use xlink:href="#DejaVuSans-32" x="63.623047"/>
     <use xlink:href="#DejaVuSans-33" x="127.246094"/>
     <use xlink:href="#DejaVuSans-34" x="190.869141"/>
     <use xlink:href="#DejaVuSans-2d" x="254.492188"/>
     <use xlink:href="#DejaVuSans-32" x="290.576172"/>
    </g>
   </g>
   <g id="legend_1">
    <g id="patch_7">
     <path d="M 544.017187 80.834375 
L 641 80.834375 
Q 643 80.834375 643 78.834375 
L 643 50.2 
Q 643 48.2 641 48.2 
L 544.017187 48.2 
Q 542.017187 48.2 542.017187 50.2 
L 542.017187 78.834375 
Q 542.017187 80.834375 544.017187 80.834375 
z
" style="fill: #ffffff; opacity: 0.8; stroke: #cccccc; stroke-linejoin: miter"/>
    </g>
    <g id="line2d_15">
     <path d="M 546.017187 56.298437 
L 556.017187 56.298437 
L 566.017187 56.298437 
" style="fill: none; stroke: #1f77b4; stroke-width: 1.5; stroke-linecap: square"/>
    </g>
    <g id="text_15">
     <!-- 1234-2 -->
     <g transform="translate(574.017187 59.798437)scale(0.1 -0.1)">
      <use xlink:href="#DejaVuSans-31"/>
      <use xlink:href="#DejaVuSans-32" x="63.623047"/>
      <use xlink:href="#DejaVuSans-33" x="127.246094"/>
      <use xlink:href="#DejaVuSans-34" x="190.869141"/>
      <use xlink:href="#DejaVuSans-2d" x="254.492188"/>
      <use xlink:href="#DejaVuSans-32" x="290.576172"/>
     </g>
    </g>
    <g id="PathCollection_2">
     <g>
      <use xlink:href="#mdcd83cf668" x="556.017187" y="71.851562" style="fill: #ff0000; stroke: #ff0000; stroke-width: 1.5"/>
     </g>
    </g>
    <g id="text_16">
     <!-- 1234-2_enve -->
     <g transform="translate(574.017187 74.476562)scale(0.1 -0.1)">
      <defs>
       <path id="DejaVuSans-5f" d="M 3263 -1063 
L 3263 -1509 
L -63 -1509 
L -63 -1063 
L 3263 -1063 
z
" transform="scale(0.015625)"/>
       <path id="DejaVuSans-65" d="M 3597 1894 
L 3597 1613 
L 953 1613 
Q 991 1019 1311 708 
Q 1631 397 2203 397 
Q 2534 397 2845 478 
Q 3156 559 3463 722 
L 3463 178 
Q 3153 47 2828 -22 
Q 2503 -91 2169 -91 
Q 1331 -91 842 396 
Q 353 884 353 1716 
Q 353 2575 817 3079 
Q 1281 3584 2069 3584 
Q 2775 3584 3186 3129 
Q 3597 2675 3597 1894 
z
M 3022 2063 
Q 3016 2534 2758 2815 
Q 2500 3097 2075 3097 
Q 1594 3097 1305 2825 
Q 1016 2553 972 2059 
L 3022 2063 
z
" transform="scale(0.015625)"/>
       <path id="DejaVuSans-6e" d="M 3513 2113 
L 3513 0 
L 2938 0 
L 2938 2094 
Q 2938 2591 2744 2837 
Q 2550 3084 2163 3084 
Q 1697 3084 1428 2787 
Q 1159 2491 1159 1978 
L 1159 0 
L 581 0 
L 581 3500 
L 1159 3500 
L 1159 2956 
Q 1366 3272 1645 3428 
Q 1925 3584 2291 3584 
Q 2894 3584 3203 3211 
Q 3513 2838 3513 2113 
z
" transform="scale(0.015625)"/>
       <path id="DejaVuSans-76" d="M 191 3500 
L 800 3500 
L 1894 563 
L 2988 3500 
L 3597 3500 
L 2284 0 
L 1503 0 
L 191 3500 
z
" transform="scale(0.015625)"/>
      </defs>
      <use xlink:href="#DejaVuSans-31"/>
      <use xlink:href="#DejaVuSans-32" x="63.623047"/>
      <use xlink:href="#DejaVuSans-33" x="127.246094"/>
      <use xlink:href="#DejaVuSans-34" x="190.869141"/>
      <use xlink:href="#DejaVuSans-2d" x="254.492188"/>
      <use xlink:href="#DejaVuSans-32" x="290.576172"/>
      <use xlink:href="#DejaVuSans-5f" x="354.199219"/>
      <use xlink:href="#DejaVuSans-65" x="404.199219"/>
      <use xlink:href="#DejaVuSans-6e" x="465.722656"/>
      <use xlink:href="#DejaVuSans-76" x="529.101562"/>
      <use xlink:href="#DejaVuSans-65" x="588.28125"/>
     </g>
    </g>
   </g>
  </g>
 </g>
 <defs>
  <clipPath id="p4b22eb1374">
   <rect x="90" y="43.2" width="558" height="277.2"/>
  </clipPath>
 </defs>
</svg>
