<?xml version="1.0" encoding="utf-8" standalone="no"?>
<!DOCTYPE svg PUBLIC "-//W3C//DTD SVG 1.1//EN"
  "http://www.w3.org/Graphics/SVG/1.1/DTD/svg11.dtd">
<svg xmlns:xlink="http://www.w3.org/1999/xlink" width="460.8pt" height="345.6pt" viewBox="0 0 460.8 345.6" xmlns="http://www.w3.org/2000/svg" version="1.1">
 <metadata>
  <rdf:RDF xmlns:dc="http://purl.org/dc/elements/1.1/" xmlns:cc="http://creativecommons.org/ns#" xmlns:rdf="http://www.w3.org/1999/02/22-rdf-syntax-ns#">
   <cc:Work>
    <dc:type rdf:resource="http://purl.org/dc/dcmitype/StillImage"/>
    <dc:date>2022-10-01T21:17:20.236475</dc:date>
    <dc:format>image/svg+xml</dc:format>
    <dc:creator>
     <cc:Agent>
      <dc:title>Matplotlib v3.5.3, https://matplotlib.org/</dc:title>
     </cc:Agent>
    </dc:creator>
   </cc:Work>
  </rdf:RDF>
 </metadata>
 <defs>
  <style type="text/css">*{stroke-linejoin: round; stroke-linecap: butt}</style>
 </defs>
 <g id="figure_1">
  <g id="patch_1">
   <path d="M 0 345.6 
L 460.8 345.6 
L 460.8 0 
L 0 0 
z
" style="fill: #ffffff"/>
  </g>
  <g id="axes_1">
   <g id="patch_2">
    <path d="M 57.6 307.584 
L 414.72 307.584 
L 414.72 41.472 
L 57.6 41.472 
z
" style="fill: #ffffff"/>
   </g>
   <g id="PathCollection_1">
    <defs>
     <path id="m6c16d3112b" d="M -3 3 
L 3 -3 
M -3 -3 
L 3 3 
" style="stroke: #ff0000; stroke-width: 1.5"/>
    </defs>
    <g clip-path="url(#p435f7ed2f4)">
     <use xlink:href="#m6c16d3112b" x="74.866492" y="81.10361" style="fill: #ff0000; stroke: #ff0000; stroke-width: 1.5"/>
     <use xlink:href="#m6c16d3112b" x="76.653677" y="81.75922" style="fill: #ff0000; stroke: #ff0000; stroke-width: 1.5"/>
     <use xlink:href="#m6c16d3112b" x="78.721206" y="83.398244" style="fill: #ff0000; stroke: #ff0000; stroke-width: 1.5"/>
     <use xlink:href="#m6c16d3112b" x="84.310541" y="84.053854" style="fill: #ff0000; stroke: #ff0000; stroke-width: 1.5"/>
     <use xlink:href="#m6c16d3112b" x="88.46312" y="86.020683" style="fill: #ff0000; stroke: #ff0000; stroke-width: 1.5"/>
     <use xlink:href="#m6c16d3112b" x="92.335356" y="86.676293" style="fill: #ff0000; stroke: #ff0000; stroke-width: 1.5"/>
     <use xlink:href="#m6c16d3112b" x="97.258877" y="90.609951" style="fill: #ff0000; stroke: #ff0000; stroke-width: 1.5"/>
     <use xlink:href="#m6c16d3112b" x="104.53027" y="86.676293" style="fill: #ff0000; stroke: #ff0000; stroke-width: 1.5"/>
     <use xlink:href="#m6c16d3112b" x="110.767898" y="77.169951" style="fill: #ff0000; stroke: #ff0000; stroke-width: 1.5"/>
     <use xlink:href="#m6c16d3112b" x="113.60637" y="77.169951" style="fill: #ff0000; stroke: #ff0000; stroke-width: 1.5"/>
     <use xlink:href="#m6c16d3112b" x="135.893626" y="93.23239" style="fill: #ff0000; stroke: #ff0000; stroke-width: 1.5"/>
     <use xlink:href="#m6c16d3112b" x="154.045826" y="99.132878" style="fill: #ff0000; stroke: #ff0000; stroke-width: 1.5"/>
     <use xlink:href="#m6c16d3112b" x="157.199683" y="102.083122" style="fill: #ff0000; stroke: #ff0000; stroke-width: 1.5"/>
     <use xlink:href="#m6c16d3112b" x="173.23179" y="80.120195" style="fill: #ff0000; stroke: #ff0000; stroke-width: 1.5"/>
     <use xlink:href="#m6c16d3112b" x="176.05274" y="84.381659" style="fill: #ff0000; stroke: #ff0000; stroke-width: 1.5"/>
     <use xlink:href="#m6c16d3112b" x="193.872033" y="53.568" style="fill: #ff0000; stroke: #ff0000; stroke-width: 1.5"/>
     <use xlink:href="#m6c16d3112b" x="200.390004" y="64.385561" style="fill: #ff0000; stroke: #ff0000; stroke-width: 1.5"/>
     <use xlink:href="#m6c16d3112b" x="206.34729" y="66.35239" style="fill: #ff0000; stroke: #ff0000; stroke-width: 1.5"/>
     <use xlink:href="#m6c16d3112b" x="208.449861" y="67.991415" style="fill: #ff0000; stroke: #ff0000; stroke-width: 1.5"/>
     <use xlink:href="#m6c16d3112b" x="214.389625" y="68.647024" style="fill: #ff0000; stroke: #ff0000; stroke-width: 1.5"/>
     <use xlink:href="#m6c16d3112b" x="217.50844" y="70.286049" style="fill: #ff0000; stroke: #ff0000; stroke-width: 1.5"/>
     <use xlink:href="#m6c16d3112b" x="219.558447" y="71.597268" style="fill: #ff0000; stroke: #ff0000; stroke-width: 1.5"/>
     <use xlink:href="#m6c16d3112b" x="226.584539" y="73.236293" style="fill: #ff0000; stroke: #ff0000; stroke-width: 1.5"/>
     <use xlink:href="#m6c16d3112b" x="228.652068" y="74.219707" style="fill: #ff0000; stroke: #ff0000; stroke-width: 1.5"/>
     <use xlink:href="#m6c16d3112b" x="231.770882" y="75.858732" style="fill: #ff0000; stroke: #ff0000; stroke-width: 1.5"/>
     <use xlink:href="#m6c16d3112b" x="233.820889" y="75.530927" style="fill: #ff0000; stroke: #ff0000; stroke-width: 1.5"/>
     <use xlink:href="#m6c16d3112b" x="235.940982" y="76.514341" style="fill: #ff0000; stroke: #ff0000; stroke-width: 1.5"/>
     <use xlink:href="#m6c16d3112b" x="238.008511" y="77.497756" style="fill: #ff0000; stroke: #ff0000; stroke-width: 1.5"/>
     <use xlink:href="#m6c16d3112b" x="240.846982" y="78.153366" style="fill: #ff0000; stroke: #ff0000; stroke-width: 1.5"/>
     <use xlink:href="#m6c16d3112b" x="244.982039" y="78.808976" style="fill: #ff0000; stroke: #ff0000; stroke-width: 1.5"/>
     <use xlink:href="#m6c16d3112b" x="248.135896" y="78.808976" style="fill: #ff0000; stroke: #ff0000; stroke-width: 1.5"/>
     <use xlink:href="#m6c16d3112b" x="250.974368" y="78.481171" style="fill: #ff0000; stroke: #ff0000; stroke-width: 1.5"/>
     <use xlink:href="#m6c16d3112b" x="255.91541" y="81.75922" style="fill: #ff0000; stroke: #ff0000; stroke-width: 1.5"/>
     <use xlink:href="#m6c16d3112b" x="260.365853" y="81.75922" style="fill: #ff0000; stroke: #ff0000; stroke-width: 1.5"/>
     <use xlink:href="#m6c16d3112b" x="262.450903" y="82.742634" style="fill: #ff0000; stroke: #ff0000; stroke-width: 1.5"/>
     <use xlink:href="#m6c16d3112b" x="264.518432" y="82.087024" style="fill: #ff0000; stroke: #ff0000; stroke-width: 1.5"/>
     <use xlink:href="#m6c16d3112b" x="266.34066" y="82.742634" style="fill: #ff0000; stroke: #ff0000; stroke-width: 1.5"/>
     <use xlink:href="#m6c16d3112b" x="269.459475" y="83.398244" style="fill: #ff0000; stroke: #ff0000; stroke-width: 1.5"/>
     <use xlink:href="#m6c16d3112b" x="272.59581" y="85.365073" style="fill: #ff0000; stroke: #ff0000; stroke-width: 1.5"/>
     <use xlink:href="#m6c16d3112b" x="275.66206" y="86.348488" style="fill: #ff0000; stroke: #ff0000; stroke-width: 1.5"/>
     <use xlink:href="#m6c16d3112b" x="278.500532" y="87.004098" style="fill: #ff0000; stroke: #ff0000; stroke-width: 1.5"/>
     <use xlink:href="#m6c16d3112b" x="282.355246" y="88.315317" style="fill: #ff0000; stroke: #ff0000; stroke-width: 1.5"/>
     <use xlink:href="#m6c16d3112b" x="284.072346" y="88.643122" style="fill: #ff0000; stroke: #ff0000; stroke-width: 1.5"/>
     <use xlink:href="#m6c16d3112b" x="291.431346" y="89.954341" style="fill: #ff0000; stroke: #ff0000; stroke-width: 1.5"/>
     <use xlink:href="#m6c16d3112b" x="297.038203" y="90.282146" style="fill: #ff0000; stroke: #ff0000; stroke-width: 1.5"/>
     <use xlink:href="#m6c16d3112b" x="303.608738" y="90.937756" style="fill: #ff0000; stroke: #ff0000; stroke-width: 1.5"/>
     <use xlink:href="#m6c16d3112b" x="309.233117" y="91.593366" style="fill: #ff0000; stroke: #ff0000; stroke-width: 1.5"/>
     <use xlink:href="#m6c16d3112b" x="317.97631" y="92.904585" style="fill: #ff0000; stroke: #ff0000; stroke-width: 1.5"/>
     <use xlink:href="#m6c16d3112b" x="322.461795" y="93.888" style="fill: #ff0000; stroke: #ff0000; stroke-width: 1.5"/>
     <use xlink:href="#m6c16d3112b" x="332.606702" y="95.527024" style="fill: #ff0000; stroke: #ff0000; stroke-width: 1.5"/>
     <use xlink:href="#m6c16d3112b" x="340.946902" y="94.871415" style="fill: #ff0000; stroke: #ff0000; stroke-width: 1.5"/>
     <use xlink:href="#m6c16d3112b" x="353.106773" y="99.460683" style="fill: #ff0000; stroke: #ff0000; stroke-width: 1.5"/>
     <use xlink:href="#m6c16d3112b" x="360.500816" y="100.444098" style="fill: #ff0000; stroke: #ff0000; stroke-width: 1.5"/>
     <use xlink:href="#m6c16d3112b" x="373.291459" y="101.427512" style="fill: #ff0000; stroke: #ff0000; stroke-width: 1.5"/>
     <use xlink:href="#m6c16d3112b" x="378.95088" y="102.738732" style="fill: #ff0000; stroke: #ff0000; stroke-width: 1.5"/>
     <use xlink:href="#m6c16d3112b" x="389.025701" y="103.394341" style="fill: #ff0000; stroke: #ff0000; stroke-width: 1.5"/>
     <use xlink:href="#m6c16d3112b" x="392.547509" y="103.394341" style="fill: #ff0000; stroke: #ff0000; stroke-width: 1.5"/>
    </g>
   </g>
   <g id="matplotlib.axis_1">
    <g id="xtick_1">
     <g id="line2d_1">
      <defs>
       <path id="ma1b3c726f2" d="M 0 0 
L 0 3.5 
" style="stroke: #000000; stroke-width: 0.8"/>
      </defs>
      <g>
       <use xlink:href="#ma1b3c726f2" x="72.431013" y="307.584" style="stroke: #000000; stroke-width: 0.8"/>
      </g>
     </g>
     <g id="text_1">
      <!-- 0.0 -->
      <g transform="translate(64.479451 322.182437)scale(0.1 -0.1)">
       <defs>
        <path id="DejaVuSans-30" d="M 2034 4250 
Q 1547 4250 1301 3770 
Q 1056 3291 1056 2328 
Q 1056 1369 1301 889 
Q 1547 409 2034 409 
Q 2525 409 2770 889 
Q 3016 1369 3016 2328 
Q 3016 3291 2770 3770 
Q 2525 4250 2034 4250 
z
M 2034 4750 
Q 2819 4750 3233 4129 
Q 3647 3509 3647 2328 
Q 3647 1150 3233 529 
Q 2819 -91 2034 -91 
Q 1250 -91 836 529 
Q 422 1150 422 2328 
Q 422 3509 836 4129 
Q 1250 4750 2034 4750 
z
" transform="scale(0.015625)"/>
        <path id="DejaVuSans-2e" d="M 684 794 
L 1344 794 
L 1344 0 
L 684 0 
L 684 794 
z
" transform="scale(0.015625)"/>
       </defs>
       <use xlink:href="#DejaVuSans-30"/>
       <use xlink:href="#DejaVuSans-2e" x="63.623047"/>
       <use xlink:href="#DejaVuSans-30" x="95.410156"/>
      </g>
     </g>
    </g>
    <g id="xtick_2">
     <g id="line2d_2">
      <g>
       <use xlink:href="#ma1b3c726f2" x="116.234584" y="307.584" style="stroke: #000000; stroke-width: 0.8"/>
      </g>
     </g>
     <g id="text_2">
      <!-- 2.5 -->
      <g transform="translate(108.283021 322.182437)scale(0.1 -0.1)">
       <defs>
        <path id="DejaVuSans-32" d="M 1228 531 
L 3431 531 
L 3431 0 
L 469 0 
L 469 531 
Q 828 903 1448 1529 
Q 2069 2156 2228 2338 
Q 2531 2678 2651 2914 
Q 2772 3150 2772 3378 
Q 2772 3750 2511 3984 
Q 2250 4219 1831 4219 
Q 1534 4219 1204 4116 
Q 875 4013 500 3803 
L 500 4441 
Q 881 4594 1212 4672 
Q 1544 4750 1819 4750 
Q 2544 4750 2975 4387 
Q 3406 4025 3406 3419 
Q 3406 3131 3298 2873 
Q 3191 2616 2906 2266 
Q 2828 2175 2409 1742 
Q 1991 1309 1228 531 
z
" transform="scale(0.015625)"/>
        <path id="DejaVuSans-35" d="M 691 4666 
L 3169 4666 
L 3169 4134 
L 1269 4134 
L 1269 2991 
Q 1406 3038 1543 3061 
Q 1681 3084 1819 3084 
Q 2600 3084 3056 2656 
Q 3513 2228 3513 1497 
Q 3513 744 3044 326 
Q 2575 -91 1722 -91 
Q 1428 -91 1123 -41 
Q 819 9 494 109 
L 494 744 
Q 775 591 1075 516 
Q 1375 441 1709 441 
Q 2250 441 2565 725 
Q 2881 1009 2881 1497 
Q 2881 1984 2565 2268 
Q 2250 2553 1709 2553 
Q 1456 2553 1204 2497 
Q 953 2441 691 2322 
L 691 4666 
z
" transform="scale(0.015625)"/>
       </defs>
       <use xlink:href="#DejaVuSans-32"/>
       <use xlink:href="#DejaVuSans-2e" x="63.623047"/>
       <use xlink:href="#DejaVuSans-35" x="95.410156"/>
      </g>
     </g>
    </g>
    <g id="xtick_3">
     <g id="line2d_3">
      <g>
       <use xlink:href="#ma1b3c726f2" x="160.038155" y="307.584" style="stroke: #000000; stroke-width: 0.8"/>
      </g>
     </g>
     <g id="text_3">
      <!-- 5.0 -->
      <g transform="translate(152.086592 322.182437)scale(0.1 -0.1)">
       <use xlink:href="#DejaVuSans-35"/>
       <use xlink:href="#DejaVuSans-2e" x="63.623047"/>
       <use xlink:href="#DejaVuSans-30" x="95.410156"/>
      </g>
     </g>
    </g>
    <g id="xtick_4">
     <g id="line2d_4">
      <g>
       <use xlink:href="#ma1b3c726f2" x="203.841725" y="307.584" style="stroke: #000000; stroke-width: 0.8"/>
      </g>
     </g>
     <g id="text_4">
      <!-- 7.5 -->
      <g transform="translate(195.890163 322.182437)scale(0.1 -0.1)">
       <defs>
        <path id="DejaVuSans-37" d="M 525 4666 
L 3525 4666 
L 3525 4397 
L 1831 0 
L 1172 0 
L 2766 4134 
L 525 4134 
L 525 4666 
z
" transform="scale(0.015625)"/>
       </defs>
       <use xlink:href="#DejaVuSans-37"/>
       <use xlink:href="#DejaVuSans-2e" x="63.623047"/>
       <use xlink:href="#DejaVuSans-35" x="95.410156"/>
      </g>
     </g>
    </g>
    <g id="xtick_5">
     <g id="line2d_5">
      <g>
       <use xlink:href="#ma1b3c726f2" x="247.645296" y="307.584" style="stroke: #000000; stroke-width: 0.8"/>
      </g>
     </g>
     <g id="text_5">
      <!-- 10.0 -->
      <g transform="translate(236.512484 322.182437)scale(0.1 -0.1)">
       <defs>
        <path id="DejaVuSans-31" d="M 794 531 
L 1825 531 
L 1825 4091 
L 703 3866 
L 703 4441 
L 1819 4666 
L 2450 4666 
L 2450 531 
L 3481 531 
L 3481 0 
L 794 0 
L 794 531 
z
" transform="scale(0.015625)"/>
       </defs>
       <use xlink:href="#DejaVuSans-31"/>
       <use xlink:href="#DejaVuSans-30" x="63.623047"/>
       <use xlink:href="#DejaVuSans-2e" x="127.246094"/>
       <use xlink:href="#DejaVuSans-30" x="159.033203"/>
      </g>
     </g>
    </g>
    <g id="xtick_6">
     <g id="line2d_6">
      <g>
       <use xlink:href="#ma1b3c726f2" x="291.448867" y="307.584" style="stroke: #000000; stroke-width: 0.8"/>
      </g>
     </g>
     <g id="text_6">
      <!-- 12.5 -->
      <g transform="translate(280.316055 322.182437)scale(0.1 -0.1)">
       <use xlink:href="#DejaVuSans-31"/>
       <use xlink:href="#DejaVuSans-32" x="63.623047"/>
       <use xlink:href="#DejaVuSans-2e" x="127.246094"/>
       <use xlink:href="#DejaVuSans-35" x="159.033203"/>
      </g>
     </g>
    </g>
    <g id="xtick_7">
     <g id="line2d_7">
      <g>
       <use xlink:href="#ma1b3c726f2" x="335.252438" y="307.584" style="stroke: #000000; stroke-width: 0.8"/>
      </g>
     </g>
     <g id="text_7">
      <!-- 15.0 -->
      <g transform="translate(324.119625 322.182437)scale(0.1 -0.1)">
       <use xlink:href="#DejaVuSans-31"/>
       <use xlink:href="#DejaVuSans-35" x="63.623047"/>
       <use xlink:href="#DejaVuSans-2e" x="127.246094"/>
       <use xlink:href="#DejaVuSans-30" x="159.033203"/>
      </g>
     </g>
    </g>
    <g id="xtick_8">
     <g id="line2d_8">
      <g>
       <use xlink:href="#ma1b3c726f2" x="379.056009" y="307.584" style="stroke: #000000; stroke-width: 0.8"/>
      </g>
     </g>
     <g id="text_8">
      <!-- 17.5 -->
      <g transform="translate(367.923196 322.182437)scale(0.1 -0.1)">
       <use xlink:href="#DejaVuSans-31"/>
       <use xlink:href="#DejaVuSans-37" x="63.623047"/>
       <use xlink:href="#DejaVuSans-2e" x="127.246094"/>
       <use xlink:href="#DejaVuSans-35" x="159.033203"/>
      </g>
     </g>
    </g>
   </g>
   <g id="matplotlib.axis_2">
    <g id="ytick_1">
     <g id="line2d_9">
      <defs>
       <path id="m5c9e0a3081" d="M 0 0 
L -3.5 0 
" style="stroke: #000000; stroke-width: 0.8"/>
      </defs>
      <g>
       <use xlink:href="#m5c9e0a3081" x="57.6" y="303.58478" style="stroke: #000000; stroke-width: 0.8"/>
      </g>
     </g>
     <g id="text_9">
      <!-- 0.5 -->
      <g transform="translate(34.696875 307.383999)scale(0.1 -0.1)">
       <use xlink:href="#DejaVuSans-30"/>
       <use xlink:href="#DejaVuSans-2e" x="63.623047"/>
       <use xlink:href="#DejaVuSans-35" x="95.410156"/>
      </g>
     </g>
    </g>
    <g id="ytick_2">
     <g id="line2d_10">
      <g>
       <use xlink:href="#m5c9e0a3081" x="57.6" y="270.050341" style="stroke: #000000; stroke-width: 0.8"/>
      </g>
     </g>
     <g id="text_10">
      <!-- 1.0 -->
      <g transform="translate(34.696875 273.84956)scale(0.1 -0.1)">
       <use xlink:href="#DejaVuSans-31"/>
       <use xlink:href="#DejaVuSans-2e" x="63.623047"/>
       <use xlink:href="#DejaVuSans-30" x="95.410156"/>
      </g>
     </g>
    </g>
    <g id="ytick_3">
     <g id="line2d_11">
      <g>
       <use xlink:href="#m5c9e0a3081" x="57.6" y="236.515902" style="stroke: #000000; stroke-width: 0.8"/>
      </g>
     </g>
     <g id="text_11">
      <!-- 1.5 -->
      <g transform="translate(34.696875 240.315121)scale(0.1 -0.1)">
       <use xlink:href="#DejaVuSans-31"/>
       <use xlink:href="#DejaVuSans-2e" x="63.623047"/>
       <use xlink:href="#DejaVuSans-35" x="95.410156"/>
      </g>
     </g>
    </g>
    <g id="ytick_4">
     <g id="line2d_12">
      <g>
       <use xlink:href="#m5c9e0a3081" x="57.6" y="202.981463" style="stroke: #000000; stroke-width: 0.8"/>
      </g>
     </g>
     <g id="text_12">
      <!-- 2.0 -->
      <g transform="translate(34.696875 206.780682)scale(0.1 -0.1)">
       <use xlink:href="#DejaVuSans-32"/>
       <use xlink:href="#DejaVuSans-2e" x="63.623047"/>
       <use xlink:href="#DejaVuSans-30" x="95.410156"/>
      </g>
     </g>
    </g>
    <g id="ytick_5">
     <g id="line2d_13">
      <g>
       <use xlink:href="#m5c9e0a3081" x="57.6" y="169.447024" style="stroke: #000000; stroke-width: 0.8"/>
      </g>
     </g>
     <g id="text_13">
      <!-- 2.5 -->
      <g transform="translate(34.696875 173.246243)scale(0.1 -0.1)">
       <use xlink:href="#DejaVuSans-32"/>
       <use xlink:href="#DejaVuSans-2e" x="63.623047"/>
       <use xlink:href="#DejaVuSans-35" x="95.410156"/>
      </g>
     </g>
    </g>
    <g id="ytick_6">
     <g id="line2d_14">
      <g>
       <use xlink:href="#m5c9e0a3081" x="57.6" y="135.912585" style="stroke: #000000; stroke-width: 0.8"/>
      </g>
     </g>
     <g id="text_14">
      <!-- 3.0 -->
      <g transform="translate(34.696875 139.711804)scale(0.1 -0.1)">
       <defs>
        <path id="DejaVuSans-33" d="M 2597 2516 
Q 3050 2419 3304 2112 
Q 3559 1806 3559 1356 
Q 3559 666 3084 287 
Q 2609 -91 1734 -91 
Q 1441 -91 1130 -33 
Q 819 25 488 141 
L 488 750 
Q 750 597 1062 519 
Q 1375 441 1716 441 
Q 2309 441 2620 675 
Q 2931 909 2931 1356 
Q 2931 1769 2642 2001 
Q 2353 2234 1838 2234 
L 1294 2234 
L 1294 2753 
L 1863 2753 
Q 2328 2753 2575 2939 
Q 2822 3125 2822 3475 
Q 2822 3834 2567 4026 
Q 2313 4219 1838 4219 
Q 1578 4219 1281 4162 
Q 984 4106 628 3988 
L 628 4550 
Q 988 4650 1302 4700 
Q 1616 4750 1894 4750 
Q 2613 4750 3031 4423 
Q 3450 4097 3450 3541 
Q 3450 3153 3228 2886 
Q 3006 2619 2597 2516 
z
" transform="scale(0.015625)"/>
       </defs>
       <use xlink:href="#DejaVuSans-33"/>
       <use xlink:href="#DejaVuSans-2e" x="63.623047"/>
       <use xlink:href="#DejaVuSans-30" x="95.410156"/>
      </g>
     </g>
    </g>
    <g id="ytick_7">
     <g id="line2d_15">
      <g>
       <use xlink:href="#m5c9e0a3081" x="57.6" y="102.378146" style="stroke: #000000; stroke-width: 0.8"/>
      </g>
     </g>
     <g id="text_15">
      <!-- 3.5 -->
      <g transform="translate(34.696875 106.177365)scale(0.1 -0.1)">
       <use xlink:href="#DejaVuSans-33"/>
       <use xlink:href="#DejaVuSans-2e" x="63.623047"/>
       <use xlink:href="#DejaVuSans-35" x="95.410156"/>
      </g>
     </g>
    </g>
    <g id="ytick_8">
     <g id="line2d_16">
      <g>
       <use xlink:href="#m5c9e0a3081" x="57.6" y="68.843707" style="stroke: #000000; stroke-width: 0.8"/>
      </g>
     </g>
     <g id="text_16">
      <!-- 4.0 -->
      <g transform="translate(34.696875 72.642926)scale(0.1 -0.1)">
       <defs>
        <path id="DejaVuSans-34" d="M 2419 4116 
L 825 1625 
L 2419 1625 
L 2419 4116 
z
M 2253 4666 
L 3047 4666 
L 3047 1625 
L 3713 1625 
L 3713 1100 
L 3047 1100 
L 3047 0 
L 2419 0 
L 2419 1100 
L 313 1100 
L 313 1709 
L 2253 4666 
z
" transform="scale(0.015625)"/>
       </defs>
       <use xlink:href="#DejaVuSans-34"/>
       <use xlink:href="#DejaVuSans-2e" x="63.623047"/>
       <use xlink:href="#DejaVuSans-30" x="95.410156"/>
      </g>
     </g>
    </g>
   </g>
   <g id="line2d_17">
    <path d="M 73.832727 81.431415 
L 74.866492 81.10361 
L 75.637434 82.087024 
L 76.653677 81.75922 
L 77.704963 83.726049 
L 78.721206 83.398244 
L 79.719927 83.726049 
L 80.49087 84.381659 
L 81.524634 84.381659 
L 82.540877 85.365073 
L 83.55712 84.053854 
L 85.344306 84.053854 
L 87.149013 86.348488 
L 88.46312 86.020683 
L 89.496884 86.020683 
L 90.267827 87.004098 
L 91.301591 87.987512 
L 92.335356 86.676293 
L 93.36912 87.659707 
L 94.420406 87.987512 
L 95.436648 90.282146 
L 96.487934 91.265561 
L 97.258877 90.609951 
L 98.537941 91.921171 
L 101.70932 89.298732 
L 102.480263 87.659707 
L 103.514027 87.659707 
L 104.53027 86.676293 
L 105.581555 87.659707 
L 106.61532 84.381659 
L 107.386263 83.398244 
L 108.682848 78.808976 
L 110.767898 77.169951 
L 111.538841 77.825561 
L 112.555084 77.825561 
L 113.60637 77.169951 
L 114.622612 78.808976 
L 115.708941 80.775805 
L 116.742705 83.070439 
L 117.77647 85.037268 
L 118.827755 88.643122 
L 119.843998 90.937756 
L 120.614941 95.854829 
L 121.648705 96.838244 
L 122.682469 104.049951 
L 126.817527 196.818732 
L 129.953862 117.162146 
L 131.005148 104.377756 
L 131.776091 97.493854 
L 132.792334 96.838244 
L 134.106441 96.182634 
L 134.877384 93.560195 
L 135.893626 93.23239 
L 136.944912 98.477268 
L 137.961155 101.099707 
L 139.012441 102.410927 
L 140.799626 106.344585 
L 141.885955 109.950439 
L 146.809476 264.346537 
L 151.207355 115.523122 
L 151.978298 106.01678 
L 154.045826 99.132878 
L 155.114633 101.099707 
L 156.165919 102.738732 
L 157.199683 102.083122 
L 159.267212 104.705561 
L 160.300976 104.705561 
L 161.071919 106.67239 
L 162.105683 113.884098 
L 167.537326 295.488 
L 170.65614 107.000195 
L 171.427083 93.23239 
L 172.443326 82.742634 
L 173.23179 80.120195 
L 174.265554 86.676293 
L 175.281797 88.970927 
L 176.05274 84.381659 
L 177.068983 87.659707 
L 178.102747 89.626537 
L 178.87369 92.904585 
L 180.152754 95.854829 
L 180.923697 100.116293 
L 182.342933 108.63922 
L 183.359176 131.585561 
L 188.230133 252.873366 
L 193.872033 53.568 
L 195.466483 56.190439 
L 196.237426 58.485073 
L 197.288711 61.107512 
L 198.322476 62.090927 
L 199.093418 65.368976 
L 200.390004 64.385561 
L 202.194711 66.680195 
L 203.210954 66.680195 
L 204.26224 67.008 
L 205.296004 68.974829 
L 206.34729 66.35239 
L 207.363533 69.302634 
L 208.449861 67.991415 
L 209.483625 68.31922 
L 211.551154 70.941659 
L 212.584918 72.580683 
L 214.389625 68.647024 
L 215.440911 70.941659 
L 216.737497 72.252878 
L 217.50844 70.286049 
L 218.524682 72.580683 
L 219.558447 71.597268 
L 220.609732 71.925073 
L 221.678539 72.580683 
L 222.729825 72.580683 
L 223.746068 74.547512 
L 224.517011 74.547512 
L 225.550775 74.875317 
L 226.584539 73.236293 
L 227.618304 74.875317 
L 228.652068 74.219707 
L 229.703354 74.875317 
L 230.719597 76.186537 
L 231.770882 75.858732 
L 232.787125 76.514341 
L 233.820889 75.530927 
L 234.907218 77.169951 
L 235.940982 76.514341 
L 236.992268 78.481171 
L 238.008511 77.497756 
L 239.042275 78.153366 
L 239.813218 78.808976 
L 240.846982 78.153366 
L 241.880746 78.481171 
L 242.651689 79.464585 
L 243.948275 80.448 
L 244.982039 78.808976 
L 246.804268 80.448 
L 248.135896 78.808976 
L 249.169661 81.431415 
L 250.203425 81.75922 
L 250.974368 78.481171 
L 252.025653 78.808976 
L 253.059418 81.431415 
L 254.110703 82.087024 
L 254.881646 82.414829 
L 255.91541 81.75922 
L 257.211996 83.726049 
L 258.24576 82.087024 
L 259.016703 82.087024 
L 260.365853 81.75922 
L 261.417139 83.726049 
L 262.450903 82.742634 
L 263.239367 83.398244 
L 264.518432 82.087024 
L 265.552196 83.070439 
L 266.34066 82.742634 
L 267.356903 83.070439 
L 268.408189 85.037268 
L 269.459475 83.398244 
L 270.475717 84.381659 
L 271.264182 86.020683 
L 272.59581 85.365073 
L 273.629574 86.348488 
L 274.645817 86.676293 
L 275.66206 86.348488 
L 276.433003 86.676293 
L 277.484289 87.659707 
L 278.500532 87.004098 
L 279.271474 88.315317 
L 280.305239 89.298732 
L 282.355246 88.315317 
L 283.126189 90.282146 
L 284.072346 88.643122 
L 286.139874 88.643122 
L 287.909539 88.970927 
L 289.661681 90.609951 
L 291.431346 89.954341 
L 293.481353 91.265561 
L 295.268538 90.609951 
L 297.038203 90.282146 
L 297.668974 90.937756 
L 299.158296 92.248976 
L 299.754024 92.248976 
L 301.225824 91.921171 
L 303.608738 90.937756 
L 305.378403 92.248976 
L 307.463453 93.23239 
L 309.233117 91.593366 
L 313.736124 94.871415 
L 316.50451 94.215805 
L 317.97631 92.904585 
L 318.572038 94.215805 
L 320.359224 95.854829 
L 322.461795 93.888 
L 324.827188 95.19922 
L 326.666938 95.19922 
L 328.716945 95.527024 
L 330.521652 96.510439 
L 332.606702 95.527024 
L 334.972095 96.510439 
L 336.741759 97.821659 
L 338.826809 97.166049 
L 340.946902 94.871415 
L 343.014431 98.149463 
L 346.886666 98.149463 
L 348.954195 99.132878 
L 351.021723 100.444098 
L 353.106773 99.460683 
L 354.841395 99.460683 
L 356.330716 100.771902 
L 356.926445 100.771902 
L 358.71363 101.427512 
L 360.500816 100.444098 
L 362.866209 101.427512 
L 364.933737 101.427512 
L 367.369216 103.722146 
L 368.858537 101.755317 
L 370.926066 101.755317 
L 373.291459 101.427512 
L 375.078644 102.410927 
L 376.86583 103.066537 
L 378.95088 102.738732 
L 381.368837 102.738732 
L 383.401323 103.394341 
L 384.59278 104.049951 
L 385.20603 103.722146 
L 386.958173 103.722146 
L 389.025701 103.394341 
L 390.777844 105.033366 
L 392.547509 103.394341 
L 394.317173 105.361171 
L 395.245808 106.01678 
L 396.717608 105.361171 
L 398.487273 105.361171 
L 398.487273 105.361171 
" clip-path="url(#p435f7ed2f4)" style="fill: none; stroke: #1f77b4; stroke-width: 1.5; stroke-linecap: square"/>
   </g>
   <g id="patch_3">
    <path d="M 57.6 307.584 
L 57.6 41.472 
" style="fill: none; stroke: #000000; stroke-width: 0.8; stroke-linejoin: miter; stroke-linecap: square"/>
   </g>
   <g id="patch_4">
    <path d="M 414.72 307.584 
L 414.72 41.472 
" style="fill: none; stroke: #000000; stroke-width: 0.8; stroke-linejoin: miter; stroke-linecap: square"/>
   </g>
   <g id="patch_5">
    <path d="M 57.6 307.584 
L 414.72 307.584 
" style="fill: none; stroke: #000000; stroke-width: 0.8; stroke-linejoin: miter; stroke-linecap: square"/>
   </g>
   <g id="patch_6">
    <path d="M 57.6 41.472 
L 414.72 41.472 
" style="fill: none; stroke: #000000; stroke-width: 0.8; stroke-linejoin: miter; stroke-linecap: square"/>
   </g>
   <g id="text_17">
    <!-- 1234 -->
    <g transform="translate(220.89 35.472)scale(0.12 -0.12)">
     <use xlink:href="#DejaVuSans-31"/>
     <use xlink:href="#DejaVuSans-32" x="63.623047"/>
     <use xlink:href="#DejaVuSans-33" x="127.246094"/>
     <use xlink:href="#DejaVuSans-34" x="190.869141"/>
    </g>
   </g>
  </g>
 </g>
 <defs>
  <clipPath id="p435f7ed2f4">
   <rect x="57.6" y="41.472" width="357.12" height="266.112"/>
  </clipPath>
 </defs>
</svg>
