<?xml version="1.0" encoding="utf-8" standalone="no"?>
<!DOCTYPE svg PUBLIC "-//W3C//DTD SVG 1.1//EN"
  "http://www.w3.org/Graphics/SVG/1.1/DTD/svg11.dtd">
<svg xmlns:xlink="http://www.w3.org/1999/xlink" width="460.8pt" height="345.6pt" viewBox="0 0 460.8 345.6" xmlns="http://www.w3.org/2000/svg" version="1.1">
 <metadata>
  <rdf:RDF xmlns:dc="http://purl.org/dc/elements/1.1/" xmlns:cc="http://creativecommons.org/ns#" xmlns:rdf="http://www.w3.org/1999/02/22-rdf-syntax-ns#">
   <cc:Work>
    <dc:type rdf:resource="http://purl.org/dc/dcmitype/StillImage"/>
    <dc:date>2022-09-30T20:00:08.086374</dc:date>
    <dc:format>image/svg+xml</dc:format>
    <dc:creator>
     <cc:Agent>
      <dc:title>Matplotlib v3.5.3, https://matplotlib.org/</dc:title>
     </cc:Agent>
    </dc:creator>
   </cc:Work>
  </rdf:RDF>
 </metadata>
 <defs>
  <style type="text/css">*{stroke-linejoin: round; stroke-linecap: butt}</style>
 </defs>
 <g id="figure_1">
  <g id="patch_1">
   <path d="M 0 345.6 
L 460.8 345.6 
L 460.8 0 
L 0 0 
z
" style="fill: #ffffff"/>
  </g>
  <g id="axes_1">
   <g id="patch_2">
    <path d="M 57.6 307.584 
L 414.72 307.584 
L 414.72 41.472 
L 57.6 41.472 
z
" style="fill: #ffffff"/>
   </g>
   <g id="matplotlib.axis_1">
    <g id="xtick_1">
     <g id="line2d_1">
      <defs>
       <path id="mebf7ba85eb" d="M 0 0 
L 0 3.5 
" style="stroke: #000000; stroke-width: 0.8"/>
      </defs>
      <g>
       <use xlink:href="#mebf7ba85eb" x="73.384447" y="307.584" style="stroke: #000000; stroke-width: 0.8"/>
      </g>
     </g>
     <g id="text_1">
      <!-- 0 -->
      <g transform="translate(70.203197 322.182437)scale(0.1 -0.1)">
       <defs>
        <path id="DejaVuSans-30" d="M 2034 4250 
Q 1547 4250 1301 3770 
Q 1056 3291 1056 2328 
Q 1056 1369 1301 889 
Q 1547 409 2034 409 
Q 2525 409 2770 889 
Q 3016 1369 3016 2328 
Q 3016 3291 2770 3770 
Q 2525 4250 2034 4250 
z
M 2034 4750 
Q 2819 4750 3233 4129 
Q 3647 3509 3647 2328 
Q 3647 1150 3233 529 
Q 2819 -91 2034 -91 
Q 1250 -91 836 529 
Q 422 1150 422 2328 
Q 422 3509 836 4129 
Q 1250 4750 2034 4750 
z
" transform="scale(0.015625)"/>
       </defs>
       <use xlink:href="#DejaVuSans-30"/>
      </g>
     </g>
    </g>
    <g id="xtick_2">
     <g id="line2d_2">
      <g>
       <use xlink:href="#mebf7ba85eb" x="123.193368" y="307.584" style="stroke: #000000; stroke-width: 0.8"/>
      </g>
     </g>
     <g id="text_2">
      <!-- 5 -->
      <g transform="translate(120.012118 322.182437)scale(0.1 -0.1)">
       <defs>
        <path id="DejaVuSans-35" d="M 691 4666 
L 3169 4666 
L 3169 4134 
L 1269 4134 
L 1269 2991 
Q 1406 3038 1543 3061 
Q 1681 3084 1819 3084 
Q 2600 3084 3056 2656 
Q 3513 2228 3513 1497 
Q 3513 744 3044 326 
Q 2575 -91 1722 -91 
Q 1428 -91 1123 -41 
Q 819 9 494 109 
L 494 744 
Q 775 591 1075 516 
Q 1375 441 1709 441 
Q 2250 441 2565 725 
Q 2881 1009 2881 1497 
Q 2881 1984 2565 2268 
Q 2250 2553 1709 2553 
Q 1456 2553 1204 2497 
Q 953 2441 691 2322 
L 691 4666 
z
" transform="scale(0.015625)"/>
       </defs>
       <use xlink:href="#DejaVuSans-35"/>
      </g>
     </g>
    </g>
    <g id="xtick_3">
     <g id="line2d_3">
      <g>
       <use xlink:href="#mebf7ba85eb" x="173.002288" y="307.584" style="stroke: #000000; stroke-width: 0.8"/>
      </g>
     </g>
     <g id="text_3">
      <!-- 10 -->
      <g transform="translate(166.639788 322.182437)scale(0.1 -0.1)">
       <defs>
        <path id="DejaVuSans-31" d="M 794 531 
L 1825 531 
L 1825 4091 
L 703 3866 
L 703 4441 
L 1819 4666 
L 2450 4666 
L 2450 531 
L 3481 531 
L 3481 0 
L 794 0 
L 794 531 
z
" transform="scale(0.015625)"/>
       </defs>
       <use xlink:href="#DejaVuSans-31"/>
       <use xlink:href="#DejaVuSans-30" x="63.623047"/>
      </g>
     </g>
    </g>
    <g id="xtick_4">
     <g id="line2d_4">
      <g>
       <use xlink:href="#mebf7ba85eb" x="222.811209" y="307.584" style="stroke: #000000; stroke-width: 0.8"/>
      </g>
     </g>
     <g id="text_4">
      <!-- 15 -->
      <g transform="translate(216.448709 322.182437)scale(0.1 -0.1)">
       <use xlink:href="#DejaVuSans-31"/>
       <use xlink:href="#DejaVuSans-35" x="63.623047"/>
      </g>
     </g>
    </g>
    <g id="xtick_5">
     <g id="line2d_5">
      <g>
       <use xlink:href="#mebf7ba85eb" x="272.62013" y="307.584" style="stroke: #000000; stroke-width: 0.8"/>
      </g>
     </g>
     <g id="text_5">
      <!-- 20 -->
      <g transform="translate(266.25763 322.182437)scale(0.1 -0.1)">
       <defs>
        <path id="DejaVuSans-32" d="M 1228 531 
L 3431 531 
L 3431 0 
L 469 0 
L 469 531 
Q 828 903 1448 1529 
Q 2069 2156 2228 2338 
Q 2531 2678 2651 2914 
Q 2772 3150 2772 3378 
Q 2772 3750 2511 3984 
Q 2250 4219 1831 4219 
Q 1534 4219 1204 4116 
Q 875 4013 500 3803 
L 500 4441 
Q 881 4594 1212 4672 
Q 1544 4750 1819 4750 
Q 2544 4750 2975 4387 
Q 3406 4025 3406 3419 
Q 3406 3131 3298 2873 
Q 3191 2616 2906 2266 
Q 2828 2175 2409 1742 
Q 1991 1309 1228 531 
z
" transform="scale(0.015625)"/>
       </defs>
       <use xlink:href="#DejaVuSans-32"/>
       <use xlink:href="#DejaVuSans-30" x="63.623047"/>
      </g>
     </g>
    </g>
    <g id="xtick_6">
     <g id="line2d_6">
      <g>
       <use xlink:href="#mebf7ba85eb" x="322.429051" y="307.584" style="stroke: #000000; stroke-width: 0.8"/>
      </g>
     </g>
     <g id="text_6">
      <!-- 25 -->
      <g transform="translate(316.066551 322.182437)scale(0.1 -0.1)">
       <use xlink:href="#DejaVuSans-32"/>
       <use xlink:href="#DejaVuSans-35" x="63.623047"/>
      </g>
     </g>
    </g>
    <g id="xtick_7">
     <g id="line2d_7">
      <g>
       <use xlink:href="#mebf7ba85eb" x="372.237971" y="307.584" style="stroke: #000000; stroke-width: 0.8"/>
      </g>
     </g>
     <g id="text_7">
      <!-- 30 -->
      <g transform="translate(365.875471 322.182437)scale(0.1 -0.1)">
       <defs>
        <path id="DejaVuSans-33" d="M 2597 2516 
Q 3050 2419 3304 2112 
Q 3559 1806 3559 1356 
Q 3559 666 3084 287 
Q 2609 -91 1734 -91 
Q 1441 -91 1130 -33 
Q 819 25 488 141 
L 488 750 
Q 750 597 1062 519 
Q 1375 441 1716 441 
Q 2309 441 2620 675 
Q 2931 909 2931 1356 
Q 2931 1769 2642 2001 
Q 2353 2234 1838 2234 
L 1294 2234 
L 1294 2753 
L 1863 2753 
Q 2328 2753 2575 2939 
Q 2822 3125 2822 3475 
Q 2822 3834 2567 4026 
Q 2313 4219 1838 4219 
Q 1578 4219 1281 4162 
Q 984 4106 628 3988 
L 628 4550 
Q 988 4650 1302 4700 
Q 1616 4750 1894 4750 
Q 2613 4750 3031 4423 
Q 3450 4097 3450 3541 
Q 3450 3153 3228 2886 
Q 3006 2619 2597 2516 
z
" transform="scale(0.015625)"/>
       </defs>
       <use xlink:href="#DejaVuSans-33"/>
       <use xlink:href="#DejaVuSans-30" x="63.623047"/>
      </g>
     </g>
    </g>
   </g>
   <g id="matplotlib.axis_2">
    <g id="ytick_1">
     <g id="line2d_8">
      <defs>
       <path id="mf81b9ee7ad" d="M 0 0 
L -3.5 0 
" style="stroke: #000000; stroke-width: 0.8"/>
      </defs>
      <g>
       <use xlink:href="#mf81b9ee7ad" x="57.6" y="299.36473" style="stroke: #000000; stroke-width: 0.8"/>
      </g>
     </g>
     <g id="text_8">
      <!-- 2.7 -->
      <g transform="translate(34.696875 303.163949)scale(0.1 -0.1)">
       <defs>
        <path id="DejaVuSans-2e" d="M 684 794 
L 1344 794 
L 1344 0 
L 684 0 
L 684 794 
z
" transform="scale(0.015625)"/>
        <path id="DejaVuSans-37" d="M 525 4666 
L 3525 4666 
L 3525 4397 
L 1831 0 
L 1172 0 
L 2766 4134 
L 525 4134 
L 525 4666 
z
" transform="scale(0.015625)"/>
       </defs>
       <use xlink:href="#DejaVuSans-32"/>
       <use xlink:href="#DejaVuSans-2e" x="63.623047"/>
       <use xlink:href="#DejaVuSans-37" x="95.410156"/>
      </g>
     </g>
    </g>
    <g id="ytick_2">
     <g id="line2d_9">
      <g>
       <use xlink:href="#mf81b9ee7ad" x="57.6" y="268.621357" style="stroke: #000000; stroke-width: 0.8"/>
      </g>
     </g>
     <g id="text_9">
      <!-- 2.8 -->
      <g transform="translate(34.696875 272.420575)scale(0.1 -0.1)">
       <defs>
        <path id="DejaVuSans-38" d="M 2034 2216 
Q 1584 2216 1326 1975 
Q 1069 1734 1069 1313 
Q 1069 891 1326 650 
Q 1584 409 2034 409 
Q 2484 409 2743 651 
Q 3003 894 3003 1313 
Q 3003 1734 2745 1975 
Q 2488 2216 2034 2216 
z
M 1403 2484 
Q 997 2584 770 2862 
Q 544 3141 544 3541 
Q 544 4100 942 4425 
Q 1341 4750 2034 4750 
Q 2731 4750 3128 4425 
Q 3525 4100 3525 3541 
Q 3525 3141 3298 2862 
Q 3072 2584 2669 2484 
Q 3125 2378 3379 2068 
Q 3634 1759 3634 1313 
Q 3634 634 3220 271 
Q 2806 -91 2034 -91 
Q 1263 -91 848 271 
Q 434 634 434 1313 
Q 434 1759 690 2068 
Q 947 2378 1403 2484 
z
M 1172 3481 
Q 1172 3119 1398 2916 
Q 1625 2713 2034 2713 
Q 2441 2713 2670 2916 
Q 2900 3119 2900 3481 
Q 2900 3844 2670 4047 
Q 2441 4250 2034 4250 
Q 1625 4250 1398 4047 
Q 1172 3844 1172 3481 
z
" transform="scale(0.015625)"/>
       </defs>
       <use xlink:href="#DejaVuSans-32"/>
       <use xlink:href="#DejaVuSans-2e" x="63.623047"/>
       <use xlink:href="#DejaVuSans-38" x="95.410156"/>
      </g>
     </g>
    </g>
    <g id="ytick_3">
     <g id="line2d_10">
      <g>
       <use xlink:href="#mf81b9ee7ad" x="57.6" y="237.877983" style="stroke: #000000; stroke-width: 0.8"/>
      </g>
     </g>
     <g id="text_10">
      <!-- 2.9 -->
      <g transform="translate(34.696875 241.677201)scale(0.1 -0.1)">
       <defs>
        <path id="DejaVuSans-39" d="M 703 97 
L 703 672 
Q 941 559 1184 500 
Q 1428 441 1663 441 
Q 2288 441 2617 861 
Q 2947 1281 2994 2138 
Q 2813 1869 2534 1725 
Q 2256 1581 1919 1581 
Q 1219 1581 811 2004 
Q 403 2428 403 3163 
Q 403 3881 828 4315 
Q 1253 4750 1959 4750 
Q 2769 4750 3195 4129 
Q 3622 3509 3622 2328 
Q 3622 1225 3098 567 
Q 2575 -91 1691 -91 
Q 1453 -91 1209 -44 
Q 966 3 703 97 
z
M 1959 2075 
Q 2384 2075 2632 2365 
Q 2881 2656 2881 3163 
Q 2881 3666 2632 3958 
Q 2384 4250 1959 4250 
Q 1534 4250 1286 3958 
Q 1038 3666 1038 3163 
Q 1038 2656 1286 2365 
Q 1534 2075 1959 2075 
z
" transform="scale(0.015625)"/>
       </defs>
       <use xlink:href="#DejaVuSans-32"/>
       <use xlink:href="#DejaVuSans-2e" x="63.623047"/>
       <use xlink:href="#DejaVuSans-39" x="95.410156"/>
      </g>
     </g>
    </g>
    <g id="ytick_4">
     <g id="line2d_11">
      <g>
       <use xlink:href="#mf81b9ee7ad" x="57.6" y="207.134609" style="stroke: #000000; stroke-width: 0.8"/>
      </g>
     </g>
     <g id="text_11">
      <!-- 3.0 -->
      <g transform="translate(34.696875 210.933827)scale(0.1 -0.1)">
       <use xlink:href="#DejaVuSans-33"/>
       <use xlink:href="#DejaVuSans-2e" x="63.623047"/>
       <use xlink:href="#DejaVuSans-30" x="95.410156"/>
      </g>
     </g>
    </g>
    <g id="ytick_5">
     <g id="line2d_12">
      <g>
       <use xlink:href="#mf81b9ee7ad" x="57.6" y="176.391235" style="stroke: #000000; stroke-width: 0.8"/>
      </g>
     </g>
     <g id="text_12">
      <!-- 3.1 -->
      <g transform="translate(34.696875 180.190454)scale(0.1 -0.1)">
       <use xlink:href="#DejaVuSans-33"/>
       <use xlink:href="#DejaVuSans-2e" x="63.623047"/>
       <use xlink:href="#DejaVuSans-31" x="95.410156"/>
      </g>
     </g>
    </g>
    <g id="ytick_6">
     <g id="line2d_13">
      <g>
       <use xlink:href="#mf81b9ee7ad" x="57.6" y="145.647861" style="stroke: #000000; stroke-width: 0.8"/>
      </g>
     </g>
     <g id="text_13">
      <!-- 3.2 -->
      <g transform="translate(34.696875 149.44708)scale(0.1 -0.1)">
       <use xlink:href="#DejaVuSans-33"/>
       <use xlink:href="#DejaVuSans-2e" x="63.623047"/>
       <use xlink:href="#DejaVuSans-32" x="95.410156"/>
      </g>
     </g>
    </g>
    <g id="ytick_7">
     <g id="line2d_14">
      <g>
       <use xlink:href="#mf81b9ee7ad" x="57.6" y="114.904487" style="stroke: #000000; stroke-width: 0.8"/>
      </g>
     </g>
     <g id="text_14">
      <!-- 3.3 -->
      <g transform="translate(34.696875 118.703706)scale(0.1 -0.1)">
       <use xlink:href="#DejaVuSans-33"/>
       <use xlink:href="#DejaVuSans-2e" x="63.623047"/>
       <use xlink:href="#DejaVuSans-33" x="95.410156"/>
      </g>
     </g>
    </g>
    <g id="ytick_8">
     <g id="line2d_15">
      <g>
       <use xlink:href="#mf81b9ee7ad" x="57.6" y="84.161113" style="stroke: #000000; stroke-width: 0.8"/>
      </g>
     </g>
     <g id="text_15">
      <!-- 3.4 -->
      <g transform="translate(34.696875 87.960332)scale(0.1 -0.1)">
       <defs>
        <path id="DejaVuSans-34" d="M 2419 4116 
L 825 1625 
L 2419 1625 
L 2419 4116 
z
M 2253 4666 
L 3047 4666 
L 3047 1625 
L 3713 1625 
L 3713 1100 
L 3047 1100 
L 3047 0 
L 2419 0 
L 2419 1100 
L 313 1100 
L 313 1709 
L 2253 4666 
z
" transform="scale(0.015625)"/>
       </defs>
       <use xlink:href="#DejaVuSans-33"/>
       <use xlink:href="#DejaVuSans-2e" x="63.623047"/>
       <use xlink:href="#DejaVuSans-34" x="95.410156"/>
      </g>
     </g>
    </g>
    <g id="ytick_9">
     <g id="line2d_16">
      <g>
       <use xlink:href="#mf81b9ee7ad" x="57.6" y="53.417739" style="stroke: #000000; stroke-width: 0.8"/>
      </g>
     </g>
     <g id="text_16">
      <!-- 3.5 -->
      <g transform="translate(34.696875 57.216958)scale(0.1 -0.1)">
       <use xlink:href="#DejaVuSans-33"/>
       <use xlink:href="#DejaVuSans-2e" x="63.623047"/>
       <use xlink:href="#DejaVuSans-35" x="95.410156"/>
      </g>
     </g>
    </g>
   </g>
   <g id="line2d_17">
    <path d="M 73.832727 119.682783 
L 74.051887 125.693217 
L 74.191352 119.682783 
L 74.35074 133.206261 
L 74.490205 158.750609 
L 74.639632 124.190609 
L 74.789059 125.693217 
L 75.087912 152.740174 
L 75.227377 122.688 
L 75.366842 124.190609 
L 75.526231 148.232348 
L 75.665696 140.719304 
L 75.805161 121.185391 
L 75.964549 122.688 
L 76.104014 146.729739 
L 76.243479 133.206261 
L 76.542333 127.195826 
L 76.681798 149.734957 
L 76.980651 119.682783 
L 77.279505 151.237565 
L 77.558435 116.677565 
L 77.857288 145.22713 
L 78.006715 119.682783 
L 78.166103 119.682783 
L 78.445033 151.237565 
L 78.604422 119.682783 
L 78.743887 119.682783 
L 78.883352 146.729739 
L 79.04274 146.729739 
L 79.182205 115.174957 
L 79.481059 149.734957 
L 79.779912 115.174957 
L 80.058842 146.729739 
L 80.357696 118.180174 
L 80.497161 128.698435 
L 80.656549 152.740174 
L 80.935479 121.185391 
L 81.234333 146.729739 
L 81.373798 124.190609 
L 81.533186 124.190609 
L 81.812116 145.22713 
L 81.971505 116.677565 
L 82.11097 121.185391 
L 82.250435 146.729739 
L 82.429747 148.232348 
L 82.738562 115.174957 
L 83.027454 152.740174 
L 83.186843 124.190609 
L 83.326308 121.185391 
L 83.625161 151.237565 
L 83.774588 125.693217 
L 83.914053 121.185391 
L 84.212906 154.242783 
L 84.51176 122.688 
L 84.800652 151.237565 
L 85.099505 124.190609 
L 85.248932 148.232348 
L 85.398359 152.740174 
L 85.547785 122.688 
L 85.68725 122.688 
L 85.986104 151.237565 
L 86.145492 119.682783 
L 86.294919 122.688 
L 86.434384 149.734957 
L 86.593773 152.740174 
L 86.733238 125.693217 
L 86.882665 122.688 
L 87.181518 158.750609 
L 87.330945 127.195826 
L 87.480372 119.682783 
L 87.769263 149.734957 
L 88.068117 121.185391 
L 88.36697 155.745391 
L 88.516397 119.682783 
L 88.655862 128.698435 
L 88.815251 146.729739 
L 88.954716 143.724522 
L 89.114104 125.693217 
L 89.253569 124.190609 
L 89.402996 143.724522 
L 89.552423 143.724522 
L 89.701849 125.693217 
L 89.841314 128.698435 
L 90.000703 151.237565 
L 90.170053 157.248 
L 90.468907 122.688 
L 90.757799 154.242783 
L 91.056652 121.185391 
L 91.355506 154.242783 
L 91.504932 128.698435 
L 91.664321 121.185391 
L 91.953213 154.242783 
L 92.252066 124.190609 
L 92.55092 155.745391 
L 92.700346 128.698435 
L 92.839811 127.195826 
L 93.138665 152.740174 
L 93.288092 125.693217 
L 93.437518 121.185391 
L 93.72641 157.248 
L 93.885799 121.185391 
L 94.025264 121.185391 
L 94.324117 149.734957 
L 94.473544 116.677565 
L 94.613009 119.682783 
L 94.772398 143.724522 
L 94.911863 143.724522 
L 95.071251 116.677565 
L 95.210716 118.180174 
L 95.50957 148.232348 
L 95.658996 109.164522 
L 95.798461 116.677565 
L 95.95785 136.211478 
L 96.097315 136.211478 
L 96.246742 116.677565 
L 96.40613 113.672348 
L 96.545595 137.714087 
L 96.695022 142.221913 
L 96.844449 112.169739 
L 96.993875 122.688 
L 97.143302 122.688 
L 97.292729 139.216696 
L 97.581621 113.672348 
L 97.91036 145.22713 
L 98.209213 112.169739 
L 98.508067 145.22713 
L 98.796958 115.174957 
L 98.946385 121.185391 
L 99.095812 142.221913 
L 99.235277 113.672348 
L 99.394665 107.661913 
L 99.683557 146.729739 
L 99.982411 110.66713 
L 100.281264 137.714087 
L 100.420729 106.159304 
L 100.570156 100.14887 
L 100.719583 133.206261 
L 100.869009 134.70887 
L 101.167863 101.651478 
L 101.466717 136.211478 
L 101.755608 98.646261 
L 102.054462 127.195826 
L 102.203889 107.661913 
L 102.353315 106.159304 
L 102.502742 127.195826 
L 102.642207 128.698435 
L 102.941061 94.138435 
L 103.090487 122.688 
L 103.239914 119.682783 
L 103.528806 95.641043 
L 103.688194 125.693217 
L 103.827659 119.682783 
L 103.987048 95.641043 
L 104.126513 97.143652 
L 104.27594 127.195826 
L 104.574793 92.635826 
L 104.714258 95.641043 
L 104.873647 124.190609 
L 105.162538 89.630609 
L 105.341851 82.117565 
L 105.630742 119.682783 
L 105.790131 92.635826 
L 105.929596 88.128 
L 106.079023 107.661913 
L 106.228449 112.169739 
L 106.377876 104.656696 
L 106.517341 85.122783 
L 106.67673 104.656696 
L 106.816195 107.661913 
L 107.115048 74.604522 
L 107.264475 94.138435 
L 107.413902 98.646261 
L 107.563328 73.101913 
L 107.702793 70.096696 
L 107.862182 80.614957 
L 108.001647 82.117565 
L 108.151074 62.583652 
L 108.3005 59.578435 
L 108.449927 83.620174 
L 108.589392 86.625391 
L 108.748781 53.568 
L 108.888246 62.583652 
L 109.037672 82.117565 
L 109.187099 79.112348 
L 109.336526 56.573217 
L 109.475991 61.081043 
L 109.63538 91.133217 
L 110.08366 61.081043 
L 110.233087 86.625391 
L 110.382513 79.112348 
L 110.53194 64.086261 
L 110.671405 67.091478 
L 110.830794 94.138435 
L 110.970259 76.10713 
L 111.119685 71.599304 
L 111.269112 61.081043 
L 111.418539 98.646261 
L 111.717392 68.594087 
L 111.856857 68.594087 
L 112.006284 94.138435 
L 112.305138 67.091478 
L 112.603991 106.159304 
L 112.743456 86.625391 
L 112.922768 77.609739 
L 113.072195 76.10713 
L 113.21166 104.656696 
L 113.371049 100.14887 
L 113.510514 79.112348 
L 113.65994 77.609739 
L 113.819329 110.66713 
L 113.958794 115.174957 
L 114.108221 89.630609 
L 114.257647 85.122783 
L 114.407074 110.66713 
L 114.556501 115.174957 
L 114.715889 79.112348 
L 114.855354 86.625391 
L 115.154208 116.677565 
L 115.343482 113.672348 
L 115.50287 95.641043 
L 115.642335 95.641043 
L 115.941189 121.185391 
L 116.090616 95.641043 
L 116.230081 97.143652 
L 116.389469 124.190609 
L 116.528934 119.682783 
L 116.678361 95.641043 
L 116.837749 92.635826 
L 116.977214 115.174957 
L 117.126641 119.682783 
L 117.276068 91.133217 
L 117.425495 94.138435 
L 117.56496 136.211478 
L 117.863813 95.641043 
L 118.023202 98.646261 
L 118.162667 131.703652 
L 118.312094 121.185391 
L 118.471482 94.138435 
L 118.610947 98.646261 
L 118.760374 125.693217 
L 118.909801 128.698435 
L 119.059227 101.651478 
L 119.208654 104.656696 
L 119.368043 131.703652 
L 119.507508 125.693217 
L 119.656934 110.66713 
L 119.806361 110.66713 
L 119.955788 137.714087 
L 120.095253 142.221913 
L 120.254641 116.677565 
L 120.394106 118.180174 
L 120.543533 152.740174 
L 120.722845 164.761043 
L 120.872272 136.211478 
L 121.021699 131.703652 
L 121.310591 173.776696 
L 121.469979 163.258435 
L 121.609444 172.274087 
L 121.908298 226.368 
L 122.197189 190.305391 
L 122.496043 211.341913 
L 122.794896 151.237565 
L 122.944323 175.279304 
L 123.083788 176.781913 
L 123.243177 137.714087 
L 123.382642 134.70887 
L 123.691457 169.26887 
L 123.840884 136.211478 
L 123.99031 133.206261 
L 124.279202 158.750609 
L 124.438591 128.698435 
L 124.578056 128.698435 
L 124.876909 164.761043 
L 125.026336 131.703652 
L 125.165801 127.195826 
L 125.464655 160.253217 
L 125.614081 128.698435 
L 125.763508 131.703652 
L 125.912935 160.253217 
L 126.062362 166.263652 
L 126.211788 130.201043 
L 126.361215 130.201043 
L 126.50068 163.258435 
L 126.660069 163.258435 
L 126.799534 130.201043 
L 126.958922 136.211478 
L 127.247814 164.761043 
L 127.397241 130.201043 
L 127.546667 130.201043 
L 127.686132 161.755826 
L 127.845521 158.750609 
L 127.984986 134.70887 
L 128.323687 148.232348 
L 128.463152 169.26887 
L 128.762005 133.206261 
L 129.050897 172.274087 
L 129.339789 134.70887 
L 129.638642 182.792348 
L 129.778107 143.724522 
L 129.937496 137.714087 
L 130.226387 172.274087 
L 130.375814 142.221913 
L 130.515279 146.729739 
L 130.664706 178.284522 
L 130.814133 167.766261 
L 130.963559 139.216696 
L 131.103024 148.232348 
L 131.252451 173.776696 
L 131.401878 161.755826 
L 131.541343 136.211478 
L 131.840196 185.797565 
L 132.13905 145.22713 
L 132.278515 157.248 
L 132.41798 197.818435 
L 132.716833 152.740174 
L 133.025649 203.82887 
L 133.31454 170.771478 
L 133.603432 233.881043 
L 133.902286 206.834087 
L 134.041751 218.854957 
L 134.201139 209.839304 
L 134.480069 184.294957 
L 134.639458 217.352348 
L 134.778923 199.321043 
L 134.918388 164.761043 
L 135.077776 170.771478 
L 135.217241 208.336696 
L 135.516095 155.745391 
L 135.984299 184.294957 
L 136.123764 149.734957 
L 136.263229 151.237565 
L 136.422617 173.776696 
L 136.562082 170.771478 
L 136.701547 143.724522 
L 136.860936 154.242783 
L 137.000401 182.792348 
L 137.299254 148.232348 
L 137.448681 152.740174 
L 137.608069 176.781913 
L 137.886999 149.734957 
L 138.046388 157.248 
L 138.185853 179.78713 
L 138.484706 137.714087 
L 138.773598 172.274087 
L 139.06249 142.221913 
L 139.361343 176.781913 
L 139.500808 145.22713 
L 139.650235 145.22713 
L 139.799662 167.766261 
L 139.949089 172.274087 
L 140.088554 143.724522 
L 140.23798 152.740174 
L 140.387407 170.771478 
L 140.526872 172.274087 
L 140.676299 143.724522 
L 140.825726 154.242783 
L 140.975152 184.294957 
L 141.264044 149.734957 
L 141.413471 160.253217 
L 141.562898 188.802783 
L 141.861751 149.734957 
L 142.150643 190.305391 
L 142.449496 163.258435 
L 142.588961 172.274087 
L 142.74835 191.808 
L 142.887815 161.755826 
L 143.02728 155.745391 
L 143.356019 197.818435 
L 143.654872 155.745391 
L 143.794337 160.253217 
L 143.953726 199.321043 
L 144.242618 160.253217 
L 144.392044 167.766261 
L 144.541471 199.321043 
L 144.840325 163.258435 
L 144.989751 172.274087 
L 145.129216 194.813217 
L 145.288605 188.802783 
L 145.42807 167.766261 
L 145.577497 179.78713 
L 145.726923 206.834087 
L 146.015815 181.289739 
L 146.314669 208.336696 
L 146.623484 178.284522 
L 146.772911 187.300174 
L 146.922338 221.860174 
L 147.211229 181.289739 
L 147.510083 223.362783 
L 147.808936 182.792348 
L 148.097828 230.875826 
L 148.257217 202.326261 
L 148.396682 206.834087 
L 148.695535 274.451478 
L 148.984427 244.399304 
L 149.28328 274.451478 
L 149.582134 205.331478 
L 149.890949 233.881043 
L 150.179841 188.802783 
L 150.478695 224.865391 
L 150.61816 191.808 
L 150.777548 188.802783 
L 150.946898 188.802783 
L 151.096325 214.34713 
L 151.255714 212.844522 
L 151.395179 184.294957 
L 151.544605 184.294957 
L 151.694032 205.331478 
L 151.843459 200.823652 
L 151.982924 178.284522 
L 152.142312 176.781913 
L 152.281777 205.331478 
L 152.441166 196.315826 
L 152.580631 179.78713 
L 152.730058 182.792348 
L 152.879485 202.326261 
L 153.028911 194.813217 
L 153.168376 176.781913 
L 153.327765 181.289739 
L 153.46723 209.839304 
L 153.766083 169.26887 
L 153.91551 175.279304 
L 154.054975 200.823652 
L 154.353829 158.750609 
L 154.503255 167.766261 
L 154.652682 190.305391 
L 154.941574 157.248 
L 155.100962 169.26887 
L 155.240427 188.802783 
L 155.389854 160.253217 
L 155.539281 155.745391 
L 155.698669 158.750609 
L 155.848096 190.305391 
L 156.136988 148.232348 
L 156.296376 163.258435 
L 156.435841 187.300174 
L 156.734695 155.745391 
L 156.884122 167.766261 
L 157.023587 193.310609 
L 157.32244 154.242783 
L 157.631256 196.315826 
L 157.910186 163.258435 
L 158.219001 203.82887 
L 158.358466 172.274087 
L 158.687205 178.284522 
L 158.836631 196.315826 
L 159.125523 182.792348 
L 159.284912 182.792348 
L 159.424377 205.331478 
L 159.72323 187.300174 
L 159.872657 191.808 
L 160.012122 215.849739 
L 160.171511 208.336696 
L 160.320937 190.305391 
L 160.460402 193.310609 
L 160.619791 226.368 
L 160.759256 221.860174 
L 160.908683 202.326261 
L 161.058109 211.341913 
L 161.207536 239.891478 
L 161.50639 208.336696 
L 161.645855 221.860174 
L 161.805243 250.409739 
L 162.094135 215.849739 
L 162.243562 229.373217 
L 162.392988 254.917565 
L 162.691842 223.362783 
L 162.980734 269.943652 
L 163.13016 251.912348 
L 163.279587 253.414957 
L 163.419052 263.933217 
L 163.578441 295.488 
L 163.717906 275.954087 
L 163.867332 271.446261 
L 164.016759 278.959304 
L 164.166186 292.482783 
L 164.305651 235.383652 
L 164.465039 218.854957 
L 164.773855 247.404522 
L 165.052785 197.818435 
L 165.351638 226.368 
L 165.501065 191.808 
L 165.650492 188.802783 
L 165.939384 211.341913 
L 166.098772 181.289739 
L 166.268122 170.771478 
L 166.417549 178.284522 
L 166.566976 206.834087 
L 166.716403 200.823652 
L 166.855868 176.781913 
L 167.015256 182.792348 
L 167.154721 208.336696 
L 167.453575 170.771478 
L 167.59304 178.284522 
L 167.752428 200.823652 
L 168.04132 160.253217 
L 168.340174 191.808 
L 168.639027 148.232348 
L 168.927919 191.808 
L 169.077346 160.253217 
L 169.226772 152.740174 
L 169.376199 160.253217 
L 169.535588 187.300174 
L 169.824479 145.22713 
L 169.973906 154.242783 
L 170.123333 179.78713 
L 170.422186 140.719304 
L 170.72104 179.78713 
L 170.860505 145.22713 
L 171.009932 142.221913 
L 171.308785 167.766261 
L 171.44825 133.206261 
L 171.886569 163.258435 
L 172.185422 139.216696 
L 172.484276 169.26887 
L 172.633702 134.70887 
L 172.773167 137.714087 
L 172.932556 157.248 
L 173.072021 158.750609 
L 173.221448 130.201043 
L 173.370875 128.698435 
L 173.520301 155.745391 
L 173.859002 145.22713 
L 173.998467 128.698435 
L 174.157855 134.70887 
L 174.29732 158.750609 
L 174.596174 125.693217 
L 174.885066 160.253217 
L 175.183919 140.719304 
L 175.333346 140.719304 
L 175.482773 166.263652 
L 175.781626 143.724522 
L 175.931053 146.729739 
L 176.08048 172.274087 
L 176.379333 131.703652 
L 176.678187 172.274087 
L 176.817652 152.740174 
L 176.967079 149.734957 
L 177.116505 152.740174 
L 177.265932 179.78713 
L 177.564786 143.724522 
L 177.853677 175.279304 
L 178.152531 142.221913 
L 178.461346 181.289739 
L 178.750238 148.232348 
L 178.909626 154.242783 
L 179.049091 179.78713 
L 179.347945 151.237565 
L 179.497372 157.248 
L 179.646799 181.289739 
L 179.945652 146.729739 
L 180.095079 160.253217 
L 180.244506 185.797565 
L 180.383971 158.750609 
L 180.543359 149.734957 
L 180.712709 151.237565 
L 180.852174 181.289739 
L 181.011563 176.781913 
L 181.16099 160.253217 
L 181.300455 158.750609 
L 181.459843 184.294957 
L 181.599308 176.781913 
L 181.748735 158.750609 
L 181.898162 161.755826 
L 182.047588 184.294957 
L 182.197015 181.289739 
L 182.346442 167.766261 
L 182.485907 166.263652 
L 182.645296 190.305391 
L 183.093576 161.755826 
L 183.243003 179.78713 
L 183.382468 173.776696 
L 183.691283 152.740174 
L 183.830748 179.78713 
L 183.990136 176.781913 
L 184.129601 140.719304 
L 184.279028 139.216696 
L 184.428455 158.750609 
L 184.876735 112.169739 
L 185.0162 128.698435 
L 185.175589 133.206261 
L 185.325015 103.154087 
L 185.46448 104.656696 
L 185.623869 124.190609 
L 185.763334 121.185391 
L 185.912761 100.14887 
L 186.062188 97.143652 
L 186.211614 122.688 
L 186.351079 112.169739 
L 186.510468 89.630609 
L 186.649933 92.635826 
L 186.79936 118.180174 
L 186.948786 113.672348 
L 187.098213 91.133217 
L 187.24764 98.646261 
L 187.397067 118.180174 
L 187.875232 83.620174 
L 188.174086 119.682783 
L 188.462977 91.133217 
L 188.751869 116.677565 
L 189.050723 83.620174 
L 189.20015 109.164522 
L 189.339614 112.169739 
L 189.638468 85.122783 
L 189.787895 112.169739 
L 189.937322 113.672348 
L 190.226213 86.625391 
L 190.385602 110.66713 
L 190.525067 112.169739 
L 190.724302 107.661913 
L 190.863767 86.625391 
L 191.003232 97.143652 
L 191.162621 122.688 
L 191.451513 98.646261 
L 191.600939 101.651478 
L 191.750366 122.688 
L 191.889831 100.14887 
L 192.04922 92.635826 
L 192.198647 97.143652 
L 192.348073 124.190609 
L 192.636965 88.128 
L 192.935819 121.185391 
L 193.22471 85.122783 
L 193.384099 98.646261 
L 193.523564 127.195826 
L 193.822417 89.630609 
L 194.121271 124.190609 
L 194.410163 85.122783 
L 194.828558 100.14887 
L 194.997908 98.646261 
L 195.167258 107.661913 
L 195.326647 125.693217 
L 195.505959 128.698435 
L 195.84466 97.143652 
L 196.004048 95.641043 
L 196.173398 103.154087 
L 196.512099 127.195826 
L 196.691411 122.688 
L 197.02015 100.14887 
L 197.368813 103.154087 
L 197.707513 128.698435 
L 197.866902 128.698435 
L 198.046214 109.164522 
L 198.205602 109.164522 
L 198.384915 100.14887 
L 198.883004 139.216696 
L 199.052354 128.698435 
L 199.221704 109.164522 
L 199.550443 109.164522 
L 199.729755 115.174957 
L 199.889144 134.70887 
L 200.068456 136.211478 
L 200.397195 103.154087 
L 200.576507 101.651478 
L 201.074596 136.211478 
L 201.243947 139.216696 
L 201.413297 115.174957 
L 201.582647 113.672348 
L 201.751998 104.656696 
L 202.27001 143.724522 
L 202.429399 131.703652 
L 202.628635 134.70887 
L 202.797985 116.677565 
L 202.967335 113.672348 
L 203.136686 106.159304 
L 203.644737 146.729739 
L 203.814087 136.211478 
L 204.152788 110.66713 
L 204.3321 106.159304 
L 204.50145 115.174957 
L 204.660839 136.211478 
L 204.840151 143.724522 
L 205.348202 109.164522 
L 205.517552 113.672348 
L 206.035565 134.70887 
L 206.364304 116.677565 
L 206.703004 109.164522 
L 206.882316 113.672348 
L 207.041705 140.719304 
L 207.211055 146.729739 
L 207.400329 142.221913 
L 207.559718 119.682783 
L 207.73903 119.682783 
L 207.898418 115.174957 
L 208.247081 136.211478 
L 208.406469 151.237565 
L 208.585781 145.22713 
L 208.91452 116.677565 
L 209.263183 121.185391 
L 209.432533 142.221913 
L 209.601883 139.216696 
L 209.771234 145.22713 
L 209.940584 122.688 
L 210.109934 116.677565 
L 210.289247 131.703652 
L 210.47852 113.672348 
L 210.647871 122.688 
L 210.986571 149.734957 
L 211.165884 143.724522 
L 211.325272 125.693217 
L 211.494622 119.682783 
L 211.673935 118.180174 
L 211.833323 124.190609 
L 212.012635 146.729739 
L 212.172024 152.740174 
L 212.341374 148.232348 
L 212.520686 127.195826 
L 212.690037 131.703652 
L 212.869349 118.180174 
L 213.038699 119.682783 
L 213.3774 151.237565 
L 213.54675 151.237565 
L 213.7161 122.688 
L 214.054801 115.174957 
L 214.224151 122.688 
L 214.562852 152.740174 
L 214.732202 145.22713 
L 214.901553 143.724522 
L 215.070903 115.174957 
L 215.419565 124.190609 
L 215.748304 154.242783 
L 216.435667 116.677565 
L 216.943718 154.242783 
L 217.441808 119.682783 
L 217.62112 121.185391 
L 217.79047 127.195826 
L 217.969782 128.698435 
L 218.139132 146.729739 
L 218.298521 151.237565 
L 218.507718 148.232348 
L 218.667107 128.698435 
L 218.846419 122.688 
L 219.18512 127.195826 
L 219.52382 152.740174 
L 220.201222 118.180174 
L 220.370572 119.682783 
L 220.539922 148.232348 
L 220.709273 149.734957 
L 220.888585 152.740174 
L 221.047973 128.698435 
L 221.217324 121.185391 
L 221.396636 118.180174 
L 221.556024 124.190609 
L 221.735337 148.232348 
L 221.894725 152.740174 
L 222.064075 146.729739 
L 222.243388 127.195826 
L 222.402776 125.693217 
L 222.582088 118.180174 
L 222.751439 130.201043 
L 222.910827 151.237565 
L 223.100101 157.248 
L 223.25949 151.237565 
L 223.438802 133.206261 
L 223.767541 122.688 
L 224.116203 143.724522 
L 224.285553 158.750609 
L 224.454904 152.740174 
L 224.614292 131.703652 
L 224.793604 125.693217 
L 224.962955 125.693217 
L 225.132305 133.206261 
L 225.471006 161.755826 
L 225.989018 121.185391 
L 226.148407 125.693217 
L 226.347643 125.693217 
L 226.865655 155.745391 
L 227.363745 122.688 
L 227.533095 125.693217 
L 227.712407 134.70887 
L 228.041146 167.766261 
L 228.389808 137.714087 
L 228.56912 125.693217 
L 228.728509 127.195826 
L 228.897859 130.201043 
L 229.23656 160.253217 
L 229.415872 155.745391 
L 229.744611 128.698435 
L 229.923923 130.201043 
L 230.262624 148.232348 
L 230.431974 164.761043 
L 230.940025 127.195826 
L 231.109375 127.195826 
L 231.278726 128.698435 
L 231.448076 152.740174 
L 231.617426 158.750609 
L 231.786777 157.248 
L 232.125477 125.693217 
L 232.294828 127.195826 
L 232.47414 136.211478 
L 232.633528 152.740174 
L 232.972229 158.750609 
L 233.141579 134.70887 
L 233.320892 125.693217 
L 233.48028 125.693217 
L 233.998293 157.248 
L 234.177605 158.750609 
L 234.366879 152.740174 
L 234.70558 128.698435 
L 234.87493 125.693217 
L 235.054242 119.682783 
L 235.213631 152.740174 
L 235.392943 155.745391 
L 235.562293 148.232348 
L 235.900994 124.190609 
L 236.070344 130.201043 
L 236.239694 121.185391 
L 236.409045 157.248 
L 236.578395 160.253217 
L 236.747745 154.242783 
L 236.917096 134.70887 
L 237.096408 136.211478 
L 237.255796 131.703652 
L 237.425147 131.703652 
L 237.763847 157.248 
L 237.943159 152.740174 
L 238.11251 133.206261 
L 238.271898 139.216696 
L 238.45121 130.201043 
L 238.620561 136.211478 
L 238.969223 170.771478 
L 239.307924 142.221913 
L 239.477274 146.729739 
L 239.646624 113.672348 
L 239.985325 145.22713 
L 240.154675 160.253217 
L 240.324026 155.745391 
L 240.503338 142.221913 
L 240.662726 142.221913 
L 240.832077 127.195826 
L 241.170777 146.729739 
L 241.35009 161.755826 
L 241.51944 154.242783 
L 241.678828 139.216696 
L 241.858141 136.211478 
L 242.017529 130.201043 
L 242.196841 131.703652 
L 242.346268 163.258435 
L 242.505657 166.263652 
L 242.854319 136.211478 
L 243.023669 133.206261 
L 243.19302 134.70887 
L 243.701071 160.253217 
L 243.880383 142.221913 
L 244.049733 139.216696 
L 244.219083 128.698435 
L 244.388434 130.201043 
L 244.557784 139.216696 
L 244.737096 160.253217 
L 244.896485 158.750609 
L 245.245147 131.703652 
L 245.404536 131.703652 
L 245.583848 130.201043 
L 245.753198 148.232348 
L 245.912587 152.740174 
L 246.091899 164.761043 
L 246.430599 134.70887 
L 246.59995 127.195826 
L 246.759338 127.195826 
L 247.108001 160.253217 
L 247.277351 158.750609 
L 247.446701 140.719304 
L 247.616052 136.211478 
L 247.785402 125.693217 
L 248.134065 140.719304 
L 248.293453 161.755826 
L 248.462803 163.258435 
L 248.801504 134.70887 
L 249.150167 130.201043 
L 249.658218 167.766261 
L 250.00688 136.211478 
L 250.206116 133.206261 
L 250.365504 128.698435 
L 250.534855 119.682783 
L 250.873555 164.761043 
L 251.032944 160.253217 
L 251.212256 136.211478 
L 251.550957 133.206261 
L 251.710345 134.70887 
L 252.049046 170.771478 
L 252.387746 139.216696 
L 252.557097 133.206261 
L 252.716485 133.206261 
L 252.895797 139.216696 
L 253.065148 160.253217 
L 253.234498 163.258435 
L 253.563237 136.211478 
L 253.901938 130.201043 
L 254.240638 172.274087 
L 254.748689 137.714087 
L 254.928001 131.703652 
L 255.08739 133.206261 
L 255.436052 161.755826 
L 255.595441 164.761043 
L 255.934142 128.698435 
L 256.103492 133.206261 
L 256.272842 131.703652 
L 256.611543 170.771478 
L 256.940282 133.206261 
L 257.119594 128.698435 
L 257.458295 145.22713 
L 257.617683 160.253217 
L 257.787033 160.253217 
L 257.956384 140.719304 
L 258.145658 137.714087 
L 258.484358 125.693217 
L 258.653709 134.70887 
L 258.823059 160.253217 
L 258.992409 166.263652 
L 259.16176 155.745391 
L 259.33111 133.206261 
L 259.490498 137.714087 
L 259.669811 130.201043 
L 260.018473 146.729739 
L 260.177862 170.771478 
L 260.516562 136.211478 
L 260.685913 127.195826 
L 260.855263 130.201043 
L 261.024613 139.216696 
L 261.363314 166.263652 
L 261.522702 145.22713 
L 261.861403 130.201043 
L 262.030753 137.714087 
L 262.200104 152.740174 
L 262.369454 155.745391 
L 262.538804 155.745391 
L 262.708155 131.703652 
L 262.867543 136.211478 
L 263.046855 133.206261 
L 263.216206 142.221913 
L 263.385556 160.253217 
L 263.714295 154.242783 
L 264.052996 130.201043 
L 264.232308 131.703652 
L 264.561047 166.263652 
L 264.730397 163.258435 
L 264.899747 140.719304 
L 265.24841 133.206261 
L 265.58711 145.22713 
L 265.746499 166.263652 
L 265.945735 166.263652 
L 266.115085 164.761043 
L 266.453786 130.201043 
L 266.623136 137.714087 
L 266.802448 133.206261 
L 267.131187 164.761043 
L 267.300537 163.258435 
L 267.469888 133.206261 
L 267.808588 133.206261 
L 267.977939 140.719304 
L 268.316639 169.26887 
L 268.665302 146.729739 
L 268.82469 130.201043 
L 269.004002 137.714087 
L 269.173353 136.211478 
L 269.512053 163.258435 
L 269.681404 154.242783 
L 270.020104 131.703652 
L 270.199416 131.703652 
L 270.368767 130.201043 
L 270.707467 161.755826 
L 270.876818 166.263652 
L 271.215518 128.698435 
L 271.384869 131.703652 
L 271.554219 128.698435 
L 271.902882 164.761043 
L 272.072232 163.258435 
L 272.410933 133.206261 
L 272.580283 134.70887 
L 272.749633 133.206261 
L 273.088334 161.755826 
L 273.257684 161.755826 
L 273.606347 130.201043 
L 273.765735 130.201043 
L 273.955009 127.195826 
L 274.303672 146.729739 
L 274.482984 164.761043 
L 274.642372 160.253217 
L 274.991035 130.201043 
L 275.150423 125.693217 
L 275.499086 157.248 
L 275.668436 155.745391 
L 275.847748 170.771478 
L 276.186449 137.714087 
L 276.395646 145.22713 
L 276.734347 133.206261 
L 277.242398 161.755826 
L 277.42171 164.761043 
L 277.59106 143.724522 
L 277.750449 142.221913 
L 277.929761 131.703652 
L 278.099111 130.201043 
L 278.437812 163.258435 
L 278.607162 155.745391 
L 278.945863 136.211478 
L 279.294525 128.698435 
L 279.453914 155.745391 
L 279.633226 166.263652 
L 279.802576 160.253217 
L 279.971927 140.719304 
L 280.141277 137.714087 
L 280.310627 139.216696 
L 280.479978 143.724522 
L 280.838602 161.755826 
L 280.99799 163.258435 
L 281.167341 152.740174 
L 281.346653 128.698435 
L 281.685354 142.221913 
L 281.874627 133.206261 
L 282.22329 163.258435 
L 282.382678 170.771478 
L 282.721379 137.714087 
L 282.890729 133.206261 
L 283.070042 137.714087 
L 283.408742 167.766261 
L 283.578093 161.755826 
L 283.916793 133.206261 
L 284.086144 130.201043 
L 284.255494 137.714087 
L 284.584233 163.258435 
L 284.763545 161.755826 
L 284.932895 140.719304 
L 285.102246 143.724522 
L 285.271596 134.70887 
L 285.440946 136.211478 
L 285.779647 167.766261 
L 286.128309 145.22713 
L 286.29766 134.70887 
L 286.46701 134.70887 
L 286.63636 137.714087 
L 287.144411 167.766261 
L 287.313762 146.729739 
L 287.662424 134.70887 
L 287.821813 137.714087 
L 288.170475 167.766261 
L 288.329864 161.755826 
L 288.678526 134.70887 
L 288.837915 133.206261 
L 289.017227 139.216696 
L 289.355927 173.776696 
L 289.694628 146.729739 
L 290.232564 127.195826 
L 290.401915 139.216696 
L 290.561303 158.750609 
L 290.740615 164.761043 
L 290.909966 164.761043 
L 291.079316 140.719304 
L 291.427978 131.703652 
L 291.936029 166.263652 
L 292.10538 163.258435 
L 292.44408 137.714087 
L 292.613431 134.70887 
L 292.782781 137.714087 
L 292.952131 157.248 
L 293.131444 158.750609 
L 293.290832 157.248 
L 293.460182 139.216696 
L 293.639495 142.221913 
L 293.798883 131.703652 
L 293.978195 137.714087 
L 294.306934 163.258435 
L 294.486246 167.766261 
L 294.645635 142.221913 
L 294.814985 139.216696 
L 294.994297 128.698435 
L 295.492386 161.755826 
L 295.661737 157.248 
L 295.841049 131.703652 
L 296.000437 128.698435 
L 296.17975 128.698435 
L 296.857151 166.263652 
L 297.036463 140.719304 
L 297.205813 140.719304 
L 297.365202 128.698435 
L 297.9131 149.734957 
L 298.08245 166.263652 
L 298.251801 163.258435 
L 298.421151 143.724522 
L 298.580539 140.719304 
L 298.759852 134.70887 
L 298.929202 136.211478 
L 299.098552 146.729739 
L 299.267903 167.766261 
L 299.606603 140.719304 
L 299.955266 131.703652 
L 300.114654 134.70887 
L 300.463317 163.258435 
L 300.622705 155.745391 
L 300.802017 136.211478 
L 300.971368 130.201043 
L 301.130756 131.703652 
L 301.658731 161.755826 
L 301.828081 160.253217 
L 301.98747 140.719304 
L 302.166782 140.719304 
L 302.336132 127.195826 
L 302.505482 142.221913 
L 302.674833 145.22713 
L 302.844183 163.258435 
L 303.013533 157.248 
L 303.352234 130.201043 
L 303.690935 140.719304 
L 304.029635 166.263652 
L 304.208948 157.248 
L 304.368336 130.201043 
L 304.537686 130.201043 
L 304.716999 125.693217 
L 305.22505 164.761043 
L 305.384438 157.248 
L 305.56375 139.216696 
L 305.753024 134.70887 
L 305.932336 133.206261 
L 306.101687 128.698435 
L 306.261075 137.714087 
L 306.599776 164.761043 
L 306.779088 157.248 
L 307.117789 137.714087 
L 307.297101 131.703652 
L 307.466451 136.211478 
L 307.805152 161.755826 
L 307.96454 158.750609 
L 308.313203 131.703652 
L 308.482553 128.698435 
L 308.821254 148.232348 
L 308.990604 164.761043 
L 309.498655 134.70887 
L 309.668005 133.206261 
L 309.847317 133.206261 
L 310.186018 164.761043 
L 310.355368 163.258435 
L 310.514757 131.703652 
L 310.694069 133.206261 
L 310.863419 130.201043 
L 311.03277 136.211478 
L 311.20212 154.242783 
L 311.37147 160.253217 
L 311.540821 154.242783 
L 311.710171 140.719304 
L 311.889483 139.216696 
L 312.048872 131.703652 
L 312.228184 136.211478 
L 312.746197 163.258435 
L 313.074935 133.206261 
L 313.254248 130.201043 
L 313.413636 136.211478 
L 313.622834 136.211478 
L 313.961534 170.771478 
L 314.120923 161.755826 
L 314.290273 139.216696 
L 314.628974 124.190609 
L 315.127063 175.279304 
L 315.465764 131.703652 
L 315.635114 124.190609 
L 315.804464 131.703652 
L 316.143165 163.258435 
L 316.312515 161.755826 
L 316.810604 119.682783 
L 317.149305 151.237565 
L 317.328617 161.755826 
L 317.497968 161.755826 
L 317.667318 139.216696 
L 317.836668 136.211478 
L 318.006019 130.201043 
L 318.344719 149.734957 
L 318.504108 164.761043 
L 318.68342 158.750609 
L 318.85277 137.714087 
L 319.012159 134.70887 
L 319.191471 127.195826 
L 319.350859 137.714087 
L 319.530172 167.766261 
L 319.68956 170.771478 
L 319.85891 158.750609 
L 320.028261 136.211478 
L 320.197611 136.211478 
L 320.366961 140.719304 
L 320.6957 158.750609 
L 320.875012 157.248 
L 321.034401 142.221913 
L 321.373102 134.70887 
L 321.652032 157.248 
L 321.81142 139.216696 
L 321.98077 137.714087 
L 322.150121 130.201043 
L 322.319471 146.729739 
L 322.498783 149.734957 
L 322.668134 167.766261 
L 322.827522 148.232348 
L 323.006834 140.719304 
L 323.166223 125.693217 
L 323.674274 160.253217 
L 323.853586 170.771478 
L 324.012974 142.221913 
L 324.192287 134.70887 
L 324.351675 139.216696 
L 324.521025 136.211478 
L 324.859726 167.766261 
L 325.029076 166.263652 
L 325.198427 137.714087 
L 325.537127 127.195826 
L 325.875828 160.253217 
L 326.035217 164.761043 
L 326.204567 157.248 
L 326.373917 140.719304 
L 326.543268 136.211478 
L 326.881968 149.734957 
L 327.051319 170.771478 
L 327.220669 164.761043 
L 327.390019 134.70887 
L 327.55937 128.698435 
L 327.72872 134.70887 
L 327.89807 151.237565 
L 328.067421 149.734957 
L 328.236771 163.258435 
L 328.406121 161.755826 
L 328.575472 137.714087 
L 328.744822 137.714087 
L 328.914172 130.201043 
L 329.083523 136.211478 
L 329.242911 158.750609 
L 329.422223 164.761043 
L 329.741 131.703652 
L 330.069739 139.216696 
L 330.249051 149.734957 
L 330.418402 166.263652 
L 330.587752 166.263652 
L 330.757102 139.216696 
L 330.916491 134.70887 
L 331.095803 133.206261 
L 331.603854 164.761043 
L 331.773204 158.750609 
L 332.111905 131.703652 
L 332.291217 131.703652 
L 332.619956 154.242783 
L 332.799268 170.771478 
L 332.968618 166.263652 
L 333.307319 133.206261 
L 333.476669 131.703652 
L 333.655981 139.216696 
L 333.994682 163.258435 
L 334.164032 160.253217 
L 334.502733 133.206261 
L 334.672083 133.206261 
L 334.841434 139.216696 
L 335.180134 166.263652 
L 335.349485 163.258435 
L 335.518835 140.719304 
L 335.698147 133.206261 
L 335.857536 134.70887 
L 336.026886 139.216696 
L 336.365587 161.755826 
L 336.544899 161.755826 
L 336.714249 139.216696 
L 336.873638 140.719304 
L 337.05295 119.682783 
L 337.2223 134.70887 
L 337.421536 136.211478 
L 337.929587 172.274087 
L 338.098937 145.22713 
L 338.4476 131.703652 
L 338.61695 134.70887 
L 338.955651 166.263652 
L 339.125001 161.755826 
L 339.473663 131.703652 
L 339.633052 130.201043 
L 339.802402 133.206261 
L 340.141103 163.258435 
L 340.320415 158.750609 
L 340.828466 128.698435 
L 341.167167 155.745391 
L 341.336517 170.771478 
L 341.495906 152.740174 
L 341.675218 146.729739 
L 341.844568 131.703652 
L 342.013918 131.703652 
L 342.183269 137.714087 
L 342.521969 164.761043 
L 342.69132 164.761043 
L 343.03002 136.211478 
L 343.199371 133.206261 
L 343.548033 149.734957 
L 343.727345 164.761043 
L 343.886734 163.258435 
L 344.235396 136.211478 
L 344.394785 134.70887 
L 344.574097 130.201043 
L 344.902836 152.740174 
L 345.082148 145.22713 
L 345.241536 133.206261 
L 345.450734 140.719304 
L 345.779473 124.190609 
L 346.118173 149.734957 
L 346.297486 163.258435 
L 346.466836 160.253217 
L 346.626224 136.211478 
L 347.144237 131.703652 
L 347.472976 161.755826 
L 347.652288 158.750609 
L 347.821639 134.70887 
L 347.990989 134.70887 
L 348.160339 127.195826 
L 348.32969 130.201043 
L 348.678352 155.745391 
L 348.847702 167.766261 
L 349.017053 145.22713 
L 349.355753 128.698435 
L 349.525104 134.70887 
L 349.863804 158.750609 
L 350.033155 158.750609 
L 350.371855 128.698435 
L 350.551167 128.698435 
L 350.710556 131.703652 
L 351.059218 161.755826 
L 351.218607 161.755826 
L 351.567269 131.703652 
L 351.726658 130.201043 
L 351.90597 137.714087 
L 352.065359 151.237565 
L 352.414021 157.248 
L 352.752722 130.201043 
L 352.922072 128.698435 
L 353.091422 137.714087 
L 353.290658 137.714087 
L 353.629359 164.761043 
L 353.798709 160.253217 
L 354.147371 133.206261 
L 354.30676 134.70887 
L 354.486072 134.70887 
L 354.824773 164.761043 
L 354.994123 155.745391 
L 355.502174 110.66713 
L 355.840875 152.740174 
L 356.010225 161.755826 
L 356.179575 161.755826 
L 356.348926 136.211478 
L 356.528238 136.211478 
L 356.687626 125.693217 
L 357.195677 164.761043 
L 357.703728 134.70887 
L 357.883041 130.201043 
L 358.042429 137.714087 
L 358.221741 158.750609 
L 358.391092 164.761043 
L 358.889181 124.190609 
L 359.078455 131.703652 
L 359.247805 131.703652 
L 359.586506 163.258435 
L 359.745894 157.248 
L 360.094557 131.703652 
L 360.253945 128.698435 
L 360.433257 134.70887 
L 360.771958 161.755826 
L 360.941308 146.729739 
L 361.110659 142.221913 
L 361.309894 145.22713 
L 361.658557 130.201043 
L 361.817945 133.206261 
L 362.166608 161.755826 
L 362.325996 163.258435 
L 362.505308 139.216696 
L 364.109156 146.729739 
L 364.417971 128.698435 
L 364.597283 137.714087 
L 364.766633 161.755826 
L 364.926022 158.750609 
L 365.105334 152.740174 
L 365.444035 124.190609 
L 365.613385 128.698435 
L 365.962047 148.232348 
L 366.121436 163.258435 
L 366.470098 140.719304 
L 366.629487 136.211478 
L 366.808799 125.693217 
L 366.978149 130.201043 
L 367.31685 158.750609 
L 367.4862 155.745391 
L 367.655551 137.714087 
L 368.004213 128.698435 
L 368.173564 136.211478 
L 368.512264 161.755826 
L 368.681615 163.258435 
L 369.020315 130.201043 
L 369.189666 127.195826 
L 369.71764 163.258435 
L 369.88699 163.258435 
L 370.395041 127.195826 
L 370.564392 125.693217 
L 370.763627 127.195826 
L 371.102328 151.237565 
L 371.271678 157.248 
L 371.610379 127.195826 
L 371.789691 125.693217 
L 372.297742 152.740174 
L 372.457131 158.750609 
L 372.805793 128.698435 
L 373.144494 131.703652 
L 373.313844 137.714087 
L 373.483195 155.745391 
L 373.652545 157.248 
L 373.821895 154.242783 
L 373.991246 131.703652 
L 374.160596 128.698435 
L 374.339908 134.70887 
L 374.668647 154.242783 
L 374.857921 160.253217 
L 375.017309 152.740174 
L 375.196621 130.201043 
L 375.52536 125.693217 
L 376.043373 161.755826 
L 376.382074 139.216696 
L 376.720774 128.698435 
L 376.900086 134.70887 
L 377.228825 160.253217 
L 377.746838 131.703652 
L 377.916188 128.698435 
L 378.085539 134.70887 
L 378.424239 163.258435 
L 379.290915 112.169739 
L 379.629615 152.740174 
L 379.798966 146.729739 
L 379.978278 136.211478 
L 380.147628 133.206261 
L 380.486329 124.190609 
L 380.825029 154.242783 
L 380.99438 148.232348 
L 381.16373 146.729739 
L 381.492469 124.190609 
L 381.671781 133.206261 
L 382.010482 166.263652 
L 382.179832 161.755826 
L 382.339221 133.206261 
L 382.518533 122.688 
L 382.677921 128.698435 
L 382.857233 145.22713 
L 383.016622 140.719304 
L 383.185972 160.253217 
L 383.694023 127.195826 
L 383.863374 124.190609 
L 384.202074 157.248 
L 384.371425 164.761043 
L 384.540775 133.206261 
L 384.710125 137.714087 
L 384.869514 125.693217 
L 385.048826 128.698435 
L 385.397488 157.248 
L 385.556877 157.248 
L 385.895578 136.211478 
L 386.064928 127.195826 
L 386.592902 148.232348 
L 386.772215 164.761043 
L 386.931603 157.248 
L 387.110915 128.698435 
L 387.270304 128.698435 
L 387.439654 125.693217 
L 387.609004 134.70887 
L 387.947705 164.761043 
L 388.286406 134.70887 
L 388.455756 122.688 
L 388.625106 125.693217 
L 388.963807 152.740174 
L 389.123196 157.248 
L 389.461896 124.190609 
L 389.641208 122.688 
L 389.969947 143.724522 
L 390.139298 164.761043 
L 390.65731 131.703652 
L 390.826661 125.693217 
L 390.996011 128.698435 
L 391.334712 155.745391 
L 391.504062 148.232348 
L 391.663451 133.206261 
L 391.842763 131.703652 
L 392.002151 125.693217 
L 392.510202 158.750609 
L 393.018253 121.185391 
L 393.526304 154.242783 
L 393.695655 152.740174 
L 394.193744 121.185391 
L 394.373056 131.703652 
L 394.56233 127.195826 
L 394.90103 155.745391 
L 395.070381 149.734957 
L 395.409081 121.185391 
L 395.588394 122.688 
L 395.767706 134.70887 
L 395.927094 136.211478 
L 396.275757 157.248 
L 396.783808 119.682783 
L 396.953158 125.693217 
L 397.122508 137.714087 
L 397.30182 158.750609 
L 397.471171 157.248 
L 397.809871 130.201043 
L 397.979222 128.698435 
L 398.148572 115.174957 
L 398.487273 149.734957 
L 398.487273 149.734957 
" clip-path="url(#pe313dd3172)" style="fill: none; stroke: #1f77b4; stroke-width: 1.5; stroke-linecap: square"/>
   </g>
   <g id="line2d_18">
    <path d="M 74.051887 125.693217 
L 74.490205 158.750609 
L 75.526231 148.232348 
L 76.104014 146.729739 
L 76.681798 149.734957 
L 77.279505 151.237565 
L 77.857288 145.22713 
L 78.445033 151.237565 
L 78.883352 146.729739 
L 79.481059 149.734957 
L 80.058842 146.729739 
L 80.656549 152.740174 
L 81.234333 146.729739 
L 81.812116 145.22713 
L 82.429747 148.232348 
L 83.027454 152.740174 
L 83.625161 151.237565 
L 84.212906 154.242783 
L 84.800652 151.237565 
L 85.398359 152.740174 
L 85.986104 151.237565 
L 86.593773 152.740174 
L 87.181518 158.750609 
L 87.769263 149.734957 
L 88.36697 155.745391 
L 88.815251 146.729739 
L 89.402996 143.724522 
L 90.170053 157.248 
L 90.757799 154.242783 
L 91.953213 154.242783 
L 92.55092 155.745391 
L 93.138665 152.740174 
L 93.72641 157.248 
L 94.772398 143.724522 
L 95.50957 148.232348 
L 95.95785 136.211478 
L 96.695022 142.221913 
L 97.292729 139.216696 
L 97.91036 145.22713 
L 98.508067 145.22713 
L 99.095812 142.221913 
L 99.683557 146.729739 
L 100.281264 137.714087 
L 100.869009 134.70887 
L 101.466717 136.211478 
L 102.054462 127.195826 
L 102.642207 128.698435 
L 103.090487 122.688 
L 103.688194 125.693217 
L 104.27594 127.195826 
L 104.873647 124.190609 
L 105.630742 119.682783 
L 106.228449 112.169739 
L 106.816195 107.661913 
L 107.413902 98.646261 
L 108.001647 82.117565 
L 108.589392 86.625391 
L 109.037672 82.117565 
L 109.63538 91.133217 
L 110.233087 86.625391 
L 110.830794 94.138435 
L 111.418539 98.646261 
L 112.006284 94.138435 
L 112.603991 106.159304 
L 113.21166 104.656696 
L 113.958794 115.174957 
L 114.556501 115.174957 
L 115.154208 116.677565 
L 116.389469 124.190609 
L 117.126641 119.682783 
L 117.56496 136.211478 
L 118.162667 131.703652 
L 118.909801 128.698435 
L 119.368043 131.703652 
L 120.095253 142.221913 
L 120.722845 164.761043 
L 121.310591 173.776696 
L 121.908298 226.368 
L 122.496043 211.341913 
L 123.083788 176.781913 
L 123.691457 169.26887 
L 124.279202 158.750609 
L 124.876909 164.761043 
L 125.464655 160.253217 
L 126.062362 166.263652 
L 126.50068 163.258435 
L 127.247814 164.761043 
L 127.686132 161.755826 
L 128.463152 169.26887 
L 129.050897 172.274087 
L 129.638642 182.792348 
L 130.226387 172.274087 
L 130.664706 178.284522 
L 131.252451 173.776696 
L 132.41798 197.818435 
L 133.025649 203.82887 
L 133.603432 233.881043 
L 134.041751 218.854957 
L 134.639458 217.352348 
L 135.217241 208.336696 
L 136.422617 173.776696 
L 137.000401 182.792348 
L 137.608069 176.781913 
L 138.185853 179.78713 
L 138.773598 172.274087 
L 139.361343 176.781913 
L 139.949089 172.274087 
L 140.526872 172.274087 
L 140.975152 184.294957 
L 141.562898 188.802783 
L 142.74835 191.808 
L 143.356019 197.818435 
L 143.953726 199.321043 
L 144.541471 199.321043 
L 145.129216 194.813217 
L 145.726923 206.834087 
L 146.314669 208.336696 
L 146.922338 221.860174 
L 147.510083 223.362783 
L 148.097828 230.875826 
L 148.695535 274.451478 
L 149.28328 274.451478 
L 149.890949 233.881043 
L 151.694032 205.331478 
L 152.281777 205.331478 
L 152.879485 202.326261 
L 153.46723 209.839304 
L 154.652682 190.305391 
L 155.240427 188.802783 
L 155.848096 190.305391 
L 156.435841 187.300174 
L 157.023587 193.310609 
L 157.631256 196.315826 
L 158.219001 203.82887 
L 158.836631 196.315826 
L 160.012122 215.849739 
L 160.619791 226.368 
L 161.207536 239.891478 
L 161.805243 250.409739 
L 162.392988 254.917565 
L 162.980734 269.943652 
L 163.578441 295.488 
L 164.166186 292.482783 
L 164.773855 247.404522 
L 165.351638 226.368 
L 165.939384 211.341913 
L 166.566976 206.834087 
L 167.154721 208.336696 
L 167.752428 200.823652 
L 168.340174 191.808 
L 168.927919 191.808 
L 169.535588 187.300174 
L 170.123333 179.78713 
L 170.72104 179.78713 
L 171.308785 167.766261 
L 171.886569 163.258435 
L 172.484276 169.26887 
L 173.072021 158.750609 
L 173.520301 155.745391 
L 174.29732 158.750609 
L 174.885066 160.253217 
L 176.08048 172.274087 
L 176.678187 172.274087 
L 177.265932 179.78713 
L 177.853677 175.279304 
L 178.461346 181.289739 
L 179.049091 179.78713 
L 179.646799 181.289739 
L 180.244506 185.797565 
L 180.852174 181.289739 
L 181.459843 184.294957 
L 182.047588 184.294957 
L 182.645296 190.305391 
L 183.243003 179.78713 
L 183.830748 179.78713 
L 185.175589 133.206261 
L 185.623869 124.190609 
L 186.211614 122.688 
L 186.79936 118.180174 
L 187.397067 118.180174 
L 188.174086 119.682783 
L 188.751869 116.677565 
L 189.339614 112.169739 
L 189.937322 113.672348 
L 190.525067 112.169739 
L 191.162621 122.688 
L 191.750366 122.688 
L 192.348073 124.190609 
L 192.935819 121.185391 
L 193.523564 127.195826 
L 194.121271 124.190609 
L 194.828558 100.14887 
L 195.505959 128.698435 
L 196.512099 127.195826 
L 197.707513 128.698435 
L 198.883004 139.216696 
L 200.068456 136.211478 
L 201.243947 139.216696 
L 202.27001 143.724522 
L 202.628635 134.70887 
L 203.644737 146.729739 
L 204.840151 143.724522 
L 206.035565 134.70887 
L 207.211055 146.729739 
L 208.406469 151.237565 
L 209.432533 142.221913 
L 209.771234 145.22713 
L 210.289247 131.703652 
L 210.986571 149.734957 
L 212.172024 152.740174 
L 212.690037 131.703652 
L 213.3774 151.237565 
L 215.748304 154.242783 
L 216.943718 154.242783 
L 218.298521 151.237565 
L 219.52382 152.740174 
L 221.894725 152.740174 
L 223.100101 157.248 
L 224.285553 158.750609 
L 225.471006 161.755826 
L 226.865655 155.745391 
L 228.041146 167.766261 
L 229.23656 160.253217 
L 230.431974 164.761043 
L 231.617426 158.750609 
L 234.177605 158.750609 
L 235.392943 155.745391 
L 236.070344 130.201043 
L 236.578395 160.253217 
L 237.096408 136.211478 
L 237.763847 157.248 
L 238.271898 139.216696 
L 238.969223 170.771478 
L 239.477274 146.729739 
L 240.154675 160.253217 
L 241.35009 161.755826 
L 242.505657 166.263652 
L 243.701071 160.253217 
L 244.737096 160.253217 
L 246.091899 164.761043 
L 247.108001 160.253217 
L 248.462803 163.258435 
L 249.658218 167.766261 
L 250.873555 164.761043 
L 252.049046 170.771478 
L 253.234498 163.258435 
L 254.240638 172.274087 
L 255.595441 164.761043 
L 256.103492 133.206261 
L 256.611543 170.771478 
L 257.617683 160.253217 
L 258.992409 166.263652 
L 259.490498 137.714087 
L 260.177862 170.771478 
L 261.363314 166.263652 
L 262.369454 155.745391 
L 262.867543 136.211478 
L 263.385556 160.253217 
L 264.561047 166.263652 
L 265.746499 166.263652 
L 266.623136 137.714087 
L 267.131187 164.761043 
L 268.316639 169.26887 
L 269.004002 137.714087 
L 269.512053 163.258435 
L 270.876818 166.263652 
L 271.384869 131.703652 
L 271.902882 164.761043 
L 272.580283 134.70887 
L 273.088334 161.755826 
L 274.482984 164.761043 
L 275.499086 157.248 
L 275.847748 170.771478 
L 276.395646 145.22713 
L 277.42171 164.761043 
L 278.437812 163.258435 
L 279.633226 166.263652 
L 280.99799 163.258435 
L 281.685354 142.221913 
L 282.382678 170.771478 
L 283.408742 167.766261 
L 284.584233 163.258435 
L 285.102246 143.724522 
L 285.779647 167.766261 
L 288.170475 167.766261 
L 289.355927 173.776696 
L 290.740615 164.761043 
L 291.936029 166.263652 
L 293.131444 158.750609 
L 293.639495 142.221913 
L 294.486246 167.766261 
L 295.492386 161.755826 
L 296.857151 166.263652 
L 298.08245 166.263652 
L 299.267903 167.766261 
L 300.463317 163.258435 
L 301.658731 161.755826 
L 302.844183 163.258435 
L 304.029635 166.263652 
L 305.22505 164.761043 
L 306.599776 164.761043 
L 307.805152 161.755826 
L 308.990604 164.761043 
L 310.186018 164.761043 
L 310.694069 133.206261 
L 311.37147 160.253217 
L 312.746197 163.258435 
L 313.961534 170.771478 
L 315.127063 175.279304 
L 316.143165 163.258435 
L 317.328617 161.755826 
L 318.504108 164.761043 
L 319.68956 170.771478 
L 320.6957 158.750609 
L 321.652032 157.248 
L 322.668134 167.766261 
L 323.853586 170.771478 
L 324.351675 139.216696 
L 324.859726 167.766261 
L 326.035217 164.761043 
L 327.051319 170.771478 
L 327.89807 151.237565 
L 328.236771 163.258435 
L 329.422223 164.761043 
L 330.418402 166.263652 
L 331.603854 164.761043 
L 332.799268 170.771478 
L 333.994682 163.258435 
L 335.180134 166.263652 
L 336.365587 161.755826 
L 336.873638 140.719304 
L 337.929587 172.274087 
L 338.955651 166.263652 
L 340.141103 163.258435 
L 341.336517 170.771478 
L 342.521969 164.761043 
L 343.727345 164.761043 
L 344.902836 152.740174 
L 345.450734 140.719304 
L 346.297486 163.258435 
L 347.472976 161.755826 
L 348.847702 167.766261 
L 349.863804 158.750609 
L 351.059218 161.755826 
L 352.414021 157.248 
L 353.629359 164.761043 
L 354.824773 164.761043 
L 356.010225 161.755826 
L 357.195677 164.761043 
L 358.391092 164.761043 
L 360.771958 161.755826 
L 361.309894 145.22713 
L 362.325996 163.258435 
L 364.109156 146.729739 
L 364.766633 161.755826 
L 366.121436 163.258435 
L 367.31685 158.750609 
L 368.681615 163.258435 
L 369.71764 163.258435 
L 371.271678 157.248 
L 372.457131 158.750609 
L 373.652545 157.248 
L 374.857921 160.253217 
L 376.043373 161.755826 
L 377.228825 160.253217 
L 378.424239 163.258435 
L 379.629615 152.740174 
L 380.825029 154.242783 
L 382.010482 166.263652 
L 382.857233 145.22713 
L 383.185972 160.253217 
L 384.371425 164.761043 
L 384.710125 137.714087 
L 385.397488 157.248 
L 386.772215 164.761043 
L 387.947705 164.761043 
L 389.123196 157.248 
L 390.139298 164.761043 
L 391.334712 155.745391 
L 392.510202 158.750609 
L 393.526304 154.242783 
L 394.373056 131.703652 
L 394.90103 155.745391 
L 396.275757 157.248 
L 397.30182 158.750609 
L 397.30182 158.750609 
" clip-path="url(#pe313dd3172)" style="fill: none; stroke: #ff7f0e; stroke-width: 1.5; stroke-linecap: square"/>
   </g>
   <g id="patch_3">
    <path d="M 57.6 307.584 
L 57.6 41.472 
" style="fill: none; stroke: #000000; stroke-width: 0.8; stroke-linejoin: miter; stroke-linecap: square"/>
   </g>
   <g id="patch_4">
    <path d="M 414.72 307.584 
L 414.72 41.472 
" style="fill: none; stroke: #000000; stroke-width: 0.8; stroke-linejoin: miter; stroke-linecap: square"/>
   </g>
   <g id="patch_5">
    <path d="M 57.6 307.584 
L 414.72 307.584 
" style="fill: none; stroke: #000000; stroke-width: 0.8; stroke-linejoin: miter; stroke-linecap: square"/>
   </g>
   <g id="patch_6">
    <path d="M 57.6 41.472 
L 414.72 41.472 
" style="fill: none; stroke: #000000; stroke-width: 0.8; stroke-linejoin: miter; stroke-linecap: square"/>
   </g>
   <g id="legend_1">
    <g id="patch_7">
     <path d="M 320.7075 79.106375 
L 407.72 79.106375 
Q 409.72 79.106375 409.72 77.106375 
L 409.72 48.472 
Q 409.72 46.472 407.72 46.472 
L 320.7075 46.472 
Q 318.7075 46.472 318.7075 48.472 
L 318.7075 77.106375 
Q 318.7075 79.106375 320.7075 79.106375 
z
" style="fill: #ffffff; opacity: 0.8; stroke: #cccccc; stroke-linejoin: miter"/>
    </g>
    <g id="line2d_19">
     <path d="M 322.7075 54.570438 
L 332.7075 54.570438 
L 342.7075 54.570438 
" style="fill: none; stroke: #1f77b4; stroke-width: 1.5; stroke-linecap: square"/>
    </g>
    <g id="text_17">
     <!-- 1234 -->
     <g transform="translate(350.7075 58.070438)scale(0.1 -0.1)">
      <use xlink:href="#DejaVuSans-31"/>
      <use xlink:href="#DejaVuSans-32" x="63.623047"/>
      <use xlink:href="#DejaVuSans-33" x="127.246094"/>
      <use xlink:href="#DejaVuSans-34" x="190.869141"/>
     </g>
    </g>
    <g id="line2d_20">
     <path d="M 322.7075 69.248563 
L 332.7075 69.248563 
L 342.7075 69.248563 
" style="fill: none; stroke: #ff7f0e; stroke-width: 1.5; stroke-linecap: square"/>
    </g>
    <g id="text_18">
     <!-- 1234_enve -->
     <g transform="translate(350.7075 72.748563)scale(0.1 -0.1)">
      <defs>
       <path id="DejaVuSans-5f" d="M 3263 -1063 
L 3263 -1509 
L -63 -1509 
L -63 -1063 
L 3263 -1063 
z
" transform="scale(0.015625)"/>
       <path id="DejaVuSans-65" d="M 3597 1894 
L 3597 1613 
L 953 1613 
Q 991 1019 1311 708 
Q 1631 397 2203 397 
Q 2534 397 2845 478 
Q 3156 559 3463 722 
L 3463 178 
Q 3153 47 2828 -22 
Q 2503 -91 2169 -91 
Q 1331 -91 842 396 
Q 353 884 353 1716 
Q 353 2575 817 3079 
Q 1281 3584 2069 3584 
Q 2775 3584 3186 3129 
Q 3597 2675 3597 1894 
z
M 3022 2063 
Q 3016 2534 2758 2815 
Q 2500 3097 2075 3097 
Q 1594 3097 1305 2825 
Q 1016 2553 972 2059 
L 3022 2063 
z
" transform="scale(0.015625)"/>
       <path id="DejaVuSans-6e" d="M 3513 2113 
L 3513 0 
L 2938 0 
L 2938 2094 
Q 2938 2591 2744 2837 
Q 2550 3084 2163 3084 
Q 1697 3084 1428 2787 
Q 1159 2491 1159 1978 
L 1159 0 
L 581 0 
L 581 3500 
L 1159 3500 
L 1159 2956 
Q 1366 3272 1645 3428 
Q 1925 3584 2291 3584 
Q 2894 3584 3203 3211 
Q 3513 2838 3513 2113 
z
" transform="scale(0.015625)"/>
       <path id="DejaVuSans-76" d="M 191 3500 
L 800 3500 
L 1894 563 
L 2988 3500 
L 3597 3500 
L 2284 0 
L 1503 0 
L 191 3500 
z
" transform="scale(0.015625)"/>
      </defs>
      <use xlink:href="#DejaVuSans-31"/>
      <use xlink:href="#DejaVuSans-32" x="63.623047"/>
      <use xlink:href="#DejaVuSans-33" x="127.246094"/>
      <use xlink:href="#DejaVuSans-34" x="190.869141"/>
      <use xlink:href="#DejaVuSans-5f" x="254.492188"/>
      <use xlink:href="#DejaVuSans-65" x="304.492188"/>
      <use xlink:href="#DejaVuSans-6e" x="366.015625"/>
      <use xlink:href="#DejaVuSans-76" x="429.394531"/>
      <use xlink:href="#DejaVuSans-65" x="488.574219"/>
     </g>
    </g>
   </g>
  </g>
 </g>
 <defs>
  <clipPath id="pe313dd3172">
   <rect x="57.6" y="41.472" width="357.12" height="266.112"/>
  </clipPath>
 </defs>
</svg>
