<?xml version="1.0" encoding="utf-8" standalone="no"?>
<!DOCTYPE svg PUBLIC "-//W3C//DTD SVG 1.1//EN"
  "http://www.w3.org/Graphics/SVG/1.1/DTD/svg11.dtd">
<svg xmlns:xlink="http://www.w3.org/1999/xlink" width="720pt" height="360pt" viewBox="0 0 720 360" xmlns="http://www.w3.org/2000/svg" version="1.1">
 <metadata>
  <rdf:RDF xmlns:dc="http://purl.org/dc/elements/1.1/" xmlns:cc="http://creativecommons.org/ns#" xmlns:rdf="http://www.w3.org/1999/02/22-rdf-syntax-ns#">
   <cc:Work>
    <dc:type rdf:resource="http://purl.org/dc/dcmitype/StillImage"/>
    <dc:date>2022-10-03T20:22:59.015408</dc:date>
    <dc:format>image/svg+xml</dc:format>
    <dc:creator>
     <cc:Agent>
      <dc:title>Matplotlib v3.5.3, https://matplotlib.org/</dc:title>
     </cc:Agent>
    </dc:creator>
   </cc:Work>
  </rdf:RDF>
 </metadata>
 <defs>
  <style type="text/css">*{stroke-linejoin: round; stroke-linecap: butt}</style>
 </defs>
 <g id="figure_1">
  <g id="patch_1">
   <path d="M 0 360 
L 720 360 
L 720 0 
L 0 0 
z
" style="fill: #ffffff"/>
  </g>
  <g id="axes_1">
   <g id="patch_2">
    <path d="M 90 320.4 
L 648 320.4 
L 648 43.2 
L 90 43.2 
z
" style="fill: #ffffff"/>
   </g>
   <g id="PathCollection_1">
    <defs>
     <path id="m1c1b8392b6" d="M -3 3 
L 3 -3 
M -3 -3 
L 3 3 
" style="stroke: #ff0000; stroke-width: 1.5"/>
    </defs>
    <g clip-path="url(#pca9545421a)">
     <use xlink:href="#m1c1b8392b6" x="116.008573" y="242.045416" style="fill: #ff0000; stroke: #ff0000; stroke-width: 1.5"/>
     <use xlink:href="#m1c1b8392b6" x="122.226163" y="242.045416" style="fill: #ff0000; stroke: #ff0000; stroke-width: 1.5"/>
     <use xlink:href="#m1c1b8392b6" x="131.063807" y="241.689986" style="fill: #ff0000; stroke: #ff0000; stroke-width: 1.5"/>
     <use xlink:href="#m1c1b8392b6" x="137.654251" y="242.400846" style="fill: #ff0000; stroke: #ff0000; stroke-width: 1.5"/>
     <use xlink:href="#m1c1b8392b6" x="148.497245" y="241.334556" style="fill: #ff0000; stroke: #ff0000; stroke-width: 1.5"/>
     <use xlink:href="#m1c1b8392b6" x="157.71782" y="239.912835" style="fill: #ff0000; stroke: #ff0000; stroke-width: 1.5"/>
     <use xlink:href="#m1c1b8392b6" x="170.556086" y="242.756276" style="fill: #ff0000; stroke: #ff0000; stroke-width: 1.5"/>
     <use xlink:href="#m1c1b8392b6" x="176.793831" y="242.400846" style="fill: #ff0000; stroke: #ff0000; stroke-width: 1.5"/>
     <use xlink:href="#m1c1b8392b6" x="183.394352" y="243.822567" style="fill: #ff0000; stroke: #ff0000; stroke-width: 1.5"/>
     <use xlink:href="#m1c1b8392b6" x="190.619655" y="242.756276" style="fill: #ff0000; stroke: #ff0000; stroke-width: 1.5"/>
     <use xlink:href="#m1c1b8392b6" x="199.840231" y="242.045416" style="fill: #ff0000; stroke: #ff0000; stroke-width: 1.5"/>
     <use xlink:href="#m1c1b8392b6" x="207.065534" y="242.045416" style="fill: #ff0000; stroke: #ff0000; stroke-width: 1.5"/>
     <use xlink:href="#m1c1b8392b6" x="214.300914" y="240.623695" style="fill: #ff0000; stroke: #ff0000; stroke-width: 1.5"/>
     <use xlink:href="#m1c1b8392b6" x="223.531567" y="243.467137" style="fill: #ff0000; stroke: #ff0000; stroke-width: 1.5"/>
     <use xlink:href="#m1c1b8392b6" x="233.749778" y="246.310578" style="fill: #ff0000; stroke: #ff0000; stroke-width: 1.5"/>
     <use xlink:href="#m1c1b8392b6" x="249.822803" y="124.753456" style="fill: #ff0000; stroke: #ff0000; stroke-width: 1.5"/>
     <use xlink:href="#m1c1b8392b6" x="261.623124" y="55.8" style="fill: #ff0000; stroke: #ff0000; stroke-width: 1.5"/>
     <use xlink:href="#m1c1b8392b6" x="276.103962" y="90.987588" style="fill: #ff0000; stroke: #ff0000; stroke-width: 1.5"/>
     <use xlink:href="#m1c1b8392b6" x="288.700377" y="72.505219" style="fill: #ff0000; stroke: #ff0000; stroke-width: 1.5"/>
     <use xlink:href="#m1c1b8392b6" x="303.191292" y="299.625106" style="fill: #ff0000; stroke: #ff0000; stroke-width: 1.5"/>
     <use xlink:href="#m1c1b8392b6" x="309.80189" y="294.649083" style="fill: #ff0000; stroke: #ff0000; stroke-width: 1.5"/>
     <use xlink:href="#m1c1b8392b6" x="317.027194" y="291.450212" style="fill: #ff0000; stroke: #ff0000; stroke-width: 1.5"/>
     <use xlink:href="#m1c1b8392b6" x="323.275015" y="288.9622" style="fill: #ff0000; stroke: #ff0000; stroke-width: 1.5"/>
     <use xlink:href="#m1c1b8392b6" x="330.863095" y="285.052468" style="fill: #ff0000; stroke: #ff0000; stroke-width: 1.5"/>
     <use xlink:href="#m1c1b8392b6" x="338.098476" y="281.498166" style="fill: #ff0000; stroke: #ff0000; stroke-width: 1.5"/>
     <use xlink:href="#m1c1b8392b6" x="344.709074" y="277.943865" style="fill: #ff0000; stroke: #ff0000; stroke-width: 1.5"/>
     <use xlink:href="#m1c1b8392b6" x="356.186927" y="275.811283" style="fill: #ff0000; stroke: #ff0000; stroke-width: 1.5"/>
     <use xlink:href="#m1c1b8392b6" x="363.392076" y="273.678702" style="fill: #ff0000; stroke: #ff0000; stroke-width: 1.5"/>
     <use xlink:href="#m1c1b8392b6" x="371.816558" y="270.124401" style="fill: #ff0000; stroke: #ff0000; stroke-width: 1.5"/>
     <use xlink:href="#m1c1b8392b6" x="386.861716" y="266.214669" style="fill: #ff0000; stroke: #ff0000; stroke-width: 1.5"/>
     <use xlink:href="#m1c1b8392b6" x="403.71068" y="248.79859" style="fill: #ff0000; stroke: #ff0000; stroke-width: 1.5"/>
     <use xlink:href="#m1c1b8392b6" x="417.385347" y="260.172355" style="fill: #ff0000; stroke: #ff0000; stroke-width: 1.5"/>
     <use xlink:href="#m1c1b8392b6" x="430.02207" y="257.684344" style="fill: #ff0000; stroke: #ff0000; stroke-width: 1.5"/>
     <use xlink:href="#m1c1b8392b6" x="441.258072" y="258.039774" style="fill: #ff0000; stroke: #ff0000; stroke-width: 1.5"/>
     <use xlink:href="#m1c1b8392b6" x="451.506515" y="255.196333" style="fill: #ff0000; stroke: #ff0000; stroke-width: 1.5"/>
     <use xlink:href="#m1c1b8392b6" x="462.722362" y="255.196333" style="fill: #ff0000; stroke: #ff0000; stroke-width: 1.5"/>
     <use xlink:href="#m1c1b8392b6" x="476.779961" y="254.840903" style="fill: #ff0000; stroke: #ff0000; stroke-width: 1.5"/>
     <use xlink:href="#m1c1b8392b6" x="489.406607" y="253.419182" style="fill: #ff0000; stroke: #ff0000; stroke-width: 1.5"/>
     <use xlink:href="#m1c1b8392b6" x="500.259678" y="252.352891" style="fill: #ff0000; stroke: #ff0000; stroke-width: 1.5"/>
     <use xlink:href="#m1c1b8392b6" x="509.691873" y="251.642031" style="fill: #ff0000; stroke: #ff0000; stroke-width: 1.5"/>
     <use xlink:href="#m1c1b8392b6" x="520.90772" y="250.57574" style="fill: #ff0000; stroke: #ff0000; stroke-width: 1.5"/>
     <use xlink:href="#m1c1b8392b6" x="534.552156" y="249.86488" style="fill: #ff0000; stroke: #ff0000; stroke-width: 1.5"/>
     <use xlink:href="#m1c1b8392b6" x="550.010476" y="251.286601" style="fill: #ff0000; stroke: #ff0000; stroke-width: 1.5"/>
     <use xlink:href="#m1c1b8392b6" x="559.825602" y="249.86488" style="fill: #ff0000; stroke: #ff0000; stroke-width: 1.5"/>
     <use xlink:href="#m1c1b8392b6" x="571.061604" y="247.376869" style="fill: #ff0000; stroke: #ff0000; stroke-width: 1.5"/>
     <use xlink:href="#m1c1b8392b6" x="582.307683" y="250.57574" style="fill: #ff0000; stroke: #ff0000; stroke-width: 1.5"/>
     <use xlink:href="#m1c1b8392b6" x="599.166724" y="246.310578" style="fill: #ff0000; stroke: #ff0000; stroke-width: 1.5"/>
     <use xlink:href="#m1c1b8392b6" x="620.197698" y="247.021439" style="fill: #ff0000; stroke: #ff0000; stroke-width: 1.5"/>
    </g>
   </g>
   <g id="matplotlib.axis_1">
    <g id="xtick_1">
     <g id="line2d_1">
      <defs>
       <path id="mc95ac61a32" d="M 0 0 
L 0 3.5 
" style="stroke: #000000; stroke-width: 0.8"/>
      </defs>
      <g>
       <use xlink:href="#mc95ac61a32" x="114.073764" y="320.4" style="stroke: #000000; stroke-width: 0.8"/>
      </g>
     </g>
     <g id="text_1">
      <!-- 0 -->
      <g transform="translate(110.892514 334.998438)scale(0.1 -0.1)">
       <defs>
        <path id="DejaVuSans-30" d="M 2034 4250 
Q 1547 4250 1301 3770 
Q 1056 3291 1056 2328 
Q 1056 1369 1301 889 
Q 1547 409 2034 409 
Q 2525 409 2770 889 
Q 3016 1369 3016 2328 
Q 3016 3291 2770 3770 
Q 2525 4250 2034 4250 
z
M 2034 4750 
Q 2819 4750 3233 4129 
Q 3647 3509 3647 2328 
Q 3647 1150 3233 529 
Q 2819 -91 2034 -91 
Q 1250 -91 836 529 
Q 422 1150 422 2328 
Q 422 3509 836 4129 
Q 1250 4750 2034 4750 
z
" transform="scale(0.015625)"/>
       </defs>
       <use xlink:href="#DejaVuSans-30"/>
      </g>
     </g>
    </g>
    <g id="xtick_2">
     <g id="line2d_2">
      <g>
       <use xlink:href="#mc95ac61a32" x="214.845079" y="320.4" style="stroke: #000000; stroke-width: 0.8"/>
      </g>
     </g>
     <g id="text_2">
      <!-- 10 -->
      <g transform="translate(208.482579 334.998438)scale(0.1 -0.1)">
       <defs>
        <path id="DejaVuSans-31" d="M 794 531 
L 1825 531 
L 1825 4091 
L 703 3866 
L 703 4441 
L 1819 4666 
L 2450 4666 
L 2450 531 
L 3481 531 
L 3481 0 
L 794 0 
L 794 531 
z
" transform="scale(0.015625)"/>
       </defs>
       <use xlink:href="#DejaVuSans-31"/>
       <use xlink:href="#DejaVuSans-30" x="63.623047"/>
      </g>
     </g>
    </g>
    <g id="xtick_3">
     <g id="line2d_3">
      <g>
       <use xlink:href="#mc95ac61a32" x="315.616395" y="320.4" style="stroke: #000000; stroke-width: 0.8"/>
      </g>
     </g>
     <g id="text_3">
      <!-- 20 -->
      <g transform="translate(309.253895 334.998438)scale(0.1 -0.1)">
       <defs>
        <path id="DejaVuSans-32" d="M 1228 531 
L 3431 531 
L 3431 0 
L 469 0 
L 469 531 
Q 828 903 1448 1529 
Q 2069 2156 2228 2338 
Q 2531 2678 2651 2914 
Q 2772 3150 2772 3378 
Q 2772 3750 2511 3984 
Q 2250 4219 1831 4219 
Q 1534 4219 1204 4116 
Q 875 4013 500 3803 
L 500 4441 
Q 881 4594 1212 4672 
Q 1544 4750 1819 4750 
Q 2544 4750 2975 4387 
Q 3406 4025 3406 3419 
Q 3406 3131 3298 2873 
Q 3191 2616 2906 2266 
Q 2828 2175 2409 1742 
Q 1991 1309 1228 531 
z
" transform="scale(0.015625)"/>
       </defs>
       <use xlink:href="#DejaVuSans-32"/>
       <use xlink:href="#DejaVuSans-30" x="63.623047"/>
      </g>
     </g>
    </g>
    <g id="xtick_4">
     <g id="line2d_4">
      <g>
       <use xlink:href="#mc95ac61a32" x="416.387711" y="320.4" style="stroke: #000000; stroke-width: 0.8"/>
      </g>
     </g>
     <g id="text_4">
      <!-- 30 -->
      <g transform="translate(410.025211 334.998438)scale(0.1 -0.1)">
       <defs>
        <path id="DejaVuSans-33" d="M 2597 2516 
Q 3050 2419 3304 2112 
Q 3559 1806 3559 1356 
Q 3559 666 3084 287 
Q 2609 -91 1734 -91 
Q 1441 -91 1130 -33 
Q 819 25 488 141 
L 488 750 
Q 750 597 1062 519 
Q 1375 441 1716 441 
Q 2309 441 2620 675 
Q 2931 909 2931 1356 
Q 2931 1769 2642 2001 
Q 2353 2234 1838 2234 
L 1294 2234 
L 1294 2753 
L 1863 2753 
Q 2328 2753 2575 2939 
Q 2822 3125 2822 3475 
Q 2822 3834 2567 4026 
Q 2313 4219 1838 4219 
Q 1578 4219 1281 4162 
Q 984 4106 628 3988 
L 628 4550 
Q 988 4650 1302 4700 
Q 1616 4750 1894 4750 
Q 2613 4750 3031 4423 
Q 3450 4097 3450 3541 
Q 3450 3153 3228 2886 
Q 3006 2619 2597 2516 
z
" transform="scale(0.015625)"/>
       </defs>
       <use xlink:href="#DejaVuSans-33"/>
       <use xlink:href="#DejaVuSans-30" x="63.623047"/>
      </g>
     </g>
    </g>
    <g id="xtick_5">
     <g id="line2d_5">
      <g>
       <use xlink:href="#mc95ac61a32" x="517.159027" y="320.4" style="stroke: #000000; stroke-width: 0.8"/>
      </g>
     </g>
     <g id="text_5">
      <!-- 40 -->
      <g transform="translate(510.796527 334.998438)scale(0.1 -0.1)">
       <defs>
        <path id="DejaVuSans-34" d="M 2419 4116 
L 825 1625 
L 2419 1625 
L 2419 4116 
z
M 2253 4666 
L 3047 4666 
L 3047 1625 
L 3713 1625 
L 3713 1100 
L 3047 1100 
L 3047 0 
L 2419 0 
L 2419 1100 
L 313 1100 
L 313 1709 
L 2253 4666 
z
" transform="scale(0.015625)"/>
       </defs>
       <use xlink:href="#DejaVuSans-34"/>
       <use xlink:href="#DejaVuSans-30" x="63.623047"/>
      </g>
     </g>
    </g>
    <g id="xtick_6">
     <g id="line2d_6">
      <g>
       <use xlink:href="#mc95ac61a32" x="617.930343" y="320.4" style="stroke: #000000; stroke-width: 0.8"/>
      </g>
     </g>
     <g id="text_6">
      <!-- 50 -->
      <g transform="translate(611.567843 334.998438)scale(0.1 -0.1)">
       <defs>
        <path id="DejaVuSans-35" d="M 691 4666 
L 3169 4666 
L 3169 4134 
L 1269 4134 
L 1269 2991 
Q 1406 3038 1543 3061 
Q 1681 3084 1819 3084 
Q 2600 3084 3056 2656 
Q 3513 2228 3513 1497 
Q 3513 744 3044 326 
Q 2575 -91 1722 -91 
Q 1428 -91 1123 -41 
Q 819 9 494 109 
L 494 744 
Q 775 591 1075 516 
Q 1375 441 1709 441 
Q 2250 441 2565 725 
Q 2881 1009 2881 1497 
Q 2881 1984 2565 2268 
Q 2250 2553 1709 2553 
Q 1456 2553 1204 2497 
Q 953 2441 691 2322 
L 691 4666 
z
" transform="scale(0.015625)"/>
       </defs>
       <use xlink:href="#DejaVuSans-35"/>
       <use xlink:href="#DejaVuSans-30" x="63.623047"/>
      </g>
     </g>
    </g>
   </g>
   <g id="matplotlib.axis_2">
    <g id="ytick_1">
     <g id="line2d_7">
      <defs>
       <path id="me734480453" d="M 0 0 
L -3.5 0 
" style="stroke: #000000; stroke-width: 0.8"/>
      </defs>
      <g>
       <use xlink:href="#me734480453" x="90" y="306.520451" style="stroke: #000000; stroke-width: 0.8"/>
      </g>
     </g>
     <g id="text_7">
      <!-- −4.0 -->
      <g transform="translate(58.717187 310.31967)scale(0.1 -0.1)">
       <defs>
        <path id="DejaVuSans-2212" d="M 678 2272 
L 4684 2272 
L 4684 1741 
L 678 1741 
L 678 2272 
z
" transform="scale(0.015625)"/>
        <path id="DejaVuSans-2e" d="M 684 794 
L 1344 794 
L 1344 0 
L 684 0 
L 684 794 
z
" transform="scale(0.015625)"/>
       </defs>
       <use xlink:href="#DejaVuSans-2212"/>
       <use xlink:href="#DejaVuSans-34" x="83.789062"/>
       <use xlink:href="#DejaVuSans-2e" x="147.412109"/>
       <use xlink:href="#DejaVuSans-30" x="179.199219"/>
      </g>
     </g>
    </g>
    <g id="ytick_2">
     <g id="line2d_8">
      <g>
       <use xlink:href="#me734480453" x="90" y="270.159944" style="stroke: #000000; stroke-width: 0.8"/>
      </g>
     </g>
     <g id="text_8">
      <!-- −3.5 -->
      <g transform="translate(58.717187 273.959162)scale(0.1 -0.1)">
       <use xlink:href="#DejaVuSans-2212"/>
       <use xlink:href="#DejaVuSans-33" x="83.789062"/>
       <use xlink:href="#DejaVuSans-2e" x="147.412109"/>
       <use xlink:href="#DejaVuSans-35" x="179.199219"/>
      </g>
     </g>
    </g>
    <g id="ytick_3">
     <g id="line2d_9">
      <g>
       <use xlink:href="#me734480453" x="90" y="233.799436" style="stroke: #000000; stroke-width: 0.8"/>
      </g>
     </g>
     <g id="text_9">
      <!-- −3.0 -->
      <g transform="translate(58.717187 237.598655)scale(0.1 -0.1)">
       <use xlink:href="#DejaVuSans-2212"/>
       <use xlink:href="#DejaVuSans-33" x="83.789062"/>
       <use xlink:href="#DejaVuSans-2e" x="147.412109"/>
       <use xlink:href="#DejaVuSans-30" x="179.199219"/>
      </g>
     </g>
    </g>
    <g id="ytick_4">
     <g id="line2d_10">
      <g>
       <use xlink:href="#me734480453" x="90" y="197.438928" style="stroke: #000000; stroke-width: 0.8"/>
      </g>
     </g>
     <g id="text_10">
      <!-- −2.5 -->
      <g transform="translate(58.717187 201.238147)scale(0.1 -0.1)">
       <use xlink:href="#DejaVuSans-2212"/>
       <use xlink:href="#DejaVuSans-32" x="83.789062"/>
       <use xlink:href="#DejaVuSans-2e" x="147.412109"/>
       <use xlink:href="#DejaVuSans-35" x="179.199219"/>
      </g>
     </g>
    </g>
    <g id="ytick_5">
     <g id="line2d_11">
      <g>
       <use xlink:href="#me734480453" x="90" y="161.07842" style="stroke: #000000; stroke-width: 0.8"/>
      </g>
     </g>
     <g id="text_11">
      <!-- −2.0 -->
      <g transform="translate(58.717187 164.877639)scale(0.1 -0.1)">
       <use xlink:href="#DejaVuSans-2212"/>
       <use xlink:href="#DejaVuSans-32" x="83.789062"/>
       <use xlink:href="#DejaVuSans-2e" x="147.412109"/>
       <use xlink:href="#DejaVuSans-30" x="179.199219"/>
      </g>
     </g>
    </g>
    <g id="ytick_6">
     <g id="line2d_12">
      <g>
       <use xlink:href="#me734480453" x="90" y="124.717913" style="stroke: #000000; stroke-width: 0.8"/>
      </g>
     </g>
     <g id="text_12">
      <!-- −1.5 -->
      <g transform="translate(58.717187 128.517131)scale(0.1 -0.1)">
       <use xlink:href="#DejaVuSans-2212"/>
       <use xlink:href="#DejaVuSans-31" x="83.789062"/>
       <use xlink:href="#DejaVuSans-2e" x="147.412109"/>
       <use xlink:href="#DejaVuSans-35" x="179.199219"/>
      </g>
     </g>
    </g>
    <g id="ytick_7">
     <g id="line2d_13">
      <g>
       <use xlink:href="#me734480453" x="90" y="88.357405" style="stroke: #000000; stroke-width: 0.8"/>
      </g>
     </g>
     <g id="text_13">
      <!-- −1.0 -->
      <g transform="translate(58.717187 92.156624)scale(0.1 -0.1)">
       <use xlink:href="#DejaVuSans-2212"/>
       <use xlink:href="#DejaVuSans-31" x="83.789062"/>
       <use xlink:href="#DejaVuSans-2e" x="147.412109"/>
       <use xlink:href="#DejaVuSans-30" x="179.199219"/>
      </g>
     </g>
    </g>
    <g id="ytick_8">
     <g id="line2d_14">
      <g>
       <use xlink:href="#me734480453" x="90" y="51.996897" style="stroke: #000000; stroke-width: 0.8"/>
      </g>
     </g>
     <g id="text_14">
      <!-- −0.5 -->
      <g transform="translate(58.717187 55.796116)scale(0.1 -0.1)">
       <use xlink:href="#DejaVuSans-2212"/>
       <use xlink:href="#DejaVuSans-30" x="83.789062"/>
       <use xlink:href="#DejaVuSans-2e" x="147.412109"/>
       <use xlink:href="#DejaVuSans-35" x="179.199219"/>
      </g>
     </g>
    </g>
   </g>
   <g id="line2d_15">
    <path d="M 115.363636 246.666008 
L 116.008573 242.045416 
L 116.996132 243.467137 
L 117.983691 244.177997 
L 118.638704 243.822567 
L 119.616186 243.467137 
L 120.603745 243.467137 
L 121.248681 245.599718 
L 122.226163 242.045416 
L 123.213722 242.400846 
L 123.858658 245.244288 
L 124.846217 243.111707 
L 125.823699 242.045416 
L 126.801181 246.666008 
L 127.78874 245.955148 
L 128.443753 243.467137 
L 129.421235 243.111707 
L 130.398717 245.244288 
L 131.063807 241.689986 
L 132.041289 242.045416 
L 133.059079 242.756276 
L 134.036561 242.400846 
L 135.014043 245.244288 
L 135.679134 244.888858 
L 136.656615 242.400846 
L 138.64181 242.400846 
L 139.296824 244.533427 
L 140.274306 244.177997 
L 141.271942 242.756276 
L 142.249423 243.467137 
L 142.914514 244.533427 
L 143.891996 244.533427 
L 144.879555 243.467137 
L 145.857037 243.467137 
L 146.522127 244.888858 
L 147.509686 244.888858 
L 148.497245 241.334556 
L 149.504958 248.087729 
L 150.492517 244.888858 
L 151.480076 246.310578 
L 152.13509 246.310578 
L 153.112571 241.334556 
L 154.110207 241.334556 
L 155.087689 243.822567 
L 155.742703 242.756276 
L 156.730262 242.045416 
L 157.71782 239.912835 
L 158.705379 240.268265 
L 159.360393 244.533427 
L 160.347952 243.111707 
L 161.325434 243.822567 
L 162.32307 243.822567 
L 163.300551 246.310578 
L 163.965642 244.177997 
L 164.943124 243.111707 
L 165.950837 244.888858 
L 166.938396 244.177997 
L 167.936032 244.888858 
L 168.591045 247.021439 
L 169.578604 245.599718 
L 170.556086 242.756276 
L 171.543645 244.533427 
L 172.521127 247.376869 
L 173.186217 244.177997 
L 174.163699 244.533427 
L 175.151258 245.244288 
L 175.806272 246.310578 
L 176.793831 242.400846 
L 177.791467 243.111707 
L 178.768948 244.177997 
L 179.756507 247.021439 
L 180.411521 245.599718 
L 181.39908 243.111707 
L 182.376561 246.310578 
L 183.394352 243.822567 
L 185.036924 245.599718 
L 186.014406 243.822567 
L 187.001965 243.111707 
L 187.989524 244.888858 
L 188.654614 247.376869 
L 189.632096 244.888858 
L 190.619655 242.756276 
L 191.607214 244.533427 
L 192.25215 246.310578 
L 193.249786 245.244288 
L 194.227268 242.400846 
L 195.214827 243.822567 
L 195.869841 246.310578 
L 196.8574 243.111707 
L 197.844958 242.756276 
L 198.832517 244.533427 
L 199.840231 242.045416 
L 200.827789 245.955148 
L 201.482803 245.244288 
L 202.470362 242.756276 
L 203.447844 243.111707 
L 204.44548 245.244288 
L 205.090416 246.310578 
L 206.088052 244.533427 
L 207.065534 242.045416 
L 208.06317 243.111707 
L 209.040652 246.666008 
L 209.705742 245.244288 
L 210.683224 242.756276 
L 211.68086 244.177997 
L 212.658342 244.177997 
L 213.313355 244.533427 
L 214.300914 240.623695 
L 215.288473 243.822567 
L 216.265955 244.177997 
L 217.283745 246.666008 
L 218.281381 246.310578 
L 218.926318 244.177997 
L 219.923954 243.467137 
L 220.901436 243.822567 
L 221.888994 245.244288 
L 222.554085 245.599718 
L 223.531567 243.467137 
L 224.519126 243.467137 
L 226.161698 248.443159 
L 227.13918 247.021439 
L 228.146893 244.888858 
L 229.124375 246.666008 
L 230.777025 247.732299 
L 232.107206 250.22031 
L 232.772297 247.021439 
L 233.749778 246.310578 
L 234.72726 249.86488 
L 235.382274 248.79859 
L 236.359755 244.177997 
L 237.347314 240.979126 
L 238.34495 236.003103 
L 238.989887 229.96079 
L 239.967369 227.828209 
L 241.609941 223.918477 
L 242.587423 216.454443 
L 244.552463 215.032722 
L 245.217554 211.12299 
L 246.195036 211.47842 
L 248.180231 157.808463 
L 249.822803 124.753456 
L 251.787844 217.876164 
L 252.442857 223.563047 
L 253.430416 223.563047 
L 254.407898 224.629337 
L 255.38538 226.761918 
L 256.050471 221.430465 
L 258.005434 210.41213 
L 259.00307 212.189281 
L 261.623124 55.8 
L 265.250892 238.135684 
L 266.238451 242.756276 
L 266.893464 243.467137 
L 267.881023 240.623695 
L 268.878659 238.491114 
L 269.866218 231.737941 
L 270.853777 229.96079 
L 271.831259 222.852186 
L 272.496349 217.165303 
L 276.103962 90.987588 
L 278.109312 227.828209 
L 279.479801 247.021439 
L 280.144892 253.063752 
L 281.122374 258.750635 
L 282.109933 259.816925 
L 283.107569 258.395205 
L 284.085051 259.816925 
L 285.7377 246.666008 
L 288.700377 72.505219 
L 289.35539 77.481241 
L 292.318067 258.039774 
L 293.32578 273.323272 
L 293.980794 277.233004 
L 294.968353 292.161072 
L 295.955912 303.890268 
L 296.943471 304.601128 
L 297.598484 307.8 
L 298.586043 305.667419 
L 299.583679 301.757687 
L 300.561161 301.757687 
L 301.558797 300.691396 
L 302.203733 301.402257 
L 303.191292 299.625106 
L 304.178851 299.980536 
L 304.833865 302.113117 
L 305.811346 299.269676 
L 306.808982 297.847955 
L 307.786464 296.070804 
L 308.804254 297.492525 
L 309.80189 294.649083 
L 310.779372 296.426234 
L 311.444463 294.649083 
L 312.421945 294.293653 
L 313.409504 294.293653 
L 315.052076 297.492525 
L 316.029558 292.161072 
L 317.027194 291.450212 
L 318.004676 292.871932 
L 318.659689 292.871932 
L 319.657325 291.805642 
L 320.644884 290.028491 
L 321.622366 290.028491 
L 322.287456 292.161072 
L 323.275015 288.9622 
L 324.282729 290.383921 
L 325.270287 286.829619 
L 326.257846 286.829619 
L 327.235328 289.31763 
L 327.900419 289.673061 
L 328.877901 286.474189 
L 329.875537 285.407898 
L 330.863095 285.052468 
L 331.850654 286.829619 
L 332.515745 286.118759 
L 333.493227 283.986178 
L 334.480786 282.919887 
L 335.135799 287.54048 
L 336.123358 284.341608 
L 337.10084 282.209027 
L 338.098476 281.498166 
L 339.116266 281.498166 
L 340.103825 281.853597 
L 341.746398 283.630748 
L 342.723879 281.142736 
L 343.721515 281.142736 
L 344.709074 277.943865 
L 345.686556 283.630748 
L 346.351647 282.919887 
L 347.329129 279.365585 
L 348.316687 280.787306 
L 349.314323 280.787306 
L 349.969337 280.076446 
L 350.946819 277.943865 
L 351.944455 279.721016 
L 352.932014 280.076446 
L 353.587027 279.010155 
L 354.554432 277.943865 
L 355.199368 279.365585 
L 356.186927 275.811283 
L 357.164409 275.811283 
L 358.141891 277.233004 
L 358.806981 277.588434 
L 359.79454 275.455853 
L 360.772022 276.166714 
L 361.759581 276.522144 
L 362.414595 276.522144 
L 363.392076 273.678702 
L 365.024572 276.166714 
L 366.002053 273.678702 
L 366.999689 273.323272 
L 367.644626 275.455853 
L 368.632185 273.323272 
L 370.425914 273.323272 
L 371.816558 270.124401 
L 373.207202 272.256982 
L 374.265301 271.546121 
L 375.655945 271.190691 
L 377.056667 270.124401 
L 379.848032 268.70268 
L 381.248753 269.41354 
L 382.639398 268.70268 
L 384.040119 270.124401 
L 385.44084 269.41354 
L 386.861716 266.214669 
L 387.909737 269.76897 
L 389.653081 268.34725 
L 391.073957 268.70268 
L 392.474678 267.991819 
L 393.5227 268.70268 
L 395.276121 266.925529 
L 396.324142 266.214669 
L 397.724864 266.925529 
L 399.135662 265.503808 
L 400.536383 261.949506 
L 402.320036 252.708322 
L 403.71068 248.79859 
L 404.768779 256.973484 
L 406.1695 261.594076 
L 407.570221 263.726657 
L 408.970942 261.949506 
L 410.371664 263.726657 
L 411.772385 263.015797 
L 414.583905 263.726657 
L 415.984626 262.660367 
L 417.385347 260.172355 
L 419.158923 262.660367 
L 420.217021 262.304937 
L 421.617743 260.527786 
L 423.018464 263.015797 
L 424.419185 259.816925 
L 425.829984 260.172355 
L 427.230705 259.461495 
L 428.621349 259.461495 
L 430.02207 257.684344 
L 431.432869 260.527786 
L 432.823513 258.750635 
L 434.234311 257.684344 
L 437.065985 259.461495 
L 438.466707 259.106065 
L 439.857351 258.395205 
L 441.258072 258.039774 
L 442.668871 258.395205 
L 444.069592 257.684344 
L 445.470313 258.750635 
L 446.881112 257.328914 
L 448.281833 258.039774 
L 449.682554 256.973484 
L 451.506515 255.196333 
L 452.907236 256.618054 
L 454.318035 257.684344 
L 455.718756 258.039774 
L 457.119477 256.262623 
L 458.530276 256.618054 
L 459.930997 257.328914 
L 462.722362 255.196333 
L 464.133161 256.973484 
L 465.533882 257.684344 
L 466.944681 257.328914 
L 468.375633 256.618054 
L 469.776354 256.973484 
L 471.177076 258.395205 
L 472.56772 255.196333 
L 473.978518 257.328914 
L 475.37924 255.551763 
L 476.779961 254.840903 
L 478.180682 255.907193 
L 479.591481 254.840903 
L 480.992202 256.262623 
L 482.392923 255.551763 
L 483.783567 255.907193 
L 485.21452 254.485472 
L 486.615241 253.774612 
L 488.015963 253.774612 
L 489.406607 253.419182 
L 490.807328 255.551763 
L 491.85535 255.907193 
L 493.245994 258.039774 
L 494.646715 254.130042 
L 496.037359 253.419182 
L 497.438081 254.485472 
L 498.838802 254.485472 
L 500.259678 252.352891 
L 501.660399 254.485472 
L 502.698343 255.551763 
L 504.441687 252.352891 
L 505.499786 255.196333 
L 506.89043 255.907193 
L 508.281074 253.063752 
L 509.691873 251.642031 
L 512.483238 254.485472 
L 513.53126 254.130042 
L 514.921904 254.130042 
L 516.322625 253.419182 
L 518.0962 253.774612 
L 519.154299 256.262623 
L 520.90772 250.57574 
L 522.308441 254.130042 
L 523.356463 253.419182 
L 525.119961 253.063752 
L 526.167983 253.774612 
L 527.911327 254.485472 
L 528.959348 252.708322 
L 530.370147 253.419182 
L 531.780945 252.352891 
L 533.151435 251.997461 
L 534.552156 249.86488 
L 535.962955 252.708322 
L 537.363676 253.063752 
L 538.764397 250.57574 
L 540.165119 252.708322 
L 541.56584 252.708322 
L 542.976638 253.419182 
L 544.37736 251.286601 
L 545.425381 252.708322 
L 546.826103 252.708322 
L 548.226824 253.419182 
L 550.010476 251.286601 
L 551.411198 253.063752 
L 552.821996 252.352891 
L 554.222717 250.931171 
L 555.613361 252.708322 
L 557.02416 251.997461 
L 558.424881 252.352891 
L 559.825602 249.86488 
L 560.873624 251.997461 
L 562.274345 250.931171 
L 563.675067 250.57574 
L 565.075788 251.286601 
L 566.869517 250.931171 
L 568.260162 252.352891 
L 569.660883 251.642031 
L 571.061604 247.376869 
L 572.119703 252.352891 
L 573.863047 251.642031 
L 575.273845 251.997461 
L 576.331944 253.419182 
L 578.075288 252.708322 
L 579.123309 250.931171 
L 580.524031 250.931171 
L 582.307683 250.57574 
L 583.708404 252.352891 
L 585.109126 250.57574 
L 586.509847 251.286601 
L 587.920645 253.063752 
L 589.321367 252.352891 
L 590.369388 251.997461 
L 592.112732 252.352891 
L 593.170831 253.419182 
L 594.571552 252.352891 
L 596.324973 250.57574 
L 597.383072 251.997461 
L 599.166724 246.310578 
L 600.557368 250.57574 
L 601.95809 251.642031 
L 603.368888 248.087729 
L 604.769609 251.286601 
L 606.170331 251.997461 
L 607.571052 250.931171 
L 608.98185 250.931171 
L 610.382572 251.286601 
L 611.420516 252.352891 
L 612.831315 252.708322 
L 614.60489 250.22031 
L 616.005611 250.57574 
L 617.406332 249.50945 
L 618.796976 249.50945 
L 620.197698 247.021439 
L 621.245719 251.286601 
L 622.636364 250.57574 
L 622.636364 250.57574 
" clip-path="url(#pca9545421a)" style="fill: none; stroke: #1f77b4; stroke-width: 1.5; stroke-linecap: square"/>
   </g>
   <g id="patch_3">
    <path d="M 90 320.4 
L 90 43.2 
" style="fill: none; stroke: #000000; stroke-width: 0.8; stroke-linejoin: miter; stroke-linecap: square"/>
   </g>
   <g id="patch_4">
    <path d="M 648 320.4 
L 648 43.2 
" style="fill: none; stroke: #000000; stroke-width: 0.8; stroke-linejoin: miter; stroke-linecap: square"/>
   </g>
   <g id="patch_5">
    <path d="M 90 320.4 
L 648 320.4 
" style="fill: none; stroke: #000000; stroke-width: 0.8; stroke-linejoin: miter; stroke-linecap: square"/>
   </g>
   <g id="patch_6">
    <path d="M 90 43.2 
L 648 43.2 
" style="fill: none; stroke: #000000; stroke-width: 0.8; stroke-linejoin: miter; stroke-linecap: square"/>
   </g>
   <g id="text_15">
    <!-- 1234 -->
    <g transform="translate(353.73 37.2)scale(0.12 -0.12)">
     <use xlink:href="#DejaVuSans-31"/>
     <use xlink:href="#DejaVuSans-32" x="63.623047"/>
     <use xlink:href="#DejaVuSans-33" x="127.246094"/>
     <use xlink:href="#DejaVuSans-34" x="190.869141"/>
    </g>
   </g>
   <g id="legend_1">
    <g id="patch_7">
     <path d="M 553.9875 80.834375 
L 641 80.834375 
Q 643 80.834375 643 78.834375 
L 643 50.2 
Q 643 48.2 641 48.2 
L 553.9875 48.2 
Q 551.9875 48.2 551.9875 50.2 
L 551.9875 78.834375 
Q 551.9875 80.834375 553.9875 80.834375 
z
" style="fill: #ffffff; opacity: 0.8; stroke: #cccccc; stroke-linejoin: miter"/>
    </g>
    <g id="line2d_16">
     <path d="M 555.9875 56.298437 
L 565.9875 56.298437 
L 575.9875 56.298437 
" style="fill: none; stroke: #1f77b4; stroke-width: 1.5; stroke-linecap: square"/>
    </g>
    <g id="text_16">
     <!-- 1234 -->
     <g transform="translate(583.9875 59.798437)scale(0.1 -0.1)">
      <use xlink:href="#DejaVuSans-31"/>
      <use xlink:href="#DejaVuSans-32" x="63.623047"/>
      <use xlink:href="#DejaVuSans-33" x="127.246094"/>
      <use xlink:href="#DejaVuSans-34" x="190.869141"/>
     </g>
    </g>
    <g id="PathCollection_2">
     <g>
      <use xlink:href="#m1c1b8392b6" x="565.9875" y="71.851562" style="fill: #ff0000; stroke: #ff0000; stroke-width: 1.5"/>
     </g>
    </g>
    <g id="text_17">
     <!-- 1234_enve -->
     <g transform="translate(583.9875 74.476562)scale(0.1 -0.1)">
      <defs>
       <path id="DejaVuSans-5f" d="M 3263 -1063 
L 3263 -1509 
L -63 -1509 
L -63 -1063 
L 3263 -1063 
z
" transform="scale(0.015625)"/>
       <path id="DejaVuSans-65" d="M 3597 1894 
L 3597 1613 
L 953 1613 
Q 991 1019 1311 708 
Q 1631 397 2203 397 
Q 2534 397 2845 478 
Q 3156 559 3463 722 
L 3463 178 
Q 3153 47 2828 -22 
Q 2503 -91 2169 -91 
Q 1331 -91 842 396 
Q 353 884 353 1716 
Q 353 2575 817 3079 
Q 1281 3584 2069 3584 
Q 2775 3584 3186 3129 
Q 3597 2675 3597 1894 
z
M 3022 2063 
Q 3016 2534 2758 2815 
Q 2500 3097 2075 3097 
Q 1594 3097 1305 2825 
Q 1016 2553 972 2059 
L 3022 2063 
z
" transform="scale(0.015625)"/>
       <path id="DejaVuSans-6e" d="M 3513 2113 
L 3513 0 
L 2938 0 
L 2938 2094 
Q 2938 2591 2744 2837 
Q 2550 3084 2163 3084 
Q 1697 3084 1428 2787 
Q 1159 2491 1159 1978 
L 1159 0 
L 581 0 
L 581 3500 
L 1159 3500 
L 1159 2956 
Q 1366 3272 1645 3428 
Q 1925 3584 2291 3584 
Q 2894 3584 3203 3211 
Q 3513 2838 3513 2113 
z
" transform="scale(0.015625)"/>
       <path id="DejaVuSans-76" d="M 191 3500 
L 800 3500 
L 1894 563 
L 2988 3500 
L 3597 3500 
L 2284 0 
L 1503 0 
L 191 3500 
z
" transform="scale(0.015625)"/>
      </defs>
      <use xlink:href="#DejaVuSans-31"/>
      <use xlink:href="#DejaVuSans-32" x="63.623047"/>
      <use xlink:href="#DejaVuSans-33" x="127.246094"/>
      <use xlink:href="#DejaVuSans-34" x="190.869141"/>
      <use xlink:href="#DejaVuSans-5f" x="254.492188"/>
      <use xlink:href="#DejaVuSans-65" x="304.492188"/>
      <use xlink:href="#DejaVuSans-6e" x="366.015625"/>
      <use xlink:href="#DejaVuSans-76" x="429.394531"/>
      <use xlink:href="#DejaVuSans-65" x="488.574219"/>
     </g>
    </g>
   </g>
  </g>
 </g>
 <defs>
  <clipPath id="pca9545421a">
   <rect x="90" y="43.2" width="558" height="277.2"/>
  </clipPath>
 </defs>
</svg>
