<?xml version="1.0" encoding="utf-8" standalone="no"?>
<!DOCTYPE svg PUBLIC "-//W3C//DTD SVG 1.1//EN"
  "http://www.w3.org/Graphics/SVG/1.1/DTD/svg11.dtd">
<svg xmlns:xlink="http://www.w3.org/1999/xlink" width="460.8pt" height="345.6pt" viewBox="0 0 460.8 345.6" xmlns="http://www.w3.org/2000/svg" version="1.1">
 <metadata>
  <rdf:RDF xmlns:dc="http://purl.org/dc/elements/1.1/" xmlns:cc="http://creativecommons.org/ns#" xmlns:rdf="http://www.w3.org/1999/02/22-rdf-syntax-ns#">
   <cc:Work>
    <dc:type rdf:resource="http://purl.org/dc/dcmitype/StillImage"/>
    <dc:date>2022-10-01T12:23:40.627407</dc:date>
    <dc:format>image/svg+xml</dc:format>
    <dc:creator>
     <cc:Agent>
      <dc:title>Matplotlib v3.5.3, https://matplotlib.org/</dc:title>
     </cc:Agent>
    </dc:creator>
   </cc:Work>
  </rdf:RDF>
 </metadata>
 <defs>
  <style type="text/css">*{stroke-linejoin: round; stroke-linecap: butt}</style>
 </defs>
 <g id="figure_1">
  <g id="patch_1">
   <path d="M 0 345.6 
L 460.8 345.6 
L 460.8 0 
L 0 0 
z
" style="fill: #ffffff"/>
  </g>
  <g id="axes_1">
   <g id="patch_2">
    <path d="M 57.6 307.584 
L 414.72 307.584 
L 414.72 41.472 
L 57.6 41.472 
z
" style="fill: #ffffff"/>
   </g>
   <g id="matplotlib.axis_1">
    <g id="xtick_1">
     <g id="line2d_1">
      <defs>
       <path id="m3a2ee7d042" d="M 0 0 
L 0 3.5 
" style="stroke: #000000; stroke-width: 0.8"/>
      </defs>
      <g>
       <use xlink:href="#m3a2ee7d042" x="73.063983" y="307.584" style="stroke: #000000; stroke-width: 0.8"/>
      </g>
     </g>
     <g id="text_1">
      <!-- 0.0 -->
      <g transform="translate(65.112421 322.182437)scale(0.1 -0.1)">
       <defs>
        <path id="DejaVuSans-30" d="M 2034 4250 
Q 1547 4250 1301 3770 
Q 1056 3291 1056 2328 
Q 1056 1369 1301 889 
Q 1547 409 2034 409 
Q 2525 409 2770 889 
Q 3016 1369 3016 2328 
Q 3016 3291 2770 3770 
Q 2525 4250 2034 4250 
z
M 2034 4750 
Q 2819 4750 3233 4129 
Q 3647 3509 3647 2328 
Q 3647 1150 3233 529 
Q 2819 -91 2034 -91 
Q 1250 -91 836 529 
Q 422 1150 422 2328 
Q 422 3509 836 4129 
Q 1250 4750 2034 4750 
z
" transform="scale(0.015625)"/>
        <path id="DejaVuSans-2e" d="M 684 794 
L 1344 794 
L 1344 0 
L 684 0 
L 684 794 
z
" transform="scale(0.015625)"/>
       </defs>
       <use xlink:href="#DejaVuSans-30"/>
       <use xlink:href="#DejaVuSans-2e" x="63.623047"/>
       <use xlink:href="#DejaVuSans-30" x="95.410156"/>
      </g>
     </g>
    </g>
    <g id="xtick_2">
     <g id="line2d_2">
      <g>
       <use xlink:href="#m3a2ee7d042" x="116.742617" y="307.584" style="stroke: #000000; stroke-width: 0.8"/>
      </g>
     </g>
     <g id="text_2">
      <!-- 2.5 -->
      <g transform="translate(108.791054 322.182437)scale(0.1 -0.1)">
       <defs>
        <path id="DejaVuSans-32" d="M 1228 531 
L 3431 531 
L 3431 0 
L 469 0 
L 469 531 
Q 828 903 1448 1529 
Q 2069 2156 2228 2338 
Q 2531 2678 2651 2914 
Q 2772 3150 2772 3378 
Q 2772 3750 2511 3984 
Q 2250 4219 1831 4219 
Q 1534 4219 1204 4116 
Q 875 4013 500 3803 
L 500 4441 
Q 881 4594 1212 4672 
Q 1544 4750 1819 4750 
Q 2544 4750 2975 4387 
Q 3406 4025 3406 3419 
Q 3406 3131 3298 2873 
Q 3191 2616 2906 2266 
Q 2828 2175 2409 1742 
Q 1991 1309 1228 531 
z
" transform="scale(0.015625)"/>
        <path id="DejaVuSans-35" d="M 691 4666 
L 3169 4666 
L 3169 4134 
L 1269 4134 
L 1269 2991 
Q 1406 3038 1543 3061 
Q 1681 3084 1819 3084 
Q 2600 3084 3056 2656 
Q 3513 2228 3513 1497 
Q 3513 744 3044 326 
Q 2575 -91 1722 -91 
Q 1428 -91 1123 -41 
Q 819 9 494 109 
L 494 744 
Q 775 591 1075 516 
Q 1375 441 1709 441 
Q 2250 441 2565 725 
Q 2881 1009 2881 1497 
Q 2881 1984 2565 2268 
Q 2250 2553 1709 2553 
Q 1456 2553 1204 2497 
Q 953 2441 691 2322 
L 691 4666 
z
" transform="scale(0.015625)"/>
       </defs>
       <use xlink:href="#DejaVuSans-32"/>
       <use xlink:href="#DejaVuSans-2e" x="63.623047"/>
       <use xlink:href="#DejaVuSans-35" x="95.410156"/>
      </g>
     </g>
    </g>
    <g id="xtick_3">
     <g id="line2d_3">
      <g>
       <use xlink:href="#m3a2ee7d042" x="160.42125" y="307.584" style="stroke: #000000; stroke-width: 0.8"/>
      </g>
     </g>
     <g id="text_3">
      <!-- 5.0 -->
      <g transform="translate(152.469687 322.182437)scale(0.1 -0.1)">
       <use xlink:href="#DejaVuSans-35"/>
       <use xlink:href="#DejaVuSans-2e" x="63.623047"/>
       <use xlink:href="#DejaVuSans-30" x="95.410156"/>
      </g>
     </g>
    </g>
    <g id="xtick_4">
     <g id="line2d_4">
      <g>
       <use xlink:href="#m3a2ee7d042" x="204.099883" y="307.584" style="stroke: #000000; stroke-width: 0.8"/>
      </g>
     </g>
     <g id="text_4">
      <!-- 7.5 -->
      <g transform="translate(196.148321 322.182437)scale(0.1 -0.1)">
       <defs>
        <path id="DejaVuSans-37" d="M 525 4666 
L 3525 4666 
L 3525 4397 
L 1831 0 
L 1172 0 
L 2766 4134 
L 525 4134 
L 525 4666 
z
" transform="scale(0.015625)"/>
       </defs>
       <use xlink:href="#DejaVuSans-37"/>
       <use xlink:href="#DejaVuSans-2e" x="63.623047"/>
       <use xlink:href="#DejaVuSans-35" x="95.410156"/>
      </g>
     </g>
    </g>
    <g id="xtick_5">
     <g id="line2d_5">
      <g>
       <use xlink:href="#m3a2ee7d042" x="247.778516" y="307.584" style="stroke: #000000; stroke-width: 0.8"/>
      </g>
     </g>
     <g id="text_5">
      <!-- 10.0 -->
      <g transform="translate(236.645704 322.182437)scale(0.1 -0.1)">
       <defs>
        <path id="DejaVuSans-31" d="M 794 531 
L 1825 531 
L 1825 4091 
L 703 3866 
L 703 4441 
L 1819 4666 
L 2450 4666 
L 2450 531 
L 3481 531 
L 3481 0 
L 794 0 
L 794 531 
z
" transform="scale(0.015625)"/>
       </defs>
       <use xlink:href="#DejaVuSans-31"/>
       <use xlink:href="#DejaVuSans-30" x="63.623047"/>
       <use xlink:href="#DejaVuSans-2e" x="127.246094"/>
       <use xlink:href="#DejaVuSans-30" x="159.033203"/>
      </g>
     </g>
    </g>
    <g id="xtick_6">
     <g id="line2d_6">
      <g>
       <use xlink:href="#m3a2ee7d042" x="291.45715" y="307.584" style="stroke: #000000; stroke-width: 0.8"/>
      </g>
     </g>
     <g id="text_6">
      <!-- 12.5 -->
      <g transform="translate(280.324337 322.182437)scale(0.1 -0.1)">
       <use xlink:href="#DejaVuSans-31"/>
       <use xlink:href="#DejaVuSans-32" x="63.623047"/>
       <use xlink:href="#DejaVuSans-2e" x="127.246094"/>
       <use xlink:href="#DejaVuSans-35" x="159.033203"/>
      </g>
     </g>
    </g>
    <g id="xtick_7">
     <g id="line2d_7">
      <g>
       <use xlink:href="#m3a2ee7d042" x="335.135783" y="307.584" style="stroke: #000000; stroke-width: 0.8"/>
      </g>
     </g>
     <g id="text_7">
      <!-- 15.0 -->
      <g transform="translate(324.002971 322.182437)scale(0.1 -0.1)">
       <use xlink:href="#DejaVuSans-31"/>
       <use xlink:href="#DejaVuSans-35" x="63.623047"/>
       <use xlink:href="#DejaVuSans-2e" x="127.246094"/>
       <use xlink:href="#DejaVuSans-30" x="159.033203"/>
      </g>
     </g>
    </g>
    <g id="xtick_8">
     <g id="line2d_8">
      <g>
       <use xlink:href="#m3a2ee7d042" x="378.814416" y="307.584" style="stroke: #000000; stroke-width: 0.8"/>
      </g>
     </g>
     <g id="text_8">
      <!-- 17.5 -->
      <g transform="translate(367.681604 322.182437)scale(0.1 -0.1)">
       <use xlink:href="#DejaVuSans-31"/>
       <use xlink:href="#DejaVuSans-37" x="63.623047"/>
       <use xlink:href="#DejaVuSans-2e" x="127.246094"/>
       <use xlink:href="#DejaVuSans-35" x="159.033203"/>
      </g>
     </g>
    </g>
   </g>
   <g id="matplotlib.axis_2">
    <g id="ytick_1">
     <g id="line2d_9">
      <defs>
       <path id="m485496a4a8" d="M 0 0 
L -3.5 0 
" style="stroke: #000000; stroke-width: 0.8"/>
      </defs>
      <g>
       <use xlink:href="#m485496a4a8" x="57.6" y="302.236981" style="stroke: #000000; stroke-width: 0.8"/>
      </g>
     </g>
     <g id="text_9">
      <!-- 0.5 -->
      <g transform="translate(34.696875 306.0362)scale(0.1 -0.1)">
       <use xlink:href="#DejaVuSans-30"/>
       <use xlink:href="#DejaVuSans-2e" x="63.623047"/>
       <use xlink:href="#DejaVuSans-35" x="95.410156"/>
      </g>
     </g>
    </g>
    <g id="ytick_2">
     <g id="line2d_10">
      <g>
       <use xlink:href="#m485496a4a8" x="57.6" y="268.883321" style="stroke: #000000; stroke-width: 0.8"/>
      </g>
     </g>
     <g id="text_10">
      <!-- 1.0 -->
      <g transform="translate(34.696875 272.68254)scale(0.1 -0.1)">
       <use xlink:href="#DejaVuSans-31"/>
       <use xlink:href="#DejaVuSans-2e" x="63.623047"/>
       <use xlink:href="#DejaVuSans-30" x="95.410156"/>
      </g>
     </g>
    </g>
    <g id="ytick_3">
     <g id="line2d_11">
      <g>
       <use xlink:href="#m485496a4a8" x="57.6" y="235.52966" style="stroke: #000000; stroke-width: 0.8"/>
      </g>
     </g>
     <g id="text_11">
      <!-- 1.5 -->
      <g transform="translate(34.696875 239.328879)scale(0.1 -0.1)">
       <use xlink:href="#DejaVuSans-31"/>
       <use xlink:href="#DejaVuSans-2e" x="63.623047"/>
       <use xlink:href="#DejaVuSans-35" x="95.410156"/>
      </g>
     </g>
    </g>
    <g id="ytick_4">
     <g id="line2d_12">
      <g>
       <use xlink:href="#m485496a4a8" x="57.6" y="202.176" style="stroke: #000000; stroke-width: 0.8"/>
      </g>
     </g>
     <g id="text_12">
      <!-- 2.0 -->
      <g transform="translate(34.696875 205.975219)scale(0.1 -0.1)">
       <use xlink:href="#DejaVuSans-32"/>
       <use xlink:href="#DejaVuSans-2e" x="63.623047"/>
       <use xlink:href="#DejaVuSans-30" x="95.410156"/>
      </g>
     </g>
    </g>
    <g id="ytick_5">
     <g id="line2d_13">
      <g>
       <use xlink:href="#m485496a4a8" x="57.6" y="168.82234" style="stroke: #000000; stroke-width: 0.8"/>
      </g>
     </g>
     <g id="text_13">
      <!-- 2.5 -->
      <g transform="translate(34.696875 172.621558)scale(0.1 -0.1)">
       <use xlink:href="#DejaVuSans-32"/>
       <use xlink:href="#DejaVuSans-2e" x="63.623047"/>
       <use xlink:href="#DejaVuSans-35" x="95.410156"/>
      </g>
     </g>
    </g>
    <g id="ytick_6">
     <g id="line2d_14">
      <g>
       <use xlink:href="#m485496a4a8" x="57.6" y="135.468679" style="stroke: #000000; stroke-width: 0.8"/>
      </g>
     </g>
     <g id="text_14">
      <!-- 3.0 -->
      <g transform="translate(34.696875 139.267898)scale(0.1 -0.1)">
       <defs>
        <path id="DejaVuSans-33" d="M 2597 2516 
Q 3050 2419 3304 2112 
Q 3559 1806 3559 1356 
Q 3559 666 3084 287 
Q 2609 -91 1734 -91 
Q 1441 -91 1130 -33 
Q 819 25 488 141 
L 488 750 
Q 750 597 1062 519 
Q 1375 441 1716 441 
Q 2309 441 2620 675 
Q 2931 909 2931 1356 
Q 2931 1769 2642 2001 
Q 2353 2234 1838 2234 
L 1294 2234 
L 1294 2753 
L 1863 2753 
Q 2328 2753 2575 2939 
Q 2822 3125 2822 3475 
Q 2822 3834 2567 4026 
Q 2313 4219 1838 4219 
Q 1578 4219 1281 4162 
Q 984 4106 628 3988 
L 628 4550 
Q 988 4650 1302 4700 
Q 1616 4750 1894 4750 
Q 2613 4750 3031 4423 
Q 3450 4097 3450 3541 
Q 3450 3153 3228 2886 
Q 3006 2619 2597 2516 
z
" transform="scale(0.015625)"/>
       </defs>
       <use xlink:href="#DejaVuSans-33"/>
       <use xlink:href="#DejaVuSans-2e" x="63.623047"/>
       <use xlink:href="#DejaVuSans-30" x="95.410156"/>
      </g>
     </g>
    </g>
    <g id="ytick_7">
     <g id="line2d_15">
      <g>
       <use xlink:href="#m485496a4a8" x="57.6" y="102.115019" style="stroke: #000000; stroke-width: 0.8"/>
      </g>
     </g>
     <g id="text_15">
      <!-- 3.5 -->
      <g transform="translate(34.696875 105.914238)scale(0.1 -0.1)">
       <use xlink:href="#DejaVuSans-33"/>
       <use xlink:href="#DejaVuSans-2e" x="63.623047"/>
       <use xlink:href="#DejaVuSans-35" x="95.410156"/>
      </g>
     </g>
    </g>
    <g id="ytick_8">
     <g id="line2d_16">
      <g>
       <use xlink:href="#m485496a4a8" x="57.6" y="68.761358" style="stroke: #000000; stroke-width: 0.8"/>
      </g>
     </g>
     <g id="text_16">
      <!-- 4.0 -->
      <g transform="translate(34.696875 72.560577)scale(0.1 -0.1)">
       <defs>
        <path id="DejaVuSans-34" d="M 2419 4116 
L 825 1625 
L 2419 1625 
L 2419 4116 
z
M 2253 4666 
L 3047 4666 
L 3047 1625 
L 3713 1625 
L 3713 1100 
L 3047 1100 
L 3047 0 
L 2419 0 
L 2419 1100 
L 313 1100 
L 313 1709 
L 2253 4666 
z
" transform="scale(0.015625)"/>
       </defs>
       <use xlink:href="#DejaVuSans-34"/>
       <use xlink:href="#DejaVuSans-2e" x="63.623047"/>
       <use xlink:href="#DejaVuSans-30" x="95.410156"/>
      </g>
     </g>
    </g>
   </g>
   <g id="line2d_17">
    <path d="M 73.832727 80.95517 
L 74.217099 81.933283 
L 74.4617 81.281208 
L 74.968372 87.149887 
L 75.230444 82.585358 
L 75.492515 80.95517 
L 75.737116 85.845736 
L 75.981716 85.845736 
L 76.261259 81.933283 
L 76.50586 82.911396 
L 76.75046 87.149887 
L 77.274604 81.607245 
L 77.781276 87.149887 
L 78.025876 84.867623 
L 78.322891 83.563472 
L 78.567491 84.867623 
L 78.812091 87.801962 
L 79.074163 84.215547 
L 79.336235 83.237434 
L 79.580835 86.497811 
L 79.842907 87.149887 
L 80.087508 84.541585 
L 80.332108 83.563472 
L 80.611651 88.454038 
L 80.856252 84.867623 
L 81.100852 84.215547 
L 81.362924 84.867623 
L 81.624995 88.454038 
L 81.869596 85.19366 
L 82.131668 84.215547 
L 82.620868 88.128 
L 83.145012 85.19366 
L 83.651684 88.454038 
L 83.913756 84.215547 
L 84.158356 83.889509 
L 84.420428 89.432151 
L 84.909629 83.889509 
L 85.189172 86.171774 
L 85.433772 90.410264 
L 85.940444 83.889509 
L 86.202516 86.171774 
L 86.447117 91.06234 
L 86.72666 86.823849 
L 86.97126 85.19366 
L 87.233332 89.758189 
L 87.477932 90.084226 
L 87.740004 86.171774 
L 88.002076 86.171774 
L 88.246676 91.06234 
L 88.491277 90.084226 
L 88.805763 86.823849 
L 89.050363 85.845736 
L 89.574507 91.06234 
L 89.819107 86.497811 
L 90.081179 85.845736 
L 90.343251 90.736302 
L 90.587851 91.388377 
L 90.849923 86.823849 
L 91.111995 87.801962 
L 91.374066 91.388377 
L 91.618667 90.410264 
L 91.880739 87.801962 
L 92.14281 87.801962 
L 92.387411 90.410264 
L 92.666954 89.432151 
L 92.911554 86.497811 
L 93.156155 87.801962 
L 93.435698 92.366491 
L 93.680298 88.780075 
L 93.94237 87.475925 
L 94.221913 89.758189 
L 94.466514 93.018566 
L 94.990657 87.801962 
L 95.235258 92.040453 
L 95.514801 93.996679 
L 96.004002 90.084226 
L 96.283545 93.018566 
L 96.528145 96.931019 
L 96.772745 92.366491 
L 97.052289 91.06234 
L 97.296889 95.30083 
L 97.558961 96.604981 
L 97.821033 90.410264 
L 98.065633 90.410264 
L 98.327705 96.604981 
L 98.589777 96.604981 
L 98.851848 92.692528 
L 99.096449 91.714415 
L 99.358521 95.952906 
L 99.620592 94.648755 
L 99.865193 91.06234 
L 100.144736 91.388377 
L 100.389336 95.626868 
L 100.651408 92.040453 
L 100.91348 90.084226 
L 101.15808 91.388377 
L 101.437624 94.974792 
L 101.682224 90.736302 
L 101.926824 90.410264 
L 102.258782 89.106113 
L 102.503382 92.366491 
L 102.765454 93.018566 
L 103.027526 87.475925 
L 103.534198 92.692528 
L 103.79627 91.06234 
L 104.058342 87.475925 
L 104.302942 88.128 
L 104.582485 93.344604 
L 105.071686 86.497811 
L 105.351229 87.801962 
L 105.595829 92.366491 
L 105.875373 88.128 
L 106.119973 87.475925 
L 106.364573 87.801962 
L 106.644117 89.758189 
L 106.888717 85.845736 
L 107.150789 84.215547 
L 107.412861 86.823849 
L 107.657461 87.801962 
L 107.919533 83.237434 
L 108.181604 83.237434 
L 108.688277 86.497811 
L 108.950348 79.977057 
L 109.21242 78.672906 
L 109.457021 82.585358 
L 109.719092 82.585358 
L 109.998636 78.02083 
L 110.243236 78.998943 
L 110.505308 82.585358 
L 110.76738 83.237434 
L 111.01198 78.02083 
L 111.291523 77.042717 
L 111.536124 84.867623 
L 112.060267 77.694792 
L 112.304867 77.694792 
L 112.549468 82.911396 
L 112.829011 82.911396 
L 113.073611 77.694792 
L 113.353155 82.259321 
L 113.842355 79.977057 
L 114.121899 77.042717 
L 114.366499 79.324981 
L 114.628571 84.541585 
L 114.890643 80.629132 
L 115.135243 78.672906 
L 115.711801 85.845736 
L 116.218473 80.629132 
L 116.725145 86.497811 
L 116.987217 84.215547 
L 117.249289 82.911396 
L 117.493889 88.454038 
L 117.755961 91.714415 
L 118.035504 90.736302 
L 118.280104 84.867623 
L 118.804248 93.996679 
L 119.048848 89.106113 
L 119.328392 88.454038 
L 119.572992 93.670642 
L 119.817592 96.278943 
L 120.341736 90.736302 
L 120.603808 96.604981 
L 120.86588 99.213283 
L 121.11048 95.626868 
L 121.372552 96.931019 
L 121.879224 102.47366 
L 122.141296 96.604981 
L 122.403367 98.561208 
L 122.665439 105.734038 
L 122.91004 104.103849 
L 123.172111 103.777811 
L 123.434183 107.690264 
L 123.678784 117.145358 
L 123.940855 117.145358 
L 124.202927 118.449509 
L 124.447528 125.62234 
L 124.727071 137.685736 
L 124.971671 138.337811 
L 125.216271 141.598189 
L 125.740415 164.42083 
L 126.019958 168.659321 
L 126.28203 175.832151 
L 126.788702 195.394415 
L 127.050774 197.350642 
L 127.295374 196.046491 
L 127.557446 201.589132 
L 127.819518 204.197434 
L 128.885277 185.613283 
L 129.40942 161.160453 
L 129.654021 153.987623 
L 129.916092 142.250264 
L 130.178164 124.318189 
L 130.422765 116.819321 
L 130.684836 117.145358 
L 130.946908 116.167245 
L 131.20898 106.712151 
L 131.471052 104.103849 
L 131.715652 108.668377 
L 132.239796 97.257057 
L 132.484396 97.257057 
L 132.746468 101.169509 
L 133.25314 96.604981 
L 133.532683 96.604981 
L 133.794755 101.495547 
L 134.039355 99.539321 
L 134.301427 96.278943 
L 134.563499 95.952906 
L 134.808099 99.865358 
L 135.087643 97.257057 
L 135.332243 93.344604 
L 135.576843 94.322717 
L 135.856387 100.191396 
L 136.100987 95.30083 
L 136.345587 93.018566 
L 136.869731 104.103849 
L 137.114331 98.887245 
L 137.393874 98.23517 
L 137.638475 103.777811 
L 137.918018 105.081962 
L 138.162618 101.169509 
L 138.407219 100.843472 
L 138.686762 105.408 
L 138.931362 105.734038 
L 139.175963 102.799698 
L 139.455506 102.147623 
L 139.700106 107.364226 
L 139.962178 108.016302 
L 140.22425 103.777811 
L 140.46885 104.755925 
L 140.730922 111.602717 
L 141.237594 106.060075 
L 141.499666 108.34234 
L 141.831624 109.972528 
L 142.076224 113.558943 
L 142.320824 109.646491 
L 142.600368 110.950642 
L 143.369111 129.86083 
L 143.893255 159.856302 
L 144.137855 178.440453 
L 145.168671 219.521208 
L 145.430743 222.129509 
L 145.937415 243.648 
L 146.199487 245.278189 
L 146.444087 248.538566 
L 146.968231 264.188377 
L 147.230303 263.210264 
L 147.474903 265.492528 
L 147.999047 274.295547 
L 148.243647 264.514415 
L 148.52319 264.514415 
L 149.012391 250.168755 
L 149.798606 194.090264 
L 150.07815 177.46234 
L 150.56735 139.315925 
L 150.846893 131.164981 
L 151.091494 129.86083 
L 151.371037 118.449509 
L 151.615637 115.189132 
L 151.860238 117.145358 
L 152.384381 105.734038 
L 152.646453 105.734038 
L 152.908525 110.624604 
L 153.415197 102.147623 
L 153.677269 103.125736 
L 153.939341 109.646491 
L 154.446013 98.887245 
L 154.708085 102.47366 
L 154.952685 107.364226 
L 155.267171 108.34234 
L 155.511772 100.843472 
L 155.773843 102.147623 
L 156.035915 107.364226 
L 156.297987 106.712151 
L 156.560059 102.47366 
L 156.804659 104.103849 
L 157.066731 108.994415 
L 157.328803 104.103849 
L 157.590874 101.821585 
L 157.852946 103.451774 
L 158.115018 107.690264 
L 158.359618 106.712151 
L 158.62169 103.125736 
L 158.883762 104.755925 
L 159.145834 109.972528 
L 159.652506 104.429887 
L 159.914578 107.364226 
L 160.159178 111.602717 
L 160.42125 105.734038 
L 160.683322 104.429887 
L 160.927922 109.972528 
L 161.207465 110.950642 
L 161.452066 106.386113 
L 161.696666 106.386113 
L 162.22081 115.841208 
L 162.482881 113.558943 
L 162.744953 119.101585 
L 162.989554 127.578566 
L 163.513697 135.403472 
L 165.313257 226.041962 
L 165.5928 232.562717 
L 166.361544 265.492528 
L 166.868216 283.098566 
L 167.130288 295.488 
L 167.63696 294.835925 
L 167.899032 294.183849 
L 168.161104 295.488 
L 168.458118 287.663094 
L 169.244334 243.648 
L 170.502278 116.167245 
L 170.76435 107.038189 
L 171.008951 106.712151 
L 171.271022 108.668377 
L 171.533094 98.23517 
L 171.777695 93.018566 
L 172.022295 97.583094 
L 172.301838 92.692528 
L 172.546438 84.215547 
L 172.791039 82.585358 
L 173.053111 87.149887 
L 173.315182 82.259321 
L 173.577254 79.977057 
L 174.083926 91.06234 
L 174.328527 86.823849 
L 174.60807 86.497811 
L 174.85267 92.366491 
L 175.097271 94.648755 
L 175.359342 90.736302 
L 175.621414 88.780075 
L 175.866015 92.692528 
L 176.128086 91.714415 
L 176.390158 84.215547 
L 176.634759 86.497811 
L 176.89683 95.952906 
L 177.141431 93.018566 
L 177.403503 87.475925 
L 177.665574 90.084226 
L 177.910175 96.278943 
L 178.172246 90.736302 
L 178.434318 89.432151 
L 178.94099 99.539321 
L 179.203062 92.692528 
L 179.447663 92.692528 
L 179.971806 100.517434 
L 180.216406 96.604981 
L 180.478478 95.626868 
L 180.74055 102.799698 
L 180.98515 100.191396 
L 181.247222 99.865358 
L 181.876195 103.777811 
L 182.400338 112.58083 
L 182.66241 108.34234 
L 183.431154 135.077434 
L 183.675754 131.164981 
L 184.444498 159.204226 
L 184.689099 162.138566 
L 184.968642 168.659321 
L 185.213242 178.766491 
L 185.719914 188.87366 
L 186.226586 209.740075 
L 186.488658 213.652528 
L 187.502003 240.387623 
L 187.764074 242.343849 
L 188.270746 252.777057 
L 188.532818 251.798943 
L 188.79489 253.103094 
L 189.03949 257.015547 
L 189.563634 245.930264 
L 189.825706 242.669887 
L 190.070306 237.127245 
L 190.856522 183.004981 
L 191.607794 113.558943 
L 192.114466 101.495547 
L 192.63861 85.19366 
L 192.88321 81.933283 
L 193.145282 74.108377 
L 193.389882 63.023094 
L 193.651954 58.458566 
L 193.914026 57.806491 
L 194.158626 53.568 
L 194.403227 53.894038 
L 194.717713 55.524226 
L 194.979785 58.132528 
L 195.224385 59.110642 
L 195.486457 56.50234 
L 195.748528 56.176302 
L 195.993129 61.718943 
L 196.517272 58.458566 
L 196.761873 60.414792 
L 197.041416 64.653283 
L 197.56556 61.066868 
L 197.827631 63.67517 
L 198.072232 67.587623 
L 198.596375 62.044981 
L 198.840976 66.609509 
L 199.120519 69.543849 
L 199.365119 65.305358 
L 199.60972 65.305358 
L 199.889263 68.891774 
L 200.133863 68.891774 
L 200.658007 64.327245 
L 200.902607 68.565736 
L 201.164679 70.521962 
L 201.426751 65.957434 
L 201.688823 65.631396 
L 201.933423 70.195925 
L 202.195495 71.500075 
L 202.457567 66.609509 
L 202.702167 66.935547 
L 202.964239 70.195925 
L 203.226311 70.521962 
L 203.470911 66.609509 
L 203.750454 66.935547 
L 203.995054 72.152151 
L 204.239655 70.195925 
L 204.519198 66.935547 
L 205.043342 73.78234 
L 205.550014 68.891774 
L 205.829557 70.521962 
L 206.074157 74.760453 
L 206.318758 69.217811 
L 206.598301 66.283472 
L 206.842901 71.826113 
L 207.087502 74.434415 
L 207.367045 69.543849 
L 207.611645 69.217811 
L 207.90866 70.195925 
L 208.188203 74.760453 
L 208.694875 67.91366 
L 208.956947 69.869887 
L 209.201548 74.108377 
L 209.725691 68.239698 
L 210.249835 75.412528 
L 210.494435 70.521962 
L 210.756507 69.543849 
L 211.263179 75.412528 
L 211.525251 71.500075 
L 211.787323 70.848 
L 212.031923 74.434415 
L 212.293995 76.064604 
L 212.556067 72.804226 
L 212.818138 72.478189 
L 213.342282 79.324981 
L 213.604354 71.826113 
L 213.848954 70.195925 
L 214.373098 75.412528 
L 214.617698 68.565736 
L 215.141842 75.738566 
L 215.386442 76.064604 
L 215.665985 70.848 
L 215.910586 72.152151 
L 216.190129 76.064604 
L 216.67933 72.478189 
L 216.958873 72.152151 
L 217.203473 77.042717 
L 217.727617 70.195925 
L 217.972217 71.826113 
L 218.234289 78.346868 
L 218.496361 73.78234 
L 218.740961 72.478189 
L 219.003033 74.108377 
L 219.265105 77.368755 
L 219.527176 72.804226 
L 219.771777 71.500075 
L 220.033849 76.064604 
L 220.29592 78.672906 
L 220.540521 73.130264 
L 220.820064 71.826113 
L 221.37915 79.651019 
L 221.885823 72.478189 
L 222.165366 74.108377 
L 222.409966 78.998943 
L 222.672038 74.434415 
L 222.93411 72.478189 
L 223.440782 80.303094 
L 223.702854 75.086491 
L 223.947454 74.434415 
L 224.471598 78.02083 
L 224.716198 74.434415 
L 224.97827 74.434415 
L 225.240342 77.694792 
L 225.502413 79.324981 
L 225.747014 74.760453 
L 226.009086 74.760453 
L 226.271157 79.977057 
L 226.515758 78.346868 
L 226.77783 73.130264 
L 227.284502 79.651019 
L 227.564045 79.977057 
L 227.808645 74.760453 
L 228.332789 80.95517 
L 228.839461 74.108377 
L 229.119004 76.390642 
L 229.363605 82.585358 
L 229.625676 75.412528 
L 229.887748 74.760453 
L 230.39442 80.629132 
L 230.656492 76.390642 
L 230.901093 76.064604 
L 231.425236 80.629132 
L 231.669836 77.042717 
L 231.94938 75.738566 
L 232.19398 79.324981 
L 232.456052 80.95517 
L 232.718124 76.716679 
L 232.962724 76.390642 
L 233.224796 80.95517 
L 233.748939 76.716679 
L 233.99354 75.412528 
L 234.255612 80.95517 
L 234.552626 81.281208 
L 234.83217 77.368755 
L 235.07677 77.042717 
L 235.600913 81.607245 
L 235.845514 77.694792 
L 236.107586 76.390642 
L 236.369657 80.629132 
L 236.614258 82.585358 
L 236.87633 78.672906 
L 237.155873 78.346868 
L 237.400473 80.95517 
L 237.662545 80.95517 
L 237.924617 78.02083 
L 238.169217 77.368755 
L 238.431289 81.281208 
L 238.693361 80.95517 
L 239.200033 78.02083 
L 239.462105 81.607245 
L 239.968777 78.672906 
L 240.49292 83.889509 
L 240.737521 79.977057 
L 240.999593 78.02083 
L 241.261664 79.977057 
L 241.506265 83.889509 
L 241.785808 78.998943 
L 242.030408 78.346868 
L 242.29248 80.303094 
L 242.554552 83.889509 
L 242.799152 79.324981 
L 243.078696 79.324981 
L 243.567896 82.259321 
L 243.847439 81.607245 
L 244.09204 80.303094 
L 244.33664 84.541585 
L 245.122856 78.672906 
L 245.402399 85.19366 
L 245.646999 84.541585 
L 245.891599 79.324981 
L 246.171143 81.281208 
L 246.415743 84.541585 
L 246.939887 80.303094 
L 247.184487 81.281208 
L 247.446559 85.845736 
L 247.761045 83.889509 
L 248.005645 79.651019 
L 248.267717 78.672906 
L 248.529789 84.541585 
L 248.774389 85.19366 
L 249.053933 81.607245 
L 249.298533 81.281208 
L 249.560605 86.823849 
L 249.822676 83.889509 
L 250.084748 82.259321 
L 250.329349 81.607245 
L 250.59142 86.171774 
L 250.853492 84.541585 
L 251.098093 78.346868 
L 251.622236 87.149887 
L 252.14638 78.672906 
L 252.653052 86.497811 
L 252.932595 84.541585 
L 253.177196 81.281208 
L 253.439267 82.259321 
L 253.701339 86.823849 
L 253.963411 82.585358 
L 254.225483 81.933283 
L 254.487555 83.237434 
L 254.732155 86.823849 
L 254.994227 82.259321 
L 255.256298 82.911396 
L 255.780442 86.823849 
L 256.025042 81.607245 
L 256.287114 82.259321 
L 256.793786 87.801962 
L 257.055858 84.215547 
L 257.31793 83.563472 
L 257.580002 84.541585 
L 257.824602 87.149887 
L 258.104145 82.585358 
L 258.348746 81.933283 
L 258.593346 85.19366 
L 258.872889 85.519698 
L 259.11749 81.933283 
L 259.379561 82.585358 
L 259.641633 86.497811 
L 259.938648 88.454038 
L 260.462792 81.607245 
L 260.724863 86.823849 
L 261.004407 88.128 
L 261.249007 84.215547 
L 261.511079 83.563472 
L 262.017751 88.780075 
L 262.279823 84.541585 
L 262.541895 82.585358 
L 262.803966 86.823849 
L 263.048567 88.780075 
L 263.32811 83.237434 
L 263.57271 83.889509 
L 263.817311 84.867623 
L 264.096854 88.454038 
L 264.341454 82.585358 
L 264.603526 81.933283 
L 264.865598 87.801962 
L 265.12767 86.823849 
L 265.389741 84.215547 
L 265.634342 82.911396 
L 265.896414 90.736302 
L 266.158485 87.475925 
L 266.420557 82.585358 
L 266.665157 84.541585 
L 266.944701 90.084226 
L 267.433901 82.911396 
L 267.958045 90.084226 
L 268.482189 84.867623 
L 269.006332 88.780075 
L 269.268404 87.801962 
L 269.530476 83.237434 
L 270.037148 90.084226 
L 270.29922 86.171774 
L 270.54382 84.215547 
L 271.067964 91.714415 
L 271.330036 85.845736 
L 271.592107 86.171774 
L 271.889122 87.475925 
L 272.151194 91.06234 
L 272.657866 85.19366 
L 272.919938 87.149887 
L 273.164538 90.736302 
L 273.42661 86.823849 
L 273.688682 86.171774 
L 273.933282 86.823849 
L 274.195354 90.410264 
L 274.457426 87.801962 
L 274.702026 86.497811 
L 274.946626 89.758189 
L 275.22617 89.432151 
L 275.47077 86.497811 
L 275.71537 86.171774 
L 275.994914 89.758189 
L 276.239514 91.388377 
L 276.484114 86.497811 
L 276.763657 87.475925 
L 277.025729 91.714415 
L 277.532401 87.475925 
L 277.777002 88.128 
L 278.039074 92.692528 
L 278.301145 88.780075 
L 278.545746 86.823849 
L 279.069889 92.040453 
L 279.31449 88.128 
L 279.576561 88.780075 
L 279.838633 91.388377 
L 280.083234 92.692528 
L 280.345305 89.106113 
L 280.607377 89.106113 
L 280.851978 92.692528 
L 281.114049 91.388377 
L 281.35865 89.106113 
L 281.620722 88.454038 
L 281.882793 92.692528 
L 282.127394 91.388377 
L 282.389465 88.128 
L 282.896138 94.322717 
L 283.158209 90.084226 
L 283.420281 90.084226 
L 283.664882 92.040453 
L 284.101668 88.454038 
L 284.398683 89.106113 
L 284.992712 94.648755 
L 285.272255 93.344604 
L 285.586741 89.758189 
L 285.866285 89.758189 
L 286.163299 88.454038 
L 286.739857 93.996679 
L 287.054343 96.278943 
L 287.333887 92.040453 
L 287.630901 91.06234 
L 287.927916 88.780075 
L 288.207459 90.410264 
L 288.801489 94.648755 
L 289.098504 94.322717 
L 289.395518 91.06234 
L 289.675061 90.410264 
L 289.989548 91.06234 
L 290.86312 95.952906 
L 291.439678 89.758189 
L 292.016236 91.714415 
L 292.330722 95.626868 
L 292.610266 95.952906 
L 292.90728 93.018566 
L 293.204295 91.388377 
L 293.483838 91.06234 
L 293.815796 91.714415 
L 294.374882 96.604981 
L 294.689369 95.30083 
L 294.968912 92.040453 
L 295.265927 90.410264 
L 295.842485 92.692528 
L 296.156971 98.23517 
L 296.733529 93.670642 
L 297.030543 90.084226 
L 297.310087 91.388377 
L 297.659516 90.736302 
L 297.95653 92.692528 
L 298.253545 96.278943 
L 298.55056 97.257057 
L 298.830103 95.952906 
L 299.144589 92.040453 
L 299.424132 93.670642 
L 299.738619 92.040453 
L 300.018162 92.040453 
L 300.315177 95.626868 
L 300.612191 96.278943 
L 300.909206 95.30083 
L 301.206221 91.714415 
L 301.503235 91.714415 
L 301.782779 93.670642 
L 302.097265 94.648755 
L 302.376808 97.583094 
L 302.708766 97.909132 
L 303.285324 91.06234 
L 303.582338 90.736302 
L 304.176368 96.278943 
L 304.473382 99.213283 
L 304.752926 97.583094 
L 305.346955 92.040453 
L 305.661441 92.366491 
L 305.940985 94.322717 
L 306.237999 97.257057 
L 306.535014 98.23517 
L 307.426058 93.018566 
L 307.705601 93.344604 
L 308.020087 94.974792 
L 308.299631 97.257057 
L 308.596645 97.909132 
L 308.89366 96.278943 
L 309.190675 91.388377 
L 309.784704 94.322717 
L 310.378734 97.583094 
L 310.675748 100.517434 
L 310.972763 94.648755 
L 311.269778 93.670642 
L 311.619207 93.670642 
L 311.916222 93.344604 
L 312.213236 96.604981 
L 312.510251 98.561208 
L 312.807266 99.213283 
L 313.10428 98.887245 
L 313.401295 94.974792 
L 313.680838 94.648755 
L 313.995325 94.648755 
L 314.292339 94.974792 
L 314.589354 98.23517 
L 314.886369 99.213283 
L 315.165912 98.23517 
L 315.480398 96.278943 
L 316.056956 94.648755 
L 316.441328 93.996679 
L 316.720871 95.30083 
L 317.035357 98.887245 
L 317.314901 99.213283 
L 317.629387 98.23517 
L 317.90893 92.692528 
L 318.205945 94.322717 
L 318.502959 93.996679 
L 319.11446 99.539321 
L 319.394004 100.191396 
L 319.988033 96.278943 
L 320.285048 95.626868 
L 320.582062 95.626868 
L 320.879077 97.909132 
L 321.176092 98.561208 
L 321.490578 100.843472 
L 322.084607 93.996679 
L 322.381622 93.670642 
L 322.661165 94.974792 
L 322.975652 97.909132 
L 323.569681 100.191396 
L 323.849224 97.583094 
L 324.146239 97.583094 
L 324.460725 95.626868 
L 324.740268 94.974792 
L 325.054754 98.23517 
L 325.666255 101.169509 
L 325.980741 101.495547 
L 326.574771 94.974792 
L 326.854314 95.952906 
L 327.151329 96.278943 
L 327.448344 99.865358 
L 327.745358 101.495547 
L 328.042373 99.865358 
L 328.618931 95.30083 
L 328.933417 98.23517 
L 329.230432 98.23517 
L 329.527447 101.821585 
L 329.824461 102.799698 
L 330.418491 96.278943 
L 330.715505 96.278943 
L 331.01252 97.909132 
L 331.309535 98.561208 
L 331.589078 101.821585 
L 331.903564 101.169509 
L 332.183107 98.887245 
L 332.497594 95.30083 
L 332.777137 95.626868 
L 333.074152 99.213283 
L 333.371166 99.865358 
L 333.668181 101.495547 
L 333.947724 102.147623 
L 334.541754 96.604981 
L 334.85624 96.278943 
L 335.135783 99.213283 
L 335.432798 100.517434 
L 335.729812 102.47366 
L 336.323842 98.23517 
L 336.620857 97.583094 
L 336.9004 97.583094 
L 337.494429 103.777811 
L 337.808915 103.125736 
L 338.385473 98.887245 
L 338.699959 96.931019 
L 338.979503 99.539321 
L 339.346403 100.843472 
L 339.625947 100.843472 
L 339.940433 104.103849 
L 340.516991 99.865358 
L 340.814005 94.648755 
L 341.11102 99.213283 
L 341.705049 102.147623 
L 341.984593 104.755925 
L 342.875637 97.909132 
L 343.172652 100.191396 
L 343.469666 101.169509 
L 343.766681 104.755925 
L 344.063696 103.777811 
L 344.343239 100.843472 
L 344.937268 97.909132 
L 345.251754 101.169509 
L 346.125327 104.755925 
L 346.422342 99.865358 
L 346.736828 97.909132 
L 347.016371 99.865358 
L 347.610401 102.147623 
L 347.907415 104.103849 
L 348.79846 98.887245 
L 349.095474 99.213283 
L 349.689504 101.821585 
L 349.986518 105.081962 
L 350.266062 102.147623 
L 350.860091 100.191396 
L 351.174577 100.191396 
L 351.751135 105.081962 
L 352.345165 101.495547 
L 352.659651 101.495547 
L 352.939194 99.213283 
L 353.183794 103.451774 
L 353.49828 105.081962 
L 353.777824 103.451774 
L 354.074838 102.47366 
L 354.668868 99.213283 
L 354.983354 101.169509 
L 355.262897 104.755925 
L 355.559912 107.038189 
L 356.153941 100.517434 
L 356.450956 101.495547 
L 356.747971 100.517434 
L 357.027514 103.451774 
L 357.342 105.408 
L 357.639015 105.081962 
L 357.93603 103.777811 
L 358.233044 101.821585 
L 358.530059 101.169509 
L 358.827074 101.821585 
L 359.124088 103.451774 
L 359.421103 106.712151 
L 359.718118 106.712151 
L 360.312147 100.191396 
L 360.59169 101.495547 
L 360.906177 101.495547 
L 361.18572 105.408 
L 361.482735 107.690264 
L 361.779749 107.364226 
L 362.076764 103.125736 
L 362.373779 101.495547 
L 362.670793 101.169509 
L 363.544366 107.690264 
L 363.858852 104.429887 
L 364.138396 103.777811 
L 364.43541 101.495547 
L 364.732425 101.169509 
L 365.02944 105.081962 
L 365.326454 106.060075 
L 365.623469 106.060075 
L 365.903012 104.103849 
L 366.514513 102.799698 
L 366.863942 104.103849 
L 367.160957 103.451774 
L 367.754986 106.712151 
L 368.052001 107.038189 
L 368.64603 101.495547 
L 368.925574 102.147623 
L 369.834089 107.364226 
L 370.113633 104.755925 
L 370.410647 104.429887 
L 370.707662 101.495547 
L 371.004677 102.147623 
L 371.301691 103.451774 
L 371.598706 107.038189 
L 371.878249 107.690264 
L 372.472279 104.429887 
L 372.786765 101.495547 
L 373.066308 101.169509 
L 373.660338 107.364226 
L 373.957352 108.668377 
L 374.551382 103.777811 
L 374.848396 102.147623 
L 375.145411 105.734038 
L 375.442426 106.060075 
L 375.756912 108.34234 
L 376.036455 106.060075 
L 376.33347 105.408 
L 376.630485 102.799698 
L 376.927499 103.125736 
L 377.241985 104.103849 
L 377.521529 107.364226 
L 377.818543 108.994415 
L 378.115558 107.690264 
L 378.412573 105.734038 
L 378.709588 102.47366 
L 379.880175 108.994415 
L 380.474204 103.777811 
L 380.806162 103.451774 
L 381.120648 102.47366 
L 381.714678 107.038189 
L 381.994221 107.038189 
L 382.273764 108.34234 
L 382.58825 104.103849 
L 382.867793 103.777811 
L 383.147337 103.125736 
L 383.461823 105.081962 
L 383.741366 108.34234 
L 384.055852 109.320453 
L 384.335396 103.777811 
L 384.614939 104.755925 
L 384.946896 103.451774 
L 385.523454 107.364226 
L 385.820469 109.646491 
L 386.414498 105.408 
L 386.694042 103.451774 
L 386.991056 104.103849 
L 387.288071 107.038189 
L 387.567614 107.038189 
L 387.864629 110.624604 
L 388.161644 106.712151 
L 388.458659 104.429887 
L 388.755673 103.125736 
L 389.035216 104.755925 
L 389.629246 109.646491 
L 389.926261 109.320453 
L 390.223275 106.386113 
L 390.502819 104.755925 
L 391.393863 110.950642 
L 391.690877 109.646491 
L 392.267435 103.125736 
L 392.56445 104.103849 
L 392.861465 106.060075 
L 393.438023 112.254792 
L 393.735037 106.386113 
L 394.032052 105.081962 
L 394.381481 105.081962 
L 394.678496 106.060075 
L 394.958039 105.734038 
L 395.272525 108.668377 
L 395.849083 111.276679 
L 396.425641 105.081962 
L 396.722656 106.712151 
L 397.019671 107.690264 
L 397.299214 112.254792 
L 397.6137 110.950642 
L 398.190258 105.081962 
L 398.487273 105.734038 
L 398.487273 105.734038 
" clip-path="url(#p1bca47b342)" style="fill: none; stroke: #1f77b4; stroke-width: 1.5; stroke-linecap: square"/>
   </g>
   <g id="line2d_18">
    <path d="M 74.4617 81.281208 
L 75.492515 80.95517 
L 76.261259 81.933283 
L 77.274604 81.607245 
L 78.322891 83.563472 
L 79.336235 83.237434 
L 80.332108 83.563472 
L 81.100852 84.215547 
L 82.131668 84.215547 
L 83.145012 85.19366 
L 84.158356 83.889509 
L 85.940444 83.889509 
L 87.740004 86.171774 
L 89.050363 85.845736 
L 90.081179 85.845736 
L 90.849923 86.823849 
L 91.880739 87.801962 
L 92.911554 86.497811 
L 93.94237 87.475925 
L 94.990657 87.801962 
L 96.004002 90.084226 
L 97.052289 91.06234 
L 97.821033 90.410264 
L 99.096449 91.714415 
L 102.258782 89.106113 
L 103.027526 87.475925 
L 104.058342 87.475925 
L 105.071686 86.497811 
L 106.119973 87.475925 
L 107.150789 84.215547 
L 107.919533 83.237434 
L 109.21242 78.672906 
L 111.291523 77.042717 
L 112.060267 77.694792 
L 113.073611 77.694792 
L 114.121899 77.042717 
L 115.135243 78.672906 
L 116.218473 80.629132 
L 117.249289 82.911396 
L 118.280104 84.867623 
L 119.328392 88.454038 
L 120.341736 90.736302 
L 121.11048 95.626868 
L 122.141296 96.604981 
L 123.172111 103.777811 
L 127.295374 196.046491 
L 130.422765 116.819321 
L 131.471052 104.103849 
L 132.239796 97.257057 
L 133.25314 96.604981 
L 134.563499 95.952906 
L 135.332243 93.344604 
L 136.345587 93.018566 
L 137.393874 98.23517 
L 138.407219 100.843472 
L 139.455506 102.147623 
L 141.237594 106.060075 
L 142.320824 109.646491 
L 147.230303 263.210264 
L 151.615637 115.189132 
L 152.384381 105.734038 
L 154.446013 98.887245 
L 155.511772 100.843472 
L 156.560059 102.47366 
L 157.590874 101.821585 
L 159.652506 104.429887 
L 160.683322 104.429887 
L 161.452066 106.386113 
L 162.482881 113.558943 
L 167.899032 294.183849 
L 171.008951 106.712151 
L 171.777695 93.018566 
L 172.791039 82.585358 
L 173.577254 79.977057 
L 174.60807 86.497811 
L 175.621414 88.780075 
L 176.390158 84.215547 
L 177.403503 87.475925 
L 178.434318 89.432151 
L 179.203062 92.692528 
L 180.478478 95.626868 
L 181.247222 99.865358 
L 182.66241 108.34234 
L 183.675754 131.164981 
L 188.532818 251.798943 
L 194.158626 53.568 
L 195.748528 56.176302 
L 196.517272 58.458566 
L 197.56556 61.066868 
L 198.596375 62.044981 
L 199.365119 65.305358 
L 200.658007 64.327245 
L 202.457567 66.609509 
L 203.470911 66.609509 
L 204.519198 66.935547 
L 205.550014 68.891774 
L 206.598301 66.283472 
L 207.611645 69.217811 
L 208.694875 67.91366 
L 209.725691 68.239698 
L 211.787323 70.848 
L 212.818138 72.478189 
L 214.617698 68.565736 
L 215.665985 70.848 
L 216.958873 72.152151 
L 217.727617 70.195925 
L 218.740961 72.478189 
L 219.771777 71.500075 
L 220.820064 71.826113 
L 221.885823 72.478189 
L 222.93411 72.478189 
L 223.947454 74.434415 
L 224.716198 74.434415 
L 225.747014 74.760453 
L 226.77783 73.130264 
L 227.808645 74.760453 
L 228.839461 74.108377 
L 229.887748 74.760453 
L 230.901093 76.064604 
L 231.94938 75.738566 
L 232.962724 76.390642 
L 233.99354 75.412528 
L 235.07677 77.042717 
L 236.107586 76.390642 
L 237.155873 78.346868 
L 238.169217 77.368755 
L 239.200033 78.02083 
L 239.968777 78.672906 
L 240.999593 78.02083 
L 242.030408 78.346868 
L 242.799152 79.324981 
L 244.09204 80.303094 
L 245.122856 78.672906 
L 246.939887 80.303094 
L 248.267717 78.672906 
L 249.298533 81.281208 
L 250.329349 81.607245 
L 251.098093 78.346868 
L 252.14638 78.672906 
L 253.177196 81.281208 
L 254.225483 81.933283 
L 254.994227 82.259321 
L 256.025042 81.607245 
L 257.31793 83.563472 
L 258.348746 81.933283 
L 259.11749 81.933283 
L 260.462792 81.607245 
L 261.511079 83.563472 
L 262.541895 82.585358 
L 263.32811 83.237434 
L 264.603526 81.933283 
L 265.634342 82.911396 
L 266.420557 82.585358 
L 267.433901 82.911396 
L 268.482189 84.867623 
L 269.530476 83.237434 
L 270.54382 84.215547 
L 271.330036 85.845736 
L 272.657866 85.19366 
L 273.688682 86.171774 
L 274.702026 86.497811 
L 275.71537 86.171774 
L 276.484114 86.497811 
L 277.532401 87.475925 
L 278.545746 86.823849 
L 279.31449 88.128 
L 280.345305 89.106113 
L 282.389465 88.128 
L 283.158209 90.084226 
L 284.101668 88.454038 
L 286.163299 88.454038 
L 287.927916 88.780075 
L 289.675061 90.410264 
L 291.439678 89.758189 
L 293.483838 91.06234 
L 295.265927 90.410264 
L 297.030543 90.084226 
L 297.659516 90.736302 
L 299.144589 92.040453 
L 299.738619 92.040453 
L 301.206221 91.714415 
L 303.582338 90.736302 
L 305.346955 92.040453 
L 307.426058 93.018566 
L 309.190675 91.388377 
L 313.680838 94.648755 
L 316.441328 93.996679 
L 317.90893 92.692528 
L 318.502959 93.996679 
L 320.285048 95.626868 
L 322.381622 93.670642 
L 324.740268 94.974792 
L 326.574771 94.974792 
L 328.618931 95.30083 
L 330.418491 96.278943 
L 332.497594 95.30083 
L 334.85624 96.278943 
L 336.620857 97.583094 
L 338.699959 96.931019 
L 340.814005 94.648755 
L 342.875637 97.909132 
L 346.736828 97.909132 
L 348.79846 98.887245 
L 350.860091 100.191396 
L 352.939194 99.213283 
L 354.668868 99.213283 
L 356.153941 100.517434 
L 356.747971 100.517434 
L 358.530059 101.169509 
L 360.312147 100.191396 
L 362.670793 101.169509 
L 364.732425 101.169509 
L 367.160957 103.451774 
L 368.64603 101.495547 
L 370.707662 101.495547 
L 373.066308 101.169509 
L 374.848396 102.147623 
L 376.630485 102.799698 
L 378.709588 102.47366 
L 381.120648 102.47366 
L 383.147337 103.125736 
L 384.335396 103.777811 
L 384.946896 103.451774 
L 386.694042 103.451774 
L 388.755673 103.125736 
L 390.502819 104.755925 
L 392.267435 103.125736 
L 394.032052 105.081962 
L 394.958039 105.734038 
L 396.425641 105.081962 
L 398.190258 105.081962 
L 398.190258 105.081962 
" clip-path="url(#p1bca47b342)" style="fill: none; stroke: #ff7f0e; stroke-width: 1.5; stroke-linecap: square"/>
   </g>
   <g id="patch_3">
    <path d="M 57.6 307.584 
L 57.6 41.472 
" style="fill: none; stroke: #000000; stroke-width: 0.8; stroke-linejoin: miter; stroke-linecap: square"/>
   </g>
   <g id="patch_4">
    <path d="M 414.72 307.584 
L 414.72 41.472 
" style="fill: none; stroke: #000000; stroke-width: 0.8; stroke-linejoin: miter; stroke-linecap: square"/>
   </g>
   <g id="patch_5">
    <path d="M 57.6 307.584 
L 414.72 307.584 
" style="fill: none; stroke: #000000; stroke-width: 0.8; stroke-linejoin: miter; stroke-linecap: square"/>
   </g>
   <g id="patch_6">
    <path d="M 57.6 41.472 
L 414.72 41.472 
" style="fill: none; stroke: #000000; stroke-width: 0.8; stroke-linejoin: miter; stroke-linecap: square"/>
   </g>
   <g id="text_17">
    <!-- 1234 -->
    <g transform="translate(220.89 35.472)scale(0.12 -0.12)">
     <use xlink:href="#DejaVuSans-31"/>
     <use xlink:href="#DejaVuSans-32" x="63.623047"/>
     <use xlink:href="#DejaVuSans-33" x="127.246094"/>
     <use xlink:href="#DejaVuSans-34" x="190.869141"/>
    </g>
   </g>
   <g id="legend_1">
    <g id="patch_7">
     <path d="M 320.7075 79.106375 
L 407.72 79.106375 
Q 409.72 79.106375 409.72 77.106375 
L 409.72 48.472 
Q 409.72 46.472 407.72 46.472 
L 320.7075 46.472 
Q 318.7075 46.472 318.7075 48.472 
L 318.7075 77.106375 
Q 318.7075 79.106375 320.7075 79.106375 
z
" style="fill: #ffffff; opacity: 0.8; stroke: #cccccc; stroke-linejoin: miter"/>
    </g>
    <g id="line2d_19">
     <path d="M 322.7075 54.570438 
L 332.7075 54.570438 
L 342.7075 54.570438 
" style="fill: none; stroke: #1f77b4; stroke-width: 1.5; stroke-linecap: square"/>
    </g>
    <g id="text_18">
     <!-- 1234 -->
     <g transform="translate(350.7075 58.070438)scale(0.1 -0.1)">
      <use xlink:href="#DejaVuSans-31"/>
      <use xlink:href="#DejaVuSans-32" x="63.623047"/>
      <use xlink:href="#DejaVuSans-33" x="127.246094"/>
      <use xlink:href="#DejaVuSans-34" x="190.869141"/>
     </g>
    </g>
    <g id="line2d_20">
     <path d="M 322.7075 69.248563 
L 332.7075 69.248563 
L 342.7075 69.248563 
" style="fill: none; stroke: #ff7f0e; stroke-width: 1.5; stroke-linecap: square"/>
    </g>
    <g id="text_19">
     <!-- 1234_enve -->
     <g transform="translate(350.7075 72.748563)scale(0.1 -0.1)">
      <defs>
       <path id="DejaVuSans-5f" d="M 3263 -1063 
L 3263 -1509 
L -63 -1509 
L -63 -1063 
L 3263 -1063 
z
" transform="scale(0.015625)"/>
       <path id="DejaVuSans-65" d="M 3597 1894 
L 3597 1613 
L 953 1613 
Q 991 1019 1311 708 
Q 1631 397 2203 397 
Q 2534 397 2845 478 
Q 3156 559 3463 722 
L 3463 178 
Q 3153 47 2828 -22 
Q 2503 -91 2169 -91 
Q 1331 -91 842 396 
Q 353 884 353 1716 
Q 353 2575 817 3079 
Q 1281 3584 2069 3584 
Q 2775 3584 3186 3129 
Q 3597 2675 3597 1894 
z
M 3022 2063 
Q 3016 2534 2758 2815 
Q 2500 3097 2075 3097 
Q 1594 3097 1305 2825 
Q 1016 2553 972 2059 
L 3022 2063 
z
" transform="scale(0.015625)"/>
       <path id="DejaVuSans-6e" d="M 3513 2113 
L 3513 0 
L 2938 0 
L 2938 2094 
Q 2938 2591 2744 2837 
Q 2550 3084 2163 3084 
Q 1697 3084 1428 2787 
Q 1159 2491 1159 1978 
L 1159 0 
L 581 0 
L 581 3500 
L 1159 3500 
L 1159 2956 
Q 1366 3272 1645 3428 
Q 1925 3584 2291 3584 
Q 2894 3584 3203 3211 
Q 3513 2838 3513 2113 
z
" transform="scale(0.015625)"/>
       <path id="DejaVuSans-76" d="M 191 3500 
L 800 3500 
L 1894 563 
L 2988 3500 
L 3597 3500 
L 2284 0 
L 1503 0 
L 191 3500 
z
" transform="scale(0.015625)"/>
      </defs>
      <use xlink:href="#DejaVuSans-31"/>
      <use xlink:href="#DejaVuSans-32" x="63.623047"/>
      <use xlink:href="#DejaVuSans-33" x="127.246094"/>
      <use xlink:href="#DejaVuSans-34" x="190.869141"/>
      <use xlink:href="#DejaVuSans-5f" x="254.492188"/>
      <use xlink:href="#DejaVuSans-65" x="304.492188"/>
      <use xlink:href="#DejaVuSans-6e" x="366.015625"/>
      <use xlink:href="#DejaVuSans-76" x="429.394531"/>
      <use xlink:href="#DejaVuSans-65" x="488.574219"/>
     </g>
    </g>
   </g>
  </g>
 </g>
 <defs>
  <clipPath id="p1bca47b342">
   <rect x="57.6" y="41.472" width="357.12" height="266.112"/>
  </clipPath>
 </defs>
</svg>
