<?xml version="1.0" encoding="utf-8" standalone="no"?>
<!DOCTYPE svg PUBLIC "-//W3C//DTD SVG 1.1//EN"
  "http://www.w3.org/Graphics/SVG/1.1/DTD/svg11.dtd">
<svg xmlns:xlink="http://www.w3.org/1999/xlink" width="720pt" height="360pt" viewBox="0 0 720 360" xmlns="http://www.w3.org/2000/svg" version="1.1">
 <metadata>
  <rdf:RDF xmlns:dc="http://purl.org/dc/elements/1.1/" xmlns:cc="http://creativecommons.org/ns#" xmlns:rdf="http://www.w3.org/1999/02/22-rdf-syntax-ns#">
   <cc:Work>
    <dc:type rdf:resource="http://purl.org/dc/dcmitype/StillImage"/>
    <dc:date>2022-10-03T11:16:06.686496</dc:date>
    <dc:format>image/svg+xml</dc:format>
    <dc:creator>
     <cc:Agent>
      <dc:title>Matplotlib v3.5.3, https://matplotlib.org/</dc:title>
     </cc:Agent>
    </dc:creator>
   </cc:Work>
  </rdf:RDF>
 </metadata>
 <defs>
  <style type="text/css">*{stroke-linejoin: round; stroke-linecap: butt}</style>
 </defs>
 <g id="figure_1">
  <g id="patch_1">
   <path d="M 0 360 
L 720 360 
L 720 0 
L 0 0 
z
" style="fill: #ffffff"/>
  </g>
  <g id="axes_1">
   <g id="patch_2">
    <path d="M 90 320.4 
L 648 320.4 
L 648 43.2 
L 90 43.2 
z
" style="fill: #ffffff"/>
   </g>
   <g id="matplotlib.axis_1">
    <g id="xtick_1">
     <g id="line2d_1">
      <defs>
       <path id="m74dbf6c6f9" d="M 0 0 
L 0 3.5 
" style="stroke: #000000; stroke-width: 0.8"/>
      </defs>
      <g>
       <use xlink:href="#m74dbf6c6f9" x="115.122618" y="320.4" style="stroke: #000000; stroke-width: 0.8"/>
      </g>
     </g>
     <g id="text_1">
      <!-- 0 -->
      <g transform="translate(111.941368 334.998438)scale(0.1 -0.1)">
       <defs>
        <path id="DejaVuSans-30" d="M 2034 4250 
Q 1547 4250 1301 3770 
Q 1056 3291 1056 2328 
Q 1056 1369 1301 889 
Q 1547 409 2034 409 
Q 2525 409 2770 889 
Q 3016 1369 3016 2328 
Q 3016 3291 2770 3770 
Q 2525 4250 2034 4250 
z
M 2034 4750 
Q 2819 4750 3233 4129 
Q 3647 3509 3647 2328 
Q 3647 1150 3233 529 
Q 2819 -91 2034 -91 
Q 1250 -91 836 529 
Q 422 1150 422 2328 
Q 422 3509 836 4129 
Q 1250 4750 2034 4750 
z
" transform="scale(0.015625)"/>
       </defs>
       <use xlink:href="#DejaVuSans-30"/>
      </g>
     </g>
    </g>
    <g id="xtick_2">
     <g id="line2d_2">
      <g>
       <use xlink:href="#m74dbf6c6f9" x="215.546812" y="320.4" style="stroke: #000000; stroke-width: 0.8"/>
      </g>
     </g>
     <g id="text_2">
      <!-- 10 -->
      <g transform="translate(209.184312 334.998438)scale(0.1 -0.1)">
       <defs>
        <path id="DejaVuSans-31" d="M 794 531 
L 1825 531 
L 1825 4091 
L 703 3866 
L 703 4441 
L 1819 4666 
L 2450 4666 
L 2450 531 
L 3481 531 
L 3481 0 
L 794 0 
L 794 531 
z
" transform="scale(0.015625)"/>
       </defs>
       <use xlink:href="#DejaVuSans-31"/>
       <use xlink:href="#DejaVuSans-30" x="63.623047"/>
      </g>
     </g>
    </g>
    <g id="xtick_3">
     <g id="line2d_3">
      <g>
       <use xlink:href="#m74dbf6c6f9" x="315.971005" y="320.4" style="stroke: #000000; stroke-width: 0.8"/>
      </g>
     </g>
     <g id="text_3">
      <!-- 20 -->
      <g transform="translate(309.608505 334.998438)scale(0.1 -0.1)">
       <defs>
        <path id="DejaVuSans-32" d="M 1228 531 
L 3431 531 
L 3431 0 
L 469 0 
L 469 531 
Q 828 903 1448 1529 
Q 2069 2156 2228 2338 
Q 2531 2678 2651 2914 
Q 2772 3150 2772 3378 
Q 2772 3750 2511 3984 
Q 2250 4219 1831 4219 
Q 1534 4219 1204 4116 
Q 875 4013 500 3803 
L 500 4441 
Q 881 4594 1212 4672 
Q 1544 4750 1819 4750 
Q 2544 4750 2975 4387 
Q 3406 4025 3406 3419 
Q 3406 3131 3298 2873 
Q 3191 2616 2906 2266 
Q 2828 2175 2409 1742 
Q 1991 1309 1228 531 
z
" transform="scale(0.015625)"/>
       </defs>
       <use xlink:href="#DejaVuSans-32"/>
       <use xlink:href="#DejaVuSans-30" x="63.623047"/>
      </g>
     </g>
    </g>
    <g id="xtick_4">
     <g id="line2d_4">
      <g>
       <use xlink:href="#m74dbf6c6f9" x="416.395198" y="320.4" style="stroke: #000000; stroke-width: 0.8"/>
      </g>
     </g>
     <g id="text_4">
      <!-- 30 -->
      <g transform="translate(410.032698 334.998438)scale(0.1 -0.1)">
       <defs>
        <path id="DejaVuSans-33" d="M 2597 2516 
Q 3050 2419 3304 2112 
Q 3559 1806 3559 1356 
Q 3559 666 3084 287 
Q 2609 -91 1734 -91 
Q 1441 -91 1130 -33 
Q 819 25 488 141 
L 488 750 
Q 750 597 1062 519 
Q 1375 441 1716 441 
Q 2309 441 2620 675 
Q 2931 909 2931 1356 
Q 2931 1769 2642 2001 
Q 2353 2234 1838 2234 
L 1294 2234 
L 1294 2753 
L 1863 2753 
Q 2328 2753 2575 2939 
Q 2822 3125 2822 3475 
Q 2822 3834 2567 4026 
Q 2313 4219 1838 4219 
Q 1578 4219 1281 4162 
Q 984 4106 628 3988 
L 628 4550 
Q 988 4650 1302 4700 
Q 1616 4750 1894 4750 
Q 2613 4750 3031 4423 
Q 3450 4097 3450 3541 
Q 3450 3153 3228 2886 
Q 3006 2619 2597 2516 
z
" transform="scale(0.015625)"/>
       </defs>
       <use xlink:href="#DejaVuSans-33"/>
       <use xlink:href="#DejaVuSans-30" x="63.623047"/>
      </g>
     </g>
    </g>
    <g id="xtick_5">
     <g id="line2d_5">
      <g>
       <use xlink:href="#m74dbf6c6f9" x="516.819391" y="320.4" style="stroke: #000000; stroke-width: 0.8"/>
      </g>
     </g>
     <g id="text_5">
      <!-- 40 -->
      <g transform="translate(510.456891 334.998438)scale(0.1 -0.1)">
       <defs>
        <path id="DejaVuSans-34" d="M 2419 4116 
L 825 1625 
L 2419 1625 
L 2419 4116 
z
M 2253 4666 
L 3047 4666 
L 3047 1625 
L 3713 1625 
L 3713 1100 
L 3047 1100 
L 3047 0 
L 2419 0 
L 2419 1100 
L 313 1100 
L 313 1709 
L 2253 4666 
z
" transform="scale(0.015625)"/>
       </defs>
       <use xlink:href="#DejaVuSans-34"/>
       <use xlink:href="#DejaVuSans-30" x="63.623047"/>
      </g>
     </g>
    </g>
    <g id="xtick_6">
     <g id="line2d_6">
      <g>
       <use xlink:href="#m74dbf6c6f9" x="617.243584" y="320.4" style="stroke: #000000; stroke-width: 0.8"/>
      </g>
     </g>
     <g id="text_6">
      <!-- 50 -->
      <g transform="translate(610.881084 334.998438)scale(0.1 -0.1)">
       <defs>
        <path id="DejaVuSans-35" d="M 691 4666 
L 3169 4666 
L 3169 4134 
L 1269 4134 
L 1269 2991 
Q 1406 3038 1543 3061 
Q 1681 3084 1819 3084 
Q 2600 3084 3056 2656 
Q 3513 2228 3513 1497 
Q 3513 744 3044 326 
Q 2575 -91 1722 -91 
Q 1428 -91 1123 -41 
Q 819 9 494 109 
L 494 744 
Q 775 591 1075 516 
Q 1375 441 1709 441 
Q 2250 441 2565 725 
Q 2881 1009 2881 1497 
Q 2881 1984 2565 2268 
Q 2250 2553 1709 2553 
Q 1456 2553 1204 2497 
Q 953 2441 691 2322 
L 691 4666 
z
" transform="scale(0.015625)"/>
       </defs>
       <use xlink:href="#DejaVuSans-35"/>
       <use xlink:href="#DejaVuSans-30" x="63.623047"/>
      </g>
     </g>
    </g>
   </g>
   <g id="matplotlib.axis_2">
    <g id="ytick_1">
     <g id="line2d_7">
      <defs>
       <path id="ma7233a7f07" d="M 0 0 
L -3.5 0 
" style="stroke: #000000; stroke-width: 0.8"/>
      </defs>
      <g>
       <use xlink:href="#ma7233a7f07" x="90" y="299.307945" style="stroke: #000000; stroke-width: 0.8"/>
      </g>
     </g>
     <g id="text_7">
      <!-- −4.0 -->
      <g transform="translate(58.717187 303.107164)scale(0.1 -0.1)">
       <defs>
        <path id="DejaVuSans-2212" d="M 678 2272 
L 4684 2272 
L 4684 1741 
L 678 1741 
L 678 2272 
z
" transform="scale(0.015625)"/>
        <path id="DejaVuSans-2e" d="M 684 794 
L 1344 794 
L 1344 0 
L 684 0 
L 684 794 
z
" transform="scale(0.015625)"/>
       </defs>
       <use xlink:href="#DejaVuSans-2212"/>
       <use xlink:href="#DejaVuSans-34" x="83.789062"/>
       <use xlink:href="#DejaVuSans-2e" x="147.412109"/>
       <use xlink:href="#DejaVuSans-30" x="179.199219"/>
      </g>
     </g>
    </g>
    <g id="ytick_2">
     <g id="line2d_8">
      <g>
       <use xlink:href="#ma7233a7f07" x="90" y="263.993425" style="stroke: #000000; stroke-width: 0.8"/>
      </g>
     </g>
     <g id="text_8">
      <!-- −3.5 -->
      <g transform="translate(58.717187 267.792643)scale(0.1 -0.1)">
       <use xlink:href="#DejaVuSans-2212"/>
       <use xlink:href="#DejaVuSans-33" x="83.789062"/>
       <use xlink:href="#DejaVuSans-2e" x="147.412109"/>
       <use xlink:href="#DejaVuSans-35" x="179.199219"/>
      </g>
     </g>
    </g>
    <g id="ytick_3">
     <g id="line2d_9">
      <g>
       <use xlink:href="#ma7233a7f07" x="90" y="228.678904" style="stroke: #000000; stroke-width: 0.8"/>
      </g>
     </g>
     <g id="text_9">
      <!-- −3.0 -->
      <g transform="translate(58.717187 232.478123)scale(0.1 -0.1)">
       <use xlink:href="#DejaVuSans-2212"/>
       <use xlink:href="#DejaVuSans-33" x="83.789062"/>
       <use xlink:href="#DejaVuSans-2e" x="147.412109"/>
       <use xlink:href="#DejaVuSans-30" x="179.199219"/>
      </g>
     </g>
    </g>
    <g id="ytick_4">
     <g id="line2d_10">
      <g>
       <use xlink:href="#ma7233a7f07" x="90" y="193.364384" style="stroke: #000000; stroke-width: 0.8"/>
      </g>
     </g>
     <g id="text_10">
      <!-- −2.5 -->
      <g transform="translate(58.717187 197.163602)scale(0.1 -0.1)">
       <use xlink:href="#DejaVuSans-2212"/>
       <use xlink:href="#DejaVuSans-32" x="83.789062"/>
       <use xlink:href="#DejaVuSans-2e" x="147.412109"/>
       <use xlink:href="#DejaVuSans-35" x="179.199219"/>
      </g>
     </g>
    </g>
    <g id="ytick_5">
     <g id="line2d_11">
      <g>
       <use xlink:href="#ma7233a7f07" x="90" y="158.049863" style="stroke: #000000; stroke-width: 0.8"/>
      </g>
     </g>
     <g id="text_11">
      <!-- −2.0 -->
      <g transform="translate(58.717187 161.849082)scale(0.1 -0.1)">
       <use xlink:href="#DejaVuSans-2212"/>
       <use xlink:href="#DejaVuSans-32" x="83.789062"/>
       <use xlink:href="#DejaVuSans-2e" x="147.412109"/>
       <use xlink:href="#DejaVuSans-30" x="179.199219"/>
      </g>
     </g>
    </g>
    <g id="ytick_6">
     <g id="line2d_12">
      <g>
       <use xlink:href="#ma7233a7f07" x="90" y="122.735342" style="stroke: #000000; stroke-width: 0.8"/>
      </g>
     </g>
     <g id="text_12">
      <!-- −1.5 -->
      <g transform="translate(58.717187 126.534561)scale(0.1 -0.1)">
       <use xlink:href="#DejaVuSans-2212"/>
       <use xlink:href="#DejaVuSans-31" x="83.789062"/>
       <use xlink:href="#DejaVuSans-2e" x="147.412109"/>
       <use xlink:href="#DejaVuSans-35" x="179.199219"/>
      </g>
     </g>
    </g>
    <g id="ytick_7">
     <g id="line2d_13">
      <g>
       <use xlink:href="#ma7233a7f07" x="90" y="87.420822" style="stroke: #000000; stroke-width: 0.8"/>
      </g>
     </g>
     <g id="text_13">
      <!-- −1.0 -->
      <g transform="translate(58.717187 91.220041)scale(0.1 -0.1)">
       <use xlink:href="#DejaVuSans-2212"/>
       <use xlink:href="#DejaVuSans-31" x="83.789062"/>
       <use xlink:href="#DejaVuSans-2e" x="147.412109"/>
       <use xlink:href="#DejaVuSans-30" x="179.199219"/>
      </g>
     </g>
    </g>
    <g id="ytick_8">
     <g id="line2d_14">
      <g>
       <use xlink:href="#ma7233a7f07" x="90" y="52.106301" style="stroke: #000000; stroke-width: 0.8"/>
      </g>
     </g>
     <g id="text_14">
      <!-- −0.5 -->
      <g transform="translate(58.717187 55.90552)scale(0.1 -0.1)">
       <use xlink:href="#DejaVuSans-2212"/>
       <use xlink:href="#DejaVuSans-30" x="83.789062"/>
       <use xlink:href="#DejaVuSans-2e" x="147.412109"/>
       <use xlink:href="#DejaVuSans-35" x="179.199219"/>
      </g>
     </g>
    </g>
   </g>
   <g id="line2d_15">
    <path d="M 115.363636 240.830137 
L 115.755291 244.627397 
L 116.076648 242.210959 
L 116.408048 241.175342 
L 116.729405 246.353425 
L 117.050763 236.687671 
L 117.382163 244.282192 
L 117.713562 243.246575 
L 118.03492 238.068493 
L 118.36632 246.353425 
L 119.019077 238.758904 
L 119.340434 247.734247 
L 119.671834 238.413699 
L 120.324592 245.663014 
L 120.645949 238.068493 
L 120.977349 245.663014 
L 121.298706 244.282192 
L 121.630106 238.068493 
L 121.941421 247.043836 
L 122.272821 240.139726 
L 122.604221 240.484932 
L 122.925578 246.008219 
L 123.246936 236.687671 
L 123.578335 244.627397 
L 123.899693 244.627397 
L 124.231093 237.032877 
L 124.55245 244.627397 
L 124.873807 239.794521 
L 125.205207 241.175342 
L 125.526565 247.043836 
L 125.857965 237.723288 
L 126.179322 244.972603 
L 126.500679 245.663014 
L 126.832079 236.687671 
L 127.163479 246.353425 
L 127.484836 247.389041 
L 127.806194 241.175342 
L 128.147636 246.353425 
L 128.468994 240.830137 
L 128.790351 240.484932 
L 129.121751 245.663014 
L 129.443108 238.068493 
L 129.774508 245.663014 
L 130.095866 244.972603 
L 130.417223 237.723288 
L 130.748623 246.69863 
L 131.080023 241.175342 
L 131.391338 239.794521 
L 131.722737 246.69863 
L 132.054137 236.342466 
L 132.375495 243.936986 
L 132.706895 244.627397 
L 133.028252 236.687671 
L 133.379737 244.627397 
L 133.711136 246.353425 
L 134.042536 237.378082 
L 134.353851 246.008219 
L 134.685251 242.210959 
L 135.016651 237.032877 
L 135.348051 244.627397 
L 135.669408 240.830137 
L 135.990766 239.794521 
L 136.322165 245.663014 
L 136.653565 239.449315 
L 137.306323 244.972603 
L 137.62768 237.032877 
L 137.969122 244.627397 
L 138.300522 246.008219 
L 138.62188 237.032877 
L 138.953279 246.69863 
L 139.606037 237.032877 
L 139.927394 246.008219 
L 140.258794 239.10411 
L 140.590194 242.90137 
L 140.911551 244.972603 
L 141.232909 238.758904 
L 141.564308 243.936986 
L 141.895708 243.591781 
L 142.227108 237.378082 
L 142.548465 248.079452 
L 142.869823 241.865753 
L 143.201223 238.068493 
L 143.532623 245.663014 
L 143.864022 239.10411 
L 144.506737 246.353425 
L 144.838137 239.10411 
L 145.169537 245.663014 
L 145.490894 245.317808 
L 145.822294 238.068493 
L 146.143652 245.663014 
L 146.475051 243.591781 
L 146.796409 238.068493 
L 147.127809 247.389041 
L 147.459209 239.449315 
L 147.780566 242.210959 
L 148.122008 248.079452 
L 148.443366 239.449315 
L 148.774765 245.317808 
L 149.106165 245.317808 
L 149.427523 235.99726 
L 149.74888 246.353425 
L 150.110407 253.947945 
L 150.431765 242.556164 
L 150.763164 249.805479 
L 151.084522 246.353425 
L 151.415922 239.449315 
L 151.747322 247.043836 
L 152.400079 240.830137 
L 152.721436 248.079452 
L 153.052836 240.830137 
L 153.384236 243.591781 
L 153.705593 248.079452 
L 154.026951 235.99726 
L 154.358351 245.663014 
L 154.68975 244.282192 
L 155.02115 235.99726 
L 155.332465 245.317808 
L 155.995265 238.413699 
L 156.326665 243.936986 
L 156.648022 237.378082 
L 157.300779 245.663014 
L 157.632179 236.687671 
L 157.953537 243.591781 
L 158.294979 245.317808 
L 158.616336 234.616438 
L 158.947736 242.90137 
L 159.279136 242.556164 
L 159.600493 234.961644 
L 159.931893 247.389041 
L 160.253251 239.10411 
L 160.584651 240.484932 
L 160.906008 245.317808 
L 161.237408 237.723288 
L 161.568808 245.663014 
L 161.900208 246.69863 
L 162.211523 238.413699 
L 162.542922 246.69863 
L 162.874322 245.317808 
L 163.205722 238.413699 
L 163.527079 247.043836 
L 163.848437 242.90137 
L 164.179837 240.830137 
L 164.511237 248.769863 
L 164.842636 238.758904 
L 165.163994 247.043836 
L 165.485351 246.353425 
L 165.816751 237.723288 
L 166.148151 247.389041 
L 166.469508 246.353425 
L 166.820993 239.449315 
L 167.152393 246.69863 
L 167.483793 246.353425 
L 167.80515 238.758904 
L 168.13655 247.043836 
L 168.46795 245.317808 
L 168.79935 239.449315 
L 169.130749 249.115068 
L 169.452107 241.520548 
L 169.773464 242.210959 
L 170.104864 247.734247 
L 170.436264 240.139726 
L 170.757621 247.043836 
L 171.078979 247.389041 
L 171.410379 237.378082 
L 171.741778 248.769863 
L 172.394536 239.10411 
L 172.725936 247.734247 
L 173.047293 243.246575 
L 173.36865 241.865753 
L 173.70005 247.043836 
L 174.03145 238.758904 
L 174.352807 244.972603 
L 174.684207 246.353425 
L 175.005565 239.10411 
L 175.336965 247.043836 
L 175.989722 239.794521 
L 176.311079 248.769863 
L 176.642479 240.830137 
L 177.305279 248.079452 
L 177.626636 237.032877 
L 177.947994 246.353425 
L 178.289436 247.734247 
L 178.620836 237.723288 
L 178.942193 245.663014 
L 179.273593 245.317808 
L 179.59495 238.758904 
L 179.92635 248.424658 
L 180.25775 242.210959 
L 180.579107 241.520548 
L 180.900465 245.663014 
L 181.231865 240.139726 
L 181.563265 241.865753 
L 181.884622 247.043836 
L 182.216022 237.723288 
L 182.547422 248.769863 
L 182.868779 245.663014 
L 183.190136 240.830137 
L 183.521536 247.734247 
L 183.873021 244.282192 
L 184.204421 238.413699 
L 184.535821 246.353425 
L 184.857178 239.10411 
L 185.178535 241.175342 
L 185.509935 247.043836 
L 185.841335 240.139726 
L 186.494092 248.079452 
L 186.81545 238.413699 
L 187.14685 246.008219 
L 187.468207 246.353425 
L 187.799607 237.723288 
L 188.131007 247.734247 
L 188.462407 244.627397 
L 188.783764 239.449315 
L 189.115164 247.043836 
L 189.446564 241.865753 
L 189.777964 241.865753 
L 190.089279 247.389041 
L 190.420678 239.449315 
L 190.752078 244.972603 
L 191.083478 245.317808 
L 191.404835 237.378082 
L 191.726193 246.008219 
L 192.057593 243.936986 
L 192.388993 239.10411 
L 192.720392 248.424658 
L 193.031707 240.830137 
L 193.363107 242.556164 
L 193.694507 247.043836 
L 194.025907 239.794521 
L 194.347264 244.282192 
L 194.668622 246.353425 
L 195.000022 237.032877 
L 195.331421 247.734247 
L 195.984179 238.413699 
L 196.305536 248.079452 
L 196.636936 240.830137 
L 196.968336 243.246575 
L 197.289693 247.734247 
L 197.621093 237.723288 
L 197.94245 246.008219 
L 198.27385 244.972603 
L 198.60525 237.378082 
L 198.93665 245.663014 
L 199.26805 244.627397 
L 199.589407 239.10411 
L 199.910765 247.043836 
L 200.242164 243.246575 
L 200.593649 236.687671 
L 200.925049 247.043836 
L 201.256449 242.90137 
L 201.577806 240.484932 
L 201.899164 247.734247 
L 202.230564 239.794521 
L 202.883321 247.043836 
L 203.214721 237.378082 
L 203.54612 244.972603 
L 203.867478 245.663014 
L 204.188835 237.723288 
L 204.520235 247.043836 
L 205.183035 239.794521 
L 205.49435 247.043836 
L 205.82575 240.830137 
L 206.157149 243.246575 
L 206.488549 247.389041 
L 206.819949 239.10411 
L 207.131264 245.663014 
L 207.462664 245.317808 
L 207.794064 236.687671 
L 208.125464 248.079452 
L 208.456863 244.627397 
L 208.788263 237.723288 
L 209.119663 247.734247 
L 209.441021 243.591781 
L 209.762378 241.175342 
L 210.093778 247.043836 
L 210.425178 239.794521 
L 210.746535 246.008219 
L 211.067893 246.353425 
L 211.399292 237.378082 
L 211.730692 245.317808 
L 212.062092 244.627397 
L 212.393492 238.758904 
L 212.704807 247.389041 
L 213.367607 238.758904 
L 213.699006 247.734247 
L 214.020364 239.10411 
L 214.351764 244.972603 
L 214.673121 247.734247 
L 215.004521 235.306849 
L 215.325878 244.972603 
L 215.657278 244.282192 
L 215.988678 238.413699 
L 216.310035 247.043836 
L 216.962793 238.758904 
L 217.32432 246.353425 
L 217.645677 244.627397 
L 217.977077 241.175342 
L 218.298434 247.389041 
L 218.639877 242.556164 
L 218.971277 240.830137 
L 219.302676 246.353425 
L 219.613991 238.758904 
L 219.945391 240.830137 
L 220.276791 247.389041 
L 220.608191 238.068493 
L 220.929548 246.353425 
L 221.260948 246.008219 
L 221.582306 238.413699 
L 221.913705 246.008219 
L 222.566463 239.794521 
L 222.897862 247.734247 
L 223.229262 240.139726 
L 223.55062 242.210959 
L 223.871977 248.079452 
L 224.203377 238.068493 
L 224.534777 246.008219 
L 224.866177 246.353425 
L 225.187534 238.068493 
L 225.518934 248.769863 
L 225.840291 245.663014 
L 226.171691 240.830137 
L 226.493049 249.460274 
L 226.824448 242.90137 
L 227.155848 244.972603 
L 227.487248 250.49589 
L 227.798563 241.520548 
L 228.129963 247.389041 
L 228.461363 249.460274 
L 228.802805 239.449315 
L 229.134205 247.389041 
L 229.455562 246.69863 
L 229.77692 241.175342 
L 230.10832 248.769863 
L 230.439719 244.282192 
L 230.761077 241.865753 
L 231.092477 248.079452 
L 231.423876 242.210959 
L 231.745234 245.317808 
L 232.066591 250.150685 
L 232.428118 244.972603 
L 232.749476 244.627397 
L 233.080876 249.805479 
L 233.412276 241.520548 
L 233.723591 248.079452 
L 234.05499 249.460274 
L 234.38639 240.830137 
L 234.71779 249.805479 
L 235.029105 245.317808 
L 235.360505 244.282192 
L 235.691905 251.531507 
L 236.013262 243.246575 
L 236.33462 247.043836 
L 236.666019 247.043836 
L 236.987377 238.758904 
L 237.318777 245.317808 
L 237.971534 235.652055 
L 238.292891 243.591781 
L 238.634334 235.652055 
L 238.965733 230.819178 
L 239.277048 239.10411 
L 239.608448 224.950685 
L 239.939848 230.473973 
L 240.271248 232.890411 
L 240.582563 222.879452 
L 240.913963 229.093151 
L 241.245363 225.641096 
L 241.56672 220.463014 
L 241.888077 226.331507 
L 242.219477 219.082192 
L 242.540835 219.427397 
L 242.872235 222.189041 
L 243.193592 211.832877 
L 243.524992 219.082192 
L 244.177749 211.142466 
L 244.499106 220.808219 
L 244.820464 213.213699 
L 245.151864 210.452055 
L 245.483264 216.320548 
L 245.814663 206.654795 
L 246.125978 214.249315 
L 246.457378 215.630137 
L 246.788778 207 
L 247.110135 215.284932 
L 247.431493 210.79726 
L 247.782978 202.512329 
L 248.114377 198.715068 
L 248.445777 180.073973 
L 248.767135 154.873973 
L 249.098534 155.219178 
L 249.761334 125.876712 
L 250.404049 122.769863 
L 251.709564 214.594521 
L 252.040963 215.630137 
L 252.362321 213.213699 
L 252.693721 226.331507 
L 253.015078 218.736986 
L 253.336435 224.605479 
L 253.667835 228.057534 
L 253.999235 218.736986 
L 254.320593 228.747945 
L 254.64195 227.712329 
L 254.97335 219.772603 
L 255.30475 229.438356 
L 255.616065 224.260274 
L 255.947464 221.843836 
L 256.278864 228.40274 
L 256.610264 216.665753 
L 256.921579 223.915068 
L 257.252979 220.117808 
L 257.584379 211.142466 
L 257.905736 218.391781 
L 258.237136 210.106849 
L 258.558493 205.964384 
L 258.889893 214.594521 
L 259.221293 208.035616 
L 259.552693 207.690411 
L 259.87405 209.071233 
L 260.526808 149.69589 
L 261.169523 88.939726 
L 261.500922 86.523288 
L 262.163722 55.8 
L 262.836564 84.452055 
L 263.167964 116.556164 
L 263.489321 162.123288 
L 264.142079 194.917808 
L 264.473478 212.523288 
L 264.804878 215.630137 
L 265.136278 234.961644 
L 265.447593 239.10411 
L 265.778993 232.890411 
L 266.110393 246.008219 
L 266.76315 237.378082 
L 267.09455 246.69863 
L 267.415907 238.068493 
L 268.068665 243.246575 
L 268.400064 235.306849 
L 268.731464 242.556164 
L 269.072907 239.449315 
L 269.394264 233.235616 
L 269.715621 239.10411 
L 270.047021 237.032877 
L 270.378421 226.676712 
L 270.709821 236.342466 
L 271.031178 228.747945 
L 271.362578 224.950685 
L 271.693978 230.128767 
L 272.015335 220.117808 
L 272.336693 218.046575 
L 272.668093 221.843836 
L 272.999492 212.523288 
L 273.330892 214.939726 
L 273.662292 215.630137 
L 273.973607 203.547945 
L 274.305007 201.131507 
L 274.967807 131.4 
L 275.289164 124.49589 
L 275.620564 106.545205 
L 275.951964 95.49863 
L 276.283364 93.772603 
L 276.594679 89.975342 
L 276.926078 110.687671 
L 277.910236 212.868493 
L 278.271763 225.986301 
L 278.59312 222.879452 
L 278.974732 227.712329 
L 279.306132 242.556164 
L 279.627489 247.389041 
L 279.958889 241.520548 
L 280.290289 253.257534 
L 280.621689 247.389041 
L 280.953089 250.841096 
L 281.264404 259.471233 
L 281.595803 252.912329 
L 281.927203 261.19726 
L 282.258603 264.649315 
L 282.579961 253.947945 
L 282.91136 262.578082 
L 283.24276 262.923288 
L 283.57416 252.567123 
L 283.885475 261.542466 
L 284.216875 254.293151 
L 284.548275 253.947945 
L 284.879675 258.090411 
L 285.201032 249.115068 
L 285.532432 252.567123 
L 285.863832 254.293151 
L 286.195231 241.175342 
L 286.516589 244.627397 
L 286.837946 225.29589 
L 288.153503 104.819178 
L 288.484903 92.391781 
L 288.816303 74.09589 
L 289.147703 72.024658 
L 289.46906 78.928767 
L 289.80046 76.857534 
L 290.13186 95.49863 
L 291.105975 202.857534 
L 291.437374 240.139726 
L 292.100174 257.4 
L 292.421531 252.567123 
L 292.752931 252.221918 
L 293.084331 267.410959 
L 293.435816 270.517808 
L 293.757173 267.065753 
L 294.088573 276.731507 
L 294.40993 270.863014 
L 295.062688 287.778082 
L 295.394088 285.361644 
L 295.725487 296.408219 
L 296.056887 301.931507 
L 296.378245 296.753425 
L 296.699602 307.8 
L 297.031002 304.693151 
L 297.362402 297.443836 
L 297.693802 307.109589 
L 298.015159 300.550685 
L 298.336516 300.89589 
L 298.667916 306.764384 
L 298.999316 298.479452 
L 299.330716 301.241096 
L 299.662116 305.383562 
L 299.993516 294.682192 
L 300.314873 301.241096 
L 300.63623 300.550685 
L 300.96763 294.682192 
L 301.29903 302.276712 
L 301.96183 293.646575 
L 302.273145 302.621918 
L 302.604545 294.336986 
L 303.267344 300.550685 
L 303.588702 292.610959 
L 303.920102 300.550685 
L 304.241459 298.824658 
L 304.572859 292.956164 
L 304.894216 298.479452 
L 305.225616 295.027397 
L 305.878373 300.89589 
L 306.199731 292.265753 
L 306.86253 298.479452 
L 307.19393 290.884932 
L 307.52533 297.789041 
L 307.836645 297.09863 
L 308.168045 289.158904 
L 308.499445 297.789041 
L 308.850929 295.372603 
L 309.182329 290.539726 
L 309.513729 296.408219 
L 309.845129 295.027397 
L 310.176529 287.778082 
L 310.507929 297.09863 
L 311.150643 289.50411 
L 311.482043 295.372603 
L 311.813443 287.778082 
L 312.456158 295.372603 
L 312.787558 287.432877 
L 313.118958 294.682192 
L 313.440315 293.646575 
L 313.771715 287.432877 
L 314.103115 294.336986 
L 314.424472 290.884932 
L 314.74583 289.158904 
L 315.077229 293.30137 
L 315.408629 290.539726 
L 315.740029 290.884932 
L 316.051344 294.336986 
L 316.382744 285.361644 
L 316.714144 291.575342 
L 317.045544 291.920548 
L 317.376943 284.671233 
L 317.698301 292.610959 
L 318.351058 286.052055 
L 318.682458 293.646575 
L 319.003815 286.052055 
L 319.345258 286.39726 
L 319.676657 292.610959 
L 319.998015 285.016438 
L 320.319372 289.849315 
L 320.650772 290.194521 
L 320.982172 283.290411 
L 321.313572 290.884932 
L 321.634929 288.468493 
L 321.956287 283.290411 
L 322.287687 291.230137 
L 322.619086 285.361644 
L 322.950486 286.742466 
L 323.271844 291.920548 
L 323.603243 282.254795 
L 323.954728 282.945205 
L 324.286128 289.849315 
L 324.607485 283.635616 
L 324.928843 285.706849 
L 325.260243 289.50411 
L 325.591642 280.183562 
L 325.913 288.468493 
L 326.2444 287.432877 
L 326.5758 280.183562 
L 326.897157 288.123288 
L 327.549914 282.6 
L 327.881314 289.50411 
L 328.212714 282.945205 
L 328.544114 285.706849 
L 328.865471 287.432877 
L 329.186829 279.838356 
L 329.528271 285.361644 
L 329.859671 287.432877 
L 330.181028 278.80274 
L 330.512428 287.432877 
L 330.843828 284.671233 
L 331.165185 278.457534 
L 331.486543 286.39726 
L 332.149342 280.183562 
L 332.480742 288.468493 
L 332.812142 279.493151 
L 333.454857 287.087671 
L 333.786257 277.421918 
L 334.117656 286.052055 
L 334.439014 285.706849 
L 334.770414 276.386301 
L 335.091771 285.016438 
L 335.423171 280.873973 
L 335.744528 280.873973 
L 336.075928 286.742466 
L 336.407328 277.767123 
L 337.050043 286.052055 
L 337.381443 275.69589 
L 337.712843 283.290411 
L 338.044242 282.945205 
L 338.375642 275.005479 
L 338.697 286.39726 
L 339.0284 279.838356 
L 339.389927 275.005479 
L 339.721326 284.326027 
L 340.042684 283.290411 
L 340.374084 275.350685 
L 340.695441 283.290411 
L 341.026841 278.457534 
L 341.358241 276.386301 
L 341.679598 283.635616 
L 342.010998 277.076712 
L 342.342398 277.421918 
L 342.663755 282.945205 
L 342.985113 274.660274 
L 343.316513 282.254795 
L 343.647912 281.909589 
L 343.979312 274.660274 
L 344.30067 281.564384 
L 344.63207 279.838356 
L 344.963469 271.553425 
L 345.284827 282.945205 
L 345.606184 277.767123 
L 345.937584 277.076712 
L 346.268984 281.564384 
L 346.600384 276.386301 
L 346.931784 279.838356 
L 347.243099 280.183562 
L 347.574498 272.934247 
L 347.905898 279.838356 
L 348.237298 281.564384 
L 348.558655 274.315068 
L 348.890055 281.219178 
L 349.211413 275.69589 
L 349.552855 274.315068 
L 349.874212 281.909589 
L 350.205612 273.624658 
L 350.537012 277.421918 
L 350.868412 279.493151 
L 351.179727 271.553425 
L 351.511127 278.80274 
L 351.842527 278.112329 
L 352.173926 273.279452 
L 352.505326 279.838356 
L 352.826684 276.041096 
L 353.158084 273.624658 
L 353.479441 281.219178 
L 353.810841 272.589041 
L 354.132198 276.041096 
L 354.463598 280.873973 
L 354.774913 271.553425 
L 355.09627 278.80274 
L 355.417628 272.934247 
L 355.749028 273.969863 
L 356.070385 279.147945 
L 356.401785 269.482192 
L 356.723142 278.112329 
L 357.0445 278.457534 
L 357.3759 269.482192 
L 357.707299 278.112329 
L 358.028657 273.624658 
L 358.350014 270.863014 
L 358.681414 279.147945 
L 359.012814 271.208219 
L 359.665571 277.421918 
L 359.996971 269.136986 
L 360.328371 277.421918 
L 360.649728 277.076712 
L 360.971086 269.827397 
L 361.302486 278.112329 
L 361.623843 272.589041 
L 361.955243 270.172603 
L 362.2766 278.457534 
L 362.608 270.172603 
L 362.929358 273.969863 
L 363.260757 275.69589 
L 363.582115 267.410959 
L 363.903472 275.69589 
L 364.566272 268.791781 
L 364.887629 274.660274 
L 365.208987 269.827397 
L 365.540387 270.863014 
L 365.871786 275.350685 
L 366.183101 267.410959 
L 366.514501 274.660274 
L 366.845901 274.315068 
L 367.177301 267.065753 
L 367.498658 275.69589 
L 367.820016 269.136986 
L 368.151416 269.827397 
L 368.472773 274.660274 
L 368.804173 267.065753 
L 369.12553 273.279452 
L 369.45693 274.315068 
L 369.888754 273.624658 
L 370.240239 272.589041 
L 370.591723 267.065753 
L 371.28465 272.934247 
L 371.626093 271.89863 
L 371.977577 263.958904 
L 372.329062 271.553425 
L 372.680547 276.041096 
L 373.021989 269.482192 
L 373.363431 266.030137 
L 373.714916 272.934247 
L 374.066401 273.969863 
L 374.417885 265.339726 
L 374.759327 266.030137 
L 375.110812 272.589041 
L 375.462297 272.589041 
L 375.803739 264.994521 
L 376.155224 267.065753 
L 376.506708 272.934247 
L 376.848151 270.172603 
L 377.199635 263.958904 
L 377.892562 271.89863 
L 378.244047 269.827397 
L 378.585489 263.268493 
L 379.278416 273.279452 
L 379.981386 262.578082 
L 380.33287 268.446575 
L 380.684355 271.208219 
L 381.377282 263.268493 
L 381.728766 268.446575 
L 382.080251 271.89863 
L 382.421693 265.684932 
L 382.763136 262.578082 
L 383.11462 271.208219 
L 383.466105 270.863014 
L 384.159032 263.958904 
L 384.500474 270.863014 
L 384.851959 270.172603 
L 385.203444 264.649315 
L 385.554928 263.268493 
L 385.896371 272.243836 
L 386.26794 271.89863 
L 386.970909 260.161644 
L 387.322394 267.065753 
L 387.673879 270.863014 
L 388.015321 263.613699 
L 388.71829 269.136986 
L 389.069775 270.172603 
L 389.42126 263.268493 
L 389.75266 262.232877 
L 390.104144 269.827397 
L 390.455629 270.517808 
L 390.817156 264.649315 
L 391.168641 262.578082 
L 391.520125 268.791781 
L 391.861568 269.136986 
L 392.213052 264.30411 
L 392.564537 261.887671 
L 392.916022 268.10137 
L 393.267506 268.446575 
L 393.608949 262.578082 
L 393.960433 262.578082 
L 394.301875 269.136986 
L 394.65336 268.10137 
L 395.004845 261.887671 
L 395.35633 260.852055 
L 395.697772 267.756164 
L 396.049256 268.446575 
L 396.400741 260.161644 
L 396.752226 261.542466 
L 397.10371 267.410959 
L 397.445153 266.030137 
L 397.796637 260.852055 
L 398.148122 262.578082 
L 398.499607 267.756164 
L 398.851091 265.339726 
L 399.202576 259.471233 
L 399.895503 266.030137 
L 400.246988 263.958904 
L 400.598472 256.019178 
L 400.939915 262.578082 
L 401.281357 264.30411 
L 401.642884 260.852055 
L 401.994369 251.186301 
L 402.375981 247.043836 
L 402.727465 255.673973 
L 403.07895 254.293151 
L 403.420392 247.389041 
L 403.761834 243.246575 
L 404.113319 250.49589 
L 404.464804 252.221918 
L 404.816289 251.186301 
L 405.157731 259.471233 
L 405.509215 262.232877 
L 405.8607 262.923288 
L 406.212185 255.673973 
L 406.563669 256.364384 
L 406.915154 266.375342 
L 407.608081 257.745205 
L 407.959566 258.090411 
L 408.31105 265.339726 
L 408.662535 266.030137 
L 409.003977 256.019178 
L 409.355462 259.471233 
L 409.706947 264.994521 
L 410.058431 263.958904 
L 410.399874 257.745205 
L 410.741316 259.471233 
L 411.092801 266.375342 
L 411.444285 264.994521 
L 411.79577 257.054795 
L 412.147255 260.161644 
L 412.508782 265.339726 
L 412.850224 263.268493 
L 413.201709 257.4 
L 413.553193 259.471233 
L 413.904678 263.958904 
L 414.256163 264.30411 
L 414.597605 257.745205 
L 414.94909 259.126027 
L 415.300574 265.339726 
L 415.642017 262.923288 
L 415.993501 256.709589 
L 416.344986 261.19726 
L 416.686428 263.958904 
L 417.037913 262.232877 
L 417.389398 254.293151 
L 417.740882 260.506849 
L 418.092367 263.958904 
L 418.433809 263.268493 
L 418.815421 258.435616 
L 419.156863 256.709589 
L 419.508348 264.649315 
L 419.859833 264.649315 
L 420.211317 256.364384 
L 420.55276 257.4 
L 420.904244 264.30411 
L 421.255729 263.613699 
L 421.607214 254.638356 
L 421.958698 256.364384 
L 422.300141 264.649315 
L 422.651625 261.887671 
L 423.00311 257.054795 
L 423.354595 257.745205 
L 423.706079 264.649315 
L 424.057564 261.887671 
L 424.399006 253.947945 
L 424.750491 256.019178 
L 425.101976 262.923288 
L 425.45346 261.887671 
L 425.804945 254.293151 
L 426.146387 256.709589 
L 426.497872 262.578082 
L 426.849357 261.542466 
L 427.200841 253.60274 
L 427.883726 261.887671 
L 428.23521 260.506849 
L 428.586695 253.60274 
L 429.289664 262.232877 
L 429.641149 258.780822 
L 429.982591 251.876712 
L 430.334076 261.887671 
L 430.685561 264.30411 
L 431.037045 258.090411 
L 431.38853 254.638356 
L 431.729972 259.471233 
L 432.081457 262.578082 
L 432.774384 252.912329 
L 433.125869 262.578082 
L 433.467311 261.542466 
L 433.828838 258.435616 
L 434.180323 251.876712 
L 434.531807 259.126027 
L 434.903377 261.542466 
L 435.254861 260.852055 
L 435.596304 254.638356 
L 435.947788 252.912329 
L 436.299273 260.506849 
L 436.650758 261.542466 
L 437.002242 253.60274 
L 437.353727 256.364384 
L 437.695169 261.19726 
L 438.046654 259.471233 
L 438.398139 253.257534 
L 438.749623 256.364384 
L 439.101108 261.19726 
L 439.432508 259.816438 
L 439.783993 252.567123 
L 440.486962 261.887671 
L 440.838447 261.19726 
L 441.179889 252.221918 
L 441.882858 262.578082 
L 442.234343 256.364384 
L 442.585828 252.567123 
L 443.278755 262.232877 
L 443.981724 251.876712 
L 444.333209 260.852055 
L 444.684693 262.923288 
L 445.37762 252.912329 
L 445.729105 260.161644 
L 446.08059 262.923288 
L 446.783559 251.531507 
L 447.125001 258.780822 
L 447.476486 263.613699 
L 447.82797 256.709589 
L 448.179455 252.221918 
L 448.53094 260.161644 
L 448.872382 262.578082 
L 449.223867 254.983562 
L 449.575351 251.186301 
L 449.926836 258.090411 
L 450.31849 260.161644 
L 450.669975 260.161644 
L 451.393029 249.460274 
L 451.734472 257.054795 
L 452.085956 262.232877 
L 452.788926 250.841096 
L 453.481853 261.887671 
L 453.84338 257.745205 
L 454.194864 251.876712 
L 454.536307 257.054795 
L 454.877749 258.090411 
L 455.239276 257.745205 
L 455.590761 252.221918 
L 456.29373 261.19726 
L 456.645215 258.090411 
L 456.986657 250.49589 
L 457.338142 255.328767 
L 457.689626 261.887671 
L 458.041111 257.4 
L 458.392596 250.841096 
L 458.734038 254.638356 
L 459.085523 260.852055 
L 459.788492 251.531507 
L 460.139977 257.745205 
L 460.491461 260.506849 
L 460.832904 257.4 
L 461.184388 250.49589 
L 461.887358 261.19726 
L 462.238842 256.364384 
L 462.570242 249.460274 
L 462.921727 256.019178 
L 463.273211 260.161644 
L 463.976181 251.186301 
L 464.317623 256.709589 
L 464.669108 260.506849 
L 465.372077 251.876712 
L 465.723562 260.161644 
L 466.085089 261.19726 
L 466.426531 252.567123 
L 466.778016 251.531507 
L 467.119458 258.435616 
L 467.50107 259.816438 
L 467.852555 258.780822 
L 468.204039 250.841096 
L 468.545482 254.638356 
L 468.896966 261.542466 
L 469.599936 251.186301 
L 470.292863 259.471233 
L 470.644347 256.709589 
L 470.995832 252.567123 
L 471.337274 254.638356 
L 471.688759 261.19726 
L 472.030201 258.090411 
L 472.381686 249.460274 
L 473.084655 260.506849 
L 473.43614 257.054795 
L 473.787624 251.531507 
L 474.129067 256.709589 
L 474.480551 259.126027 
L 475.183521 249.805479 
L 475.535005 256.709589 
L 475.876448 258.780822 
L 476.579417 249.115068 
L 476.930902 255.673973 
L 477.282386 259.471233 
L 477.975313 250.150685 
L 478.326798 256.709589 
L 478.678283 259.126027 
L 479.029767 255.673973 
L 479.381252 249.115068 
L 479.722694 257.054795 
L 480.074179 258.090411 
L 480.777148 250.49589 
L 481.128633 257.054795 
L 481.480118 259.471233 
L 481.82156 252.567123 
L 482.173045 249.805479 
L 482.524529 258.090411 
L 482.876014 259.126027 
L 483.227499 252.221918 
L 483.558898 250.150685 
L 483.94051 252.912329 
L 484.291995 259.471233 
L 484.633437 255.673973 
L 484.984922 248.769863 
L 485.336407 254.983562 
L 485.677849 258.435616 
L 486.029334 254.983562 
L 486.380818 248.079452 
L 486.722261 256.364384 
L 487.073745 258.090411 
L 487.776715 248.079452 
L 488.118157 257.4 
L 488.469641 263.958904 
L 489.162568 247.734247 
L 489.514053 257.745205 
L 489.855495 258.435616 
L 490.20698 251.531507 
L 490.558465 249.805479 
L 490.909949 257.745205 
L 491.251392 257.054795 
L 491.602876 250.150685 
L 491.944319 251.876712 
L 492.295803 258.435616 
L 492.647288 256.709589 
L 492.98873 252.221918 
L 493.340215 253.257534 
L 493.6917 258.435616 
L 494.033142 254.293151 
L 494.384626 248.424658 
L 494.726069 254.638356 
L 495.077553 258.435616 
L 495.77048 247.734247 
L 496.121965 257.054795 
L 496.47345 255.673973 
L 497.166377 248.769863 
L 497.507819 257.054795 
L 497.859304 256.709589 
L 498.220831 251.186301 
L 498.562273 248.769863 
L 498.903715 257.054795 
L 499.2552 257.745205 
L 499.606685 250.150685 
L 499.978254 246.69863 
L 500.329739 255.328767 
L 500.671181 258.090411 
L 501.37415 248.769863 
L 501.715593 255.673973 
L 502.067077 257.4 
L 502.408519 249.805479 
L 502.760004 249.805479 
L 503.111489 256.019178 
L 503.452931 257.4 
L 504.145858 246.69863 
L 504.497343 258.090411 
L 504.848827 255.673973 
L 505.200312 249.460274 
L 505.541754 250.49589 
L 505.893239 259.816438 
L 506.586166 250.150685 
L 507.279093 257.054795 
L 507.630578 253.60274 
L 507.97202 247.389041 
L 508.323504 255.328767 
L 508.674989 258.435616 
L 509.026474 254.983562 
L 509.377959 246.008219 
L 509.719401 255.328767 
L 510.070885 257.745205 
L 510.42237 248.424658 
L 510.763812 247.389041 
L 511.115297 256.019178 
L 511.466782 256.019178 
L 511.808224 249.805479 
L 512.159709 248.769863 
L 512.501151 257.745205 
L 512.852636 257.745205 
L 513.20412 248.424658 
L 513.545563 249.805479 
L 513.897047 256.019178 
L 514.248532 256.709589 
L 514.589974 248.424658 
L 514.941459 251.531507 
L 515.282901 257.054795 
L 515.634386 253.257534 
L 515.98587 247.734247 
L 516.35744 248.079452 
L 516.708925 254.638356 
L 517.060409 258.090411 
L 517.401852 249.115068 
L 517.753336 248.079452 
L 518.104821 256.364384 
L 518.456306 256.019178 
L 518.80779 250.49589 
L 519.149233 254.293151 
L 519.500717 256.364384 
L 519.852202 257.745205 
L 520.203687 249.805479 
L 520.555171 244.972603 
L 520.906656 255.673973 
L 521.248098 255.328767 
L 521.599583 251.186301 
L 521.951068 248.424658 
L 522.302552 256.019178 
L 522.654037 256.019178 
L 522.995479 247.734247 
L 523.346964 248.079452 
L 523.698448 256.364384 
L 524.049933 254.983562 
L 524.401418 248.424658 
L 524.752902 247.389041 
L 525.094345 256.364384 
L 525.445829 256.709589 
L 525.797314 248.079452 
L 526.148799 249.805479 
L 526.500283 256.019178 
L 526.841726 255.673973 
L 527.183168 249.460274 
L 527.534653 248.769863 
L 527.886137 256.364384 
L 528.237622 253.947945 
L 528.579064 247.043836 
L 529.282034 254.293151 
L 529.633518 254.638356 
L 529.985003 247.734247 
L 530.687972 256.364384 
L 531.039457 255.328767 
L 531.390942 246.69863 
L 532.093911 254.983562 
L 532.435353 254.638356 
L 532.756711 246.353425 
L 533.108195 256.019178 
L 533.45968 256.709589 
L 533.811165 252.567123 
L 534.152607 244.282192 
L 534.504092 253.60274 
L 534.855576 256.364384 
L 535.207061 249.805479 
L 535.558546 247.043836 
L 535.91003 255.328767 
L 536.251473 257.054795 
L 536.602957 250.150685 
L 536.954442 247.389041 
L 537.305927 254.983562 
L 537.657411 254.983562 
L 537.998854 246.69863 
L 538.350338 244.972603 
L 538.701823 256.364384 
L 539.043265 256.019178 
L 539.746235 247.043836 
L 540.087677 254.638356 
L 540.439161 257.745205 
L 540.790646 247.389041 
L 541.142131 247.043836 
L 541.503658 256.364384 
L 541.8451 256.019178 
L 542.196585 249.460274 
L 542.54807 247.734247 
L 542.899554 253.947945 
L 543.251039 252.221918 
L 543.602524 249.460274 
L 543.943966 245.663014 
L 544.29545 254.293151 
L 544.646935 254.293151 
L 544.988377 247.043836 
L 545.339862 248.769863 
L 545.681304 254.983562 
L 546.032789 254.638356 
L 546.384274 247.043836 
L 546.735758 247.043836 
L 547.087243 254.638356 
L 547.428685 253.60274 
L 547.78017 247.734247 
L 548.131655 248.424658 
L 548.483139 255.673973 
L 548.864751 255.673973 
L 549.557678 245.663014 
L 549.89912 253.60274 
L 550.250605 256.364384 
L 550.60209 250.841096 
L 550.953575 247.389041 
L 551.295017 254.293151 
L 551.646501 254.983562 
L 552.008029 249.115068 
L 552.359513 246.69863 
L 553.062483 256.709589 
L 553.755409 245.317808 
L 554.106894 254.983562 
L 554.448336 255.673973 
L 555.141263 247.043836 
L 555.492748 254.293151 
L 555.844233 256.019178 
L 556.195717 248.079452 
L 556.547202 246.353425 
L 556.898687 253.60274 
L 557.240129 256.019178 
L 557.591614 248.769863 
L 557.943098 246.69863 
L 558.294583 255.328767 
L 558.646068 256.019178 
L 558.98751 247.734247 
L 559.338995 244.282192 
L 559.680437 256.364384 
L 560.031922 254.983562 
L 560.383406 246.353425 
L 560.724849 246.69863 
L 561.076333 254.983562 
L 561.427818 254.638356 
L 561.779303 245.317808 
L 562.482272 256.019178 
L 562.833757 252.912329 
L 563.175199 244.972603 
L 563.526684 248.769863 
L 563.878168 254.293151 
L 564.229653 253.947945 
L 564.571095 245.663014 
L 564.92258 248.769863 
L 565.304192 253.257534 
L 565.655676 255.328767 
L 566.358646 245.317808 
L 566.690046 253.947945 
L 567.04153 255.673973 
L 567.393015 248.769863 
L 567.7445 246.69863 
L 568.095984 254.983562 
L 568.437427 254.638356 
L 569.140396 246.008219 
L 569.491881 253.947945 
L 569.843365 253.947945 
L 570.536292 241.865753 
L 570.887777 254.293151 
L 571.239262 253.947945 
L 571.590746 246.69863 
L 571.942231 247.389041 
L 572.273631 254.293151 
L 572.625115 255.328767 
L 572.9766 247.734247 
L 573.328085 246.008219 
L 573.689612 252.567123 
L 574.041097 252.912329 
L 574.382539 248.079452 
L 574.734023 246.353425 
L 575.085508 254.293151 
L 575.436993 254.293151 
L 575.788477 247.734247 
L 576.119877 248.079452 
L 576.471362 254.293151 
L 576.822847 254.638356 
L 577.174331 247.389041 
L 577.525816 247.043836 
L 577.877301 255.328767 
L 578.218743 252.912329 
L 578.570228 245.317808 
L 578.921712 248.424658 
L 579.273197 253.60274 
L 579.624682 252.567123 
L 579.966124 245.317808 
L 580.669093 253.60274 
L 581.020578 253.257534 
L 581.743632 244.972603 
L 582.085074 253.947945 
L 582.436559 256.019178 
L 582.788044 247.734247 
L 583.139528 246.69863 
L 583.491013 252.912329 
L 583.832455 255.328767 
L 584.18394 247.734247 
L 584.535425 244.972603 
L 584.886909 254.983562 
L 585.238394 254.983562 
L 585.589879 247.734247 
L 585.931321 245.663014 
L 586.282806 253.60274 
L 586.63429 253.257534 
L 586.985775 248.079452 
L 587.33726 247.389041 
L 587.678702 253.257534 
L 588.030187 252.912329 
L 588.381671 248.424658 
L 588.733156 246.69863 
L 589.084641 253.257534 
L 589.426083 252.912329 
L 589.777568 246.353425 
L 590.11901 246.69863 
L 590.470495 253.947945 
L 590.821979 252.567123 
L 591.514906 246.69863 
L 591.866391 254.293151 
L 592.217876 253.947945 
L 592.56936 247.734247 
L 592.920845 248.769863 
L 593.262287 255.328767 
L 593.613772 252.221918 
L 593.965256 246.69863 
L 594.316741 247.389041 
L 594.668226 254.638356 
L 595.029753 252.567123 
L 595.361153 245.317808 
L 595.712637 244.972603 
L 596.064122 252.912329 
L 596.415607 252.221918 
L 596.767091 246.353425 
L 597.108534 248.079452 
L 597.460018 253.60274 
L 597.84163 256.364384 
L 598.193115 249.805479 
L 598.5446 240.830137 
L 598.896084 252.221918 
L 599.237527 253.947945 
L 599.589011 248.424658 
L 599.930454 244.972603 
L 600.281938 252.567123 
L 600.633423 251.531507 
L 600.974865 247.734247 
L 601.32635 246.008219 
L 601.677835 251.876712 
L 602.029319 254.983562 
L 602.732289 242.556164 
L 603.073731 254.293151 
L 603.425215 253.947945 
L 603.7767 247.734247 
L 604.128185 245.663014 
L 604.47967 252.567123 
L 604.821112 254.638356 
L 605.172596 247.389041 
L 605.524081 246.353425 
L 605.875566 253.60274 
L 606.22705 253.947945 
L 606.568493 248.079452 
L 606.919977 245.317808 
L 607.271462 252.567123 
L 607.622947 254.983562 
L 607.974431 248.079452 
L 608.325916 245.317808 
L 608.667358 251.876712 
L 609.018843 253.947945 
L 609.721812 245.663014 
L 610.073297 251.876712 
L 610.404697 253.60274 
L 610.756182 246.69863 
L 611.107666 246.69863 
L 611.459151 253.257534 
L 611.810636 253.60274 
L 612.16212 247.043836 
L 612.503563 247.734247 
L 612.855047 252.912329 
L 613.206532 253.60274 
L 613.558017 246.353425 
L 613.929586 244.627397 
L 614.271028 253.60274 
L 614.622513 255.328767 
L 614.973998 248.769863 
L 615.325482 244.972603 
L 615.676967 252.912329 
L 616.018409 253.60274 
L 616.721379 243.936986 
L 617.072863 254.293151 
L 617.414306 253.947945 
L 617.76579 247.043836 
L 618.107233 243.936986 
L 618.458717 252.912329 
L 618.810202 253.60274 
L 619.161687 245.663014 
L 619.503129 241.520548 
L 619.844571 254.638356 
L 620.196056 252.221918 
L 620.54754 245.663014 
L 620.899025 247.734247 
L 621.240467 252.221918 
L 621.591952 252.912329 
L 621.933394 244.972603 
L 622.284879 247.734247 
L 622.636364 255.328767 
L 622.636364 255.328767 
" clip-path="url(#pd829e4b513)" style="fill: none; stroke: #1f77b4; stroke-width: 1.5; stroke-linecap: square"/>
   </g>
   <g id="line2d_16">
    <path d="M 117.050763 236.687671 
L 119.019077 238.758904 
L 120.645949 238.068493 
L 123.246936 236.687671 
L 124.873807 239.794521 
L 126.832079 236.687671 
L 128.790351 240.484932 
L 130.417223 237.723288 
L 132.054137 236.342466 
L 135.016651 237.032877 
L 139.606037 237.032877 
L 142.227108 237.378082 
L 143.864022 239.10411 
L 145.822294 238.068493 
L 147.459209 239.449315 
L 149.427523 235.99726 
L 151.415922 239.449315 
L 153.052836 240.830137 
L 155.02115 235.99726 
L 156.648022 237.378082 
L 158.616336 234.616438 
L 161.237408 237.723288 
L 163.205722 238.413699 
L 165.816751 237.723288 
L 167.80515 238.758904 
L 169.452107 241.520548 
L 171.410379 237.378082 
L 175.989722 239.794521 
L 177.626636 237.032877 
L 179.59495 238.758904 
L 182.216022 237.723288 
L 184.204421 238.413699 
L 185.841335 240.139726 
L 187.799607 237.723288 
L 189.446564 241.865753 
L 191.404835 237.378082 
L 193.031707 240.830137 
L 195.000022 237.032877 
L 196.636936 240.830137 
L 198.60525 237.378082 
L 200.593649 236.687671 
L 203.214721 237.378082 
L 205.183035 239.794521 
L 207.794064 236.687671 
L 209.762378 241.175342 
L 211.399292 237.378082 
L 213.367607 238.758904 
L 215.004521 235.306849 
L 216.962793 238.758904 
L 218.971277 240.830137 
L 220.608191 238.068493 
L 222.566463 239.794521 
L 224.203377 238.068493 
L 226.171691 240.830137 
L 228.802805 239.449315 
L 230.761077 241.865753 
L 232.749476 244.627397 
L 234.38639 240.830137 
L 236.987377 238.758904 
L 238.965733 230.819178 
L 240.582563 222.879452 
L 242.219477 219.082192 
L 244.177749 211.142466 
L 245.814663 206.654795 
L 248.767135 154.873973 
L 250.404049 122.769863 
L 252.362321 213.213699 
L 253.999235 218.736986 
L 256.610264 216.665753 
L 258.558493 205.964384 
L 262.163722 55.8 
L 265.778993 232.890411 
L 267.415907 238.068493 
L 269.394264 233.235616 
L 271.362578 224.950685 
L 272.999492 212.523288 
L 276.594679 89.975342 
L 278.59312 222.879452 
L 279.958889 241.520548 
L 281.595803 252.912329 
L 283.57416 252.567123 
L 286.195231 241.175342 
L 289.147703 72.024658 
L 292.752931 252.221918 
L 294.40993 270.863014 
L 296.378245 296.753425 
L 298.015159 300.550685 
L 299.993516 294.682192 
L 301.96183 293.646575 
L 303.588702 292.610959 
L 306.199731 292.265753 
L 308.168045 289.158904 
L 310.176529 287.778082 
L 311.813443 287.778082 
L 313.771715 287.432877 
L 315.408629 290.539726 
L 317.376943 284.671233 
L 319.998015 285.016438 
L 321.956287 283.290411 
L 323.603243 282.254795 
L 326.5758 280.183562 
L 329.186829 279.838356 
L 331.165185 278.457534 
L 332.812142 279.493151 
L 334.770414 276.386301 
L 337.381443 275.69589 
L 339.389927 275.005479 
L 341.358241 276.386301 
L 342.985113 274.660274 
L 344.963469 271.553425 
L 347.574498 272.934247 
L 349.552855 274.315068 
L 351.179727 271.553425 
L 353.158084 273.624658 
L 354.774913 271.553425 
L 357.3759 269.482192 
L 359.996971 269.136986 
L 361.955243 270.172603 
L 363.582115 267.410959 
L 365.208987 269.827397 
L 367.177301 267.065753 
L 370.591723 267.065753 
L 371.977577 263.958904 
L 374.417885 265.339726 
L 375.803739 264.994521 
L 377.199635 263.958904 
L 379.981386 262.578082 
L 381.377282 263.268493 
L 382.763136 262.578082 
L 384.159032 263.958904 
L 385.554928 263.268493 
L 386.970909 260.161644 
L 389.75266 262.232877 
L 391.168641 262.578082 
L 392.564537 261.887671 
L 396.400741 260.161644 
L 397.796637 260.852055 
L 399.202576 259.471233 
L 400.598472 256.019178 
L 402.375981 247.043836 
L 403.761834 243.246575 
L 406.212185 255.673973 
L 407.608081 257.745205 
L 409.003977 256.019178 
L 410.399874 257.745205 
L 411.79577 257.054795 
L 414.597605 257.745205 
L 415.993501 256.709589 
L 417.389398 254.293151 
L 420.211317 256.364384 
L 421.607214 254.638356 
L 423.00311 257.054795 
L 424.399006 253.947945 
L 425.804945 254.293151 
L 427.200841 253.60274 
L 428.586695 253.60274 
L 429.982591 251.876712 
L 431.38853 254.638356 
L 432.774384 252.912329 
L 434.180323 251.876712 
L 435.947788 252.912329 
L 438.398139 253.257534 
L 439.783993 252.567123 
L 441.179889 252.221918 
L 442.585828 252.567123 
L 443.981724 251.876712 
L 445.37762 252.912329 
L 446.783559 251.531507 
L 448.179455 252.221918 
L 449.575351 251.186301 
L 451.393029 249.460274 
L 452.788926 250.841096 
L 454.194864 251.876712 
L 455.590761 252.221918 
L 456.986657 250.49589 
L 458.392596 250.841096 
L 459.788492 251.531507 
L 462.570242 249.460274 
L 463.976181 251.186301 
L 465.372077 251.876712 
L 466.778016 251.531507 
L 468.204039 250.841096 
L 469.599936 251.186301 
L 470.995832 252.567123 
L 472.381686 249.460274 
L 473.787624 251.531507 
L 475.183521 249.805479 
L 476.579417 249.115068 
L 477.975313 250.150685 
L 479.381252 249.115068 
L 480.777148 250.49589 
L 482.173045 249.805479 
L 483.558898 250.150685 
L 484.984922 248.769863 
L 486.380818 248.079452 
L 487.776715 248.079452 
L 489.162568 247.734247 
L 490.558465 249.805479 
L 492.98873 252.221918 
L 494.384626 248.424658 
L 495.77048 247.734247 
L 497.166377 248.769863 
L 498.562273 248.769863 
L 499.978254 246.69863 
L 501.37415 248.769863 
L 504.145858 246.69863 
L 506.586166 250.150685 
L 507.97202 247.389041 
L 509.377959 246.008219 
L 510.763812 247.389041 
L 513.20412 248.424658 
L 514.589974 248.424658 
L 515.98587 247.734247 
L 517.753336 248.079452 
L 520.555171 244.972603 
L 522.995479 247.734247 
L 524.752902 247.389041 
L 528.579064 247.043836 
L 529.985003 247.734247 
L 531.390942 246.69863 
L 532.756711 246.353425 
L 534.152607 244.282192 
L 535.558546 247.043836 
L 536.954442 247.389041 
L 538.350338 244.972603 
L 539.746235 247.043836 
L 541.142131 247.043836 
L 542.54807 247.734247 
L 543.943966 245.663014 
L 547.78017 247.734247 
L 549.557678 245.663014 
L 550.953575 247.389041 
L 552.359513 246.69863 
L 553.755409 245.317808 
L 555.141263 247.043836 
L 556.547202 246.353425 
L 557.943098 246.69863 
L 559.338995 244.282192 
L 561.779303 245.317808 
L 563.175199 244.972603 
L 564.571095 245.663014 
L 566.358646 245.317808 
L 567.7445 246.69863 
L 569.140396 246.008219 
L 570.536292 241.865753 
L 573.328085 246.008219 
L 574.734023 246.353425 
L 578.570228 245.317808 
L 579.966124 245.317808 
L 581.743632 244.972603 
L 583.139528 246.69863 
L 584.535425 244.972603 
L 585.931321 245.663014 
L 587.33726 247.389041 
L 589.777568 246.353425 
L 591.514906 246.69863 
L 593.965256 246.69863 
L 595.712637 244.972603 
L 598.5446 240.830137 
L 599.930454 244.972603 
L 601.32635 246.008219 
L 602.732289 242.556164 
L 604.128185 245.663014 
L 605.524081 246.353425 
L 606.919977 245.317808 
L 608.325916 245.317808 
L 609.721812 245.663014 
L 612.16212 247.043836 
L 613.929586 244.627397 
L 615.325482 244.972603 
L 616.721379 243.936986 
L 618.107233 243.936986 
L 619.503129 241.520548 
L 621.933394 244.972603 
L 621.933394 244.972603 
" clip-path="url(#pd829e4b513)" style="fill: none; stroke: #ff7f0e; stroke-width: 1.5; stroke-linecap: square"/>
   </g>
   <g id="patch_3">
    <path d="M 90 320.4 
L 90 43.2 
" style="fill: none; stroke: #000000; stroke-width: 0.8; stroke-linejoin: miter; stroke-linecap: square"/>
   </g>
   <g id="patch_4">
    <path d="M 648 320.4 
L 648 43.2 
" style="fill: none; stroke: #000000; stroke-width: 0.8; stroke-linejoin: miter; stroke-linecap: square"/>
   </g>
   <g id="patch_5">
    <path d="M 90 320.4 
L 648 320.4 
" style="fill: none; stroke: #000000; stroke-width: 0.8; stroke-linejoin: miter; stroke-linecap: square"/>
   </g>
   <g id="patch_6">
    <path d="M 90 43.2 
L 648 43.2 
" style="fill: none; stroke: #000000; stroke-width: 0.8; stroke-linejoin: miter; stroke-linecap: square"/>
   </g>
   <g id="text_15">
    <!-- 1234 -->
    <g transform="translate(353.73 37.2)scale(0.12 -0.12)">
     <use xlink:href="#DejaVuSans-31"/>
     <use xlink:href="#DejaVuSans-32" x="63.623047"/>
     <use xlink:href="#DejaVuSans-33" x="127.246094"/>
     <use xlink:href="#DejaVuSans-34" x="190.869141"/>
    </g>
   </g>
   <g id="legend_1">
    <g id="patch_7">
     <path d="M 553.9875 80.834375 
L 641 80.834375 
Q 643 80.834375 643 78.834375 
L 643 50.2 
Q 643 48.2 641 48.2 
L 553.9875 48.2 
Q 551.9875 48.2 551.9875 50.2 
L 551.9875 78.834375 
Q 551.9875 80.834375 553.9875 80.834375 
z
" style="fill: #ffffff; opacity: 0.8; stroke: #cccccc; stroke-linejoin: miter"/>
    </g>
    <g id="line2d_17">
     <path d="M 555.9875 56.298437 
L 565.9875 56.298437 
L 575.9875 56.298437 
" style="fill: none; stroke: #1f77b4; stroke-width: 1.5; stroke-linecap: square"/>
    </g>
    <g id="text_16">
     <!-- 1234 -->
     <g transform="translate(583.9875 59.798437)scale(0.1 -0.1)">
      <use xlink:href="#DejaVuSans-31"/>
      <use xlink:href="#DejaVuSans-32" x="63.623047"/>
      <use xlink:href="#DejaVuSans-33" x="127.246094"/>
      <use xlink:href="#DejaVuSans-34" x="190.869141"/>
     </g>
    </g>
    <g id="line2d_18">
     <path d="M 555.9875 70.976562 
L 565.9875 70.976562 
L 575.9875 70.976562 
" style="fill: none; stroke: #ff7f0e; stroke-width: 1.5; stroke-linecap: square"/>
    </g>
    <g id="text_17">
     <!-- 1234_enve -->
     <g transform="translate(583.9875 74.476562)scale(0.1 -0.1)">
      <defs>
       <path id="DejaVuSans-5f" d="M 3263 -1063 
L 3263 -1509 
L -63 -1509 
L -63 -1063 
L 3263 -1063 
z
" transform="scale(0.015625)"/>
       <path id="DejaVuSans-65" d="M 3597 1894 
L 3597 1613 
L 953 1613 
Q 991 1019 1311 708 
Q 1631 397 2203 397 
Q 2534 397 2845 478 
Q 3156 559 3463 722 
L 3463 178 
Q 3153 47 2828 -22 
Q 2503 -91 2169 -91 
Q 1331 -91 842 396 
Q 353 884 353 1716 
Q 353 2575 817 3079 
Q 1281 3584 2069 3584 
Q 2775 3584 3186 3129 
Q 3597 2675 3597 1894 
z
M 3022 2063 
Q 3016 2534 2758 2815 
Q 2500 3097 2075 3097 
Q 1594 3097 1305 2825 
Q 1016 2553 972 2059 
L 3022 2063 
z
" transform="scale(0.015625)"/>
       <path id="DejaVuSans-6e" d="M 3513 2113 
L 3513 0 
L 2938 0 
L 2938 2094 
Q 2938 2591 2744 2837 
Q 2550 3084 2163 3084 
Q 1697 3084 1428 2787 
Q 1159 2491 1159 1978 
L 1159 0 
L 581 0 
L 581 3500 
L 1159 3500 
L 1159 2956 
Q 1366 3272 1645 3428 
Q 1925 3584 2291 3584 
Q 2894 3584 3203 3211 
Q 3513 2838 3513 2113 
z
" transform="scale(0.015625)"/>
       <path id="DejaVuSans-76" d="M 191 3500 
L 800 3500 
L 1894 563 
L 2988 3500 
L 3597 3500 
L 2284 0 
L 1503 0 
L 191 3500 
z
" transform="scale(0.015625)"/>
      </defs>
      <use xlink:href="#DejaVuSans-31"/>
      <use xlink:href="#DejaVuSans-32" x="63.623047"/>
      <use xlink:href="#DejaVuSans-33" x="127.246094"/>
      <use xlink:href="#DejaVuSans-34" x="190.869141"/>
      <use xlink:href="#DejaVuSans-5f" x="254.492188"/>
      <use xlink:href="#DejaVuSans-65" x="304.492188"/>
      <use xlink:href="#DejaVuSans-6e" x="366.015625"/>
      <use xlink:href="#DejaVuSans-76" x="429.394531"/>
      <use xlink:href="#DejaVuSans-65" x="488.574219"/>
     </g>
    </g>
   </g>
  </g>
 </g>
 <defs>
  <clipPath id="pd829e4b513">
   <rect x="90" y="43.2" width="558" height="277.2"/>
  </clipPath>
 </defs>
</svg>
