<?xml version="1.0" encoding="utf-8" standalone="no"?>
<!DOCTYPE svg PUBLIC "-//W3C//DTD SVG 1.1//EN"
  "http://www.w3.org/Graphics/SVG/1.1/DTD/svg11.dtd">
<svg xmlns:xlink="http://www.w3.org/1999/xlink" width="720pt" height="360pt" viewBox="0 0 720 360" xmlns="http://www.w3.org/2000/svg" version="1.1">
 <metadata>
  <rdf:RDF xmlns:dc="http://purl.org/dc/elements/1.1/" xmlns:cc="http://creativecommons.org/ns#" xmlns:rdf="http://www.w3.org/1999/02/22-rdf-syntax-ns#">
   <cc:Work>
    <dc:type rdf:resource="http://purl.org/dc/dcmitype/StillImage"/>
    <dc:date>2022-10-03T20:22:58.436679</dc:date>
    <dc:format>image/svg+xml</dc:format>
    <dc:creator>
     <cc:Agent>
      <dc:title>Matplotlib v3.5.3, https://matplotlib.org/</dc:title>
     </cc:Agent>
    </dc:creator>
   </cc:Work>
  </rdf:RDF>
 </metadata>
 <defs>
  <style type="text/css">*{stroke-linejoin: round; stroke-linecap: butt}</style>
 </defs>
 <g id="figure_1">
  <g id="patch_1">
   <path d="M 0 360 
L 720 360 
L 720 0 
L 0 0 
z
" style="fill: #ffffff"/>
  </g>
  <g id="axes_1">
   <g id="patch_2">
    <path d="M 90 320.4 
L 648 320.4 
L 648 43.2 
L 90 43.2 
z
" style="fill: #ffffff"/>
   </g>
   <g id="PathCollection_1">
    <defs>
     <path id="m51e91fcdc7" d="M -3 3 
L 3 -3 
M -3 -3 
L 3 3 
" style="stroke: #ff0000; stroke-width: 1.5"/>
    </defs>
    <g clip-path="url(#p52df9eda79)">
     <use xlink:href="#m51e91fcdc7" x="120.607" y="256.663636" style="fill: #ff0000; stroke: #ff0000; stroke-width: 1.5"/>
     <use xlink:href="#m51e91fcdc7" x="128.456892" y="255.845455" style="fill: #ff0000; stroke: #ff0000; stroke-width: 1.5"/>
     <use xlink:href="#m51e91fcdc7" x="135.700614" y="256.254545" style="fill: #ff0000; stroke: #ff0000; stroke-width: 1.5"/>
     <use xlink:href="#m51e91fcdc7" x="144.550685" y="257.072727" style="fill: #ff0000; stroke: #ff0000; stroke-width: 1.5"/>
     <use xlink:href="#m51e91fcdc7" x="156.421499" y="255.027273" style="fill: #ff0000; stroke: #ff0000; stroke-width: 1.5"/>
     <use xlink:href="#m51e91fcdc7" x="165.27157" y="254.209091" style="fill: #ff0000; stroke: #ff0000; stroke-width: 1.5"/>
     <use xlink:href="#m51e91fcdc7" x="173.505369" y="256.663636" style="fill: #ff0000; stroke: #ff0000; stroke-width: 1.5"/>
     <use xlink:href="#m51e91fcdc7" x="179.759015" y="255.027273" style="fill: #ff0000; stroke: #ff0000; stroke-width: 1.5"/>
     <use xlink:href="#m51e91fcdc7" x="187.01284" y="257.072727" style="fill: #ff0000; stroke: #ff0000; stroke-width: 1.5"/>
     <use xlink:href="#m51e91fcdc7" x="193.246281" y="254.618182" style="fill: #ff0000; stroke: #ff0000; stroke-width: 1.5"/>
     <use xlink:href="#m51e91fcdc7" x="201.48008" y="255.027273" style="fill: #ff0000; stroke: #ff0000; stroke-width: 1.5"/>
     <use xlink:href="#m51e91fcdc7" x="207.733725" y="253.8" style="fill: #ff0000; stroke: #ff0000; stroke-width: 1.5"/>
     <use xlink:href="#m51e91fcdc7" x="219.594437" y="255.027273" style="fill: #ff0000; stroke: #ff0000; stroke-width: 1.5"/>
     <use xlink:href="#m51e91fcdc7" x="228.474816" y="254.209091" style="fill: #ff0000; stroke: #ff0000; stroke-width: 1.5"/>
     <use xlink:href="#m51e91fcdc7" x="245.205087" y="155.618182" style="fill: #ff0000; stroke: #ff0000; stroke-width: 1.5"/>
     <use xlink:href="#m51e91fcdc7" x="257.03549" y="103.663636" style="fill: #ff0000; stroke: #ff0000; stroke-width: 1.5"/>
     <use xlink:href="#m51e91fcdc7" x="267.88592" y="55.8" style="fill: #ff0000; stroke: #ff0000; stroke-width: 1.5"/>
     <use xlink:href="#m51e91fcdc7" x="279.433444" y="97.118182" style="fill: #ff0000; stroke: #ff0000; stroke-width: 1.5"/>
     <use xlink:href="#m51e91fcdc7" x="288.030944" y="299.618182" style="fill: #ff0000; stroke: #ff0000; stroke-width: 1.5"/>
     <use xlink:href="#m51e91fcdc7" x="296.274846" y="296.345455" style="fill: #ff0000; stroke: #ff0000; stroke-width: 1.5"/>
     <use xlink:href="#m51e91fcdc7" x="302.538594" y="293.072727" style="fill: #ff0000; stroke: #ff0000; stroke-width: 1.5"/>
     <use xlink:href="#m51e91fcdc7" x="310.782496" y="289.8" style="fill: #ff0000; stroke: #ff0000; stroke-width: 1.5"/>
     <use xlink:href="#m51e91fcdc7" x="317.026039" y="285.709091" style="fill: #ff0000; stroke: #ff0000; stroke-width: 1.5"/>
     <use xlink:href="#m51e91fcdc7" x="323.269582" y="286.118182" style="fill: #ff0000; stroke: #ff0000; stroke-width: 1.5"/>
     <use xlink:href="#m51e91fcdc7" x="329.49292" y="283.663636" style="fill: #ff0000; stroke: #ff0000; stroke-width: 1.5"/>
     <use xlink:href="#m51e91fcdc7" x="336.726539" y="282.027273" style="fill: #ff0000; stroke: #ff0000; stroke-width: 1.5"/>
     <use xlink:href="#m51e91fcdc7" x="343.990467" y="280.390909" style="fill: #ff0000; stroke: #ff0000; stroke-width: 1.5"/>
     <use xlink:href="#m51e91fcdc7" x="350.244113" y="276.3" style="fill: #ff0000; stroke: #ff0000; stroke-width: 1.5"/>
     <use xlink:href="#m51e91fcdc7" x="358.477912" y="277.527273" style="fill: #ff0000; stroke: #ff0000; stroke-width: 1.5"/>
     <use xlink:href="#m51e91fcdc7" x="365.34783" y="274.663636" style="fill: #ff0000; stroke: #ff0000; stroke-width: 1.5"/>
     <use xlink:href="#m51e91fcdc7" x="373.571526" y="273.436364" style="fill: #ff0000; stroke: #ff0000; stroke-width: 1.5"/>
     <use xlink:href="#m51e91fcdc7" x="382.653962" y="275.481818" style="fill: #ff0000; stroke: #ff0000; stroke-width: 1.5"/>
     <use xlink:href="#m51e91fcdc7" x="392.484007" y="272.209091" style="fill: #ff0000; stroke: #ff0000; stroke-width: 1.5"/>
     <use xlink:href="#m51e91fcdc7" x="401.980658" y="270.572727" style="fill: #ff0000; stroke: #ff0000; stroke-width: 1.5"/>
     <use xlink:href="#m51e91fcdc7" x="414.245482" y="269.754545" style="fill: #ff0000; stroke: #ff0000; stroke-width: 1.5"/>
     <use xlink:href="#m51e91fcdc7" x="427.944907" y="267.709091" style="fill: #ff0000; stroke: #ff0000; stroke-width: 1.5"/>
     <use xlink:href="#m51e91fcdc7" x="437.774952" y="266.481818" style="fill: #ff0000; stroke: #ff0000; stroke-width: 1.5"/>
     <use xlink:href="#m51e91fcdc7" x="447.231192" y="264.845455" style="fill: #ff0000; stroke: #ff0000; stroke-width: 1.5"/>
     <use xlink:href="#m51e91fcdc7" x="471.184979" y="264.027273" style="fill: #ff0000; stroke: #ff0000; stroke-width: 1.5"/>
     <use xlink:href="#m51e91fcdc7" x="483.449804" y="264.845455" style="fill: #ff0000; stroke: #ff0000; stroke-width: 1.5"/>
     <use xlink:href="#m51e91fcdc7" x="499.543597" y="263.209091" style="fill: #ff0000; stroke: #ff0000; stroke-width: 1.5"/>
     <use xlink:href="#m51e91fcdc7" x="516.647672" y="261.163636" style="fill: #ff0000; stroke: #ff0000; stroke-width: 1.5"/>
     <use xlink:href="#m51e91fcdc7" x="527.52841" y="264.845455" style="fill: #ff0000; stroke: #ff0000; stroke-width: 1.5"/>
     <use xlink:href="#m51e91fcdc7" x="540.177142" y="261.572727" style="fill: #ff0000; stroke: #ff0000; stroke-width: 1.5"/>
     <use xlink:href="#m51e91fcdc7" x="556.675048" y="262.390909" style="fill: #ff0000; stroke: #ff0000; stroke-width: 1.5"/>
     <use xlink:href="#m51e91fcdc7" x="581.598706" y="259.527273" style="fill: #ff0000; stroke: #ff0000; stroke-width: 1.5"/>
     <use xlink:href="#m51e91fcdc7" x="598.106715" y="261.572727" style="fill: #ff0000; stroke: #ff0000; stroke-width: 1.5"/>
     <use xlink:href="#m51e91fcdc7" x="611.775831" y="261.163636" style="fill: #ff0000; stroke: #ff0000; stroke-width: 1.5"/>
     <use xlink:href="#m51e91fcdc7" x="621.242174" y="260.754545" style="fill: #ff0000; stroke: #ff0000; stroke-width: 1.5"/>
    </g>
   </g>
   <g id="matplotlib.axis_1">
    <g id="xtick_1">
     <g id="line2d_1">
      <defs>
       <path id="m77c69f160d" d="M 0 0 
L 0 3.5 
" style="stroke: #000000; stroke-width: 0.8"/>
      </defs>
      <g>
       <use xlink:href="#m77c69f160d" x="113.696671" y="320.4" style="stroke: #000000; stroke-width: 0.8"/>
      </g>
     </g>
     <g id="text_1">
      <!-- 0 -->
      <g transform="translate(110.515421 334.998438)scale(0.1 -0.1)">
       <defs>
        <path id="DejaVuSans-30" d="M 2034 4250 
Q 1547 4250 1301 3770 
Q 1056 3291 1056 2328 
Q 1056 1369 1301 889 
Q 1547 409 2034 409 
Q 2525 409 2770 889 
Q 3016 1369 3016 2328 
Q 3016 3291 2770 3770 
Q 2525 4250 2034 4250 
z
M 2034 4750 
Q 2819 4750 3233 4129 
Q 3647 3509 3647 2328 
Q 3647 1150 3233 529 
Q 2819 -91 2034 -91 
Q 1250 -91 836 529 
Q 422 1150 422 2328 
Q 422 3509 836 4129 
Q 1250 4750 2034 4750 
z
" transform="scale(0.015625)"/>
       </defs>
       <use xlink:href="#DejaVuSans-30"/>
      </g>
     </g>
    </g>
    <g id="xtick_2">
     <g id="line2d_2">
      <g>
       <use xlink:href="#m77c69f160d" x="214.724877" y="320.4" style="stroke: #000000; stroke-width: 0.8"/>
      </g>
     </g>
     <g id="text_2">
      <!-- 10 -->
      <g transform="translate(208.362377 334.998438)scale(0.1 -0.1)">
       <defs>
        <path id="DejaVuSans-31" d="M 794 531 
L 1825 531 
L 1825 4091 
L 703 3866 
L 703 4441 
L 1819 4666 
L 2450 4666 
L 2450 531 
L 3481 531 
L 3481 0 
L 794 0 
L 794 531 
z
" transform="scale(0.015625)"/>
       </defs>
       <use xlink:href="#DejaVuSans-31"/>
       <use xlink:href="#DejaVuSans-30" x="63.623047"/>
      </g>
     </g>
    </g>
    <g id="xtick_3">
     <g id="line2d_3">
      <g>
       <use xlink:href="#m77c69f160d" x="315.753084" y="320.4" style="stroke: #000000; stroke-width: 0.8"/>
      </g>
     </g>
     <g id="text_3">
      <!-- 20 -->
      <g transform="translate(309.390584 334.998438)scale(0.1 -0.1)">
       <defs>
        <path id="DejaVuSans-32" d="M 1228 531 
L 3431 531 
L 3431 0 
L 469 0 
L 469 531 
Q 828 903 1448 1529 
Q 2069 2156 2228 2338 
Q 2531 2678 2651 2914 
Q 2772 3150 2772 3378 
Q 2772 3750 2511 3984 
Q 2250 4219 1831 4219 
Q 1534 4219 1204 4116 
Q 875 4013 500 3803 
L 500 4441 
Q 881 4594 1212 4672 
Q 1544 4750 1819 4750 
Q 2544 4750 2975 4387 
Q 3406 4025 3406 3419 
Q 3406 3131 3298 2873 
Q 3191 2616 2906 2266 
Q 2828 2175 2409 1742 
Q 1991 1309 1228 531 
z
" transform="scale(0.015625)"/>
       </defs>
       <use xlink:href="#DejaVuSans-32"/>
       <use xlink:href="#DejaVuSans-30" x="63.623047"/>
      </g>
     </g>
    </g>
    <g id="xtick_4">
     <g id="line2d_4">
      <g>
       <use xlink:href="#m77c69f160d" x="416.78129" y="320.4" style="stroke: #000000; stroke-width: 0.8"/>
      </g>
     </g>
     <g id="text_4">
      <!-- 30 -->
      <g transform="translate(410.41879 334.998438)scale(0.1 -0.1)">
       <defs>
        <path id="DejaVuSans-33" d="M 2597 2516 
Q 3050 2419 3304 2112 
Q 3559 1806 3559 1356 
Q 3559 666 3084 287 
Q 2609 -91 1734 -91 
Q 1441 -91 1130 -33 
Q 819 25 488 141 
L 488 750 
Q 750 597 1062 519 
Q 1375 441 1716 441 
Q 2309 441 2620 675 
Q 2931 909 2931 1356 
Q 2931 1769 2642 2001 
Q 2353 2234 1838 2234 
L 1294 2234 
L 1294 2753 
L 1863 2753 
Q 2328 2753 2575 2939 
Q 2822 3125 2822 3475 
Q 2822 3834 2567 4026 
Q 2313 4219 1838 4219 
Q 1578 4219 1281 4162 
Q 984 4106 628 3988 
L 628 4550 
Q 988 4650 1302 4700 
Q 1616 4750 1894 4750 
Q 2613 4750 3031 4423 
Q 3450 4097 3450 3541 
Q 3450 3153 3228 2886 
Q 3006 2619 2597 2516 
z
" transform="scale(0.015625)"/>
       </defs>
       <use xlink:href="#DejaVuSans-33"/>
       <use xlink:href="#DejaVuSans-30" x="63.623047"/>
      </g>
     </g>
    </g>
    <g id="xtick_5">
     <g id="line2d_5">
      <g>
       <use xlink:href="#m77c69f160d" x="517.809497" y="320.4" style="stroke: #000000; stroke-width: 0.8"/>
      </g>
     </g>
     <g id="text_5">
      <!-- 40 -->
      <g transform="translate(511.446997 334.998438)scale(0.1 -0.1)">
       <defs>
        <path id="DejaVuSans-34" d="M 2419 4116 
L 825 1625 
L 2419 1625 
L 2419 4116 
z
M 2253 4666 
L 3047 4666 
L 3047 1625 
L 3713 1625 
L 3713 1100 
L 3047 1100 
L 3047 0 
L 2419 0 
L 2419 1100 
L 313 1100 
L 313 1709 
L 2253 4666 
z
" transform="scale(0.015625)"/>
       </defs>
       <use xlink:href="#DejaVuSans-34"/>
       <use xlink:href="#DejaVuSans-30" x="63.623047"/>
      </g>
     </g>
    </g>
    <g id="xtick_6">
     <g id="line2d_6">
      <g>
       <use xlink:href="#m77c69f160d" x="618.837703" y="320.4" style="stroke: #000000; stroke-width: 0.8"/>
      </g>
     </g>
     <g id="text_6">
      <!-- 50 -->
      <g transform="translate(612.475203 334.998438)scale(0.1 -0.1)">
       <defs>
        <path id="DejaVuSans-35" d="M 691 4666 
L 3169 4666 
L 3169 4134 
L 1269 4134 
L 1269 2991 
Q 1406 3038 1543 3061 
Q 1681 3084 1819 3084 
Q 2600 3084 3056 2656 
Q 3513 2228 3513 1497 
Q 3513 744 3044 326 
Q 2575 -91 1722 -91 
Q 1428 -91 1123 -41 
Q 819 9 494 109 
L 494 744 
Q 775 591 1075 516 
Q 1375 441 1709 441 
Q 2250 441 2565 725 
Q 2881 1009 2881 1497 
Q 2881 1984 2565 2268 
Q 2250 2553 1709 2553 
Q 1456 2553 1204 2497 
Q 953 2441 691 2322 
L 691 4666 
z
" transform="scale(0.015625)"/>
       </defs>
       <use xlink:href="#DejaVuSans-35"/>
       <use xlink:href="#DejaVuSans-30" x="63.623047"/>
      </g>
     </g>
    </g>
   </g>
   <g id="matplotlib.axis_2">
    <g id="ytick_1">
     <g id="line2d_7">
      <defs>
       <path id="m5573228ccb" d="M 0 0 
L -3.5 0 
" style="stroke: #000000; stroke-width: 0.8"/>
      </defs>
      <g>
       <use xlink:href="#m5573228ccb" x="90" y="288.613636" style="stroke: #000000; stroke-width: 0.8"/>
      </g>
     </g>
     <g id="text_7">
      <!-- −3.5 -->
      <g transform="translate(58.717187 292.412855)scale(0.1 -0.1)">
       <defs>
        <path id="DejaVuSans-2212" d="M 678 2272 
L 4684 2272 
L 4684 1741 
L 678 1741 
L 678 2272 
z
" transform="scale(0.015625)"/>
        <path id="DejaVuSans-2e" d="M 684 794 
L 1344 794 
L 1344 0 
L 684 0 
L 684 794 
z
" transform="scale(0.015625)"/>
       </defs>
       <use xlink:href="#DejaVuSans-2212"/>
       <use xlink:href="#DejaVuSans-33" x="83.789062"/>
       <use xlink:href="#DejaVuSans-2e" x="147.412109"/>
       <use xlink:href="#DejaVuSans-35" x="179.199219"/>
      </g>
     </g>
    </g>
    <g id="ytick_2">
     <g id="line2d_8">
      <g>
       <use xlink:href="#m5573228ccb" x="90" y="246.763636" style="stroke: #000000; stroke-width: 0.8"/>
      </g>
     </g>
     <g id="text_8">
      <!-- −3.0 -->
      <g transform="translate(58.717187 250.562855)scale(0.1 -0.1)">
       <use xlink:href="#DejaVuSans-2212"/>
       <use xlink:href="#DejaVuSans-33" x="83.789062"/>
       <use xlink:href="#DejaVuSans-2e" x="147.412109"/>
       <use xlink:href="#DejaVuSans-30" x="179.199219"/>
      </g>
     </g>
    </g>
    <g id="ytick_3">
     <g id="line2d_9">
      <g>
       <use xlink:href="#m5573228ccb" x="90" y="204.913636" style="stroke: #000000; stroke-width: 0.8"/>
      </g>
     </g>
     <g id="text_9">
      <!-- −2.5 -->
      <g transform="translate(58.717187 208.712855)scale(0.1 -0.1)">
       <use xlink:href="#DejaVuSans-2212"/>
       <use xlink:href="#DejaVuSans-32" x="83.789062"/>
       <use xlink:href="#DejaVuSans-2e" x="147.412109"/>
       <use xlink:href="#DejaVuSans-35" x="179.199219"/>
      </g>
     </g>
    </g>
    <g id="ytick_4">
     <g id="line2d_10">
      <g>
       <use xlink:href="#m5573228ccb" x="90" y="163.063636" style="stroke: #000000; stroke-width: 0.8"/>
      </g>
     </g>
     <g id="text_10">
      <!-- −2.0 -->
      <g transform="translate(58.717187 166.862855)scale(0.1 -0.1)">
       <use xlink:href="#DejaVuSans-2212"/>
       <use xlink:href="#DejaVuSans-32" x="83.789062"/>
       <use xlink:href="#DejaVuSans-2e" x="147.412109"/>
       <use xlink:href="#DejaVuSans-30" x="179.199219"/>
      </g>
     </g>
    </g>
    <g id="ytick_5">
     <g id="line2d_11">
      <g>
       <use xlink:href="#m5573228ccb" x="90" y="121.213636" style="stroke: #000000; stroke-width: 0.8"/>
      </g>
     </g>
     <g id="text_11">
      <!-- −1.5 -->
      <g transform="translate(58.717187 125.012855)scale(0.1 -0.1)">
       <use xlink:href="#DejaVuSans-2212"/>
       <use xlink:href="#DejaVuSans-31" x="83.789062"/>
       <use xlink:href="#DejaVuSans-2e" x="147.412109"/>
       <use xlink:href="#DejaVuSans-35" x="179.199219"/>
      </g>
     </g>
    </g>
    <g id="ytick_6">
     <g id="line2d_12">
      <g>
       <use xlink:href="#m5573228ccb" x="90" y="79.363636" style="stroke: #000000; stroke-width: 0.8"/>
      </g>
     </g>
     <g id="text_12">
      <!-- −1.0 -->
      <g transform="translate(58.717187 83.162855)scale(0.1 -0.1)">
       <use xlink:href="#DejaVuSans-2212"/>
       <use xlink:href="#DejaVuSans-31" x="83.789062"/>
       <use xlink:href="#DejaVuSans-2e" x="147.412109"/>
       <use xlink:href="#DejaVuSans-30" x="179.199219"/>
      </g>
     </g>
    </g>
   </g>
   <g id="line2d_13">
    <path d="M 115.363636 255.845455 
L 116.353713 258.3 
L 117.000293 260.754545 
L 117.980267 257.072727 
L 118.970343 257.890909 
L 119.616924 262.390909 
L 120.607 256.663636 
L 121.576871 259.118182 
L 122.223452 258.709091 
L 123.213528 257.481818 
L 124.193502 257.890909 
L 124.840082 258.709091 
L 125.840261 257.481818 
L 126.820235 256.663636 
L 127.466815 260.754545 
L 128.456892 255.845455 
L 129.426763 258.709091 
L 130.093549 258.709091 
L 131.06342 257.481818 
L 132.073702 257.481818 
L 133.053675 257.890909 
L 134.043752 261.163636 
L 134.700435 257.072727 
L 135.700614 256.254545 
L 136.680588 257.890909 
L 137.327168 260.754545 
L 138.327348 259.936364 
L 139.307321 257.072727 
L 140.287295 260.754545 
L 140.943978 261.163636 
L 141.923952 257.481818 
L 142.914028 257.481818 
L 143.570712 259.118182 
L 144.550685 257.072727 
L 145.540762 257.481818 
L 146.540941 257.481818 
L 147.187521 260.754545 
L 148.167495 257.890909 
L 149.18788 258.3 
L 150.167853 257.481818 
L 151.147827 259.527273 
L 151.814613 259.936364 
L 152.794587 255.845455 
L 153.784663 257.481818 
L 154.441347 259.936364 
L 155.431423 260.754545 
L 156.421499 255.027273 
L 157.401473 256.663636 
L 158.048054 259.936364 
L 159.048233 255.436364 
L 160.028206 257.890909 
L 161.00818 258.3 
L 161.664863 257.072727 
L 162.644837 257.072727 
L 163.634913 258.3 
L 164.291597 257.481818 
L 165.27157 254.209091 
L 166.302058 259.527273 
L 167.282032 256.254545 
L 168.262005 259.936364 
L 168.928791 259.527273 
L 169.908765 257.072727 
L 170.888739 258.3 
L 171.868712 261.981818 
L 172.525396 257.481818 
L 173.505369 256.663636 
L 174.172155 259.936364 
L 175.152129 260.345455 
L 176.142205 256.663636 
L 177.132282 256.663636 
L 177.788965 259.936364 
L 178.768939 256.663636 
L 179.759015 255.027273 
L 181.405775 259.936364 
L 182.385749 256.663636 
L 183.385928 255.845455 
L 184.376004 259.118182 
L 185.366081 260.754545 
L 186.022764 261.572727 
L 187.01284 257.072727 
L 187.992814 257.072727 
L 188.649497 260.754545 
L 189.639574 260.754545 
L 190.619547 257.481818 
L 191.599521 258.709091 
L 192.266307 258.3 
L 193.246281 254.618182 
L 194.226254 255.436364 
L 194.882938 259.936364 
L 195.883117 256.254545 
L 196.86309 257.072727 
L 197.853167 258.3 
L 198.499747 257.481818 
L 199.520132 258.3 
L 201.48008 255.027273 
L 202.146866 260.345455 
L 203.126839 256.663636 
L 204.106813 255.845455 
L 205.096889 257.481818 
L 205.763675 260.754545 
L 206.743649 256.254545 
L 207.733725 253.8 
L 208.713699 257.890909 
L 209.370382 257.890909 
L 210.360459 255.845455 
L 211.340432 257.890909 
L 212.007219 260.754545 
L 212.987192 255.845455 
L 213.967166 256.663636 
L 214.947139 258.709091 
L 215.613926 258.709091 
L 216.967704 257.481818 
L 217.624387 259.936364 
L 218.604361 255.845455 
L 219.594437 255.027273 
L 220.25112 260.345455 
L 221.231094 255.436364 
L 222.22117 256.254545 
L 222.877854 258.709091 
L 223.857827 258.3 
L 224.847904 255.027273 
L 225.83798 255.845455 
L 226.828057 257.890909 
L 227.494843 257.481818 
L 228.474816 254.209091 
L 229.45479 257.481818 
L 230.121576 262.8 
L 231.10155 259.527273 
L 232.101729 259.527273 
L 233.081702 258.709091 
L 234.071779 264.027273 
L 234.718359 259.936364 
L 235.708436 256.663636 
L 236.698512 252.572727 
L 237.345093 251.345455 
L 238.335169 247.254545 
L 239.315143 242.345455 
L 239.961723 241.936364 
L 240.9518 233.754545 
L 241.931773 232.527273 
L 245.205087 155.618182 
L 247.205446 230.481818 
L 248.195522 235.390909 
L 249.175496 237.436364 
L 249.822076 235.390909 
L 250.812153 233.754545 
L 251.792126 221.072727 
L 252.438707 218.618182 
L 253.428783 214.118182 
L 254.408757 202.254545 
L 256.045414 112.663636 
L 257.03549 103.663636 
L 259.652121 209.209091 
L 260.632094 225.981818 
L 261.288778 217.8 
L 262.62235 219.027273 
L 263.289136 207.572727 
L 264.26911 205.527273 
L 264.91569 199.8 
L 267.88592 55.8 
L 271.179439 255.436364 
L 272.159413 261.572727 
L 273.139386 266.481818 
L 274.139566 275.072727 
L 275.119539 277.118182 
L 275.776223 269.345455 
L 276.776402 260.754545 
L 279.433444 97.118182 
L 282.433981 307.8 
L 283.413955 304.527273 
L 284.414134 306.572727 
L 285.394108 306.981818 
L 286.050791 306.572727 
L 287.05097 303.3 
L 288.030944 299.618182 
L 289.02102 299.618182 
L 289.677704 302.890909 
L 290.66778 298.390909 
L 291.647754 299.209091 
L 292.668139 297.981818 
L 293.648112 298.390909 
L 294.314898 301.254545 
L 295.294872 296.754545 
L 296.274846 296.345455 
L 297.275025 297.163636 
L 297.931708 297.981818 
L 298.911682 295.936364 
L 299.911861 295.936364 
L 300.891835 299.618182 
L 301.538415 294.3 
L 302.538594 293.072727 
L 303.518568 293.890909 
L 304.165149 294.709091 
L 305.165328 295.527273 
L 306.145301 291.027273 
L 307.135378 296.345455 
L 308.155763 293.072727 
L 308.802343 295.118182 
L 309.79242 292.254545 
L 310.782496 289.8 
L 311.76247 293.481818 
L 312.429256 292.663636 
L 313.409229 288.163636 
L 314.389203 289.390909 
L 315.369177 293.890909 
L 316.035963 294.709091 
L 317.026039 285.709091 
L 318.016116 288.981818 
L 318.672799 289.390909 
L 319.652773 288.163636 
L 320.642849 286.527273 
L 322.279506 288.572727 
L 323.269582 286.118182 
L 324.22935 290.618182 
L 324.886034 287.345455 
L 325.87611 285.709091 
L 326.856084 286.527273 
L 327.856263 288.981818 
L 328.512946 284.481818 
L 329.49292 283.663636 
L 331.13968 288.163636 
L 332.119653 284.072727 
L 333.119832 282.845455 
L 334.099806 285.3 
L 334.746387 282.436364 
L 335.746566 282.436364 
L 336.726539 282.027273 
L 337.716616 285.3 
L 338.383402 282.845455 
L 339.716974 288.163636 
L 340.373658 280.8 
L 341.363734 282.436364 
L 342.020417 285.3 
L 343.000391 282.027273 
L 343.990467 280.390909 
L 344.980544 281.618182 
L 345.637227 284.481818 
L 346.617201 281.209091 
L 347.61738 279.163636 
L 348.597354 279.572727 
L 349.26414 283.254545 
L 350.244113 276.3 
L 351.23419 280.8 
L 352.214164 280.8 
L 352.870847 282.027273 
L 353.860923 280.390909 
L 354.871205 277.936364 
L 355.851179 277.527273 
L 356.507862 281.209091 
L 357.497939 277.936364 
L 358.477912 277.527273 
L 359.467989 282.027273 
L 360.114569 278.754545 
L 361.094543 277.118182 
L 362.084619 278.345455 
L 363.721276 276.3 
L 364.70125 279.163636 
L 365.34783 274.663636 
L 366.337907 274.663636 
L 367.31788 279.163636 
L 367.974564 277.527273 
L 368.96464 276.709091 
L 369.742557 277.936364 
L 370.783148 277.118182 
L 372.177337 274.254545 
L 373.571526 273.436364 
L 374.975818 275.481818 
L 376.016409 275.481818 
L 377.410598 274.663636 
L 378.824993 275.481818 
L 380.219182 275.072727 
L 381.259773 277.936364 
L 382.653962 275.481818 
L 384.058254 276.3 
L 385.452443 273.436364 
L 388.281233 274.254545 
L 389.685525 274.254545 
L 391.089817 273.845455 
L 392.484007 272.209091 
L 393.544803 273.027273 
L 394.938992 272.618182 
L 396.333181 271.390909 
L 399.141765 272.209091 
L 400.55616 270.981818 
L 401.980658 270.572727 
L 403.38495 275.890909 
L 404.779139 270.981818 
L 406.183431 270.981818 
L 407.577621 270.163636 
L 408.638417 272.618182 
L 410.396308 272.618182 
L 411.447001 273.436364 
L 412.851293 270.981818 
L 414.245482 269.754545 
L 415.649774 270.572727 
L 417.043964 271.8 
L 418.478564 270.163636 
L 419.882856 267.709091 
L 422.681337 269.345455 
L 424.08563 268.118182 
L 426.530512 272.209091 
L 427.944907 267.709091 
L 429.339096 269.754545 
L 430.733286 268.527273 
L 432.14768 270.572727 
L 433.551972 268.118182 
L 434.97647 268.527273 
L 436.370659 266.890909 
L 437.774952 266.481818 
L 439.179244 266.890909 
L 440.573433 269.345455 
L 441.624126 268.118182 
L 443.038521 267.709091 
L 444.43271 266.481818 
L 445.837002 266.890909 
L 447.231192 264.845455 
L 448.635484 266.481818 
L 450.039776 267.709091 
L 450.73687 277.527273 
L 451.464273 271.390909 
L 452.868566 266.481818 
L 454.67697 265.663636 
L 456.081263 267.709091 
L 457.475452 268.527273 
L 458.879744 270.572727 
L 459.930437 269.754545 
L 461.334729 266.890909 
L 462.739021 266.890909 
L 465.547605 265.254545 
L 466.951898 264.845455 
L 468.376395 272.209091 
L 469.780687 266.890909 
L 471.184979 264.027273 
L 472.579169 266.890909 
L 473.983461 268.118182 
L 475.397856 266.481818 
L 476.792045 267.3 
L 478.196337 267.3 
L 479.24703 266.072727 
L 480.651322 265.254545 
L 482.045512 265.663636 
L 483.449804 264.845455 
L 484.874301 266.890909 
L 486.278593 265.254545 
L 489.066972 265.254545 
L 490.117665 267.3 
L 491.511855 264.436364 
L 492.906044 265.254545 
L 494.300233 266.890909 
L 495.350926 267.3 
L 498.149408 267.3 
L 499.543597 263.209091 
L 500.563982 265.254545 
L 501.958171 265.254545 
L 503.35236 268.118182 
L 504.756652 266.072727 
L 505.797243 266.481818 
L 507.201535 267.3 
L 508.605827 264.027273 
L 510.000016 266.481818 
L 511.394206 265.663636 
L 512.444899 264.027273 
L 513.839088 263.618182 
L 515.233277 264.436364 
L 516.647672 261.163636 
L 518.07217 264.845455 
L 520.870651 264.027273 
L 522.264841 264.436364 
L 524.719826 267.3 
L 526.467614 266.481818 
L 527.52841 264.845455 
L 528.932702 266.072727 
L 530.336994 266.481818 
L 531.731183 264.436364 
L 533.165784 267.3 
L 534.570076 264.027273 
L 535.964265 264.845455 
L 537.358455 262.8 
L 538.772849 263.618182 
L 540.177142 261.572727 
L 542.975623 266.481818 
L 544.036419 264.845455 
L 545.430608 266.890909 
L 546.8349 265.663636 
L 548.239192 264.845455 
L 550.017289 266.072727 
L 551.421581 264.027273 
L 552.462171 263.618182 
L 553.876566 266.890909 
L 555.270756 262.8 
L 556.675048 262.390909 
L 558.069237 262.8 
L 560.877821 266.072727 
L 562.282113 264.436364 
L 563.332806 265.663636 
L 564.737099 266.072727 
L 566.161596 265.663636 
L 567.909384 264.845455 
L 568.97018 264.027273 
L 570.36437 264.027273 
L 575.971435 262.390909 
L 577.375727 264.027273 
L 578.426421 266.481818 
L 579.830713 265.254545 
L 581.598706 259.527273 
L 583.013101 262.390909 
L 584.417393 263.618182 
L 585.821685 264.436364 
L 586.862276 264.845455 
L 588.266568 264.027273 
L 589.67086 263.618182 
L 591.065049 262.390909 
L 592.469341 262.8 
L 593.873633 262.8 
L 595.277925 261.981818 
L 596.682217 262.8 
L 598.106715 261.572727 
L 599.511007 261.572727 
L 600.915299 263.209091 
L 602.309489 264.436364 
L 603.713781 263.618182 
L 605.128175 263.209091 
L 606.522365 262.390909 
L 607.573058 263.618182 
L 608.97735 264.027273 
L 610.381642 261.572727 
L 611.775831 261.163636 
L 613.180124 261.981818 
L 614.604621 261.981818 
L 616.008913 261.163636 
L 617.403103 261.981818 
L 618.797292 265.254545 
L 619.847985 263.618182 
L 621.242174 260.754545 
L 622.636364 262.8 
L 622.636364 262.8 
" clip-path="url(#p52df9eda79)" style="fill: none; stroke: #1f77b4; stroke-width: 1.5; stroke-linecap: square"/>
   </g>
   <g id="patch_3">
    <path d="M 90 320.4 
L 90 43.2 
" style="fill: none; stroke: #000000; stroke-width: 0.8; stroke-linejoin: miter; stroke-linecap: square"/>
   </g>
   <g id="patch_4">
    <path d="M 648 320.4 
L 648 43.2 
" style="fill: none; stroke: #000000; stroke-width: 0.8; stroke-linejoin: miter; stroke-linecap: square"/>
   </g>
   <g id="patch_5">
    <path d="M 90 320.4 
L 648 320.4 
" style="fill: none; stroke: #000000; stroke-width: 0.8; stroke-linejoin: miter; stroke-linecap: square"/>
   </g>
   <g id="patch_6">
    <path d="M 90 43.2 
L 648 43.2 
" style="fill: none; stroke: #000000; stroke-width: 0.8; stroke-linejoin: miter; stroke-linecap: square"/>
   </g>
   <g id="text_13">
    <!-- 1234-1 -->
    <g transform="translate(347.747813 37.2)scale(0.12 -0.12)">
     <defs>
      <path id="DejaVuSans-2d" d="M 313 2009 
L 1997 2009 
L 1997 1497 
L 313 1497 
L 313 2009 
z
" transform="scale(0.015625)"/>
     </defs>
     <use xlink:href="#DejaVuSans-31"/>
     <use xlink:href="#DejaVuSans-32" x="63.623047"/>
     <use xlink:href="#DejaVuSans-33" x="127.246094"/>
     <use xlink:href="#DejaVuSans-34" x="190.869141"/>
     <use xlink:href="#DejaVuSans-2d" x="254.492188"/>
     <use xlink:href="#DejaVuSans-31" x="290.576172"/>
    </g>
   </g>
   <g id="legend_1">
    <g id="patch_7">
     <path d="M 544.017187 80.834375 
L 641 80.834375 
Q 643 80.834375 643 78.834375 
L 643 50.2 
Q 643 48.2 641 48.2 
L 544.017187 48.2 
Q 542.017187 48.2 542.017187 50.2 
L 542.017187 78.834375 
Q 542.017187 80.834375 544.017187 80.834375 
z
" style="fill: #ffffff; opacity: 0.8; stroke: #cccccc; stroke-linejoin: miter"/>
    </g>
    <g id="line2d_14">
     <path d="M 546.017187 56.298437 
L 556.017187 56.298437 
L 566.017187 56.298437 
" style="fill: none; stroke: #1f77b4; stroke-width: 1.5; stroke-linecap: square"/>
    </g>
    <g id="text_14">
     <!-- 1234-1 -->
     <g transform="translate(574.017187 59.798437)scale(0.1 -0.1)">
      <use xlink:href="#DejaVuSans-31"/>
      <use xlink:href="#DejaVuSans-32" x="63.623047"/>
      <use xlink:href="#DejaVuSans-33" x="127.246094"/>
      <use xlink:href="#DejaVuSans-34" x="190.869141"/>
      <use xlink:href="#DejaVuSans-2d" x="254.492188"/>
      <use xlink:href="#DejaVuSans-31" x="290.576172"/>
     </g>
    </g>
    <g id="PathCollection_2">
     <g>
      <use xlink:href="#m51e91fcdc7" x="556.017187" y="71.851562" style="fill: #ff0000; stroke: #ff0000; stroke-width: 1.5"/>
     </g>
    </g>
    <g id="text_15">
     <!-- 1234-1_enve -->
     <g transform="translate(574.017187 74.476562)scale(0.1 -0.1)">
      <defs>
       <path id="DejaVuSans-5f" d="M 3263 -1063 
L 3263 -1509 
L -63 -1509 
L -63 -1063 
L 3263 -1063 
z
" transform="scale(0.015625)"/>
       <path id="DejaVuSans-65" d="M 3597 1894 
L 3597 1613 
L 953 1613 
Q 991 1019 1311 708 
Q 1631 397 2203 397 
Q 2534 397 2845 478 
Q 3156 559 3463 722 
L 3463 178 
Q 3153 47 2828 -22 
Q 2503 -91 2169 -91 
Q 1331 -91 842 396 
Q 353 884 353 1716 
Q 353 2575 817 3079 
Q 1281 3584 2069 3584 
Q 2775 3584 3186 3129 
Q 3597 2675 3597 1894 
z
M 3022 2063 
Q 3016 2534 2758 2815 
Q 2500 3097 2075 3097 
Q 1594 3097 1305 2825 
Q 1016 2553 972 2059 
L 3022 2063 
z
" transform="scale(0.015625)"/>
       <path id="DejaVuSans-6e" d="M 3513 2113 
L 3513 0 
L 2938 0 
L 2938 2094 
Q 2938 2591 2744 2837 
Q 2550 3084 2163 3084 
Q 1697 3084 1428 2787 
Q 1159 2491 1159 1978 
L 1159 0 
L 581 0 
L 581 3500 
L 1159 3500 
L 1159 2956 
Q 1366 3272 1645 3428 
Q 1925 3584 2291 3584 
Q 2894 3584 3203 3211 
Q 3513 2838 3513 2113 
z
" transform="scale(0.015625)"/>
       <path id="DejaVuSans-76" d="M 191 3500 
L 800 3500 
L 1894 563 
L 2988 3500 
L 3597 3500 
L 2284 0 
L 1503 0 
L 191 3500 
z
" transform="scale(0.015625)"/>
      </defs>
      <use xlink:href="#DejaVuSans-31"/>
      <use xlink:href="#DejaVuSans-32" x="63.623047"/>
      <use xlink:href="#DejaVuSans-33" x="127.246094"/>
      <use xlink:href="#DejaVuSans-34" x="190.869141"/>
      <use xlink:href="#DejaVuSans-2d" x="254.492188"/>
      <use xlink:href="#DejaVuSans-31" x="290.576172"/>
      <use xlink:href="#DejaVuSans-5f" x="354.199219"/>
      <use xlink:href="#DejaVuSans-65" x="404.199219"/>
      <use xlink:href="#DejaVuSans-6e" x="465.722656"/>
      <use xlink:href="#DejaVuSans-76" x="529.101562"/>
      <use xlink:href="#DejaVuSans-65" x="588.28125"/>
     </g>
    </g>
   </g>
  </g>
 </g>
 <defs>
  <clipPath id="p52df9eda79">
   <rect x="90" y="43.2" width="558" height="277.2"/>
  </clipPath>
 </defs>
</svg>
