<?xml version="1.0" encoding="utf-8" standalone="no"?>
<!DOCTYPE svg PUBLIC "-//W3C//DTD SVG 1.1//EN"
  "http://www.w3.org/Graphics/SVG/1.1/DTD/svg11.dtd">
<svg xmlns:xlink="http://www.w3.org/1999/xlink" width="460.8pt" height="345.6pt" viewBox="0 0 460.8 345.6" xmlns="http://www.w3.org/2000/svg" version="1.1">
 <metadata>
  <rdf:RDF xmlns:dc="http://purl.org/dc/elements/1.1/" xmlns:cc="http://creativecommons.org/ns#" xmlns:rdf="http://www.w3.org/1999/02/22-rdf-syntax-ns#">
   <cc:Work>
    <dc:type rdf:resource="http://purl.org/dc/dcmitype/StillImage"/>
    <dc:date>2022-09-30T20:00:08.242353</dc:date>
    <dc:format>image/svg+xml</dc:format>
    <dc:creator>
     <cc:Agent>
      <dc:title>Matplotlib v3.5.3, https://matplotlib.org/</dc:title>
     </cc:Agent>
    </dc:creator>
   </cc:Work>
  </rdf:RDF>
 </metadata>
 <defs>
  <style type="text/css">*{stroke-linejoin: round; stroke-linecap: butt}</style>
 </defs>
 <g id="figure_1">
  <g id="patch_1">
   <path d="M 0 345.6 
L 460.8 345.6 
L 460.8 0 
L 0 0 
z
" style="fill: #ffffff"/>
  </g>
  <g id="axes_1">
   <g id="patch_2">
    <path d="M 57.6 307.584 
L 414.72 307.584 
L 414.72 41.472 
L 57.6 41.472 
z
" style="fill: #ffffff"/>
   </g>
   <g id="PathCollection_1">
    <defs>
     <path id="mb727720512" d="M -3 3 
L 3 -3 
M -3 -3 
L 3 3 
" style="stroke: #ff0000; stroke-width: 1.5"/>
    </defs>
    <g clip-path="url(#p8a8cedc871)">
     <use xlink:href="#mb727720512" x="149.391023" y="271.636732" style="fill: #ff0000; stroke: #ff0000; stroke-width: 1.5"/>
     <use xlink:href="#mb727720512" x="148.800723" y="271.636732" style="fill: #ff0000; stroke: #ff0000; stroke-width: 1.5"/>
     <use xlink:href="#mb727720512" x="164.338599" y="292.080676" style="fill: #ff0000; stroke: #ff0000; stroke-width: 1.5"/>
     <use xlink:href="#mb727720512" x="163.748299" y="295.488" style="fill: #ff0000; stroke: #ff0000; stroke-width: 1.5"/>
    </g>
   </g>
   <g id="matplotlib.axis_1">
    <g id="xtick_1">
     <g id="line2d_1">
      <defs>
       <path id="me9d8b8cc1f" d="M 0 0 
L 0 3.5 
" style="stroke: #000000; stroke-width: 0.8"/>
      </defs>
      <g>
       <use xlink:href="#me9d8b8cc1f" x="73.162388" y="307.584" style="stroke: #000000; stroke-width: 0.8"/>
      </g>
     </g>
     <g id="text_1">
      <!-- 0 -->
      <g transform="translate(69.981138 322.182437)scale(0.1 -0.1)">
       <defs>
        <path id="DejaVuSans-30" d="M 2034 4250 
Q 1547 4250 1301 3770 
Q 1056 3291 1056 2328 
Q 1056 1369 1301 889 
Q 1547 409 2034 409 
Q 2525 409 2770 889 
Q 3016 1369 3016 2328 
Q 3016 3291 2770 3770 
Q 2525 4250 2034 4250 
z
M 2034 4750 
Q 2819 4750 3233 4129 
Q 3647 3509 3647 2328 
Q 3647 1150 3233 529 
Q 2819 -91 2034 -91 
Q 1250 -91 836 529 
Q 422 1150 422 2328 
Q 422 3509 836 4129 
Q 1250 4750 2034 4750 
z
" transform="scale(0.015625)"/>
       </defs>
       <use xlink:href="#DejaVuSans-30"/>
      </g>
     </g>
    </g>
    <g id="xtick_2">
     <g id="line2d_2">
      <g>
       <use xlink:href="#me9d8b8cc1f" x="123.187742" y="307.584" style="stroke: #000000; stroke-width: 0.8"/>
      </g>
     </g>
     <g id="text_2">
      <!-- 5 -->
      <g transform="translate(120.006492 322.182437)scale(0.1 -0.1)">
       <defs>
        <path id="DejaVuSans-35" d="M 691 4666 
L 3169 4666 
L 3169 4134 
L 1269 4134 
L 1269 2991 
Q 1406 3038 1543 3061 
Q 1681 3084 1819 3084 
Q 2600 3084 3056 2656 
Q 3513 2228 3513 1497 
Q 3513 744 3044 326 
Q 2575 -91 1722 -91 
Q 1428 -91 1123 -41 
Q 819 9 494 109 
L 494 744 
Q 775 591 1075 516 
Q 1375 441 1709 441 
Q 2250 441 2565 725 
Q 2881 1009 2881 1497 
Q 2881 1984 2565 2268 
Q 2250 2553 1709 2553 
Q 1456 2553 1204 2497 
Q 953 2441 691 2322 
L 691 4666 
z
" transform="scale(0.015625)"/>
       </defs>
       <use xlink:href="#DejaVuSans-35"/>
      </g>
     </g>
    </g>
    <g id="xtick_3">
     <g id="line2d_3">
      <g>
       <use xlink:href="#me9d8b8cc1f" x="173.213096" y="307.584" style="stroke: #000000; stroke-width: 0.8"/>
      </g>
     </g>
     <g id="text_3">
      <!-- 10 -->
      <g transform="translate(166.850596 322.182437)scale(0.1 -0.1)">
       <defs>
        <path id="DejaVuSans-31" d="M 794 531 
L 1825 531 
L 1825 4091 
L 703 3866 
L 703 4441 
L 1819 4666 
L 2450 4666 
L 2450 531 
L 3481 531 
L 3481 0 
L 794 0 
L 794 531 
z
" transform="scale(0.015625)"/>
       </defs>
       <use xlink:href="#DejaVuSans-31"/>
       <use xlink:href="#DejaVuSans-30" x="63.623047"/>
      </g>
     </g>
    </g>
    <g id="xtick_4">
     <g id="line2d_4">
      <g>
       <use xlink:href="#me9d8b8cc1f" x="223.238451" y="307.584" style="stroke: #000000; stroke-width: 0.8"/>
      </g>
     </g>
     <g id="text_4">
      <!-- 15 -->
      <g transform="translate(216.875951 322.182437)scale(0.1 -0.1)">
       <use xlink:href="#DejaVuSans-31"/>
       <use xlink:href="#DejaVuSans-35" x="63.623047"/>
      </g>
     </g>
    </g>
    <g id="xtick_5">
     <g id="line2d_5">
      <g>
       <use xlink:href="#me9d8b8cc1f" x="273.263805" y="307.584" style="stroke: #000000; stroke-width: 0.8"/>
      </g>
     </g>
     <g id="text_5">
      <!-- 20 -->
      <g transform="translate(266.901305 322.182437)scale(0.1 -0.1)">
       <defs>
        <path id="DejaVuSans-32" d="M 1228 531 
L 3431 531 
L 3431 0 
L 469 0 
L 469 531 
Q 828 903 1448 1529 
Q 2069 2156 2228 2338 
Q 2531 2678 2651 2914 
Q 2772 3150 2772 3378 
Q 2772 3750 2511 3984 
Q 2250 4219 1831 4219 
Q 1534 4219 1204 4116 
Q 875 4013 500 3803 
L 500 4441 
Q 881 4594 1212 4672 
Q 1544 4750 1819 4750 
Q 2544 4750 2975 4387 
Q 3406 4025 3406 3419 
Q 3406 3131 3298 2873 
Q 3191 2616 2906 2266 
Q 2828 2175 2409 1742 
Q 1991 1309 1228 531 
z
" transform="scale(0.015625)"/>
       </defs>
       <use xlink:href="#DejaVuSans-32"/>
       <use xlink:href="#DejaVuSans-30" x="63.623047"/>
      </g>
     </g>
    </g>
    <g id="xtick_6">
     <g id="line2d_6">
      <g>
       <use xlink:href="#me9d8b8cc1f" x="323.28916" y="307.584" style="stroke: #000000; stroke-width: 0.8"/>
      </g>
     </g>
     <g id="text_6">
      <!-- 25 -->
      <g transform="translate(316.92666 322.182437)scale(0.1 -0.1)">
       <use xlink:href="#DejaVuSans-32"/>
       <use xlink:href="#DejaVuSans-35" x="63.623047"/>
      </g>
     </g>
    </g>
    <g id="xtick_7">
     <g id="line2d_7">
      <g>
       <use xlink:href="#me9d8b8cc1f" x="373.314514" y="307.584" style="stroke: #000000; stroke-width: 0.8"/>
      </g>
     </g>
     <g id="text_7">
      <!-- 30 -->
      <g transform="translate(366.952014 322.182437)scale(0.1 -0.1)">
       <defs>
        <path id="DejaVuSans-33" d="M 2597 2516 
Q 3050 2419 3304 2112 
Q 3559 1806 3559 1356 
Q 3559 666 3084 287 
Q 2609 -91 1734 -91 
Q 1441 -91 1130 -33 
Q 819 25 488 141 
L 488 750 
Q 750 597 1062 519 
Q 1375 441 1716 441 
Q 2309 441 2620 675 
Q 2931 909 2931 1356 
Q 2931 1769 2642 2001 
Q 2353 2234 1838 2234 
L 1294 2234 
L 1294 2753 
L 1863 2753 
Q 2328 2753 2575 2939 
Q 2822 3125 2822 3475 
Q 2822 3834 2567 4026 
Q 2313 4219 1838 4219 
Q 1578 4219 1281 4162 
Q 984 4106 628 3988 
L 628 4550 
Q 988 4650 1302 4700 
Q 1616 4750 1894 4750 
Q 2613 4750 3031 4423 
Q 3450 4097 3450 3541 
Q 3450 3153 3228 2886 
Q 3006 2619 2597 2516 
z
" transform="scale(0.015625)"/>
       </defs>
       <use xlink:href="#DejaVuSans-33"/>
       <use xlink:href="#DejaVuSans-30" x="63.623047"/>
      </g>
     </g>
    </g>
   </g>
   <g id="matplotlib.axis_2">
    <g id="ytick_1">
     <g id="line2d_8">
      <defs>
       <path id="md0100bd46e" d="M 0 0 
L -3.5 0 
" style="stroke: #000000; stroke-width: 0.8"/>
      </defs>
      <g>
       <use xlink:href="#md0100bd46e" x="57.6" y="299.883448" style="stroke: #000000; stroke-width: 0.8"/>
      </g>
     </g>
     <g id="text_8">
      <!-- 2.7 -->
      <g transform="translate(34.696875 303.682667)scale(0.1 -0.1)">
       <defs>
        <path id="DejaVuSans-2e" d="M 684 794 
L 1344 794 
L 1344 0 
L 684 0 
L 684 794 
z
" transform="scale(0.015625)"/>
        <path id="DejaVuSans-37" d="M 525 4666 
L 3525 4666 
L 3525 4397 
L 1831 0 
L 1172 0 
L 2766 4134 
L 525 4134 
L 525 4666 
z
" transform="scale(0.015625)"/>
       </defs>
       <use xlink:href="#DejaVuSans-32"/>
       <use xlink:href="#DejaVuSans-2e" x="63.623047"/>
       <use xlink:href="#DejaVuSans-37" x="95.410156"/>
      </g>
     </g>
    </g>
    <g id="ytick_2">
     <g id="line2d_9">
      <g>
       <use xlink:href="#md0100bd46e" x="57.6" y="265.026524" style="stroke: #000000; stroke-width: 0.8"/>
      </g>
     </g>
     <g id="text_9">
      <!-- 2.8 -->
      <g transform="translate(34.696875 268.825743)scale(0.1 -0.1)">
       <defs>
        <path id="DejaVuSans-38" d="M 2034 2216 
Q 1584 2216 1326 1975 
Q 1069 1734 1069 1313 
Q 1069 891 1326 650 
Q 1584 409 2034 409 
Q 2484 409 2743 651 
Q 3003 894 3003 1313 
Q 3003 1734 2745 1975 
Q 2488 2216 2034 2216 
z
M 1403 2484 
Q 997 2584 770 2862 
Q 544 3141 544 3541 
Q 544 4100 942 4425 
Q 1341 4750 2034 4750 
Q 2731 4750 3128 4425 
Q 3525 4100 3525 3541 
Q 3525 3141 3298 2862 
Q 3072 2584 2669 2484 
Q 3125 2378 3379 2068 
Q 3634 1759 3634 1313 
Q 3634 634 3220 271 
Q 2806 -91 2034 -91 
Q 1263 -91 848 271 
Q 434 634 434 1313 
Q 434 1759 690 2068 
Q 947 2378 1403 2484 
z
M 1172 3481 
Q 1172 3119 1398 2916 
Q 1625 2713 2034 2713 
Q 2441 2713 2670 2916 
Q 2900 3119 2900 3481 
Q 2900 3844 2670 4047 
Q 2441 4250 2034 4250 
Q 1625 4250 1398 4047 
Q 1172 3844 1172 3481 
z
" transform="scale(0.015625)"/>
       </defs>
       <use xlink:href="#DejaVuSans-32"/>
       <use xlink:href="#DejaVuSans-2e" x="63.623047"/>
       <use xlink:href="#DejaVuSans-38" x="95.410156"/>
      </g>
     </g>
    </g>
    <g id="ytick_3">
     <g id="line2d_10">
      <g>
       <use xlink:href="#md0100bd46e" x="57.6" y="230.1696" style="stroke: #000000; stroke-width: 0.8"/>
      </g>
     </g>
     <g id="text_10">
      <!-- 2.9 -->
      <g transform="translate(34.696875 233.968819)scale(0.1 -0.1)">
       <defs>
        <path id="DejaVuSans-39" d="M 703 97 
L 703 672 
Q 941 559 1184 500 
Q 1428 441 1663 441 
Q 2288 441 2617 861 
Q 2947 1281 2994 2138 
Q 2813 1869 2534 1725 
Q 2256 1581 1919 1581 
Q 1219 1581 811 2004 
Q 403 2428 403 3163 
Q 403 3881 828 4315 
Q 1253 4750 1959 4750 
Q 2769 4750 3195 4129 
Q 3622 3509 3622 2328 
Q 3622 1225 3098 567 
Q 2575 -91 1691 -91 
Q 1453 -91 1209 -44 
Q 966 3 703 97 
z
M 1959 2075 
Q 2384 2075 2632 2365 
Q 2881 2656 2881 3163 
Q 2881 3666 2632 3958 
Q 2384 4250 1959 4250 
Q 1534 4250 1286 3958 
Q 1038 3666 1038 3163 
Q 1038 2656 1286 2365 
Q 1534 2075 1959 2075 
z
" transform="scale(0.015625)"/>
       </defs>
       <use xlink:href="#DejaVuSans-32"/>
       <use xlink:href="#DejaVuSans-2e" x="63.623047"/>
       <use xlink:href="#DejaVuSans-39" x="95.410156"/>
      </g>
     </g>
    </g>
    <g id="ytick_4">
     <g id="line2d_11">
      <g>
       <use xlink:href="#md0100bd46e" x="57.6" y="195.312676" style="stroke: #000000; stroke-width: 0.8"/>
      </g>
     </g>
     <g id="text_11">
      <!-- 3.0 -->
      <g transform="translate(34.696875 199.111895)scale(0.1 -0.1)">
       <use xlink:href="#DejaVuSans-33"/>
       <use xlink:href="#DejaVuSans-2e" x="63.623047"/>
       <use xlink:href="#DejaVuSans-30" x="95.410156"/>
      </g>
     </g>
    </g>
    <g id="ytick_5">
     <g id="line2d_12">
      <g>
       <use xlink:href="#md0100bd46e" x="57.6" y="160.455752" style="stroke: #000000; stroke-width: 0.8"/>
      </g>
     </g>
     <g id="text_12">
      <!-- 3.1 -->
      <g transform="translate(34.696875 164.254971)scale(0.1 -0.1)">
       <use xlink:href="#DejaVuSans-33"/>
       <use xlink:href="#DejaVuSans-2e" x="63.623047"/>
       <use xlink:href="#DejaVuSans-31" x="95.410156"/>
      </g>
     </g>
    </g>
    <g id="ytick_6">
     <g id="line2d_13">
      <g>
       <use xlink:href="#md0100bd46e" x="57.6" y="125.598828" style="stroke: #000000; stroke-width: 0.8"/>
      </g>
     </g>
     <g id="text_13">
      <!-- 3.2 -->
      <g transform="translate(34.696875 129.398047)scale(0.1 -0.1)">
       <use xlink:href="#DejaVuSans-33"/>
       <use xlink:href="#DejaVuSans-2e" x="63.623047"/>
       <use xlink:href="#DejaVuSans-32" x="95.410156"/>
      </g>
     </g>
    </g>
    <g id="ytick_7">
     <g id="line2d_14">
      <g>
       <use xlink:href="#md0100bd46e" x="57.6" y="90.741904" style="stroke: #000000; stroke-width: 0.8"/>
      </g>
     </g>
     <g id="text_14">
      <!-- 3.3 -->
      <g transform="translate(34.696875 94.541123)scale(0.1 -0.1)">
       <use xlink:href="#DejaVuSans-33"/>
       <use xlink:href="#DejaVuSans-2e" x="63.623047"/>
       <use xlink:href="#DejaVuSans-33" x="95.410156"/>
      </g>
     </g>
    </g>
    <g id="ytick_8">
     <g id="line2d_15">
      <g>
       <use xlink:href="#md0100bd46e" x="57.6" y="55.88498" style="stroke: #000000; stroke-width: 0.8"/>
      </g>
     </g>
     <g id="text_15">
      <!-- 3.4 -->
      <g transform="translate(34.696875 59.684199)scale(0.1 -0.1)">
       <defs>
        <path id="DejaVuSans-34" d="M 2419 4116 
L 825 1625 
L 2419 1625 
L 2419 4116 
z
M 2253 4666 
L 3047 4666 
L 3047 1625 
L 3713 1625 
L 3713 1100 
L 3047 1100 
L 3047 0 
L 2419 0 
L 2419 1100 
L 313 1100 
L 313 1709 
L 2253 4666 
z
" transform="scale(0.015625)"/>
       </defs>
       <use xlink:href="#DejaVuSans-33"/>
       <use xlink:href="#DejaVuSans-2e" x="63.623047"/>
       <use xlink:href="#DejaVuSans-34" x="95.410156"/>
      </g>
     </g>
    </g>
   </g>
   <g id="line2d_16">
    <path d="M 73.832727 102.974197 
L 74.27295 140.454761 
L 75.313478 128.529127 
L 75.893772 126.825465 
L 76.474066 130.232789 
L 77.07437 131.936451 
L 77.654664 125.121803 
L 78.244964 131.936451 
L 78.685187 126.825465 
L 79.285491 130.232789 
L 79.865785 126.825465 
L 80.466089 133.640113 
L 81.046383 126.825465 
L 81.626677 125.121803 
L 82.246992 128.529127 
L 82.847296 133.640113 
L 83.4476 131.936451 
L 84.0379 135.343775 
L 84.628199 131.936451 
L 85.228503 133.640113 
L 85.818802 131.936451 
L 86.429112 133.640113 
L 87.019411 140.454761 
L 87.60971 130.232789 
L 88.210014 137.047437 
L 88.660242 126.825465 
L 89.250542 123.418141 
L 90.020932 138.751099 
L 90.611231 135.343775 
L 91.81184 135.343775 
L 92.412144 137.047437 
L 93.002443 133.640113 
L 93.592742 138.751099 
L 94.643275 123.418141 
L 95.38365 128.529127 
L 95.833878 114.899831 
L 96.574253 121.714479 
L 97.174558 118.307155 
L 97.794872 125.121803 
L 98.395176 125.121803 
L 98.985476 121.714479 
L 99.575775 126.825465 
L 100.176079 116.603493 
L 100.766378 113.196169 
L 101.366682 114.899831 
L 101.956982 104.677859 
L 102.547281 106.381521 
L 102.997509 99.566873 
L 103.597813 102.974197 
L 104.188112 104.677859 
L 104.788417 101.270535 
L 105.548802 96.159549 
L 106.149106 87.641239 
L 106.739405 82.530254 
L 107.33971 72.308282 
L 107.930009 53.568 
L 108.520308 58.678986 
L 108.970536 53.568 
L 109.570841 63.789972 
L 110.171145 58.678986 
L 110.771449 67.197296 
L 111.361748 72.308282 
L 111.952047 67.197296 
L 112.552352 80.826592 
L 113.162661 79.12293 
L 113.913041 91.048563 
L 114.513346 91.048563 
L 115.11365 92.752225 
L 116.354279 101.270535 
L 117.094654 96.159549 
L 117.534877 114.899831 
L 118.135181 109.788845 
L 118.885562 106.381521 
L 119.345795 109.788845 
L 120.076165 121.714479 
L 120.706484 147.269408 
L 121.296784 157.49138 
L 121.897088 217.119549 
L 122.487387 200.08293 
L 123.077686 160.898704 
L 123.687996 152.380394 
L 124.278295 140.454761 
L 124.878599 147.269408 
L 125.468898 142.158423 
L 126.069202 148.97307 
L 126.509426 145.565746 
L 127.259806 147.269408 
L 127.700029 143.862085 
L 128.480424 152.380394 
L 129.070724 155.787718 
L 129.661023 167.713352 
L 130.251322 155.787718 
L 130.691545 162.602366 
L 131.281844 157.49138 
L 132.452438 184.749972 
L 133.062747 191.56462 
L 133.643041 225.637859 
L 134.083264 208.601239 
L 134.683568 206.897577 
L 135.263863 196.675606 
L 136.474476 157.49138 
L 137.05477 167.713352 
L 137.66508 160.898704 
L 138.245374 164.306028 
L 138.835673 155.787718 
L 139.425972 160.898704 
L 140.016271 155.787718 
L 140.596565 155.787718 
L 141.046794 169.417014 
L 141.637093 174.528 
L 142.827696 177.935324 
L 143.438005 184.749972 
L 144.03831 186.453634 
L 144.628609 186.453634 
L 145.218908 181.342648 
L 145.819212 194.971944 
L 146.409512 196.675606 
L 147.019821 212.008563 
L 147.61012 213.712225 
L 148.200419 222.230535 
L 148.800723 271.636732 
L 149.391023 271.636732 
L 150.001332 225.637859 
L 151.81225 193.268282 
L 152.402549 193.268282 
L 153.002853 189.860958 
L 153.593152 198.379268 
L 154.783756 176.231662 
L 155.374055 174.528 
L 155.984364 176.231662 
L 156.574664 172.824338 
L 157.164963 179.638986 
L 157.775272 183.04631 
L 158.365571 191.56462 
L 158.985886 183.04631 
L 160.166484 205.193915 
L 160.776793 217.119549 
L 161.367093 232.452507 
L 161.967397 244.378141 
L 162.557696 249.489127 
L 163.147995 266.525746 
L 163.748299 295.488 
L 164.338599 292.080676 
L 164.948908 240.970817 
L 165.529202 217.119549 
L 166.119501 200.08293 
L 166.749821 194.971944 
L 167.34012 196.675606 
L 167.940424 188.157296 
L 168.530723 177.935324 
L 169.121022 177.935324 
L 169.731332 172.824338 
L 170.321631 164.306028 
L 170.921935 164.306028 
L 171.512234 150.676732 
L 172.092529 145.565746 
L 172.692833 152.380394 
L 173.283132 140.454761 
L 173.73336 137.047437 
L 174.513756 140.454761 
L 175.104055 142.158423 
L 176.304663 155.787718 
L 176.904968 155.787718 
L 177.495267 164.306028 
L 178.085566 159.195042 
L 178.695875 166.00969 
L 179.286175 164.306028 
L 179.886479 166.00969 
L 180.486783 171.120676 
L 181.097092 166.00969 
L 181.707402 169.417014 
L 182.297701 169.417014 
L 182.898005 176.231662 
L 183.498309 164.306028 
L 184.088609 164.306028 
L 185.439293 111.492507 
L 185.889521 101.270535 
L 186.47982 99.566873 
L 187.07012 94.455887 
L 187.670424 94.455887 
L 188.450819 96.159549 
L 189.031114 92.752225 
L 189.621413 87.641239 
L 190.221717 89.344901 
L 190.812016 87.641239 
L 191.452341 99.566873 
L 192.04264 99.566873 
L 192.642944 101.270535 
L 193.233243 97.863211 
L 193.823543 104.677859 
L 194.423847 101.270535 
L 195.134207 74.011944 
L 195.814552 106.381521 
L 196.825064 104.677859 
L 198.025672 106.381521 
L 199.206271 118.307155 
L 200.396874 114.899831 
L 201.577472 118.307155 
L 202.607995 123.418141 
L 202.968177 113.196169 
L 203.988695 126.825465 
L 205.189303 123.418141 
L 206.389912 113.196169 
L 207.57051 126.825465 
L 208.771118 131.936451 
L 209.801641 121.714479 
L 210.141813 125.121803 
L 210.662077 109.788845 
L 211.362432 130.232789 
L 212.553035 133.640113 
L 213.073299 109.788845 
L 213.763649 131.936451 
L 216.144856 135.343775 
L 217.345464 135.343775 
L 218.706154 131.936451 
L 219.936778 133.640113 
L 222.317984 133.640113 
L 223.528598 138.751099 
L 224.719201 140.454761 
L 225.909805 143.862085 
L 227.310515 137.047437 
L 228.491113 150.676732 
L 229.691722 142.158423 
L 230.89233 147.269408 
L 232.082934 140.454761 
L 234.654237 140.454761 
L 235.874855 137.047437 
L 236.5552 108.085183 
L 237.065459 142.158423 
L 237.585723 114.899831 
L 238.256062 138.751099 
L 238.766321 118.307155 
L 239.466676 154.084056 
L 239.976935 126.825465 
L 240.657279 142.158423 
L 241.857888 143.862085 
L 243.018476 148.97307 
L 244.219085 142.158423 
L 245.259612 142.158423 
L 246.620302 147.269408 
L 247.640819 142.158423 
L 249.001508 145.565746 
L 250.202117 150.676732 
L 251.422736 147.269408 
L 252.603334 154.084056 
L 253.793937 145.565746 
L 254.80445 155.787718 
L 256.165139 147.269408 
L 256.675398 111.492507 
L 257.185656 154.084056 
L 258.196169 142.158423 
L 259.576868 148.97307 
L 260.077122 116.603493 
L 260.767472 154.084056 
L 261.958075 148.97307 
L 262.968587 137.047437 
L 263.468841 114.899831 
L 263.989105 142.158423 
L 265.169703 148.97307 
L 266.360306 148.97307 
L 267.240753 116.603493 
L 267.751011 147.269408 
L 268.941615 152.380394 
L 269.631965 116.603493 
L 270.142223 145.565746 
L 271.512918 148.97307 
L 272.023177 109.788845 
L 272.54344 147.269408 
L 273.223785 113.196169 
L 273.734044 143.862085 
L 275.134754 147.269408 
L 276.155271 138.751099 
L 276.505448 154.084056 
L 277.055727 125.121803 
L 278.08625 147.269408 
L 279.106767 145.565746 
L 280.307375 148.97307 
L 281.67807 145.565746 
L 282.36842 121.714479 
L 283.068775 154.084056 
L 284.099297 150.676732 
L 285.279896 145.565746 
L 285.800159 123.418141 
L 286.480504 150.676732 
L 288.881721 150.676732 
L 290.072325 157.49138 
L 291.463029 147.269408 
L 292.663638 148.97307 
L 293.864246 140.454761 
L 294.374505 121.714479 
L 295.224936 150.676732 
L 296.235448 143.862085 
L 297.606143 148.97307 
L 298.836767 148.97307 
L 300.02737 150.676732 
L 301.227979 145.565746 
L 302.428587 143.862085 
L 303.619191 145.565746 
L 304.809794 148.97307 
L 306.010402 147.269408 
L 307.391102 147.269408 
L 308.601716 143.862085 
L 309.792319 147.269408 
L 310.992928 147.269408 
L 311.503186 111.492507 
L 312.183531 142.158423 
L 313.564231 145.565746 
L 314.78485 154.084056 
L 315.955443 159.195042 
L 316.97596 145.565746 
L 318.166564 143.862085 
L 319.347162 147.269408 
L 320.537765 154.084056 
L 321.548278 140.454761 
L 322.508764 138.751099 
L 323.529282 150.676732 
L 324.719885 154.084056 
L 325.220139 118.307155 
L 325.730397 150.676732 
L 326.910996 147.269408 
L 327.931513 154.084056 
L 328.781944 131.936451 
L 329.122116 145.565746 
L 330.31272 147.269408 
L 331.313227 148.97307 
L 332.50383 147.269408 
L 333.704439 154.084056 
L 334.905047 145.565746 
L 336.095651 148.97307 
L 337.286254 143.862085 
L 337.796513 120.010817 
L 338.85705 155.787718 
L 339.887572 148.97307 
L 341.078176 145.565746 
L 342.278784 154.084056 
L 343.469388 147.269408 
L 344.680001 147.269408 
L 345.8606 133.640113 
L 346.410879 120.010817 
L 347.26131 145.565746 
L 348.441908 143.862085 
L 349.822608 150.676732 
L 350.843125 140.454761 
L 352.043734 143.862085 
L 353.404423 138.751099 
L 354.625042 147.269408 
L 355.82565 147.269408 
L 357.016254 143.862085 
L 358.206857 147.269408 
L 359.407466 147.269408 
L 361.798678 143.862085 
L 362.338952 125.121803 
L 363.359469 145.565746 
L 365.150377 126.825465 
L 365.810711 143.862085 
L 367.171401 145.565746 
L 368.372009 140.454761 
L 369.742704 145.565746 
L 370.783231 145.565746 
L 372.344022 138.751099 
L 373.534626 140.454761 
L 374.735234 138.751099 
L 375.945848 142.158423 
L 377.136451 143.862085 
L 378.327055 142.158423 
L 379.527663 145.565746 
L 380.738277 133.640113 
L 381.938885 135.343775 
L 383.129489 148.97307 
L 383.97992 125.121803 
L 384.310087 142.158423 
L 385.500691 147.269408 
L 385.840863 116.603493 
L 386.531213 138.751099 
L 387.911913 147.269408 
L 389.092511 147.269408 
L 390.27311 138.751099 
L 391.293627 147.269408 
L 392.494235 137.047437 
L 393.674834 140.454761 
L 394.695351 135.343775 
L 395.545782 109.788845 
L 396.076051 137.047437 
L 397.45675 138.751099 
L 398.487273 140.454761 
L 398.487273 140.454761 
" clip-path="url(#p8a8cedc871)" style="fill: none; stroke: #1f77b4; stroke-width: 1.5; stroke-linecap: square"/>
   </g>
   <g id="patch_3">
    <path d="M 57.6 307.584 
L 57.6 41.472 
" style="fill: none; stroke: #000000; stroke-width: 0.8; stroke-linejoin: miter; stroke-linecap: square"/>
   </g>
   <g id="patch_4">
    <path d="M 414.72 307.584 
L 414.72 41.472 
" style="fill: none; stroke: #000000; stroke-width: 0.8; stroke-linejoin: miter; stroke-linecap: square"/>
   </g>
   <g id="patch_5">
    <path d="M 57.6 307.584 
L 414.72 307.584 
" style="fill: none; stroke: #000000; stroke-width: 0.8; stroke-linejoin: miter; stroke-linecap: square"/>
   </g>
   <g id="patch_6">
    <path d="M 57.6 41.472 
L 414.72 41.472 
" style="fill: none; stroke: #000000; stroke-width: 0.8; stroke-linejoin: miter; stroke-linecap: square"/>
   </g>
  </g>
 </g>
 <defs>
  <clipPath id="p8a8cedc871">
   <rect x="57.6" y="41.472" width="357.12" height="266.112"/>
  </clipPath>
 </defs>
</svg>
