<?xml version="1.0" encoding="utf-8" standalone="no"?>
<!DOCTYPE svg PUBLIC "-//W3C//DTD SVG 1.1//EN"
  "http://www.w3.org/Graphics/SVG/1.1/DTD/svg11.dtd">
<svg xmlns:xlink="http://www.w3.org/1999/xlink" width="460.8pt" height="345.6pt" viewBox="0 0 460.8 345.6" xmlns="http://www.w3.org/2000/svg" version="1.1">
 <metadata>
  <rdf:RDF xmlns:dc="http://purl.org/dc/elements/1.1/" xmlns:cc="http://creativecommons.org/ns#" xmlns:rdf="http://www.w3.org/1999/02/22-rdf-syntax-ns#">
   <cc:Work>
    <dc:type rdf:resource="http://purl.org/dc/dcmitype/StillImage"/>
    <dc:date>2022-10-01T21:17:20.372488</dc:date>
    <dc:format>image/svg+xml</dc:format>
    <dc:creator>
     <cc:Agent>
      <dc:title>Matplotlib v3.5.3, https://matplotlib.org/</dc:title>
     </cc:Agent>
    </dc:creator>
   </cc:Work>
  </rdf:RDF>
 </metadata>
 <defs>
  <style type="text/css">*{stroke-linejoin: round; stroke-linecap: butt}</style>
 </defs>
 <g id="figure_1">
  <g id="patch_1">
   <path d="M 0 345.6 
L 460.8 345.6 
L 460.8 0 
L 0 0 
z
" style="fill: #ffffff"/>
  </g>
  <g id="axes_1">
   <g id="patch_2">
    <path d="M 57.6 307.584 
L 414.72 307.584 
L 414.72 41.472 
L 57.6 41.472 
z
" style="fill: #ffffff"/>
   </g>
   <g id="matplotlib.axis_1">
    <g id="xtick_1">
     <g id="line2d_1">
      <defs>
       <path id="mcf35525d59" d="M 0 0 
L 0 3.5 
" style="stroke: #000000; stroke-width: 0.8"/>
      </defs>
      <g>
       <use xlink:href="#mcf35525d59" x="72.969743" y="307.584" style="stroke: #000000; stroke-width: 0.8"/>
      </g>
     </g>
     <g id="text_1">
      <!-- 0.0 -->
      <g transform="translate(65.018181 322.182437)scale(0.1 -0.1)">
       <defs>
        <path id="DejaVuSans-30" d="M 2034 4250 
Q 1547 4250 1301 3770 
Q 1056 3291 1056 2328 
Q 1056 1369 1301 889 
Q 1547 409 2034 409 
Q 2525 409 2770 889 
Q 3016 1369 3016 2328 
Q 3016 3291 2770 3770 
Q 2525 4250 2034 4250 
z
M 2034 4750 
Q 2819 4750 3233 4129 
Q 3647 3509 3647 2328 
Q 3647 1150 3233 529 
Q 2819 -91 2034 -91 
Q 1250 -91 836 529 
Q 422 1150 422 2328 
Q 422 3509 836 4129 
Q 1250 4750 2034 4750 
z
" transform="scale(0.015625)"/>
        <path id="DejaVuSans-2e" d="M 684 794 
L 1344 794 
L 1344 0 
L 684 0 
L 684 794 
z
" transform="scale(0.015625)"/>
       </defs>
       <use xlink:href="#DejaVuSans-30"/>
       <use xlink:href="#DejaVuSans-2e" x="63.623047"/>
       <use xlink:href="#DejaVuSans-30" x="95.410156"/>
      </g>
     </g>
    </g>
    <g id="xtick_2">
     <g id="line2d_2">
      <g>
       <use xlink:href="#mcf35525d59" x="116.118939" y="307.584" style="stroke: #000000; stroke-width: 0.8"/>
      </g>
     </g>
     <g id="text_2">
      <!-- 2.5 -->
      <g transform="translate(108.167376 322.182437)scale(0.1 -0.1)">
       <defs>
        <path id="DejaVuSans-32" d="M 1228 531 
L 3431 531 
L 3431 0 
L 469 0 
L 469 531 
Q 828 903 1448 1529 
Q 2069 2156 2228 2338 
Q 2531 2678 2651 2914 
Q 2772 3150 2772 3378 
Q 2772 3750 2511 3984 
Q 2250 4219 1831 4219 
Q 1534 4219 1204 4116 
Q 875 4013 500 3803 
L 500 4441 
Q 881 4594 1212 4672 
Q 1544 4750 1819 4750 
Q 2544 4750 2975 4387 
Q 3406 4025 3406 3419 
Q 3406 3131 3298 2873 
Q 3191 2616 2906 2266 
Q 2828 2175 2409 1742 
Q 1991 1309 1228 531 
z
" transform="scale(0.015625)"/>
        <path id="DejaVuSans-35" d="M 691 4666 
L 3169 4666 
L 3169 4134 
L 1269 4134 
L 1269 2991 
Q 1406 3038 1543 3061 
Q 1681 3084 1819 3084 
Q 2600 3084 3056 2656 
Q 3513 2228 3513 1497 
Q 3513 744 3044 326 
Q 2575 -91 1722 -91 
Q 1428 -91 1123 -41 
Q 819 9 494 109 
L 494 744 
Q 775 591 1075 516 
Q 1375 441 1709 441 
Q 2250 441 2565 725 
Q 2881 1009 2881 1497 
Q 2881 1984 2565 2268 
Q 2250 2553 1709 2553 
Q 1456 2553 1204 2497 
Q 953 2441 691 2322 
L 691 4666 
z
" transform="scale(0.015625)"/>
       </defs>
       <use xlink:href="#DejaVuSans-32"/>
       <use xlink:href="#DejaVuSans-2e" x="63.623047"/>
       <use xlink:href="#DejaVuSans-35" x="95.410156"/>
      </g>
     </g>
    </g>
    <g id="xtick_3">
     <g id="line2d_3">
      <g>
       <use xlink:href="#mcf35525d59" x="159.268134" y="307.584" style="stroke: #000000; stroke-width: 0.8"/>
      </g>
     </g>
     <g id="text_3">
      <!-- 5.0 -->
      <g transform="translate(151.316571 322.182437)scale(0.1 -0.1)">
       <use xlink:href="#DejaVuSans-35"/>
       <use xlink:href="#DejaVuSans-2e" x="63.623047"/>
       <use xlink:href="#DejaVuSans-30" x="95.410156"/>
      </g>
     </g>
    </g>
    <g id="xtick_4">
     <g id="line2d_4">
      <g>
       <use xlink:href="#mcf35525d59" x="202.417329" y="307.584" style="stroke: #000000; stroke-width: 0.8"/>
      </g>
     </g>
     <g id="text_4">
      <!-- 7.5 -->
      <g transform="translate(194.465767 322.182437)scale(0.1 -0.1)">
       <defs>
        <path id="DejaVuSans-37" d="M 525 4666 
L 3525 4666 
L 3525 4397 
L 1831 0 
L 1172 0 
L 2766 4134 
L 525 4134 
L 525 4666 
z
" transform="scale(0.015625)"/>
       </defs>
       <use xlink:href="#DejaVuSans-37"/>
       <use xlink:href="#DejaVuSans-2e" x="63.623047"/>
       <use xlink:href="#DejaVuSans-35" x="95.410156"/>
      </g>
     </g>
    </g>
    <g id="xtick_5">
     <g id="line2d_5">
      <g>
       <use xlink:href="#mcf35525d59" x="245.566525" y="307.584" style="stroke: #000000; stroke-width: 0.8"/>
      </g>
     </g>
     <g id="text_5">
      <!-- 10.0 -->
      <g transform="translate(234.433712 322.182437)scale(0.1 -0.1)">
       <defs>
        <path id="DejaVuSans-31" d="M 794 531 
L 1825 531 
L 1825 4091 
L 703 3866 
L 703 4441 
L 1819 4666 
L 2450 4666 
L 2450 531 
L 3481 531 
L 3481 0 
L 794 0 
L 794 531 
z
" transform="scale(0.015625)"/>
       </defs>
       <use xlink:href="#DejaVuSans-31"/>
       <use xlink:href="#DejaVuSans-30" x="63.623047"/>
       <use xlink:href="#DejaVuSans-2e" x="127.246094"/>
       <use xlink:href="#DejaVuSans-30" x="159.033203"/>
      </g>
     </g>
    </g>
    <g id="xtick_6">
     <g id="line2d_6">
      <g>
       <use xlink:href="#mcf35525d59" x="288.71572" y="307.584" style="stroke: #000000; stroke-width: 0.8"/>
      </g>
     </g>
     <g id="text_6">
      <!-- 12.5 -->
      <g transform="translate(277.582907 322.182437)scale(0.1 -0.1)">
       <use xlink:href="#DejaVuSans-31"/>
       <use xlink:href="#DejaVuSans-32" x="63.623047"/>
       <use xlink:href="#DejaVuSans-2e" x="127.246094"/>
       <use xlink:href="#DejaVuSans-35" x="159.033203"/>
      </g>
     </g>
    </g>
    <g id="xtick_7">
     <g id="line2d_7">
      <g>
       <use xlink:href="#mcf35525d59" x="331.864915" y="307.584" style="stroke: #000000; stroke-width: 0.8"/>
      </g>
     </g>
     <g id="text_7">
      <!-- 15.0 -->
      <g transform="translate(320.732103 322.182437)scale(0.1 -0.1)">
       <use xlink:href="#DejaVuSans-31"/>
       <use xlink:href="#DejaVuSans-35" x="63.623047"/>
       <use xlink:href="#DejaVuSans-2e" x="127.246094"/>
       <use xlink:href="#DejaVuSans-30" x="159.033203"/>
      </g>
     </g>
    </g>
    <g id="xtick_8">
     <g id="line2d_8">
      <g>
       <use xlink:href="#mcf35525d59" x="375.01411" y="307.584" style="stroke: #000000; stroke-width: 0.8"/>
      </g>
     </g>
     <g id="text_8">
      <!-- 17.5 -->
      <g transform="translate(363.881298 322.182437)scale(0.1 -0.1)">
       <use xlink:href="#DejaVuSans-31"/>
       <use xlink:href="#DejaVuSans-37" x="63.623047"/>
       <use xlink:href="#DejaVuSans-2e" x="127.246094"/>
       <use xlink:href="#DejaVuSans-35" x="159.033203"/>
      </g>
     </g>
    </g>
   </g>
   <g id="matplotlib.axis_2">
    <g id="ytick_1">
     <g id="line2d_9">
      <defs>
       <path id="m4448a810ba" d="M 0 0 
L -3.5 0 
" style="stroke: #000000; stroke-width: 0.8"/>
      </defs>
      <g>
       <use xlink:href="#m4448a810ba" x="57.6" y="255.23079" style="stroke: #000000; stroke-width: 0.8"/>
      </g>
     </g>
     <g id="text_9">
      <!-- 1 -->
      <g transform="translate(44.2375 259.030009)scale(0.1 -0.1)">
       <use xlink:href="#DejaVuSans-31"/>
      </g>
     </g>
    </g>
    <g id="ytick_2">
     <g id="line2d_10">
      <g>
       <use xlink:href="#m4448a810ba" x="57.6" y="200.173135" style="stroke: #000000; stroke-width: 0.8"/>
      </g>
     </g>
     <g id="text_10">
      <!-- 2 -->
      <g transform="translate(44.2375 203.972353)scale(0.1 -0.1)">
       <use xlink:href="#DejaVuSans-32"/>
      </g>
     </g>
    </g>
    <g id="ytick_3">
     <g id="line2d_11">
      <g>
       <use xlink:href="#m4448a810ba" x="57.6" y="145.115479" style="stroke: #000000; stroke-width: 0.8"/>
      </g>
     </g>
     <g id="text_11">
      <!-- 3 -->
      <g transform="translate(44.2375 148.914698)scale(0.1 -0.1)">
       <defs>
        <path id="DejaVuSans-33" d="M 2597 2516 
Q 3050 2419 3304 2112 
Q 3559 1806 3559 1356 
Q 3559 666 3084 287 
Q 2609 -91 1734 -91 
Q 1441 -91 1130 -33 
Q 819 25 488 141 
L 488 750 
Q 750 597 1062 519 
Q 1375 441 1716 441 
Q 2309 441 2620 675 
Q 2931 909 2931 1356 
Q 2931 1769 2642 2001 
Q 2353 2234 1838 2234 
L 1294 2234 
L 1294 2753 
L 1863 2753 
Q 2328 2753 2575 2939 
Q 2822 3125 2822 3475 
Q 2822 3834 2567 4026 
Q 2313 4219 1838 4219 
Q 1578 4219 1281 4162 
Q 984 4106 628 3988 
L 628 4550 
Q 988 4650 1302 4700 
Q 1616 4750 1894 4750 
Q 2613 4750 3031 4423 
Q 3450 4097 3450 3541 
Q 3450 3153 3228 2886 
Q 3006 2619 2597 2516 
z
" transform="scale(0.015625)"/>
       </defs>
       <use xlink:href="#DejaVuSans-33"/>
      </g>
     </g>
    </g>
    <g id="ytick_4">
     <g id="line2d_12">
      <g>
       <use xlink:href="#m4448a810ba" x="57.6" y="90.057824" style="stroke: #000000; stroke-width: 0.8"/>
      </g>
     </g>
     <g id="text_12">
      <!-- 4 -->
      <g transform="translate(44.2375 93.857043)scale(0.1 -0.1)">
       <defs>
        <path id="DejaVuSans-34" d="M 2419 4116 
L 825 1625 
L 2419 1625 
L 2419 4116 
z
M 2253 4666 
L 3047 4666 
L 3047 1625 
L 3713 1625 
L 3713 1100 
L 3047 1100 
L 3047 0 
L 2419 0 
L 2419 1100 
L 313 1100 
L 313 1709 
L 2253 4666 
z
" transform="scale(0.015625)"/>
       </defs>
       <use xlink:href="#DejaVuSans-34"/>
      </g>
     </g>
    </g>
   </g>
   <g id="line2d_13">
    <path d="M 73.832727 100.929424 
L 74.2297 100.391226 
L 74.488595 104.158612 
L 74.730231 105.504107 
L 74.989126 100.391226 
L 75.248021 99.583929 
L 75.489656 102.544018 
L 75.748552 103.889513 
L 76.249082 100.391226 
L 76.507977 104.158612 
L 76.766873 103.620414 
L 77.008508 98.776632 
L 77.250144 103.082216 
L 77.543558 105.773206 
L 78.026829 100.660325 
L 78.285724 101.736721 
L 78.544619 107.118701 
L 78.786255 102.544018 
L 79.04515 100.660325 
L 79.286786 104.427711 
L 79.545681 106.311404 
L 79.804576 102.274919 
L 80.046211 103.082216 
L 80.564002 106.849602 
L 80.805637 101.736721 
L 81.047273 103.351315 
L 81.306168 106.580503 
L 81.565063 105.504107 
L 81.823958 102.00582 
L 82.065594 103.889513 
L 82.307229 108.733295 
L 82.583384 104.158612 
L 82.82502 103.351315 
L 83.34281 108.195097 
L 83.584445 103.351315 
L 83.826081 102.00582 
L 84.084976 106.580503 
L 84.343871 107.656899 
L 84.585507 104.158612 
L 84.844402 104.69681 
L 85.086037 106.042305 
L 85.362192 106.849602 
L 85.621087 103.889513 
L 85.862723 104.427711 
L 86.104358 108.464196 
L 86.380513 106.311404 
L 86.622149 103.082216 
L 86.863784 104.69681 
L 87.122679 108.195097 
L 87.62321 103.351315 
L 88.141 108.464196 
L 88.382636 105.235008 
L 88.69331 104.158612 
L 88.934946 105.504107 
L 89.193841 108.195097 
L 89.452736 106.311404 
L 89.694371 103.082216 
L 90.212162 109.002394 
L 90.729952 102.813117 
L 90.971588 107.118701 
L 91.230483 109.540592 
L 91.489378 105.504107 
L 91.748273 104.965909 
L 92.248804 109.540592 
L 92.507699 106.849602 
L 92.749334 106.311404 
L 93.025489 106.311404 
L 93.284385 110.07879 
L 93.52602 105.773206 
L 93.802175 105.504107 
L 94.04381 109.002394 
L 94.302706 108.195097 
L 94.561601 104.965909 
L 94.803236 104.965909 
L 95.079391 109.271493 
L 95.321027 107.3878 
L 95.579922 104.427711 
L 95.838817 105.504107 
L 96.097712 107.3878 
L 96.339348 107.3878 
L 96.615502 104.965909 
L 96.857138 104.158612 
L 97.098773 107.656899 
L 97.374928 105.504107 
L 97.616564 102.544018 
L 98.134354 107.118701 
L 98.37599 105.773206 
L 98.634885 102.544018 
L 98.89378 104.158612 
L 99.152675 107.656899 
L 99.394311 104.69681 
L 99.670465 103.351315 
L 99.912101 104.69681 
L 100.170996 107.925998 
L 100.671527 103.620414 
L 100.964941 105.235008 
L 101.206577 107.656899 
L 101.448212 103.889513 
L 101.724367 103.889513 
L 102.017782 103.620414 
L 102.259417 104.965909 
L 102.535572 104.69681 
L 102.777207 101.736721 
L 103.036103 103.620414 
L 103.294998 106.580503 
L 103.553893 106.311404 
L 103.795528 104.158612 
L 104.054424 103.889513 
L 104.313319 107.3878 
L 104.554954 104.69681 
L 104.831109 103.082216 
L 105.33164 108.464196 
L 105.590535 104.427711 
L 105.832171 102.544018 
L 106.349961 107.118701 
L 106.867751 102.813117 
L 107.368282 106.311404 
L 107.627177 102.00582 
L 107.886072 102.274919 
L 108.127708 101.198523 
L 108.403863 105.504107 
L 108.645498 101.198523 
L 108.904393 101.198523 
L 109.180548 102.544018 
L 109.422184 104.427711 
L 109.663819 99.045731 
L 109.939974 97.431137 
L 110.181609 100.391226 
L 110.440505 102.00582 
L 110.6994 95.816543 
L 110.958295 96.085642 
L 111.19993 99.31483 
L 111.458826 99.045731 
L 111.717721 93.125553 
L 111.959356 92.318256 
L 112.235511 96.892939 
L 112.753301 92.318256 
L 112.994937 91.510959 
L 113.236572 95.547444 
L 113.512727 93.394652 
L 113.754363 89.089068 
L 114.013258 90.434563 
L 114.272153 94.740147 
L 114.772684 88.281771 
L 115.083358 88.819969 
L 115.583889 96.354741 
L 116.101679 92.856454 
L 116.619469 99.31483 
L 116.878365 95.009246 
L 117.12 96.085642 
L 117.396155 102.274919 
L 117.896686 96.62384 
L 118.155581 96.892939 
L 118.397216 99.583929 
L 118.673371 97.431137 
L 118.915007 97.700236 
L 119.156642 97.162038 
L 119.432797 102.813117 
L 119.674432 102.274919 
L 119.933328 99.045731 
L 120.192223 101.467622 
L 120.451118 107.118701 
L 120.692753 105.235008 
L 120.968908 104.427711 
L 121.452179 113.038879 
L 121.728334 110.616988 
L 122.228865 123.802839 
L 122.48776 133.490403 
L 122.729395 135.374096 
L 122.988291 142.908868 
L 123.506081 174.931648 
L 123.747716 181.928222 
L 124.541662 214.220102 
L 124.800557 215.565597 
L 125.042192 220.947577 
L 125.559983 237.631715 
L 125.801618 234.671626 
L 126.077773 234.133428 
L 126.319408 239.515408 
L 126.561044 237.900814 
L 127.337729 217.180191 
L 127.85552 185.426509 
L 128.407829 151.789135 
L 129.167255 114.384374 
L 129.685046 116.537166 
L 129.943941 107.656899 
L 130.185576 103.620414 
L 130.444472 107.656899 
L 130.703367 107.118701 
L 130.945002 102.274919 
L 131.221157 104.965909 
L 131.462793 105.235008 
L 131.721688 105.235008 
L 131.980583 100.122127 
L 132.222218 100.929424 
L 132.757268 106.580503 
L 132.998904 102.00582 
L 133.257799 103.620414 
L 133.516694 107.118701 
L 133.775589 106.311404 
L 134.017225 102.544018 
L 134.27612 102.00582 
L 134.535015 107.3878 
L 134.776651 105.773206 
L 135.052806 102.813117 
L 135.536077 108.733295 
L 136.053867 104.427711 
L 136.330022 106.849602 
L 136.571657 110.616988 
L 137.089448 104.158612 
L 137.331083 108.733295 
L 137.589978 111.424285 
L 138.090509 107.3878 
L 138.349404 109.540592 
L 138.608299 113.307978 
L 138.867194 109.002394 
L 139.10883 108.464196 
L 139.367725 112.231582 
L 139.62662 113.577077 
L 139.868256 109.002394 
L 140.644941 114.922572 
L 140.921096 112.76978 
L 141.473406 116.806265 
L 141.732301 120.035453 
L 141.973936 119.228156 
L 142.250091 117.075364 
L 142.733362 132.683106 
L 143.009517 135.912294 
L 143.251153 141.563373 
L 143.768943 168.204174 
L 144.027838 174.662549 
L 144.545629 198.343261 
L 144.787264 208.838122 
L 145.0289 213.951003 
L 145.305054 226.060458 
L 145.805585 253.508556 
L 146.06448 254.315853 
L 146.565011 267.770803 
L 146.823906 270.999991 
L 147.082801 269.385397 
L 147.324437 269.923595 
L 147.600592 271.538189 
L 147.842227 265.88711 
L 148.377277 240.860903 
L 148.618913 227.675052 
L 149.896129 125.686532 
L 150.155024 116.268067 
L 150.413919 111.424285 
L 150.655555 114.384374 
L 151.173345 103.082216 
L 151.43224 106.311404 
L 151.673876 107.118701 
L 151.95003 102.274919 
L 152.191666 100.122127 
L 152.433301 102.544018 
L 152.709456 104.158612 
L 152.951092 99.045731 
L 153.209987 96.085642 
L 153.727777 101.467622 
L 153.986672 98.507533 
L 154.228308 97.162038 
L 154.452684 101.467622 
L 154.970474 96.62384 
L 155.471005 99.31483 
L 155.7299 96.354741 
L 155.988795 95.816543 
L 156.26495 97.431137 
L 156.506585 102.274919 
L 156.748221 97.162038 
L 157.024376 96.354741 
L 157.266011 97.162038 
L 157.524906 101.467622 
L 157.783802 98.776632 
L 158.042697 98.776632 
L 158.543227 102.274919 
L 159.043758 97.162038 
L 159.561548 104.69681 
L 159.803184 99.583929 
L 160.079339 99.583929 
L 160.320974 104.69681 
L 160.57987 104.69681 
L 160.838765 102.544018 
L 161.09766 104.158612 
L 161.356555 108.733295 
L 161.857086 106.849602 
L 163.134302 143.177967 
L 163.375937 159.593006 
L 165.688734 228.751448 
L 166.206525 237.631715 
L 166.44816 245.166487 
L 166.724315 245.166487 
L 166.96595 244.897388 
L 167.51826 247.857477 
L 167.777155 244.628289 
L 168.536581 222.023973 
L 168.795476 208.838122 
L 169.296007 164.705887 
L 170.038173 113.846176 
L 170.314328 111.962483 
L 170.555963 111.424285 
L 170.797599 109.540592 
L 171.073754 103.620414 
L 171.315389 103.351315 
L 171.557025 103.620414 
L 172.092075 96.354741 
L 172.33371 99.853028 
L 172.592605 100.122127 
L 172.834241 95.009246 
L 173.093136 93.663751 
L 173.352031 98.238434 
L 173.593667 96.354741 
L 173.835302 96.085642 
L 174.111457 95.009246 
L 174.353093 99.853028 
L 174.611988 96.354741 
L 174.870883 95.009246 
L 175.371414 99.853028 
L 175.630309 95.816543 
L 175.871944 95.009246 
L 176.130839 99.583929 
L 176.372475 100.929424 
L 176.890265 98.238434 
L 177.390796 103.620414 
L 177.649691 98.507533 
L 177.891327 98.776632 
L 178.132962 103.082216 
L 178.409117 102.544018 
L 178.650753 99.045731 
L 179.168543 106.311404 
L 179.410178 102.274919 
L 179.669074 101.736721 
L 180.186864 110.347889 
L 180.463019 109.540592 
L 180.739174 113.846176 
L 181.239704 133.759502 
L 181.498599 138.603284 
L 183.517982 215.565597 
L 183.759617 222.562171 
L 184.277408 254.046754 
L 184.760679 275.843773 
L 185.036833 292.527911 
L 185.278469 295.488 
L 185.520104 290.913317 
L 185.779 288.222327 
L 186.037895 291.720614 
L 186.538425 282.03305 
L 186.797321 281.225753 
L 187.038956 276.65107 
L 187.556746 236.824418 
L 188.074537 171.702461 
L 188.557808 87.474474 
L 188.833963 59.219079 
L 189.075598 55.720792 
L 189.334493 54.913495 
L 189.593388 53.568 
L 189.835024 53.568 
L 190.093919 60.026376 
L 190.335555 61.910069 
L 190.59445 62.986465 
L 190.853345 64.601059 
L 191.09498 61.64097 
L 191.353876 63.524663 
L 191.612771 63.524663 
L 191.854406 67.830247 
L 192.372197 64.601059 
L 192.872727 72.674029 
L 193.131622 70.790336 
L 193.373258 70.252138 
L 193.666672 72.674029 
L 193.942827 76.441415 
L 194.184463 75.365019 
L 194.426098 73.481326 
L 194.943889 78.863306 
L 195.220043 77.248712 
L 195.720574 76.710514 
L 195.996729 80.208801 
L 196.238365 76.441415 
L 196.49726 75.634118 
L 197.01505 79.132405 
L 197.256686 76.441415 
L 197.53284 76.172316 
L 197.774476 77.248712 
L 198.033371 80.208801 
L 198.551161 72.40493 
L 198.792797 79.401504 
L 199.13799 78.863306 
L 200.691361 77.248712 
L 200.950257 77.78691 
L 201.450787 82.092494 
L 201.709682 78.325108 
L 201.968578 77.517811 
L 202.227473 81.016098 
L 202.469108 82.630692 
L 202.745263 79.670603 
L 202.986899 78.325108 
L 203.245794 82.630692 
L 203.504689 82.899791 
L 203.763584 79.939702 
L 204.00522 79.401504 
L 204.264115 82.899791 
L 204.52301 83.16889 
L 204.764645 80.208801 
L 205.0408 79.670603 
L 205.282436 83.707088 
L 205.558591 82.899791 
L 205.800226 78.594207 
L 206.318017 84.245286 
L 206.576912 82.899791 
L 206.818547 80.746999 
L 207.094702 82.092494 
L 207.336338 85.590781 
L 207.595233 82.361593 
L 208.147542 80.746999 
L 208.682592 86.667177 
L 208.924228 81.823395 
L 209.183123 81.554296 
L 209.700913 85.85988 
L 210.218704 80.4779 
L 210.460339 84.783484 
L 210.736494 86.398078 
L 210.97813 82.630692 
L 211.219765 82.361593 
L 211.49592 86.398078 
L 211.737555 86.667177 
L 211.996451 82.092494 
L 212.255346 81.285197 
L 212.496981 86.128979 
L 212.755876 85.321682 
L 213.014772 82.630692 
L 213.273667 83.707088 
L 213.515302 86.667177 
L 213.791457 84.245286 
L 214.033093 83.437989 
L 214.291988 84.514385 
L 214.550883 88.819969 
L 215.051414 82.092494 
L 215.310309 84.245286 
L 215.569204 87.743573 
L 215.810839 85.052583 
L 216.086994 83.976187 
L 216.34589 84.514385 
L 216.604785 87.205375 
L 216.86368 85.85988 
L 217.105315 83.16889 
L 217.623106 87.205375 
L 218.140896 83.976187 
L 218.641427 88.55087 
L 218.900322 83.976187 
L 219.159217 83.976187 
L 219.400853 87.205375 
L 219.677007 88.819969 
L 219.918643 84.783484 
L 220.177538 83.976187 
L 220.436433 88.819969 
L 220.678069 87.743573 
L 220.936964 84.783484 
L 221.489274 85.590781 
L 221.765428 89.896365 
L 222.007064 86.667177 
L 222.265959 85.052583 
L 222.524854 85.052583 
L 222.76649 90.165464 
L 223.025385 87.743573 
L 223.28428 86.398078 
L 223.784811 90.165464 
L 224.319861 84.783484 
L 224.561496 90.434563 
L 224.837651 90.972761 
L 225.320922 87.205375 
L 225.838712 90.703662 
L 226.097608 86.936276 
L 226.356503 86.936276 
L 226.615398 90.434563 
L 226.857033 91.24186 
L 227.115929 87.205375 
L 227.374824 86.936276 
L 227.633719 89.627266 
L 227.892614 90.972761 
L 228.13425 86.667177 
L 228.65204 91.24186 
L 228.893676 90.703662 
L 229.16983 88.012672 
L 229.411466 88.819969 
L 229.653101 92.318256 
L 230.170892 89.089068 
L 230.429787 89.627266 
L 230.688682 92.318256 
L 230.947577 90.972761 
L 231.189213 86.936276 
L 231.707003 92.318256 
L 231.948639 89.358167 
L 232.224793 90.165464 
L 232.483689 90.434563 
L 232.725324 93.125553 
L 233.001479 89.627266 
L 233.243114 89.358167 
L 233.519269 90.703662 
L 233.760905 93.394652 
L 234.00254 90.703662 
L 234.313214 88.819969 
L 234.57211 89.896365 
L 234.813745 92.049157 
L 235.0899 92.587355 
L 235.331535 89.627266 
L 235.590431 89.627266 
L 235.849326 93.663751 
L 236.090961 92.318256 
L 236.349856 89.896365 
L 236.608752 90.165464 
L 236.867647 93.394652 
L 237.368177 90.165464 
L 237.627073 91.780058 
L 237.868708 95.816543 
L 238.144863 90.434563 
L 238.386498 90.703662 
L 238.628134 92.049157 
L 238.904289 94.740147 
L 239.145924 90.703662 
L 239.422079 90.434563 
L 239.663715 90.972761 
L 239.92261 95.009246 
L 240.198765 91.24186 
L 240.4404 89.896365 
L 240.958191 94.201949 
L 241.199826 91.780058 
L 241.458721 91.510959 
L 241.717616 94.471048 
L 241.976512 94.471048 
L 242.218147 91.510959 
L 242.494302 90.165464 
L 242.735937 94.471048 
L 242.977573 95.278345 
L 243.253728 90.703662 
L 243.495363 91.510959 
L 243.754258 96.085642 
L 244.013154 94.740147 
L 244.254789 91.24186 
L 244.513684 92.587355 
L 244.772579 95.278345 
L 245.031475 94.471048 
L 245.29037 91.780058 
L 245.532005 93.125553 
L 245.7909 96.892939 
L 246.049796 93.663751 
L 246.308691 92.856454 
L 246.550326 93.394652 
L 246.826481 96.085642 
L 247.068117 93.663751 
L 247.361531 92.587355 
L 247.637686 92.049157 
L 247.896581 95.547444 
L 248.155476 96.085642 
L 248.414371 91.510959 
L 248.656007 92.856454 
L 248.914902 96.354741 
L 249.173797 97.162038 
L 249.432692 91.780058 
L 249.950483 97.700236 
L 250.468273 93.125553 
L 250.709909 93.663751 
L 250.968804 96.62384 
L 251.227699 95.547444 
L 251.486594 93.125553 
L 251.72823 93.125553 
L 252.004385 97.431137 
L 252.24602 96.085642 
L 252.504915 92.856454 
L 252.76381 93.663751 
L 253.022706 96.62384 
L 253.540496 94.471048 
L 253.782131 95.278345 
L 254.023767 98.776632 
L 254.558817 94.471048 
L 254.800452 95.009246 
L 255.059348 99.31483 
L 255.318243 96.354741 
L 255.559878 95.009246 
L 255.853293 95.009246 
L 256.094928 98.507533 
L 256.612719 94.471048 
L 256.871614 95.009246 
L 257.130509 99.045731 
L 257.389404 96.354741 
L 257.63104 95.278345 
L 257.907194 95.816543 
L 258.14883 99.583929 
L 258.390465 94.471048 
L 258.66662 95.009246 
L 258.908256 96.085642 
L 259.167151 99.31483 
L 259.391527 95.547444 
L 259.650422 96.354741 
L 259.892057 100.122127 
L 260.409848 96.085642 
L 260.668743 96.354741 
L 260.927638 99.045731 
L 261.186533 98.238434 
L 261.428169 95.547444 
L 261.704324 96.354741 
L 261.945959 99.583929 
L 262.187595 98.507533 
L 262.463749 95.278345 
L 262.705385 96.085642 
L 262.98154 99.31483 
L 263.223175 97.700236 
L 263.48207 95.009246 
L 263.758225 97.162038 
L 264.01712 102.544018 
L 264.534911 96.085642 
L 264.776546 97.162038 
L 265.035441 100.391226 
L 265.294337 98.507533 
L 265.553232 95.547444 
L 265.794867 97.162038 
L 266.071022 100.929424 
L 266.571553 96.354741 
L 266.830448 97.700236 
L 267.089343 101.198523 
L 267.330979 97.969335 
L 267.607134 97.969335 
L 267.848769 97.700236 
L 268.090405 100.929424 
L 268.608195 96.354741 
L 269.125985 102.274919 
L 269.38488 97.969335 
L 269.643776 96.354741 
L 269.902671 100.391226 
L 270.144306 102.00582 
L 270.662097 95.816543 
L 270.903732 100.391226 
L 271.214406 101.736721 
L 271.732197 97.162038 
L 272.249987 100.391226 
L 272.491622 100.122127 
L 272.750518 98.507533 
L 273.009413 98.507533 
L 273.251048 102.544018 
L 273.509943 99.31483 
L 273.768839 98.776632 
L 274.269369 102.274919 
L 274.528264 98.507533 
L 274.78716 98.238434 
L 275.28769 102.544018 
L 275.546585 99.045731 
L 275.805481 98.507533 
L 276.047116 100.391226 
L 276.306011 101.198523 
L 276.564906 97.162038 
L 276.806542 98.776632 
L 277.065437 102.00582 
L 277.324332 99.853028 
L 277.565968 96.354741 
L 278.083758 102.00582 
L 278.325394 98.507533 
L 278.584289 96.62384 
L 279.084819 102.274919 
L 279.61987 97.969335 
L 279.861505 99.853028 
L 280.1204 103.351315 
L 280.638191 95.547444 
L 280.879826 100.391226 
L 281.138721 102.544018 
L 281.397616 98.776632 
L 281.639252 97.969335 
L 281.898147 103.082216 
L 282.157042 102.00582 
L 282.398678 99.583929 
L 282.657573 99.31483 
L 282.916468 103.620414 
L 283.34796 99.31483 
L 283.641375 99.853028 
L 283.917529 102.813117 
L 284.210944 102.00582 
L 285.091187 97.700236 
L 285.660757 102.544018 
L 285.954171 103.351315 
L 286.247586 102.813117 
L 286.541 99.31483 
L 286.834415 99.583929 
L 287.421244 102.00582 
L 287.714659 102.274919 
L 288.008073 103.082216 
L 288.301488 100.660325 
L 288.577642 101.198523 
L 288.888317 99.853028 
L 289.164472 100.391226 
L 289.751301 104.158612 
L 290.027455 104.158612 
L 290.33813 100.929424 
L 290.614284 100.929424 
L 290.907699 101.467622 
L 291.201114 102.274919 
L 291.477268 104.965909 
L 291.787943 105.504107 
L 292.064097 102.274919 
L 292.650926 100.391226 
L 292.944341 101.467622 
L 293.51391 105.235008 
L 293.807325 103.082216 
L 294.100739 102.00582 
L 294.394154 100.391226 
L 294.687569 100.660325 
L 294.980983 103.082216 
L 295.257138 104.427711 
L 295.567812 104.158612 
L 295.843967 103.351315 
L 296.137381 103.620414 
L 296.430796 100.660325 
L 296.77599 99.853028 
L 297.069404 101.198523 
L 297.362819 103.620414 
L 297.656233 104.427711 
L 297.949648 104.69681 
L 298.225803 105.504107 
L 298.536477 101.736721 
L 298.829891 100.391226 
L 299.123306 102.544018 
L 299.41672 103.620414 
L 299.692875 105.235008 
L 300.003549 104.965909 
L 300.590378 101.198523 
L 300.866533 101.467622 
L 301.159948 103.351315 
L 301.470622 109.809691 
L 301.746777 105.504107 
L 302.333606 103.082216 
L 302.62702 103.082216 
L 302.920435 101.736721 
L 303.213849 105.235008 
L 303.524524 105.504107 
L 303.800679 106.849602 
L 304.094093 104.158612 
L 304.387508 103.620414 
L 304.680922 102.00582 
L 304.974337 102.274919 
L 305.267751 105.235008 
L 305.561166 105.773206 
L 305.87184 107.656899 
L 306.458669 103.082216 
L 306.752084 102.544018 
L 307.028238 103.351315 
L 307.615067 107.3878 
L 307.925742 107.925998 
L 308.201896 105.773206 
L 308.495311 102.544018 
L 308.788726 103.082216 
L 309.08214 104.158612 
L 309.668969 108.733295 
L 310.255798 105.235008 
L 310.583732 104.965909 
L 310.894406 103.889513 
L 311.187821 106.580503 
L 311.463976 105.235008 
L 311.77465 107.118701 
L 312.050805 107.925998 
L 312.361479 108.195097 
L 312.931048 104.427711 
L 313.224463 104.965909 
L 313.517877 106.042305 
L 313.828552 109.540592 
L 314.104706 109.271493 
L 314.398121 107.925998 
L 314.708795 105.773206 
L 315.00221 104.965909 
L 315.295624 104.965909 
L 315.589039 106.042305 
L 315.865194 109.809691 
L 316.175868 109.540592 
L 316.452023 106.849602 
L 316.762697 106.849602 
L 317.056111 105.235008 
L 317.919095 109.540592 
L 318.229769 109.540592 
L 318.505924 108.733295 
L 318.799339 105.504107 
L 319.092753 106.580503 
L 319.386168 106.580503 
L 319.696842 109.809691 
L 319.972997 110.07879 
L 320.266411 112.231582 
L 320.559826 108.195097 
L 320.853241 106.042305 
L 321.146655 106.311404 
L 321.44007 105.773206 
L 321.733484 109.002394 
L 322.026899 110.347889 
L 322.320313 110.07879 
L 322.613728 107.3878 
L 322.907142 106.580503 
L 323.183297 107.3878 
L 323.787386 111.155186 
L 324.132579 110.07879 
L 324.425994 111.693384 
L 324.719408 111.424285 
L 325.012823 108.733295 
L 325.306237 107.118701 
L 325.599652 107.3878 
L 325.893067 109.809691 
L 326.169221 110.347889 
L 326.479896 112.231582 
L 326.75605 111.155186 
L 327.066725 107.925998 
L 327.360139 108.464196 
L 327.636294 107.656899 
L 328.223123 111.693384 
L 328.533797 111.424285 
L 329.103367 108.733295 
L 329.414041 107.925998 
L 329.690196 109.002394 
L 330.277025 113.038879 
L 330.570439 112.76978 
L 330.863854 109.002394 
L 331.157268 107.656899 
L 331.744097 109.540592 
L 332.330926 113.577077 
L 332.624341 113.307978 
L 332.935015 109.540592 
L 333.21117 108.464196 
L 333.504585 109.809691 
L 333.815259 110.616988 
L 334.402088 113.577077 
L 334.971657 110.616988 
L 335.558486 108.464196 
L 335.869161 110.347889 
L 336.145315 113.846176 
L 336.43873 114.922572 
L 336.749404 111.693384 
L 337.025559 110.347889 
L 339.13124 111.424285 
L 339.407395 110.616988 
L 339.752588 110.886087 
L 340.046003 109.540592 
L 340.339417 110.616988 
L 340.632832 112.76978 
L 340.926246 112.231582 
L 341.219661 113.846176 
L 341.513075 112.500681 
L 341.80649 110.07879 
L 342.099904 109.540592 
L 342.393319 111.155186 
L 342.686733 113.846176 
L 342.980148 114.922572 
L 343.273562 114.653473 
L 343.566977 111.424285 
L 343.860391 110.616988 
L 344.153806 111.155186 
L 344.447221 111.962483 
L 345.03405 115.46077 
L 345.310204 112.76978 
L 345.620879 111.155186 
L 345.914293 110.347889 
L 346.207708 112.231582 
L 346.501122 112.500681 
L 346.777277 113.038879 
L 347.087951 115.191671 
L 347.381366 114.922572 
L 347.67478 111.962483 
L 347.968195 110.886087 
L 348.572284 111.424285 
L 348.848438 114.653473 
L 349.159113 115.998968 
L 349.435268 113.038879 
L 349.728682 112.231582 
L 350.039356 110.616988 
L 350.315511 110.886087 
L 350.90234 115.998968 
L 351.195755 116.268067 
L 351.489169 114.922572 
L 351.782584 112.500681 
L 352.075998 111.155186 
L 352.369413 110.886087 
L 352.645568 114.384374 
L 353.284176 116.268067 
L 353.59485 116.537166 
L 353.871005 114.384374 
L 354.164419 111.155186 
L 354.475094 110.616988 
L 355.338077 117.882661 
L 355.631492 117.344463 
L 355.924906 113.577077 
L 356.218321 112.231582 
L 356.528995 112.231582 
L 356.80515 113.577077 
L 357.115824 115.729869 
L 357.409239 116.268067 
L 357.702653 116.268067 
L 358.289482 112.76978 
L 358.565637 111.693384 
L 358.876311 113.038879 
L 359.169726 115.729869 
L 359.756555 118.15176 
L 360.03271 114.653473 
L 360.343384 112.231582 
L 360.930213 114.384374 
L 361.223628 118.959057 
L 362.086612 113.577077 
L 362.397286 113.038879 
L 362.966855 115.191671 
L 363.277529 115.998968 
L 363.553684 118.15176 
L 363.864358 115.729869 
L 364.433928 113.846176 
L 364.744602 113.846176 
L 365.020757 114.922572 
L 365.331431 118.15176 
L 365.607586 118.689958 
L 366.211675 113.307978 
L 366.505089 114.384374 
L 366.798504 112.76978 
L 367.143697 113.038879 
L 367.419852 117.075364 
L 367.730526 117.613562 
L 368.006681 116.268067 
L 368.317355 115.998968 
L 368.886925 113.307978 
L 369.197599 114.115275 
L 369.473754 116.537166 
L 369.784428 116.268067 
L 370.060583 118.15176 
L 370.353997 115.46077 
L 370.664672 114.115275 
L 370.940826 114.115275 
L 371.251501 114.653473 
L 371.82107 118.689958 
L 372.114485 118.420859 
L 372.407899 115.191671 
L 372.718573 115.46077 
L 372.994728 116.268067 
L 373.288143 115.729869 
L 373.581557 117.344463 
L 373.874972 120.035453 
L 374.168386 118.689958 
L 374.461801 115.46077 
L 374.755215 113.577077 
L 375.04863 114.384374 
L 375.359304 115.729869 
L 375.946133 120.304552 
L 376.826377 114.922572 
L 377.119791 115.191671 
L 377.413206 115.729869 
L 378.000035 119.228156 
L 378.27619 117.613562 
L 378.586864 114.922572 
L 378.880278 114.115275 
L 379.156433 114.653473 
L 379.743262 119.497255 
L 380.053936 119.228156 
L 380.330091 117.613562 
L 380.658025 117.344463 
L 381.244854 114.922572 
L 382.125098 119.766354 
L 382.694667 116.268067 
L 383.005341 116.268067 
L 383.281496 114.922572 
L 383.868325 120.035453 
L 384.179 120.304552 
L 384.472414 118.15176 
L 384.748569 115.191671 
L 385.041983 116.537166 
L 385.335398 115.46077 
L 385.904967 120.304552 
L 386.215642 120.035453 
L 386.491796 116.806265 
L 386.802471 116.806265 
L 387.078625 115.46077 
L 387.35478 116.806265 
L 387.665455 120.573651 
L 387.941609 120.573651 
L 388.252284 119.497255 
L 388.821853 115.191671 
L 389.115268 117.613562 
L 389.408682 118.959057 
L 389.702097 119.228156 
L 389.978251 119.766354 
L 390.271666 118.420859 
L 390.56508 115.998968 
L 390.858495 115.46077 
L 391.445324 118.959057 
L 391.721479 120.84275 
L 392.032153 120.035453 
L 392.601722 115.998968 
L 393.188552 117.882661 
L 393.499226 120.573651 
L 393.775381 120.84275 
L 394.086055 118.689958 
L 394.413989 120.035453 
L 394.690144 117.344463 
L 395.000818 117.075364 
L 395.276973 117.075364 
L 395.863802 121.650047 
L 396.139957 121.650047 
L 396.450631 117.613562 
L 396.726786 116.268067 
L 397.03746 118.15176 
L 397.313615 118.959057 
L 397.607029 121.380948 
L 397.900444 120.84275 
L 398.193858 119.228156 
L 398.487273 118.420859 
L 398.487273 118.420859 
" clip-path="url(#p436a551c6b)" style="fill: none; stroke: #1f77b4; stroke-width: 1.5; stroke-linecap: square"/>
   </g>
   <g id="line2d_14">
    <path d="M 74.2297 100.391226 
L 75.248021 99.583929 
L 76.249082 100.391226 
L 77.008508 98.776632 
L 78.026829 100.660325 
L 79.04515 100.660325 
L 79.804576 102.274919 
L 80.805637 101.736721 
L 81.823958 102.00582 
L 82.82502 103.351315 
L 83.826081 102.00582 
L 84.585507 104.158612 
L 85.621087 103.889513 
L 86.622149 103.082216 
L 87.62321 103.351315 
L 88.69331 104.158612 
L 89.694371 103.082216 
L 90.729952 102.813117 
L 91.748273 104.965909 
L 92.749334 106.311404 
L 94.561601 104.965909 
L 95.579922 104.427711 
L 96.857138 104.158612 
L 97.616564 102.544018 
L 98.634885 102.544018 
L 99.670465 103.351315 
L 100.671527 103.620414 
L 102.017782 103.620414 
L 102.777207 101.736721 
L 104.054424 103.889513 
L 104.831109 103.082216 
L 105.832171 102.544018 
L 106.867751 102.813117 
L 107.627177 102.00582 
L 108.127708 101.198523 
L 108.645498 101.198523 
L 109.939974 97.431137 
L 110.6994 95.816543 
L 111.959356 92.318256 
L 112.994937 91.510959 
L 113.754363 89.089068 
L 114.772684 88.281771 
L 116.101679 92.856454 
L 116.878365 95.009246 
L 117.896686 96.62384 
L 118.673371 97.431137 
L 119.156642 97.162038 
L 119.933328 99.045731 
L 120.968908 104.427711 
L 121.728334 110.616988 
L 126.077773 234.133428 
L 129.167255 114.384374 
L 130.185576 103.620414 
L 130.945002 102.274919 
L 131.980583 100.122127 
L 132.998904 102.00582 
L 134.27612 102.00582 
L 135.052806 102.813117 
L 136.053867 104.427711 
L 137.089448 104.158612 
L 138.090509 107.3878 
L 139.10883 108.464196 
L 139.868256 109.002394 
L 140.921096 112.76978 
L 142.250091 117.075364 
L 147.082801 269.385397 
L 150.413919 111.424285 
L 151.173345 103.082216 
L 152.191666 100.122127 
L 153.209987 96.085642 
L 154.228308 97.162038 
L 155.988795 95.816543 
L 157.024376 96.354741 
L 157.783802 98.776632 
L 159.043758 97.162038 
L 160.838765 102.544018 
L 161.857086 106.849602 
L 166.96595 244.897388 
L 171.315389 103.351315 
L 172.092075 96.354741 
L 173.093136 93.663751 
L 174.111457 95.009246 
L 175.871944 95.009246 
L 176.890265 98.238434 
L 177.649691 98.507533 
L 178.650753 99.045731 
L 179.669074 101.736721 
L 180.463019 109.540592 
L 185.779 288.222327 
L 189.593388 53.568 
L 191.09498 61.64097 
L 192.372197 64.601059 
L 193.373258 70.252138 
L 194.426098 73.481326 
L 195.720574 76.710514 
L 196.49726 75.634118 
L 197.53284 76.172316 
L 198.551161 72.40493 
L 200.691361 77.248712 
L 201.968578 77.517811 
L 202.986899 78.325108 
L 204.00522 79.401504 
L 205.0408 79.670603 
L 205.800226 78.594207 
L 206.818547 80.746999 
L 208.147542 80.746999 
L 209.183123 81.554296 
L 210.218704 80.4779 
L 211.219765 82.361593 
L 212.255346 81.285197 
L 213.014772 82.630692 
L 214.033093 83.437989 
L 215.051414 82.092494 
L 216.086994 83.976187 
L 217.105315 83.16889 
L 218.140896 83.976187 
L 220.177538 83.976187 
L 220.936964 84.783484 
L 222.265959 85.052583 
L 223.28428 86.398078 
L 224.319861 84.783484 
L 225.320922 87.205375 
L 226.097608 86.936276 
L 227.374824 86.936276 
L 228.13425 86.667177 
L 229.16983 88.012672 
L 230.170892 89.089068 
L 231.189213 86.936276 
L 231.948639 89.358167 
L 233.243114 89.358167 
L 234.313214 88.819969 
L 235.331535 89.627266 
L 238.144863 90.434563 
L 239.422079 90.434563 
L 240.4404 89.896365 
L 241.458721 91.510959 
L 242.494302 90.165464 
L 243.253728 90.703662 
L 245.29037 91.780058 
L 246.308691 92.856454 
L 248.414371 91.510959 
L 249.432692 91.780058 
L 250.468273 93.125553 
L 251.486594 93.125553 
L 252.504915 92.856454 
L 253.540496 94.471048 
L 254.558817 94.471048 
L 255.559878 95.009246 
L 256.612719 94.471048 
L 257.63104 95.278345 
L 258.390465 94.471048 
L 259.391527 95.547444 
L 260.409848 96.085642 
L 261.428169 95.547444 
L 263.48207 95.009246 
L 264.534911 96.085642 
L 265.553232 95.547444 
L 266.571553 96.354741 
L 267.848769 97.700236 
L 268.608195 96.354741 
L 269.643776 96.354741 
L 270.662097 95.816543 
L 272.750518 98.507533 
L 273.768839 98.776632 
L 274.78716 98.238434 
L 275.805481 98.507533 
L 276.564906 97.162038 
L 277.565968 96.354741 
L 278.584289 96.62384 
L 279.61987 97.969335 
L 280.638191 95.547444 
L 281.639252 97.969335 
L 282.657573 99.31483 
L 283.34796 99.31483 
L 285.091187 97.700236 
L 286.541 99.31483 
L 288.301488 100.660325 
L 288.888317 99.853028 
L 290.33813 100.929424 
L 292.650926 100.391226 
L 294.394154 100.391226 
L 295.843967 103.351315 
L 296.77599 99.853028 
L 298.829891 100.391226 
L 300.590378 101.198523 
L 302.920435 101.736721 
L 304.680922 102.00582 
L 306.752084 102.544018 
L 308.495311 102.544018 
L 310.894406 103.889513 
L 311.463976 105.235008 
L 312.931048 104.427711 
L 315.00221 104.965909 
L 318.799339 105.504107 
L 320.853241 106.042305 
L 321.44007 105.773206 
L 322.907142 106.580503 
L 324.132579 110.07879 
L 325.306237 107.118701 
L 327.066725 107.925998 
L 327.636294 107.656899 
L 329.414041 107.925998 
L 331.157268 107.656899 
L 333.21117 108.464196 
L 335.558486 108.464196 
L 337.025559 110.347889 
L 339.407395 110.616988 
L 340.046003 109.540592 
L 340.926246 112.231582 
L 342.099904 109.540592 
L 343.860391 110.616988 
L 345.914293 110.347889 
L 347.968195 110.886087 
L 350.039356 110.616988 
L 352.369413 110.886087 
L 354.475094 110.616988 
L 356.218321 112.231582 
L 358.565637 111.693384 
L 360.343384 112.231582 
L 364.433928 113.846176 
L 366.211675 113.307978 
L 366.798504 112.76978 
L 368.886925 113.307978 
L 369.784428 116.268067 
L 370.664672 114.115275 
L 373.288143 115.729869 
L 374.755215 113.577077 
L 376.826377 114.922572 
L 378.880278 114.115275 
L 381.244854 114.922572 
L 383.281496 114.922572 
L 384.748569 115.191671 
L 385.335398 115.46077 
L 387.078625 115.46077 
L 388.821853 115.191671 
L 390.858495 115.46077 
L 392.601722 115.998968 
L 394.086055 118.689958 
L 395.000818 117.075364 
L 396.726786 116.268067 
L 396.726786 116.268067 
" clip-path="url(#p436a551c6b)" style="fill: none; stroke: #ff7f0e; stroke-width: 1.5; stroke-linecap: square"/>
   </g>
   <g id="patch_3">
    <path d="M 57.6 307.584 
L 57.6 41.472 
" style="fill: none; stroke: #000000; stroke-width: 0.8; stroke-linejoin: miter; stroke-linecap: square"/>
   </g>
   <g id="patch_4">
    <path d="M 414.72 307.584 
L 414.72 41.472 
" style="fill: none; stroke: #000000; stroke-width: 0.8; stroke-linejoin: miter; stroke-linecap: square"/>
   </g>
   <g id="patch_5">
    <path d="M 57.6 307.584 
L 414.72 307.584 
" style="fill: none; stroke: #000000; stroke-width: 0.8; stroke-linejoin: miter; stroke-linecap: square"/>
   </g>
   <g id="patch_6">
    <path d="M 57.6 41.472 
L 414.72 41.472 
" style="fill: none; stroke: #000000; stroke-width: 0.8; stroke-linejoin: miter; stroke-linecap: square"/>
   </g>
   <g id="text_13">
    <!-- 2345 -->
    <g transform="translate(220.89 35.472)scale(0.12 -0.12)">
     <use xlink:href="#DejaVuSans-32"/>
     <use xlink:href="#DejaVuSans-33" x="63.623047"/>
     <use xlink:href="#DejaVuSans-34" x="127.246094"/>
     <use xlink:href="#DejaVuSans-35" x="190.869141"/>
    </g>
   </g>
   <g id="legend_1">
    <g id="patch_7">
     <path d="M 320.7075 79.106375 
L 407.72 79.106375 
Q 409.72 79.106375 409.72 77.106375 
L 409.72 48.472 
Q 409.72 46.472 407.72 46.472 
L 320.7075 46.472 
Q 318.7075 46.472 318.7075 48.472 
L 318.7075 77.106375 
Q 318.7075 79.106375 320.7075 79.106375 
z
" style="fill: #ffffff; opacity: 0.8; stroke: #cccccc; stroke-linejoin: miter"/>
    </g>
    <g id="line2d_15">
     <path d="M 322.7075 54.570438 
L 332.7075 54.570438 
L 342.7075 54.570438 
" style="fill: none; stroke: #1f77b4; stroke-width: 1.5; stroke-linecap: square"/>
    </g>
    <g id="text_14">
     <!-- 2345 -->
     <g transform="translate(350.7075 58.070438)scale(0.1 -0.1)">
      <use xlink:href="#DejaVuSans-32"/>
      <use xlink:href="#DejaVuSans-33" x="63.623047"/>
      <use xlink:href="#DejaVuSans-34" x="127.246094"/>
      <use xlink:href="#DejaVuSans-35" x="190.869141"/>
     </g>
    </g>
    <g id="line2d_16">
     <path d="M 322.7075 69.248563 
L 332.7075 69.248563 
L 342.7075 69.248563 
" style="fill: none; stroke: #ff7f0e; stroke-width: 1.5; stroke-linecap: square"/>
    </g>
    <g id="text_15">
     <!-- 2345_enve -->
     <g transform="translate(350.7075 72.748563)scale(0.1 -0.1)">
      <defs>
       <path id="DejaVuSans-5f" d="M 3263 -1063 
L 3263 -1509 
L -63 -1509 
L -63 -1063 
L 3263 -1063 
z
" transform="scale(0.015625)"/>
       <path id="DejaVuSans-65" d="M 3597 1894 
L 3597 1613 
L 953 1613 
Q 991 1019 1311 708 
Q 1631 397 2203 397 
Q 2534 397 2845 478 
Q 3156 559 3463 722 
L 3463 178 
Q 3153 47 2828 -22 
Q 2503 -91 2169 -91 
Q 1331 -91 842 396 
Q 353 884 353 1716 
Q 353 2575 817 3079 
Q 1281 3584 2069 3584 
Q 2775 3584 3186 3129 
Q 3597 2675 3597 1894 
z
M 3022 2063 
Q 3016 2534 2758 2815 
Q 2500 3097 2075 3097 
Q 1594 3097 1305 2825 
Q 1016 2553 972 2059 
L 3022 2063 
z
" transform="scale(0.015625)"/>
       <path id="DejaVuSans-6e" d="M 3513 2113 
L 3513 0 
L 2938 0 
L 2938 2094 
Q 2938 2591 2744 2837 
Q 2550 3084 2163 3084 
Q 1697 3084 1428 2787 
Q 1159 2491 1159 1978 
L 1159 0 
L 581 0 
L 581 3500 
L 1159 3500 
L 1159 2956 
Q 1366 3272 1645 3428 
Q 1925 3584 2291 3584 
Q 2894 3584 3203 3211 
Q 3513 2838 3513 2113 
z
" transform="scale(0.015625)"/>
       <path id="DejaVuSans-76" d="M 191 3500 
L 800 3500 
L 1894 563 
L 2988 3500 
L 3597 3500 
L 2284 0 
L 1503 0 
L 191 3500 
z
" transform="scale(0.015625)"/>
      </defs>
      <use xlink:href="#DejaVuSans-32"/>
      <use xlink:href="#DejaVuSans-33" x="63.623047"/>
      <use xlink:href="#DejaVuSans-34" x="127.246094"/>
      <use xlink:href="#DejaVuSans-35" x="190.869141"/>
      <use xlink:href="#DejaVuSans-5f" x="254.492188"/>
      <use xlink:href="#DejaVuSans-65" x="304.492188"/>
      <use xlink:href="#DejaVuSans-6e" x="366.015625"/>
      <use xlink:href="#DejaVuSans-76" x="429.394531"/>
      <use xlink:href="#DejaVuSans-65" x="488.574219"/>
     </g>
    </g>
   </g>
  </g>
 </g>
 <defs>
  <clipPath id="p436a551c6b">
   <rect x="57.6" y="41.472" width="357.12" height="266.112"/>
  </clipPath>
 </defs>
</svg>
