<?xml version="1.0" encoding="utf-8" standalone="no"?>
<!DOCTYPE svg PUBLIC "-//W3C//DTD SVG 1.1//EN"
  "http://www.w3.org/Graphics/SVG/1.1/DTD/svg11.dtd">
<svg xmlns:xlink="http://www.w3.org/1999/xlink" width="460.8pt" height="345.6pt" viewBox="0 0 460.8 345.6" xmlns="http://www.w3.org/2000/svg" version="1.1">
 <metadata>
  <rdf:RDF xmlns:dc="http://purl.org/dc/elements/1.1/" xmlns:cc="http://creativecommons.org/ns#" xmlns:rdf="http://www.w3.org/1999/02/22-rdf-syntax-ns#">
   <cc:Work>
    <dc:type rdf:resource="http://purl.org/dc/dcmitype/StillImage"/>
    <dc:date>2022-10-01T21:17:20.499476</dc:date>
    <dc:format>image/svg+xml</dc:format>
    <dc:creator>
     <cc:Agent>
      <dc:title>Matplotlib v3.5.3, https://matplotlib.org/</dc:title>
     </cc:Agent>
    </dc:creator>
   </cc:Work>
  </rdf:RDF>
 </metadata>
 <defs>
  <style type="text/css">*{stroke-linejoin: round; stroke-linecap: butt}</style>
 </defs>
 <g id="figure_1">
  <g id="patch_1">
   <path d="M 0 345.6 
L 460.8 345.6 
L 460.8 0 
L 0 0 
z
" style="fill: #ffffff"/>
  </g>
  <g id="axes_1">
   <g id="patch_2">
    <path d="M 57.6 307.584 
L 414.72 307.584 
L 414.72 41.472 
L 57.6 41.472 
z
" style="fill: #ffffff"/>
   </g>
   <g id="PathCollection_1">
    <defs>
     <path id="mdb5ec100f2" d="M -3 3 
L 3 -3 
M -3 -3 
L 3 3 
" style="stroke: #ff0000; stroke-width: 1.5"/>
    </defs>
    <g clip-path="url(#pf4c2f8d167)">
     <use xlink:href="#mdb5ec100f2" x="74.857861" y="101.008734" style="fill: #ff0000; stroke: #ff0000; stroke-width: 1.5"/>
     <use xlink:href="#mdb5ec100f2" x="76.630125" y="100.17644" style="fill: #ff0000; stroke: #ff0000; stroke-width: 1.5"/>
     <use xlink:href="#mdb5ec100f2" x="80.452657" y="103.228183" style="fill: #ff0000; stroke: #ff0000; stroke-width: 1.5"/>
     <use xlink:href="#mdb5ec100f2" x="83.493307" y="103.505615" style="fill: #ff0000; stroke: #ff0000; stroke-width: 1.5"/>
     <use xlink:href="#mdb5ec100f2" x="86.30808" y="104.615339" style="fill: #ff0000; stroke: #ff0000; stroke-width: 1.5"/>
     <use xlink:href="#mdb5ec100f2" x="90.443364" y="104.337908" style="fill: #ff0000; stroke: #ff0000; stroke-width: 1.5"/>
     <use xlink:href="#mdb5ec100f2" x="97.376046" y="104.060477" style="fill: #ff0000; stroke: #ff0000; stroke-width: 1.5"/>
     <use xlink:href="#mdb5ec100f2" x="102.571214" y="103.228183" style="fill: #ff0000; stroke: #ff0000; stroke-width: 1.5"/>
     <use xlink:href="#mdb5ec100f2" x="105.646614" y="104.060477" style="fill: #ff0000; stroke: #ff0000; stroke-width: 1.5"/>
     <use xlink:href="#mdb5ec100f2" x="114.646938" y="89.356624" style="fill: #ff0000; stroke: #ff0000; stroke-width: 1.5"/>
     <use xlink:href="#mdb5ec100f2" x="119.060224" y="98.511853" style="fill: #ff0000; stroke: #ff0000; stroke-width: 1.5"/>
     <use xlink:href="#mdb5ec100f2" x="131.969955" y="101.563596" style="fill: #ff0000; stroke: #ff0000; stroke-width: 1.5"/>
     <use xlink:href="#mdb5ec100f2" x="137.112998" y="105.725064" style="fill: #ff0000; stroke: #ff0000; stroke-width: 1.5"/>
     <use xlink:href="#mdb5ec100f2" x="153.341381" y="97.402128" style="fill: #ff0000; stroke: #ff0000; stroke-width: 1.5"/>
     <use xlink:href="#mdb5ec100f2" x="156.138779" y="97.124697" style="fill: #ff0000; stroke: #ff0000; stroke-width: 1.5"/>
     <use xlink:href="#mdb5ec100f2" x="159.21418" y="98.511853" style="fill: #ff0000; stroke: #ff0000; stroke-width: 1.5"/>
     <use xlink:href="#mdb5ec100f2" x="173.357546" y="94.905248" style="fill: #ff0000; stroke: #ff0000; stroke-width: 1.5"/>
     <use xlink:href="#mdb5ec100f2" x="189.968183" y="53.568" style="fill: #ff0000; stroke: #ff0000; stroke-width: 1.5"/>
     <use xlink:href="#mdb5ec100f2" x="196.91824" y="76.317358" style="fill: #ff0000; stroke: #ff0000; stroke-width: 1.5"/>
     <use xlink:href="#mdb5ec100f2" x="198.985882" y="72.988183" style="fill: #ff0000; stroke: #ff0000; stroke-width: 1.5"/>
     <use xlink:href="#mdb5ec100f2" x="206.283442" y="79.369101" style="fill: #ff0000; stroke: #ff0000; stroke-width: 1.5"/>
     <use xlink:href="#mdb5ec100f2" x="210.731478" y="81.311119" style="fill: #ff0000; stroke: #ff0000; stroke-width: 1.5"/>
     <use xlink:href="#mdb5ec100f2" x="212.781745" y="82.143413" style="fill: #ff0000; stroke: #ff0000; stroke-width: 1.5"/>
     <use xlink:href="#mdb5ec100f2" x="215.596518" y="82.975706" style="fill: #ff0000; stroke: #ff0000; stroke-width: 1.5"/>
     <use xlink:href="#mdb5ec100f2" x="217.66416" y="84.085431" style="fill: #ff0000; stroke: #ff0000; stroke-width: 1.5"/>
     <use xlink:href="#mdb5ec100f2" x="224.92697" y="85.750018" style="fill: #ff0000; stroke: #ff0000; stroke-width: 1.5"/>
     <use xlink:href="#mdb5ec100f2" x="228.766877" y="87.692037" style="fill: #ff0000; stroke: #ff0000; stroke-width: 1.5"/>
     <use xlink:href="#mdb5ec100f2" x="231.842277" y="87.969468" style="fill: #ff0000; stroke: #ff0000; stroke-width: 1.5"/>
     <use xlink:href="#mdb5ec100f2" x="234.987178" y="89.911486" style="fill: #ff0000; stroke: #ff0000; stroke-width: 1.5"/>
     <use xlink:href="#mdb5ec100f2" x="241.155354" y="91.021211" style="fill: #ff0000; stroke: #ff0000; stroke-width: 1.5"/>
     <use xlink:href="#mdb5ec100f2" x="243.222996" y="91.298642" style="fill: #ff0000; stroke: #ff0000; stroke-width: 1.5"/>
     <use xlink:href="#mdb5ec100f2" x="249.18267" y="92.685798" style="fill: #ff0000; stroke: #ff0000; stroke-width: 1.5"/>
     <use xlink:href="#mdb5ec100f2" x="253.300578" y="94.072954" style="fill: #ff0000; stroke: #ff0000; stroke-width: 1.5"/>
     <use xlink:href="#mdb5ec100f2" x="257.435863" y="95.737541" style="fill: #ff0000; stroke: #ff0000; stroke-width: 1.5"/>
     <use xlink:href="#mdb5ec100f2" x="259.225502" y="95.737541" style="fill: #ff0000; stroke: #ff0000; stroke-width: 1.5"/>
     <use xlink:href="#mdb5ec100f2" x="264.351169" y="96.292404" style="fill: #ff0000; stroke: #ff0000; stroke-width: 1.5"/>
     <use xlink:href="#mdb5ec100f2" x="266.436187" y="96.847266" style="fill: #ff0000; stroke: #ff0000; stroke-width: 1.5"/>
     <use xlink:href="#mdb5ec100f2" x="271.579229" y="97.124697" style="fill: #ff0000; stroke: #ff0000; stroke-width: 1.5"/>
     <use xlink:href="#mdb5ec100f2" x="275.731888" y="99.621578" style="fill: #ff0000; stroke: #ff0000; stroke-width: 1.5"/>
     <use xlink:href="#mdb5ec100f2" x="278.529286" y="97.67956" style="fill: #ff0000; stroke: #ff0000; stroke-width: 1.5"/>
     <use xlink:href="#mdb5ec100f2" x="281.622061" y="96.847266" style="fill: #ff0000; stroke: #ff0000; stroke-width: 1.5"/>
     <use xlink:href="#mdb5ec100f2" x="286.104848" y="99.066716" style="fill: #ff0000; stroke: #ff0000; stroke-width: 1.5"/>
     <use xlink:href="#mdb5ec100f2" x="289.92738" y="101.286165" style="fill: #ff0000; stroke: #ff0000; stroke-width: 1.5"/>
     <use xlink:href="#mdb5ec100f2" x="293.715161" y="101.841028" style="fill: #ff0000; stroke: #ff0000; stroke-width: 1.5"/>
     <use xlink:href="#mdb5ec100f2" x="297.86782" y="101.286165" style="fill: #ff0000; stroke: #ff0000; stroke-width: 1.5"/>
     <use xlink:href="#mdb5ec100f2" x="314.130954" y="106.002495" style="fill: #ff0000; stroke: #ff0000; stroke-width: 1.5"/>
     <use xlink:href="#mdb5ec100f2" x="322.696899" y="107.389651" style="fill: #ff0000; stroke: #ff0000; stroke-width: 1.5"/>
     <use xlink:href="#mdb5ec100f2" x="326.588931" y="108.776807" style="fill: #ff0000; stroke: #ff0000; stroke-width: 1.5"/>
     <use xlink:href="#mdb5ec100f2" x="328.934576" y="109.33167" style="fill: #ff0000; stroke: #ff0000; stroke-width: 1.5"/>
     <use xlink:href="#mdb5ec100f2" x="332.479105" y="109.33167" style="fill: #ff0000; stroke: #ff0000; stroke-width: 1.5"/>
     <use xlink:href="#mdb5ec100f2" x="341.427303" y="111.273688" style="fill: #ff0000; stroke: #ff0000; stroke-width: 1.5"/>
     <use xlink:href="#mdb5ec100f2" x="343.494945" y="111.273688" style="fill: #ff0000; stroke: #ff0000; stroke-width: 1.5"/>
     <use xlink:href="#mdb5ec100f2" x="347.334852" y="112.105982" style="fill: #ff0000; stroke: #ff0000; stroke-width: 1.5"/>
     <use xlink:href="#mdb5ec100f2" x="351.487511" y="112.383413" style="fill: #ff0000; stroke: #ff0000; stroke-width: 1.5"/>
     <use xlink:href="#mdb5ec100f2" x="355.952923" y="112.383413" style="fill: #ff0000; stroke: #ff0000; stroke-width: 1.5"/>
     <use xlink:href="#mdb5ec100f2" x="360.070832" y="113.493138" style="fill: #ff0000; stroke: #ff0000; stroke-width: 1.5"/>
     <use xlink:href="#mdb5ec100f2" x="368.358775" y="114.602862" style="fill: #ff0000; stroke: #ff0000; stroke-width: 1.5"/>
     <use xlink:href="#mdb5ec100f2" x="372.250807" y="115.990018" style="fill: #ff0000; stroke: #ff0000; stroke-width: 1.5"/>
     <use xlink:href="#mdb5ec100f2" x="376.368716" y="115.435156" style="fill: #ff0000; stroke: #ff0000; stroke-width: 1.5"/>
     <use xlink:href="#mdb5ec100f2" x="380.521375" y="115.990018" style="fill: #ff0000; stroke: #ff0000; stroke-width: 1.5"/>
     <use xlink:href="#mdb5ec100f2" x="390.529457" y="117.099743" style="fill: #ff0000; stroke: #ff0000; stroke-width: 1.5"/>
    </g>
   </g>
   <g id="matplotlib.axis_1">
    <g id="xtick_1">
     <g id="line2d_1">
      <defs>
       <path id="m3c942b8a7d" d="M 0 0 
L 0 3.5 
" style="stroke: #000000; stroke-width: 0.8"/>
      </defs>
      <g>
       <use xlink:href="#m3c942b8a7d" x="72.564342" y="307.584" style="stroke: #000000; stroke-width: 0.8"/>
      </g>
     </g>
     <g id="text_1">
      <!-- 0.0 -->
      <g transform="translate(64.612779 322.182437)scale(0.1 -0.1)">
       <defs>
        <path id="DejaVuSans-30" d="M 2034 4250 
Q 1547 4250 1301 3770 
Q 1056 3291 1056 2328 
Q 1056 1369 1301 889 
Q 1547 409 2034 409 
Q 2525 409 2770 889 
Q 3016 1369 3016 2328 
Q 3016 3291 2770 3770 
Q 2525 4250 2034 4250 
z
M 2034 4750 
Q 2819 4750 3233 4129 
Q 3647 3509 3647 2328 
Q 3647 1150 3233 529 
Q 2819 -91 2034 -91 
Q 1250 -91 836 529 
Q 422 1150 422 2328 
Q 422 3509 836 4129 
Q 1250 4750 2034 4750 
z
" transform="scale(0.015625)"/>
        <path id="DejaVuSans-2e" d="M 684 794 
L 1344 794 
L 1344 0 
L 684 0 
L 684 794 
z
" transform="scale(0.015625)"/>
       </defs>
       <use xlink:href="#DejaVuSans-30"/>
       <use xlink:href="#DejaVuSans-2e" x="63.623047"/>
       <use xlink:href="#DejaVuSans-30" x="95.410156"/>
      </g>
     </g>
    </g>
    <g id="xtick_2">
     <g id="line2d_2">
      <g>
       <use xlink:href="#m3c942b8a7d" x="116.002199" y="307.584" style="stroke: #000000; stroke-width: 0.8"/>
      </g>
     </g>
     <g id="text_2">
      <!-- 2.5 -->
      <g transform="translate(108.050637 322.182437)scale(0.1 -0.1)">
       <defs>
        <path id="DejaVuSans-32" d="M 1228 531 
L 3431 531 
L 3431 0 
L 469 0 
L 469 531 
Q 828 903 1448 1529 
Q 2069 2156 2228 2338 
Q 2531 2678 2651 2914 
Q 2772 3150 2772 3378 
Q 2772 3750 2511 3984 
Q 2250 4219 1831 4219 
Q 1534 4219 1204 4116 
Q 875 4013 500 3803 
L 500 4441 
Q 881 4594 1212 4672 
Q 1544 4750 1819 4750 
Q 2544 4750 2975 4387 
Q 3406 4025 3406 3419 
Q 3406 3131 3298 2873 
Q 3191 2616 2906 2266 
Q 2828 2175 2409 1742 
Q 1991 1309 1228 531 
z
" transform="scale(0.015625)"/>
        <path id="DejaVuSans-35" d="M 691 4666 
L 3169 4666 
L 3169 4134 
L 1269 4134 
L 1269 2991 
Q 1406 3038 1543 3061 
Q 1681 3084 1819 3084 
Q 2600 3084 3056 2656 
Q 3513 2228 3513 1497 
Q 3513 744 3044 326 
Q 2575 -91 1722 -91 
Q 1428 -91 1123 -41 
Q 819 9 494 109 
L 494 744 
Q 775 591 1075 516 
Q 1375 441 1709 441 
Q 2250 441 2565 725 
Q 2881 1009 2881 1497 
Q 2881 1984 2565 2268 
Q 2250 2553 1709 2553 
Q 1456 2553 1204 2497 
Q 953 2441 691 2322 
L 691 4666 
z
" transform="scale(0.015625)"/>
       </defs>
       <use xlink:href="#DejaVuSans-32"/>
       <use xlink:href="#DejaVuSans-2e" x="63.623047"/>
       <use xlink:href="#DejaVuSans-35" x="95.410156"/>
      </g>
     </g>
    </g>
    <g id="xtick_3">
     <g id="line2d_3">
      <g>
       <use xlink:href="#m3c942b8a7d" x="159.440056" y="307.584" style="stroke: #000000; stroke-width: 0.8"/>
      </g>
     </g>
     <g id="text_3">
      <!-- 5.0 -->
      <g transform="translate(151.488494 322.182437)scale(0.1 -0.1)">
       <use xlink:href="#DejaVuSans-35"/>
       <use xlink:href="#DejaVuSans-2e" x="63.623047"/>
       <use xlink:href="#DejaVuSans-30" x="95.410156"/>
      </g>
     </g>
    </g>
    <g id="xtick_4">
     <g id="line2d_4">
      <g>
       <use xlink:href="#m3c942b8a7d" x="202.877914" y="307.584" style="stroke: #000000; stroke-width: 0.8"/>
      </g>
     </g>
     <g id="text_4">
      <!-- 7.5 -->
      <g transform="translate(194.926351 322.182437)scale(0.1 -0.1)">
       <defs>
        <path id="DejaVuSans-37" d="M 525 4666 
L 3525 4666 
L 3525 4397 
L 1831 0 
L 1172 0 
L 2766 4134 
L 525 4134 
L 525 4666 
z
" transform="scale(0.015625)"/>
       </defs>
       <use xlink:href="#DejaVuSans-37"/>
       <use xlink:href="#DejaVuSans-2e" x="63.623047"/>
       <use xlink:href="#DejaVuSans-35" x="95.410156"/>
      </g>
     </g>
    </g>
    <g id="xtick_5">
     <g id="line2d_5">
      <g>
       <use xlink:href="#m3c942b8a7d" x="246.315771" y="307.584" style="stroke: #000000; stroke-width: 0.8"/>
      </g>
     </g>
     <g id="text_5">
      <!-- 10.0 -->
      <g transform="translate(235.182959 322.182437)scale(0.1 -0.1)">
       <defs>
        <path id="DejaVuSans-31" d="M 794 531 
L 1825 531 
L 1825 4091 
L 703 3866 
L 703 4441 
L 1819 4666 
L 2450 4666 
L 2450 531 
L 3481 531 
L 3481 0 
L 794 0 
L 794 531 
z
" transform="scale(0.015625)"/>
       </defs>
       <use xlink:href="#DejaVuSans-31"/>
       <use xlink:href="#DejaVuSans-30" x="63.623047"/>
       <use xlink:href="#DejaVuSans-2e" x="127.246094"/>
       <use xlink:href="#DejaVuSans-30" x="159.033203"/>
      </g>
     </g>
    </g>
    <g id="xtick_6">
     <g id="line2d_6">
      <g>
       <use xlink:href="#m3c942b8a7d" x="289.753628" y="307.584" style="stroke: #000000; stroke-width: 0.8"/>
      </g>
     </g>
     <g id="text_6">
      <!-- 12.5 -->
      <g transform="translate(278.620816 322.182437)scale(0.1 -0.1)">
       <use xlink:href="#DejaVuSans-31"/>
       <use xlink:href="#DejaVuSans-32" x="63.623047"/>
       <use xlink:href="#DejaVuSans-2e" x="127.246094"/>
       <use xlink:href="#DejaVuSans-35" x="159.033203"/>
      </g>
     </g>
    </g>
    <g id="xtick_7">
     <g id="line2d_7">
      <g>
       <use xlink:href="#m3c942b8a7d" x="333.191486" y="307.584" style="stroke: #000000; stroke-width: 0.8"/>
      </g>
     </g>
     <g id="text_7">
      <!-- 15.0 -->
      <g transform="translate(322.058673 322.182437)scale(0.1 -0.1)">
       <use xlink:href="#DejaVuSans-31"/>
       <use xlink:href="#DejaVuSans-35" x="63.623047"/>
       <use xlink:href="#DejaVuSans-2e" x="127.246094"/>
       <use xlink:href="#DejaVuSans-30" x="159.033203"/>
      </g>
     </g>
    </g>
    <g id="xtick_8">
     <g id="line2d_8">
      <g>
       <use xlink:href="#m3c942b8a7d" x="376.629343" y="307.584" style="stroke: #000000; stroke-width: 0.8"/>
      </g>
     </g>
     <g id="text_8">
      <!-- 17.5 -->
      <g transform="translate(365.49653 322.182437)scale(0.1 -0.1)">
       <use xlink:href="#DejaVuSans-31"/>
       <use xlink:href="#DejaVuSans-37" x="63.623047"/>
       <use xlink:href="#DejaVuSans-2e" x="127.246094"/>
       <use xlink:href="#DejaVuSans-35" x="159.033203"/>
      </g>
     </g>
    </g>
   </g>
   <g id="matplotlib.axis_2">
    <g id="ytick_1">
     <g id="line2d_9">
      <defs>
       <path id="mc382dd1988" d="M 0 0 
L -3.5 0 
" style="stroke: #000000; stroke-width: 0.8"/>
      </defs>
      <g>
       <use xlink:href="#mc382dd1988" x="57.6" y="261.474936" style="stroke: #000000; stroke-width: 0.8"/>
      </g>
     </g>
     <g id="text_9">
      <!-- 1 -->
      <g transform="translate(44.2375 265.274155)scale(0.1 -0.1)">
       <use xlink:href="#DejaVuSans-31"/>
      </g>
     </g>
    </g>
    <g id="ytick_2">
     <g id="line2d_10">
      <g>
       <use xlink:href="#mc382dd1988" x="57.6" y="204.712514" style="stroke: #000000; stroke-width: 0.8"/>
      </g>
     </g>
     <g id="text_10">
      <!-- 2 -->
      <g transform="translate(44.2375 208.511733)scale(0.1 -0.1)">
       <use xlink:href="#DejaVuSans-32"/>
      </g>
     </g>
    </g>
    <g id="ytick_3">
     <g id="line2d_11">
      <g>
       <use xlink:href="#mc382dd1988" x="57.6" y="147.950092" style="stroke: #000000; stroke-width: 0.8"/>
      </g>
     </g>
     <g id="text_11">
      <!-- 3 -->
      <g transform="translate(44.2375 151.74931)scale(0.1 -0.1)">
       <defs>
        <path id="DejaVuSans-33" d="M 2597 2516 
Q 3050 2419 3304 2112 
Q 3559 1806 3559 1356 
Q 3559 666 3084 287 
Q 2609 -91 1734 -91 
Q 1441 -91 1130 -33 
Q 819 25 488 141 
L 488 750 
Q 750 597 1062 519 
Q 1375 441 1716 441 
Q 2309 441 2620 675 
Q 2931 909 2931 1356 
Q 2931 1769 2642 2001 
Q 2353 2234 1838 2234 
L 1294 2234 
L 1294 2753 
L 1863 2753 
Q 2328 2753 2575 2939 
Q 2822 3125 2822 3475 
Q 2822 3834 2567 4026 
Q 2313 4219 1838 4219 
Q 1578 4219 1281 4162 
Q 984 4106 628 3988 
L 628 4550 
Q 988 4650 1302 4700 
Q 1616 4750 1894 4750 
Q 2613 4750 3031 4423 
Q 3450 4097 3450 3541 
Q 3450 3153 3228 2886 
Q 3006 2619 2597 2516 
z
" transform="scale(0.015625)"/>
       </defs>
       <use xlink:href="#DejaVuSans-33"/>
      </g>
     </g>
    </g>
    <g id="ytick_4">
     <g id="line2d_12">
      <g>
       <use xlink:href="#mc382dd1988" x="57.6" y="91.18767" style="stroke: #000000; stroke-width: 0.8"/>
      </g>
     </g>
     <g id="text_12">
      <!-- 4 -->
      <g transform="translate(44.2375 94.986888)scale(0.1 -0.1)">
       <defs>
        <path id="DejaVuSans-34" d="M 2419 4116 
L 825 1625 
L 2419 1625 
L 2419 4116 
z
M 2253 4666 
L 3047 4666 
L 3047 1625 
L 3713 1625 
L 3713 1100 
L 3047 1100 
L 3047 0 
L 2419 0 
L 2419 1100 
L 313 1100 
L 313 1709 
L 2253 4666 
z
" transform="scale(0.015625)"/>
       </defs>
       <use xlink:href="#DejaVuSans-34"/>
      </g>
     </g>
    </g>
   </g>
   <g id="line2d_13">
    <path d="M 73.832727 101.841028 
L 74.857861 101.008734 
L 75.865619 101.841028 
L 76.630125 100.17644 
L 77.655259 102.118459 
L 78.680392 102.118459 
L 79.444898 103.783046 
L 80.452657 103.228183 
L 81.47779 103.505615 
L 82.485548 104.892771 
L 83.493307 103.505615 
L 84.257813 105.725064 
L 85.300322 105.447633 
L 86.30808 104.615339 
L 87.315838 104.892771 
L 88.393097 105.725064 
L 89.400855 104.615339 
L 90.443364 104.337908 
L 91.468497 106.557358 
L 92.476256 107.944514 
L 94.300646 106.557358 
L 95.325779 106.002495 
L 96.61154 105.725064 
L 97.376046 104.060477 
L 98.401179 104.060477 
L 99.443688 104.892771 
L 100.451446 105.170202 
L 101.806707 105.170202 
L 102.571214 103.228183 
L 103.856974 105.447633 
L 104.638856 104.615339 
L 105.646614 104.060477 
L 106.689123 104.337908 
L 107.453629 103.505615 
L 107.957508 102.673321 
L 108.478762 102.673321 
L 109.781898 98.789284 
L 110.546404 97.124697 
L 111.81479 93.518092 
L 112.857298 92.685798 
L 113.621805 90.188917 
L 114.646938 89.356624 
L 115.984824 94.072954 
L 116.766705 96.292404 
L 117.791839 97.956991 
L 118.57372 98.789284 
L 119.060224 98.511853 
L 119.842106 100.453872 
L 120.884614 106.002495 
L 121.649121 112.383413 
L 126.027657 239.72433 
L 129.137807 116.26745 
L 130.162941 105.170202 
L 130.927447 103.783046 
L 131.969955 101.563596 
L 132.995089 103.505615 
L 134.280849 103.505615 
L 135.062731 104.337908 
L 136.070489 106.002495 
L 137.112998 105.725064 
L 138.120756 109.054239 
L 139.14589 110.163963 
L 139.910396 110.718826 
L 140.97028 114.602862 
L 142.308166 119.041761 
L 147.173206 276.067817 
L 150.526608 113.215706 
L 151.291114 104.615339 
L 152.316248 101.563596 
L 153.341381 97.402128 
L 154.366515 98.511853 
L 156.138779 97.124697 
L 157.181288 97.67956 
L 157.945794 100.17644 
L 159.21418 98.511853 
L 161.021194 104.060477 
L 162.046328 108.499376 
L 167.18937 250.821578 
L 171.567906 104.892771 
L 172.349788 97.67956 
L 173.357546 94.905248 
L 174.382679 96.292404 
L 176.154944 96.292404 
L 177.180077 99.621578 
L 177.944584 99.899009 
L 178.952342 100.453872 
L 179.977475 103.228183 
L 180.776732 111.273688 
L 186.128276 295.488 
L 189.968183 53.568 
L 191.47982 61.890936 
L 192.765581 64.942679 
L 193.773339 70.768734 
L 194.833223 74.097908 
L 196.136358 77.427083 
L 196.91824 76.317358 
L 197.960748 76.87222 
L 198.985882 72.988183 
L 201.140399 77.981945 
L 202.42616 78.259376 
L 203.451293 79.09167 
L 204.476427 80.201394 
L 205.518935 80.478826 
L 206.283442 79.369101 
L 207.308575 81.58855 
L 208.646461 81.58855 
L 209.68897 82.420844 
L 210.731478 81.311119 
L 211.739237 83.253138 
L 212.781745 82.143413 
L 213.546251 83.530569 
L 214.571385 84.362862 
L 215.596518 82.975706 
L 216.639027 84.917725 
L 217.66416 84.085431 
L 218.706669 84.917725 
L 220.756936 84.917725 
L 221.521442 85.750018 
L 222.859328 86.02745 
L 223.884462 87.414606 
L 224.92697 85.750018 
L 225.934728 88.246899 
L 226.71661 87.969468 
L 228.00237 87.969468 
L 228.766877 87.692037 
L 229.809385 89.079193 
L 230.817144 90.188917 
L 231.842277 87.969468 
L 232.606783 90.466349 
L 233.909919 90.466349 
L 234.987178 89.911486 
L 236.012311 90.74378 
L 238.84446 91.576073 
L 240.13022 91.576073 
L 241.155354 91.021211 
L 242.180487 92.685798 
L 243.222996 91.298642 
L 243.987502 91.853505 
L 246.037769 92.963229 
L 247.062902 94.072954 
L 249.18267 92.685798 
L 250.207803 92.963229 
L 251.250312 94.350385 
L 252.275445 94.350385 
L 253.300578 94.072954 
L 254.343087 95.737541 
L 255.36822 95.737541 
L 256.375979 96.292404 
L 257.435863 95.737541 
L 258.460996 96.569835 
L 259.225502 95.737541 
L 260.233261 96.847266 
L 261.258394 97.402128 
L 262.283527 96.847266 
L 264.351169 96.292404 
L 265.411053 97.402128 
L 266.436187 96.847266 
L 267.46132 97.67956 
L 268.747081 99.066716 
L 269.511587 97.67956 
L 270.554095 97.67956 
L 271.579229 97.124697 
L 273.681621 99.899009 
L 274.706755 100.17644 
L 275.731888 99.621578 
L 276.757021 99.899009 
L 277.521528 98.511853 
L 278.529286 97.67956 
L 279.554419 97.956991 
L 280.596928 99.344147 
L 281.622061 96.847266 
L 282.62982 99.344147 
L 283.654953 100.731303 
L 284.349959 100.731303 
L 286.104848 99.066716 
L 287.56436 100.731303 
L 289.336625 102.118459 
L 289.92738 101.286165 
L 291.386892 102.39589 
L 293.715161 101.841028 
L 295.47005 101.841028 
L 296.929562 104.892771 
L 297.86782 101.286165 
L 299.935462 101.841028 
L 301.707727 102.673321 
L 304.053371 103.228183 
L 305.825636 103.505615 
L 307.910653 104.060477 
L 309.665542 104.060477 
L 312.080687 105.447633 
L 312.654067 106.834789 
L 314.130954 106.002495 
L 316.215971 106.557358 
L 320.038502 107.11222 
L 322.106144 107.667083 
L 322.696899 107.389651 
L 324.173786 108.221945 
L 325.407422 111.82855 
L 326.588931 108.776807 
L 328.361196 109.609101 
L 328.934576 109.33167 
L 330.724215 109.609101 
L 332.479105 109.33167 
L 334.546747 110.163963 
L 336.909766 110.163963 
L 338.386653 112.105982 
L 340.784423 112.383413 
L 341.427303 111.273688 
L 342.313436 114.048 
L 343.494945 111.273688 
L 345.26721 112.383413 
L 347.334852 112.105982 
L 349.402494 112.660844 
L 351.487511 112.383413 
L 353.833155 112.660844 
L 355.952923 112.383413 
L 357.707812 114.048 
L 360.070832 113.493138 
L 361.860471 114.048 
L 365.97838 115.712587 
L 367.76802 115.157725 
L 368.358775 114.602862 
L 370.461167 115.157725 
L 371.364675 118.209468 
L 372.250807 115.990018 
L 374.891829 117.654606 
L 376.368716 115.435156 
L 378.453733 116.822312 
L 380.521375 115.990018 
L 382.90177 116.822312 
L 384.952036 116.822312 
L 386.428924 117.099743 
L 387.019678 117.377174 
L 388.774568 117.377174 
L 390.529457 117.099743 
L 392.579724 117.377174 
L 394.334614 117.932037 
L 395.828876 120.706349 
L 396.749758 119.041761 
L 398.487273 118.209468 
L 398.487273 118.209468 
" clip-path="url(#pf4c2f8d167)" style="fill: none; stroke: #1f77b4; stroke-width: 1.5; stroke-linecap: square"/>
   </g>
   <g id="patch_3">
    <path d="M 57.6 307.584 
L 57.6 41.472 
" style="fill: none; stroke: #000000; stroke-width: 0.8; stroke-linejoin: miter; stroke-linecap: square"/>
   </g>
   <g id="patch_4">
    <path d="M 414.72 307.584 
L 414.72 41.472 
" style="fill: none; stroke: #000000; stroke-width: 0.8; stroke-linejoin: miter; stroke-linecap: square"/>
   </g>
   <g id="patch_5">
    <path d="M 57.6 307.584 
L 414.72 307.584 
" style="fill: none; stroke: #000000; stroke-width: 0.8; stroke-linejoin: miter; stroke-linecap: square"/>
   </g>
   <g id="patch_6">
    <path d="M 57.6 41.472 
L 414.72 41.472 
" style="fill: none; stroke: #000000; stroke-width: 0.8; stroke-linejoin: miter; stroke-linecap: square"/>
   </g>
   <g id="text_13">
    <!-- 2345 -->
    <g transform="translate(220.89 35.472)scale(0.12 -0.12)">
     <use xlink:href="#DejaVuSans-32"/>
     <use xlink:href="#DejaVuSans-33" x="63.623047"/>
     <use xlink:href="#DejaVuSans-34" x="127.246094"/>
     <use xlink:href="#DejaVuSans-35" x="190.869141"/>
    </g>
   </g>
  </g>
 </g>
 <defs>
  <clipPath id="pf4c2f8d167">
   <rect x="57.6" y="41.472" width="357.12" height="266.112"/>
  </clipPath>
 </defs>
</svg>
