<?xml version="1.0" encoding="utf-8" standalone="no"?>
<!DOCTYPE svg PUBLIC "-//W3C//DTD SVG 1.1//EN"
  "http://www.w3.org/Graphics/SVG/1.1/DTD/svg11.dtd">
<svg xmlns:xlink="http://www.w3.org/1999/xlink" width="460.8pt" height="345.6pt" viewBox="0 0 460.8 345.6" xmlns="http://www.w3.org/2000/svg" version="1.1">
 <metadata>
  <rdf:RDF xmlns:dc="http://purl.org/dc/elements/1.1/" xmlns:cc="http://creativecommons.org/ns#" xmlns:rdf="http://www.w3.org/1999/02/22-rdf-syntax-ns#">
   <cc:Work>
    <dc:type rdf:resource="http://purl.org/dc/dcmitype/StillImage"/>
    <dc:date>2022-09-30T20:00:08.364356</dc:date>
    <dc:format>image/svg+xml</dc:format>
    <dc:creator>
     <cc:Agent>
      <dc:title>Matplotlib v3.5.3, https://matplotlib.org/</dc:title>
     </cc:Agent>
    </dc:creator>
   </cc:Work>
  </rdf:RDF>
 </metadata>
 <defs>
  <style type="text/css">*{stroke-linejoin: round; stroke-linecap: butt}</style>
 </defs>
 <g id="figure_1">
  <g id="patch_1">
   <path d="M 0 345.6 
L 460.8 345.6 
L 460.8 0 
L 0 0 
z
" style="fill: #ffffff"/>
  </g>
  <g id="axes_1">
   <g id="patch_2">
    <path d="M 57.6 307.584 
L 414.72 307.584 
L 414.72 41.472 
L 57.6 41.472 
z
" style="fill: #ffffff"/>
   </g>
   <g id="matplotlib.axis_1">
    <g id="xtick_1">
     <g id="line2d_1">
      <defs>
       <path id="mbf2da437ac" d="M 0 0 
L 0 3.5 
" style="stroke: #000000; stroke-width: 0.8"/>
      </defs>
      <g>
       <use xlink:href="#mbf2da437ac" x="73.423792" y="307.584" style="stroke: #000000; stroke-width: 0.8"/>
      </g>
     </g>
     <g id="text_1">
      <!-- 0 -->
      <g transform="translate(70.242542 322.182437)scale(0.1 -0.1)">
       <defs>
        <path id="DejaVuSans-30" d="M 2034 4250 
Q 1547 4250 1301 3770 
Q 1056 3291 1056 2328 
Q 1056 1369 1301 889 
Q 1547 409 2034 409 
Q 2525 409 2770 889 
Q 3016 1369 3016 2328 
Q 3016 3291 2770 3770 
Q 2525 4250 2034 4250 
z
M 2034 4750 
Q 2819 4750 3233 4129 
Q 3647 3509 3647 2328 
Q 3647 1150 3233 529 
Q 2819 -91 2034 -91 
Q 1250 -91 836 529 
Q 422 1150 422 2328 
Q 422 3509 836 4129 
Q 1250 4750 2034 4750 
z
" transform="scale(0.015625)"/>
       </defs>
       <use xlink:href="#DejaVuSans-30"/>
      </g>
     </g>
    </g>
    <g id="xtick_2">
     <g id="line2d_2">
      <g>
       <use xlink:href="#mbf2da437ac" x="123.293922" y="307.584" style="stroke: #000000; stroke-width: 0.8"/>
      </g>
     </g>
     <g id="text_2">
      <!-- 5 -->
      <g transform="translate(120.112672 322.182437)scale(0.1 -0.1)">
       <defs>
        <path id="DejaVuSans-35" d="M 691 4666 
L 3169 4666 
L 3169 4134 
L 1269 4134 
L 1269 2991 
Q 1406 3038 1543 3061 
Q 1681 3084 1819 3084 
Q 2600 3084 3056 2656 
Q 3513 2228 3513 1497 
Q 3513 744 3044 326 
Q 2575 -91 1722 -91 
Q 1428 -91 1123 -41 
Q 819 9 494 109 
L 494 744 
Q 775 591 1075 516 
Q 1375 441 1709 441 
Q 2250 441 2565 725 
Q 2881 1009 2881 1497 
Q 2881 1984 2565 2268 
Q 2250 2553 1709 2553 
Q 1456 2553 1204 2497 
Q 953 2441 691 2322 
L 691 4666 
z
" transform="scale(0.015625)"/>
       </defs>
       <use xlink:href="#DejaVuSans-35"/>
      </g>
     </g>
    </g>
    <g id="xtick_3">
     <g id="line2d_3">
      <g>
       <use xlink:href="#mbf2da437ac" x="173.164052" y="307.584" style="stroke: #000000; stroke-width: 0.8"/>
      </g>
     </g>
     <g id="text_3">
      <!-- 10 -->
      <g transform="translate(166.801552 322.182437)scale(0.1 -0.1)">
       <defs>
        <path id="DejaVuSans-31" d="M 794 531 
L 1825 531 
L 1825 4091 
L 703 3866 
L 703 4441 
L 1819 4666 
L 2450 4666 
L 2450 531 
L 3481 531 
L 3481 0 
L 794 0 
L 794 531 
z
" transform="scale(0.015625)"/>
       </defs>
       <use xlink:href="#DejaVuSans-31"/>
       <use xlink:href="#DejaVuSans-30" x="63.623047"/>
      </g>
     </g>
    </g>
    <g id="xtick_4">
     <g id="line2d_4">
      <g>
       <use xlink:href="#mbf2da437ac" x="223.034182" y="307.584" style="stroke: #000000; stroke-width: 0.8"/>
      </g>
     </g>
     <g id="text_4">
      <!-- 15 -->
      <g transform="translate(216.671682 322.182437)scale(0.1 -0.1)">
       <use xlink:href="#DejaVuSans-31"/>
       <use xlink:href="#DejaVuSans-35" x="63.623047"/>
      </g>
     </g>
    </g>
    <g id="xtick_5">
     <g id="line2d_5">
      <g>
       <use xlink:href="#mbf2da437ac" x="272.904312" y="307.584" style="stroke: #000000; stroke-width: 0.8"/>
      </g>
     </g>
     <g id="text_5">
      <!-- 20 -->
      <g transform="translate(266.541812 322.182437)scale(0.1 -0.1)">
       <defs>
        <path id="DejaVuSans-32" d="M 1228 531 
L 3431 531 
L 3431 0 
L 469 0 
L 469 531 
Q 828 903 1448 1529 
Q 2069 2156 2228 2338 
Q 2531 2678 2651 2914 
Q 2772 3150 2772 3378 
Q 2772 3750 2511 3984 
Q 2250 4219 1831 4219 
Q 1534 4219 1204 4116 
Q 875 4013 500 3803 
L 500 4441 
Q 881 4594 1212 4672 
Q 1544 4750 1819 4750 
Q 2544 4750 2975 4387 
Q 3406 4025 3406 3419 
Q 3406 3131 3298 2873 
Q 3191 2616 2906 2266 
Q 2828 2175 2409 1742 
Q 1991 1309 1228 531 
z
" transform="scale(0.015625)"/>
       </defs>
       <use xlink:href="#DejaVuSans-32"/>
       <use xlink:href="#DejaVuSans-30" x="63.623047"/>
      </g>
     </g>
    </g>
    <g id="xtick_6">
     <g id="line2d_6">
      <g>
       <use xlink:href="#mbf2da437ac" x="322.774442" y="307.584" style="stroke: #000000; stroke-width: 0.8"/>
      </g>
     </g>
     <g id="text_6">
      <!-- 25 -->
      <g transform="translate(316.411942 322.182437)scale(0.1 -0.1)">
       <use xlink:href="#DejaVuSans-32"/>
       <use xlink:href="#DejaVuSans-35" x="63.623047"/>
      </g>
     </g>
    </g>
    <g id="xtick_7">
     <g id="line2d_7">
      <g>
       <use xlink:href="#mbf2da437ac" x="372.644571" y="307.584" style="stroke: #000000; stroke-width: 0.8"/>
      </g>
     </g>
     <g id="text_7">
      <!-- 30 -->
      <g transform="translate(366.282071 322.182437)scale(0.1 -0.1)">
       <defs>
        <path id="DejaVuSans-33" d="M 2597 2516 
Q 3050 2419 3304 2112 
Q 3559 1806 3559 1356 
Q 3559 666 3084 287 
Q 2609 -91 1734 -91 
Q 1441 -91 1130 -33 
Q 819 25 488 141 
L 488 750 
Q 750 597 1062 519 
Q 1375 441 1716 441 
Q 2309 441 2620 675 
Q 2931 909 2931 1356 
Q 2931 1769 2642 2001 
Q 2353 2234 1838 2234 
L 1294 2234 
L 1294 2753 
L 1863 2753 
Q 2328 2753 2575 2939 
Q 2822 3125 2822 3475 
Q 2822 3834 2567 4026 
Q 2313 4219 1838 4219 
Q 1578 4219 1281 4162 
Q 984 4106 628 3988 
L 628 4550 
Q 988 4650 1302 4700 
Q 1616 4750 1894 4750 
Q 2613 4750 3031 4423 
Q 3450 4097 3450 3541 
Q 3450 3153 3228 2886 
Q 3006 2619 2597 2516 
z
" transform="scale(0.015625)"/>
       </defs>
       <use xlink:href="#DejaVuSans-33"/>
       <use xlink:href="#DejaVuSans-30" x="63.623047"/>
      </g>
     </g>
    </g>
   </g>
   <g id="matplotlib.axis_2">
    <g id="ytick_1">
     <g id="line2d_8">
      <defs>
       <path id="m3a8fd85833" d="M 0 0 
L -3.5 0 
" style="stroke: #000000; stroke-width: 0.8"/>
      </defs>
      <g>
       <use xlink:href="#m3a8fd85833" x="57.6" y="290.472276" style="stroke: #000000; stroke-width: 0.8"/>
      </g>
     </g>
     <g id="text_8">
      <!-- 2.6 -->
      <g transform="translate(34.696875 294.271495)scale(0.1 -0.1)">
       <defs>
        <path id="DejaVuSans-2e" d="M 684 794 
L 1344 794 
L 1344 0 
L 684 0 
L 684 794 
z
" transform="scale(0.015625)"/>
        <path id="DejaVuSans-36" d="M 2113 2584 
Q 1688 2584 1439 2293 
Q 1191 2003 1191 1497 
Q 1191 994 1439 701 
Q 1688 409 2113 409 
Q 2538 409 2786 701 
Q 3034 994 3034 1497 
Q 3034 2003 2786 2293 
Q 2538 2584 2113 2584 
z
M 3366 4563 
L 3366 3988 
Q 3128 4100 2886 4159 
Q 2644 4219 2406 4219 
Q 1781 4219 1451 3797 
Q 1122 3375 1075 2522 
Q 1259 2794 1537 2939 
Q 1816 3084 2150 3084 
Q 2853 3084 3261 2657 
Q 3669 2231 3669 1497 
Q 3669 778 3244 343 
Q 2819 -91 2113 -91 
Q 1303 -91 875 529 
Q 447 1150 447 2328 
Q 447 3434 972 4092 
Q 1497 4750 2381 4750 
Q 2619 4750 2861 4703 
Q 3103 4656 3366 4563 
z
" transform="scale(0.015625)"/>
       </defs>
       <use xlink:href="#DejaVuSans-32"/>
       <use xlink:href="#DejaVuSans-2e" x="63.623047"/>
       <use xlink:href="#DejaVuSans-36" x="95.410156"/>
      </g>
     </g>
    </g>
    <g id="ytick_2">
     <g id="line2d_9">
      <g>
       <use xlink:href="#m3a8fd85833" x="57.6" y="238.643133" style="stroke: #000000; stroke-width: 0.8"/>
      </g>
     </g>
     <g id="text_9">
      <!-- 2.8 -->
      <g transform="translate(34.696875 242.442352)scale(0.1 -0.1)">
       <defs>
        <path id="DejaVuSans-38" d="M 2034 2216 
Q 1584 2216 1326 1975 
Q 1069 1734 1069 1313 
Q 1069 891 1326 650 
Q 1584 409 2034 409 
Q 2484 409 2743 651 
Q 3003 894 3003 1313 
Q 3003 1734 2745 1975 
Q 2488 2216 2034 2216 
z
M 1403 2484 
Q 997 2584 770 2862 
Q 544 3141 544 3541 
Q 544 4100 942 4425 
Q 1341 4750 2034 4750 
Q 2731 4750 3128 4425 
Q 3525 4100 3525 3541 
Q 3525 3141 3298 2862 
Q 3072 2584 2669 2484 
Q 3125 2378 3379 2068 
Q 3634 1759 3634 1313 
Q 3634 634 3220 271 
Q 2806 -91 2034 -91 
Q 1263 -91 848 271 
Q 434 634 434 1313 
Q 434 1759 690 2068 
Q 947 2378 1403 2484 
z
M 1172 3481 
Q 1172 3119 1398 2916 
Q 1625 2713 2034 2713 
Q 2441 2713 2670 2916 
Q 2900 3119 2900 3481 
Q 2900 3844 2670 4047 
Q 2441 4250 2034 4250 
Q 1625 4250 1398 4047 
Q 1172 3844 1172 3481 
z
" transform="scale(0.015625)"/>
       </defs>
       <use xlink:href="#DejaVuSans-32"/>
       <use xlink:href="#DejaVuSans-2e" x="63.623047"/>
       <use xlink:href="#DejaVuSans-38" x="95.410156"/>
      </g>
     </g>
    </g>
    <g id="ytick_3">
     <g id="line2d_10">
      <g>
       <use xlink:href="#m3a8fd85833" x="57.6" y="186.81399" style="stroke: #000000; stroke-width: 0.8"/>
      </g>
     </g>
     <g id="text_10">
      <!-- 3.0 -->
      <g transform="translate(34.696875 190.613208)scale(0.1 -0.1)">
       <use xlink:href="#DejaVuSans-33"/>
       <use xlink:href="#DejaVuSans-2e" x="63.623047"/>
       <use xlink:href="#DejaVuSans-30" x="95.410156"/>
      </g>
     </g>
    </g>
    <g id="ytick_4">
     <g id="line2d_11">
      <g>
       <use xlink:href="#m3a8fd85833" x="57.6" y="134.984846" style="stroke: #000000; stroke-width: 0.8"/>
      </g>
     </g>
     <g id="text_11">
      <!-- 3.2 -->
      <g transform="translate(34.696875 138.784065)scale(0.1 -0.1)">
       <use xlink:href="#DejaVuSans-33"/>
       <use xlink:href="#DejaVuSans-2e" x="63.623047"/>
       <use xlink:href="#DejaVuSans-32" x="95.410156"/>
      </g>
     </g>
    </g>
    <g id="ytick_5">
     <g id="line2d_12">
      <g>
       <use xlink:href="#m3a8fd85833" x="57.6" y="83.155703" style="stroke: #000000; stroke-width: 0.8"/>
      </g>
     </g>
     <g id="text_12">
      <!-- 3.4 -->
      <g transform="translate(34.696875 86.954921)scale(0.1 -0.1)">
       <defs>
        <path id="DejaVuSans-34" d="M 2419 4116 
L 825 1625 
L 2419 1625 
L 2419 4116 
z
M 2253 4666 
L 3047 4666 
L 3047 1625 
L 3713 1625 
L 3713 1100 
L 3047 1100 
L 3047 0 
L 2419 0 
L 2419 1100 
L 313 1100 
L 313 1709 
L 2253 4666 
z
" transform="scale(0.015625)"/>
       </defs>
       <use xlink:href="#DejaVuSans-33"/>
       <use xlink:href="#DejaVuSans-2e" x="63.623047"/>
       <use xlink:href="#DejaVuSans-34" x="95.410156"/>
      </g>
     </g>
    </g>
   </g>
   <g id="line2d_13">
    <path d="M 73.832727 152.362555 
L 74.072104 154.895749 
L 74.371325 127.030618 
L 74.660571 153.629152 
L 74.949818 127.030618 
L 75.249039 149.829361 
L 75.538286 123.230827 
L 75.837506 153.629152 
L 75.987117 128.297215 
L 76.126753 124.497424 
L 76.425974 152.362555 
L 76.56561 129.563812 
L 76.715221 128.297215 
L 77.004468 152.362555 
L 77.154078 123.230827 
L 77.303688 130.830408 
L 77.443325 151.095958 
L 77.742545 125.764021 
L 78.031792 153.629152 
L 78.321039 123.230827 
L 78.630234 153.629152 
L 78.919481 127.030618 
L 79.208727 149.829361 
L 79.507948 124.497424 
L 79.807169 156.162346 
L 79.946805 124.497424 
L 80.086442 128.297215 
L 80.246026 149.829361 
L 80.385662 146.029571 
L 80.525299 129.563812 
L 80.684883 130.830408 
L 80.824519 147.296168 
L 81.12374 119.431037 
L 81.403013 153.629152 
L 81.702234 124.497424 
L 82.001455 149.829361 
L 82.141091 125.764021 
L 82.280727 123.230827 
L 82.46026 132.097005 
L 82.60987 148.562764 
L 82.909091 123.230827 
L 83.058701 128.297215 
L 83.218286 148.562764 
L 83.357922 140.963183 
L 83.507532 115.631246 
L 83.806753 149.829361 
L 84.105974 124.497424 
L 84.24561 133.363602 
L 84.395221 159.962136 
L 84.694442 128.297215 
L 84.834078 130.830408 
L 84.993662 152.362555 
L 85.282909 120.697634 
L 85.58213 149.829361 
L 85.881351 119.431037 
L 86.170597 148.562764 
L 86.469818 129.563812 
L 86.619429 135.896796 
L 86.769039 152.362555 
L 86.908675 132.097005 
L 87.06826 125.764021 
L 87.357506 153.629152 
L 87.666701 127.030618 
L 87.965922 147.296168 
L 88.255169 119.431037 
L 88.55439 153.629152 
L 88.85361 123.230827 
L 89.142857 146.029571 
L 89.442078 114.364649 
L 89.741299 147.296168 
L 89.880935 116.897843 
L 90.040519 110.564859 
L 90.210078 115.631246 
L 90.359688 140.963183 
L 90.509299 129.563812 
L 90.658909 109.298262 
L 90.95813 137.163393 
L 91.247377 105.498471 
L 91.396987 116.897843 
L 91.546597 140.963183 
L 91.845818 113.098052 
L 92.135065 134.630199 
L 92.294649 127.030618 
L 92.434286 113.098052 
L 92.59387 115.631246 
L 92.743481 132.097005 
L 92.883117 127.030618 
L 93.042701 110.564859 
L 93.331948 137.163393 
L 93.481558 129.563812 
L 93.631169 113.098052 
L 93.770805 119.431037 
L 93.920416 137.163393 
L 94.209662 110.564859 
L 94.369247 120.697634 
L 94.508883 138.42999 
L 94.808104 114.364649 
L 95.107325 140.963183 
L 95.256935 114.364649 
L 95.406545 114.364649 
L 95.556156 123.230827 
L 95.705766 142.22978 
L 95.845403 116.897843 
L 96.004987 113.098052 
L 96.294234 138.42999 
L 96.443844 111.831455 
L 96.593455 114.364649 
L 96.892675 138.42999 
L 97.181922 110.564859 
L 97.481143 135.896796 
L 97.630753 119.431037 
L 97.810286 116.897843 
L 97.949922 116.897843 
L 98.109506 138.42999 
L 98.398753 106.765068 
L 98.548364 113.098052 
L 98.697974 137.163393 
L 98.997195 106.765068 
L 99.136831 113.098052 
L 99.286442 132.097005 
L 99.585662 97.89889 
L 99.725299 106.765068 
L 99.884883 124.497424 
L 100.17413 96.632293 
L 100.32374 102.965277 
L 100.473351 121.96423 
L 100.772571 86.499518 
L 101.061818 110.564859 
L 101.361039 77.63334 
L 101.520623 81.433131 
L 101.66026 101.698681 
L 101.959481 68.767162 
L 102.248727 95.365696 
L 102.547948 59.900984 
L 102.847169 90.299309 
L 103.136416 53.568 
L 103.435636 86.499518 
L 103.585247 61.167581 
L 103.734857 56.101194 
L 103.884468 64.967372 
L 104.024104 83.966325 
L 104.183688 62.434178 
L 104.323325 58.634387 
L 104.622545 87.766115 
L 104.772156 58.634387 
L 104.921766 54.834597 
L 105.211013 92.832503 
L 105.390545 86.499518 
L 105.540156 71.300356 
L 105.849351 94.099099 
L 105.988987 78.899937 
L 106.138597 81.433131 
L 106.288208 75.100147 
L 106.437818 100.432084 
L 106.737039 75.100147 
L 106.876675 77.63334 
L 107.026286 102.965277 
L 107.315532 72.566953 
L 107.614753 108.031665 
L 107.913974 80.166534 
L 108.203221 111.831455 
L 108.502442 81.433131 
L 108.801662 118.16444 
L 109.090909 83.966325 
L 109.39013 115.631246 
L 109.689351 71.300356 
L 109.978597 97.89889 
L 110.138182 72.566953 
L 110.277818 68.767162 
L 110.587013 92.832503 
L 110.736623 75.100147 
L 110.886234 71.300356 
L 111.175481 101.698681 
L 111.325091 80.166534 
L 111.474701 78.899937 
L 111.773922 105.498471 
L 111.913558 85.232921 
L 112.063169 81.433131 
L 112.36239 115.631246 
L 112.502026 91.565906 
L 112.66161 90.299309 
L 112.801247 118.16444 
L 112.980779 128.297215 
L 113.28 96.632293 
L 113.42961 108.031665 
L 113.579221 139.696586 
L 113.878442 102.965277 
L 114.167688 138.42999 
L 114.317299 113.098052 
L 114.466909 106.765068 
L 114.76613 142.22978 
L 115.055377 105.498471 
L 115.354597 153.629152 
L 115.504208 124.497424 
L 115.653818 118.16444 
L 115.943065 151.095958 
L 116.102649 121.96423 
L 116.242286 121.96423 
L 116.391896 128.297215 
L 116.541506 151.095958 
L 116.691117 121.96423 
L 116.840727 118.16444 
L 117.129974 157.428942 
L 117.289558 132.097005 
L 117.429195 135.896796 
L 117.728416 187.827267 
L 117.878026 167.561717 
L 118.027636 172.628105 
L 118.326857 222.025382 
L 118.466494 191.627058 
L 118.626078 192.893654 
L 118.915325 206.82622 
L 119.214545 146.029571 
L 119.354182 162.49533 
L 119.513766 163.761927 
L 119.822961 125.764021 
L 119.962597 139.696586 
L 120.112208 143.496377 
L 120.261818 123.230827 
L 120.411429 121.96423 
L 120.740571 158.695539 
L 121.029818 120.697634 
L 121.179429 128.297215 
L 121.329039 152.362555 
L 121.62826 119.431037 
L 121.817766 116.897843 
L 121.967377 129.563812 
L 122.116987 152.362555 
L 122.416208 121.96423 
L 122.705455 153.629152 
L 123.004675 116.897843 
L 123.144312 129.563812 
L 123.303896 154.895749 
L 123.593143 110.564859 
L 123.752727 125.764021 
L 123.892364 153.629152 
L 124.041974 124.497424 
L 124.201558 115.631246 
L 124.500779 147.296168 
L 124.790026 124.497424 
L 124.94961 125.764021 
L 125.089247 149.829361 
L 125.238857 147.296168 
L 125.398442 125.764021 
L 125.687688 143.496377 
L 125.986909 115.631246 
L 126.126545 128.297215 
L 126.28613 154.895749 
L 126.425766 130.830408 
L 126.575377 124.497424 
L 126.874597 156.162346 
L 127.173818 119.431037 
L 127.473039 153.629152 
L 127.762286 111.831455 
L 127.92187 119.431037 
L 128.061506 146.029571 
L 128.211117 123.230827 
L 128.390649 123.230827 
L 128.530286 124.497424 
L 128.669922 144.762974 
L 128.829506 147.296168 
L 128.979117 125.764021 
L 129.118753 125.764021 
L 129.278338 151.095958 
L 129.417974 146.029571 
L 129.55761 125.764021 
L 129.717195 133.363602 
L 129.856831 161.228733 
L 130.156052 132.097005 
L 130.295688 137.163393 
L 130.455273 158.695539 
L 130.744519 121.96423 
L 131.033766 159.962136 
L 131.332987 129.563812 
L 131.622234 161.228733 
L 131.771844 135.896796 
L 131.921455 133.363602 
L 132.210701 168.828314 
L 132.360312 139.696586 
L 132.499948 143.496377 
L 132.659532 162.49533 
L 132.799169 161.228733 
L 132.938805 156.162346 
L 133.09839 144.762974 
L 133.238026 171.361508 
L 133.387636 162.49533 
L 133.547221 142.22978 
L 133.686857 152.362555 
L 133.826494 180.227686 
L 134.125714 159.962136 
L 134.424935 219.492188 
L 134.564571 209.359414 
L 134.724156 214.425801 
L 135.003429 242.290932 
L 135.302649 181.494283 
L 135.45226 172.628105 
L 135.60187 173.894702 
L 135.741506 144.762974 
L 135.911065 147.296168 
L 136.070649 153.629152 
L 136.210286 172.628105 
L 136.509506 140.963183 
L 136.788779 175.161298 
L 137.088 147.296168 
L 137.387221 173.894702 
L 137.686442 146.029571 
L 137.975688 189.093864 
L 138.274909 147.296168 
L 138.414545 165.028524 
L 138.57413 170.094911 
L 138.713766 143.496377 
L 138.853403 146.029571 
L 139.012987 172.628105 
L 139.152623 165.028524 
L 139.302234 137.163393 
L 139.451844 142.22978 
L 139.591481 166.29512 
L 139.741091 157.428942 
L 139.890701 138.42999 
L 140.040312 140.963183 
L 140.179948 171.361508 
L 140.479169 130.830408 
L 140.768416 166.29512 
L 141.057662 128.297215 
L 141.356883 162.49533 
L 141.496519 132.097005 
L 141.656104 128.297215 
L 141.955325 156.162346 
L 142.234597 128.297215 
L 142.543792 152.362555 
L 142.843013 125.764021 
L 142.982649 147.296168 
L 143.122286 146.029571 
L 143.28187 123.230827 
L 143.451429 121.96423 
L 143.750649 153.629152 
L 144.039896 121.96423 
L 144.189506 147.296168 
L 144.339117 153.629152 
L 144.638338 124.497424 
L 144.937558 147.296168 
L 145.077195 125.764021 
L 145.226805 123.230827 
L 145.526026 148.562764 
L 145.665662 125.764021 
L 145.825247 125.764021 
L 146.114494 149.829361 
L 146.264104 128.297215 
L 146.413714 127.030618 
L 146.712935 149.829361 
L 146.852571 130.830408 
L 147.012156 128.297215 
L 147.311377 158.695539 
L 147.610597 130.830408 
L 147.750234 152.362555 
L 147.909818 158.695539 
L 148.049455 142.22978 
L 148.199065 140.963183 
L 148.498286 170.094911 
L 148.637922 146.029571 
L 148.797506 148.562764 
L 148.937143 173.894702 
L 149.086753 172.628105 
L 149.236364 152.362555 
L 149.385974 149.829361 
L 149.52561 173.894702 
L 149.685195 172.628105 
L 149.824831 153.629152 
L 150.572883 238.491141 
L 150.86213 295.488 
L 151.041662 287.888419 
L 151.181299 267.622869 
L 151.490494 261.289885 
L 151.789714 171.361508 
L 151.939325 181.494283 
L 152.078961 203.026429 
L 152.378182 162.49533 
L 152.677403 186.56067 
L 152.966649 153.629152 
L 153.26587 176.427895 
L 153.415481 154.895749 
L 153.565091 153.629152 
L 153.864312 180.227686 
L 154.013922 152.362555 
L 154.153558 149.829361 
L 154.313143 156.162346 
L 154.452779 177.694492 
L 154.60239 146.029571 
L 154.752 138.42999 
L 155.041247 161.228733 
L 155.200831 129.563812 
L 155.350442 123.230827 
L 155.490078 144.762974 
L 155.649662 148.562764 
L 155.789299 119.431037 
L 155.938909 115.631246 
L 156.088519 133.363602 
L 156.23813 135.896796 
L 156.38774 119.431037 
L 156.547325 119.431037 
L 156.846545 142.22978 
L 157.135792 111.831455 
L 157.285403 137.163393 
L 157.435013 143.496377 
L 157.574649 123.230827 
L 157.734234 121.96423 
L 158.023481 146.029571 
L 158.173091 115.631246 
L 158.322701 119.431037 
L 158.462338 140.963183 
L 158.791481 128.297215 
L 158.931117 111.831455 
L 159.230338 146.029571 
L 159.529558 116.897843 
L 159.828779 144.762974 
L 160.118026 121.96423 
L 160.417247 157.428942 
L 160.726442 121.96423 
L 161.015688 156.162346 
L 161.314909 124.497424 
L 161.61413 152.362555 
L 161.76374 132.097005 
L 161.903377 135.896796 
L 162.062961 134.630199 
L 162.202597 166.29512 
L 162.501818 133.363602 
L 162.641455 158.695539 
L 162.801039 163.761927 
L 162.950649 143.496377 
L 163.090286 142.22978 
L 163.389506 172.628105 
L 163.688727 143.496377 
L 163.977974 173.894702 
L 164.277195 151.095958 
L 164.416831 176.427895 
L 164.576416 180.227686 
L 164.716052 158.695539 
L 164.865662 157.428942 
L 165.015273 184.027476 
L 165.164883 178.961089 
L 165.40426 191.627058 
L 165.593766 209.359414 
L 165.743377 205.559623 
L 165.892987 196.693445 
L 166.042597 209.359414 
L 166.182234 233.424754 
L 166.341818 229.624963 
L 166.670961 189.093864 
L 166.810597 190.360461 
L 166.960208 192.893654 
L 167.249455 163.761927 
L 167.399065 184.027476 
L 167.548675 177.694492 
L 167.837922 153.629152 
L 167.997506 175.161298 
L 168.137143 171.361508 
L 168.286753 148.562764 
L 168.436364 143.496377 
L 168.585974 166.29512 
L 168.72561 158.695539 
L 169.024831 132.097005 
L 169.184416 158.695539 
L 169.324052 146.029571 
L 169.473662 121.96423 
L 169.623273 128.297215 
L 169.772883 140.963183 
L 169.912519 132.097005 
L 170.221714 104.231874 
L 170.371325 129.563812 
L 170.520935 118.16444 
L 170.670545 96.632293 
L 170.969766 116.897843 
L 171.109403 110.564859 
L 171.259013 83.966325 
L 171.408623 96.632293 
L 171.558234 120.697634 
L 171.847481 86.499518 
L 171.997091 85.232921 
L 172.136727 110.564859 
L 172.435948 82.699728 
L 172.595532 90.299309 
L 172.735169 108.031665 
L 173.03439 73.83355 
L 173.323636 106.765068 
L 173.622857 80.166534 
L 173.932052 106.765068 
L 174.201351 68.767162 
L 174.500571 101.698681 
L 174.640208 85.232921 
L 174.809766 80.166534 
L 175.099013 108.031665 
L 175.398234 80.166534 
L 175.697455 108.031665 
L 175.837091 82.699728 
L 175.996675 80.166534 
L 176.136312 114.364649 
L 176.285922 111.831455 
L 176.435532 87.766115 
L 176.585143 82.699728 
L 176.734753 109.298262 
L 176.884364 115.631246 
L 177.033974 97.89889 
L 177.17361 95.365696 
L 177.333195 115.631246 
L 177.472831 118.16444 
L 177.772052 89.032712 
L 178.061299 127.030618 
L 178.220883 105.498471 
L 178.370494 109.298262 
L 178.51013 133.363602 
L 178.669714 129.563812 
L 178.809351 113.098052 
L 178.968935 110.564859 
L 179.108571 140.963183 
L 179.258182 133.363602 
L 179.417766 113.098052 
L 179.567377 115.631246 
L 179.707013 128.297215 
L 179.866597 130.830408 
L 180.006234 115.631246 
L 180.155844 116.897843 
L 180.305455 137.163393 
L 180.455065 135.896796 
L 180.594701 115.631246 
L 180.754286 118.16444 
L 180.923844 123.230827 
L 181.073455 144.762974 
L 181.372675 116.897843 
L 181.671896 140.963183 
L 181.971117 115.631246 
L 182.110753 125.764021 
L 182.260364 146.029571 
L 182.559584 115.631246 
L 182.709195 125.764021 
L 182.858805 147.296168 
L 183.148052 119.431037 
L 183.307636 128.297215 
L 183.447273 144.762974 
L 183.756468 114.364649 
L 183.906078 121.96423 
L 184.045714 146.029571 
L 184.344935 123.230827 
L 184.504519 127.030618 
L 184.65413 140.963183 
L 184.953351 115.631246 
L 185.242597 143.496377 
L 185.541818 123.230827 
L 185.681455 128.297215 
L 185.841039 147.296168 
L 186.130286 110.564859 
L 186.429506 144.762974 
L 186.579117 128.297215 
L 186.728727 127.030618 
L 186.878338 132.097005 
L 187.017974 148.562764 
L 187.317195 118.16444 
L 187.616416 148.562764 
L 187.945558 124.497424 
L 188.085195 128.297215 
L 188.234805 149.829361 
L 188.683636 115.631246 
L 188.833247 146.029571 
L 188.982857 138.42999 
L 189.122494 120.697634 
L 189.272104 119.431037 
L 189.421714 142.22978 
L 189.720935 111.831455 
L 189.860571 123.230827 
L 190.010182 146.029571 
L 190.299429 114.364649 
L 190.459013 123.230827 
L 190.598649 144.762974 
L 190.89787 114.364649 
L 191.187117 140.963183 
L 191.336727 118.16444 
L 191.486338 116.897843 
L 191.775584 138.42999 
L 192.064831 115.631246 
L 192.224416 140.963183 
L 192.364052 138.42999 
L 192.663273 110.564859 
L 192.952519 135.896796 
L 193.25174 108.031665 
L 193.401351 138.42999 
L 193.550961 137.163393 
L 193.690597 119.431037 
L 193.840208 118.16444 
L 193.989818 140.963183 
L 194.139429 134.630199 
L 194.289039 116.897843 
L 194.438649 124.497424 
L 194.578286 140.963183 
L 194.827636 124.497424 
L 194.997195 128.297215 
L 195.166753 142.22978 
L 195.336312 135.896796 
L 195.495896 120.697634 
L 195.844987 116.897843 
L 196.343688 138.42999 
L 196.523221 133.363602 
L 196.862338 114.364649 
L 197.031896 115.631246 
L 197.371013 140.963183 
L 197.530597 140.963183 
L 197.750026 144.762974 
L 197.919584 142.22978 
L 198.089143 133.363602 
L 198.258701 113.098052 
L 198.42826 114.364649 
L 198.607792 119.431037 
L 198.767377 140.963183 
L 198.936935 143.496377 
L 199.106494 140.963183 
L 199.276052 119.431037 
L 199.44561 113.098052 
L 199.774753 124.497424 
L 199.954286 142.22978 
L 200.123844 146.029571 
L 200.462961 119.431037 
L 200.622545 118.16444 
L 200.802078 111.831455 
L 200.961662 134.630199 
L 201.300779 146.029571 
L 201.639896 115.631246 
L 201.809455 110.564859 
L 201.988987 116.897843 
L 202.31813 142.22978 
L 202.487688 139.696586 
L 202.657247 125.764021 
L 203.026286 116.897843 
L 203.195844 121.96423 
L 203.375377 118.16444 
L 203.534961 139.696586 
L 203.714494 144.762974 
L 203.884052 142.22978 
L 204.223169 120.697634 
L 204.392727 116.897843 
L 204.562286 119.431037 
L 204.901403 144.762974 
L 205.240519 128.297215 
L 205.420052 119.431037 
L 205.579636 118.16444 
L 206.088312 140.963183 
L 206.596987 115.631246 
L 206.776519 116.897843 
L 207.115636 132.097005 
L 207.285195 143.496377 
L 207.444779 142.22978 
L 207.624312 125.764021 
L 207.963429 118.16444 
L 208.132987 119.431037 
L 208.302545 137.163393 
L 208.482078 138.42999 
L 208.651636 143.496377 
L 208.821195 127.030618 
L 208.990753 121.96423 
L 209.160312 109.298262 
L 209.499429 129.563812 
L 209.678961 146.029571 
L 209.838545 143.496377 
L 210.187636 119.431037 
L 210.347221 114.364649 
L 210.71626 120.697634 
L 211.065351 142.22978 
L 211.224935 140.963183 
L 211.404468 123.230827 
L 211.564052 123.230827 
L 211.743584 106.765068 
L 211.913143 115.631246 
L 212.25226 144.762974 
L 212.421818 138.42999 
L 212.760935 119.431037 
L 212.930494 113.098052 
L 213.449143 139.696586 
L 213.618701 143.496377 
L 213.957818 121.96423 
L 214.127377 120.697634 
L 214.306909 115.631246 
L 214.636052 139.696586 
L 214.815584 142.22978 
L 215.154701 120.697634 
L 215.314286 119.431037 
L 215.483844 116.897843 
L 216.002494 147.296168 
L 216.172052 143.496377 
L 216.331636 123.230827 
L 216.680727 113.098052 
L 217.019844 143.496377 
L 217.189403 143.496377 
L 217.708052 115.631246 
L 217.867636 116.897843 
L 218.376312 146.029571 
L 218.555844 134.630199 
L 218.745351 135.896796 
L 218.924883 125.764021 
L 219.094442 124.497424 
L 219.264 116.897843 
L 219.772675 146.029571 
L 220.291325 116.897843 
L 220.450909 123.230827 
L 220.620468 123.230827 
L 220.959584 151.095958 
L 221.308675 124.497424 
L 221.46826 120.697634 
L 221.647792 119.431037 
L 221.807377 125.764021 
L 221.986909 146.029571 
L 222.156468 148.562764 
L 222.495584 121.96423 
L 222.665143 111.831455 
L 223.00426 128.297215 
L 223.163844 142.22978 
L 223.343377 146.029571 
L 223.852052 111.831455 
L 224.201143 124.497424 
L 224.54026 151.095958 
L 224.869403 124.497424 
L 225.048935 118.16444 
L 225.388052 128.297215 
L 225.727169 148.562764 
L 226.245818 116.897843 
L 226.405403 116.897843 
L 226.594909 120.697634 
L 227.113558 149.829361 
L 227.622234 116.897843 
L 227.791792 121.96423 
L 228.130909 147.296168 
L 228.300468 146.029571 
L 228.639584 119.431037 
L 228.819117 123.230827 
L 228.978701 121.96423 
L 229.497351 149.829361 
L 229.836468 127.030618 
L 230.006026 119.431037 
L 230.175584 120.697634 
L 230.68426 144.762974 
L 231.192935 116.897843 
L 231.70161 139.696586 
L 232.050701 135.896796 
L 232.389818 116.897843 
L 232.728935 129.563812 
L 232.898494 139.696586 
L 233.068052 140.963183 
L 233.23761 135.896796 
L 233.576727 114.364649 
L 233.915844 132.097005 
L 234.085403 147.296168 
L 234.424519 135.896796 
L 234.624 135.896796 
L 234.803532 123.230827 
L 234.973091 120.697634 
L 235.142649 121.96423 
L 235.651325 146.029571 
L 235.820883 138.42999 
L 236.000416 121.96423 
L 236.16 124.497424 
L 236.329558 118.16444 
L 236.848208 148.562764 
L 237.177351 125.764021 
L 237.356883 120.697634 
L 237.526442 121.96423 
L 237.696 128.297215 
L 238.035117 147.296168 
L 238.204675 138.42999 
L 238.374234 121.96423 
L 238.543792 127.030618 
L 238.713351 118.16444 
L 239.052468 147.296168 
L 239.222026 146.029571 
L 239.401558 134.630199 
L 239.561143 115.631246 
L 239.730701 115.631246 
L 239.910234 116.897843 
L 240.079792 121.96423 
L 240.259325 144.762974 
L 240.418909 143.496377 
L 240.768 124.497424 
L 240.927584 115.631246 
L 241.107117 119.431037 
L 241.276675 125.764021 
L 241.615792 149.829361 
L 241.954909 128.297215 
L 242.124468 120.697634 
L 242.284052 119.431037 
L 242.493506 120.697634 
L 242.653091 124.497424 
L 243.002182 149.829361 
L 243.161766 143.496377 
L 243.341299 125.764021 
L 243.680416 119.431037 
L 244.189091 149.829361 
L 244.697766 118.16444 
L 244.867325 120.697634 
L 245.216416 135.896796 
L 245.395948 146.029571 
L 245.555532 143.496377 
L 245.725091 127.030618 
L 246.24374 118.16444 
L 246.572883 151.095958 
L 246.912 132.097005 
L 247.091532 116.897843 
L 247.420675 125.764021 
L 247.769766 151.095958 
L 247.939325 146.029571 
L 248.278442 119.431037 
L 248.448 118.16444 
L 248.617558 127.030618 
L 248.956675 147.296168 
L 249.126234 142.22978 
L 249.305766 119.431037 
L 249.465351 114.364649 
L 249.644883 124.497424 
L 249.804468 123.230827 
L 250.153558 149.829361 
L 250.323117 143.496377 
L 250.522597 147.296168 
L 250.85174 123.230827 
L 251.031273 118.16444 
L 251.190857 127.030618 
L 251.37039 144.762974 
L 251.529974 146.029571 
L 251.869091 121.96423 
L 252.038649 124.497424 
L 252.208208 120.697634 
L 252.377766 121.96423 
L 252.537351 142.22978 
L 252.716883 143.496377 
L 253.056 121.96423 
L 253.215584 118.16444 
L 253.385143 123.230827 
L 253.72426 148.562764 
L 253.903792 146.029571 
L 254.063377 128.297215 
L 254.232935 125.764021 
L 254.402494 120.697634 
L 254.911169 151.095958 
L 255.070753 132.097005 
L 255.40987 119.431037 
L 255.589403 120.697634 
L 255.758961 129.563812 
L 255.918545 146.029571 
L 256.098078 146.029571 
L 256.257662 138.42999 
L 256.437195 121.96423 
L 256.606753 119.431037 
L 256.766338 120.697634 
L 257.105455 144.762974 
L 257.284987 146.029571 
L 257.61413 124.497424 
L 257.783688 119.431037 
L 257.953247 121.96423 
L 258.292364 146.029571 
L 258.432 124.497424 
L 258.611532 114.364649 
L 258.940675 121.96423 
L 259.279792 152.362555 
L 259.778494 118.16444 
L 259.958026 123.230827 
L 260.456727 147.296168 
L 260.965403 113.098052 
L 261.144935 116.897843 
L 261.474078 152.362555 
L 261.643636 151.095958 
L 261.992727 120.697634 
L 262.152312 119.431037 
L 262.660987 147.296168 
L 262.830545 146.029571 
L 263.000104 125.764021 
L 263.159688 124.497424 
L 263.339221 118.16444 
L 263.498805 127.030618 
L 263.678338 129.563812 
L 263.837922 147.296168 
L 264.007481 137.163393 
L 264.177039 119.431037 
L 264.346597 119.431037 
L 264.516156 115.631246 
L 264.845299 139.696586 
L 265.024831 142.22978 
L 265.523532 110.564859 
L 266.042182 142.22978 
L 266.241662 140.963183 
L 266.401247 140.963183 
L 266.750338 116.897843 
L 266.909922 113.098052 
L 267.089455 119.431037 
L 267.418597 143.496377 
L 267.59813 147.296168 
L 267.767688 125.764021 
L 268.106805 118.16444 
L 268.26639 115.631246 
L 268.445922 135.896796 
L 268.615481 142.22978 
L 268.785039 140.963183 
L 268.954597 123.230827 
L 269.124156 121.96423 
L 269.293714 115.631246 
L 269.463273 119.431037 
L 269.971948 143.496377 
L 270.311065 118.16444 
L 270.490597 115.631246 
L 270.660156 121.96423 
L 270.81974 134.630199 
L 270.999273 135.896796 
L 271.168831 146.029571 
L 271.677506 110.564859 
L 272.196156 144.762974 
L 272.365714 140.963183 
L 272.704831 120.697634 
L 272.87439 121.96423 
L 273.043948 118.16444 
L 273.383065 146.029571 
L 273.552623 143.496377 
L 273.901714 118.16444 
L 274.061299 113.098052 
L 274.430338 121.96423 
L 274.599896 129.563812 
L 274.769455 142.22978 
L 274.939013 142.22978 
L 275.447688 114.364649 
L 275.627221 121.96423 
L 275.786805 139.696586 
L 275.956364 140.963183 
L 276.135896 140.963183 
L 276.484987 121.96423 
L 276.644571 116.897843 
L 276.993662 121.96423 
L 277.153247 148.562764 
L 277.332779 148.562764 
L 277.661922 118.16444 
L 278.001039 120.697634 
L 278.35013 139.696586 
L 278.509714 143.496377 
L 278.858805 121.96423 
L 279.028364 125.764021 
L 279.197922 124.497424 
L 279.537039 142.22978 
L 279.706597 142.22978 
L 279.876156 129.563812 
L 280.045714 127.030618 
L 280.384831 118.16444 
L 280.733922 148.562764 
L 280.893506 144.762974 
L 281.242597 127.030618 
L 281.402182 120.697634 
L 281.581714 129.563812 
L 281.751273 130.830408 
L 281.920831 147.296168 
L 282.120312 151.095958 
L 282.28987 148.562764 
L 282.808519 116.897843 
L 282.978078 121.96423 
L 283.317195 143.496377 
L 283.486753 146.029571 
L 283.995429 123.230827 
L 284.214857 125.764021 
L 284.374442 118.16444 
L 284.883117 144.762974 
L 285.062649 144.762974 
L 285.401766 119.431037 
L 285.571325 116.897843 
L 285.740883 121.96423 
L 286.08 148.562764 
L 286.259532 148.562764 
L 286.419117 129.563812 
L 286.768208 119.431037 
L 286.937766 123.230827 
L 287.446442 148.562764 
L 287.785558 121.96423 
L 287.965091 121.96423 
L 288.134649 120.697634 
L 288.294234 128.297215 
L 288.643325 148.562764 
L 288.982442 124.497424 
L 289.152 118.16444 
L 289.491117 128.297215 
L 289.670649 149.829361 
L 289.830234 147.296168 
L 290.368831 123.230827 
L 290.548364 115.631246 
L 291.057039 144.762974 
L 291.216623 143.496377 
L 291.396156 138.42999 
L 291.735273 118.16444 
L 291.904831 123.230827 
L 292.253922 151.095958 
L 292.593039 137.163393 
L 292.922182 118.16444 
L 293.101714 119.431037 
L 293.61039 148.562764 
L 293.779948 132.097005 
L 293.949506 128.297215 
L 294.119065 119.431037 
L 294.458182 129.563812 
L 294.797299 151.095958 
L 295.14639 125.764021 
L 295.305974 121.96423 
L 295.475532 124.497424 
L 295.655065 132.097005 
L 295.814649 152.362555 
L 295.994182 147.296168 
L 296.323325 120.697634 
L 296.502857 120.697634 
L 296.662442 124.497424 
L 297.171117 147.296168 
L 297.350649 128.297215 
L 297.69974 121.96423 
L 297.869299 128.297215 
L 298.058805 118.16444 
L 298.577455 147.296168 
L 298.906597 124.497424 
L 299.08613 123.230827 
L 299.245714 120.697634 
L 299.75439 152.362555 
L 300.273039 120.697634 
L 300.442597 121.96423 
L 300.951273 151.095958 
L 301.120831 127.030618 
L 301.29039 123.230827 
L 301.459948 125.764021 
L 301.629506 125.764021 
L 302.138182 147.296168 
L 302.656831 118.16444 
L 302.836364 123.230827 
L 302.995948 124.497424 
L 303.165506 147.296168 
L 303.345039 149.829361 
L 303.504623 143.496377 
L 303.684156 124.497424 
L 303.853714 119.431037 
L 304.013299 119.431037 
L 304.192831 115.631246 
L 304.352416 142.22978 
L 304.531948 149.829361 
L 304.701506 132.097005 
L 305.210182 116.897843 
L 305.718857 151.095958 
L 305.89839 134.630199 
L 306.087896 135.896796 
L 306.257455 121.96423 
L 306.427013 121.96423 
L 306.596571 119.431037 
L 306.76613 125.764021 
L 306.935688 152.362555 
L 307.115221 147.296168 
L 307.444364 129.563812 
L 307.623896 123.230827 
L 307.783481 121.96423 
L 307.972987 121.96423 
L 308.30213 157.428942 
L 308.641247 124.497424 
L 308.820779 114.364649 
L 309.149922 127.030618 
L 309.489039 148.562764 
L 309.668571 130.830408 
L 310.177247 113.098052 
L 310.516364 142.22978 
L 310.685922 147.296168 
L 310.855481 144.762974 
L 311.194597 116.897843 
L 311.37413 120.697634 
L 311.533714 115.631246 
L 311.703273 142.22978 
L 311.872831 147.296168 
L 312.04239 140.963183 
L 312.391481 114.364649 
L 313.249247 144.762974 
L 313.588364 118.16444 
L 313.757922 120.697634 
L 313.957403 121.96423 
L 314.296519 138.42999 
L 314.456104 147.296168 
L 314.964779 120.697634 
L 315.463481 142.22978 
L 315.643013 142.22978 
L 315.802597 138.42999 
L 316.151688 118.16444 
L 316.311273 120.697634 
L 316.819948 148.562764 
L 317.159065 124.497424 
L 317.328623 116.897843 
L 317.657766 142.22978 
L 317.837299 151.095958 
L 317.996883 146.029571 
L 318.176416 127.030618 
L 318.345974 121.96423 
L 318.515532 121.96423 
L 318.685091 124.497424 
L 319.024208 146.029571 
L 319.353351 123.230827 
L 319.532883 125.764021 
L 319.692468 121.96423 
L 319.872 129.563812 
L 320.201143 148.562764 
L 320.54026 120.697634 
L 320.709818 119.431037 
L 320.879377 121.96423 
L 321.218494 142.22978 
L 321.378078 146.029571 
L 321.727169 118.16444 
L 321.996468 147.296168 
L 322.32561 123.230827 
L 322.505143 119.431037 
L 322.664727 119.431037 
L 323.173403 151.095958 
L 323.342961 132.097005 
L 323.692052 119.431037 
L 323.86161 119.431037 
L 324.021195 124.497424 
L 324.200727 146.029571 
L 324.360312 147.296168 
L 324.699429 121.96423 
L 324.868987 119.431037 
L 325.038545 124.497424 
L 325.377662 147.296168 
L 325.547221 140.963183 
L 325.716779 124.497424 
L 325.886338 123.230827 
L 326.055896 120.697634 
L 326.225455 125.764021 
L 326.395013 147.296168 
L 326.554597 149.829361 
L 326.893714 128.297215 
L 327.073247 130.830408 
L 327.232831 121.96423 
L 327.741506 151.095958 
L 328.080623 119.431037 
L 328.41974 124.497424 
L 328.768831 144.762974 
L 328.928416 144.762974 
L 329.277506 123.230827 
L 329.437091 124.497424 
L 329.616623 119.431037 
L 329.80613 125.764021 
L 330.145247 148.562764 
L 330.314805 144.762974 
L 330.823481 119.431037 
L 331.34213 143.496377 
L 331.501714 144.762974 
L 331.850805 124.497424 
L 332.01039 115.631246 
L 332.519065 140.963183 
L 332.698597 143.496377 
L 333.037714 121.96423 
L 333.207273 128.297215 
L 333.376831 125.764021 
L 333.715948 151.095958 
L 333.895481 146.029571 
L 334.404156 113.098052 
L 334.573714 116.897843 
L 334.753247 127.030618 
L 334.912831 151.095958 
L 335.08239 152.362555 
L 335.421506 124.497424 
L 335.601039 127.030618 
L 335.770597 123.230827 
L 336.109714 140.963183 
L 336.279273 149.829361 
L 336.61839 125.764021 
L 336.957506 118.16444 
L 337.306597 140.963183 
L 337.466182 146.029571 
L 337.63574 138.42999 
L 337.835221 135.896796 
L 338.004779 124.497424 
L 338.174338 121.96423 
L 338.343896 127.030618 
L 338.513455 128.297215 
L 338.852571 151.095958 
L 339.201662 119.431037 
L 339.371221 119.431037 
L 339.550753 120.697634 
L 339.710338 127.030618 
L 340.059429 147.296168 
L 340.219013 140.963183 
L 340.568104 120.697634 
L 340.737662 121.96423 
L 340.907221 125.764021 
L 341.246338 148.562764 
L 341.755013 123.230827 
L 341.924571 120.697634 
L 342.104104 125.764021 
L 342.443221 151.095958 
L 342.772364 124.497424 
L 342.951896 119.431037 
L 343.111481 120.697634 
L 343.291013 125.764021 
L 343.460571 147.296168 
L 343.620156 149.829361 
L 344.138805 123.230827 
L 344.308364 120.697634 
L 344.487896 123.230827 
L 344.827013 148.562764 
L 345.006545 142.22978 
L 345.16613 121.96423 
L 345.335688 120.697634 
L 345.515221 118.16444 
L 345.674805 125.764021 
L 345.83439 148.562764 
L 345.993974 143.496377 
L 346.502649 119.431037 
L 346.85174 133.363602 
L 347.190857 149.829361 
L 347.360416 132.097005 
L 347.859117 118.16444 
L 348.038649 143.496377 
L 348.208208 149.829361 
L 348.377766 147.296168 
L 348.886442 114.364649 
L 349.395117 144.762974 
L 349.564675 146.029571 
L 350.252883 116.897843 
L 350.422442 125.764021 
L 350.761558 147.296168 
L 351.110649 125.764021 
L 351.270234 116.897843 
L 351.958442 147.296168 
L 352.467117 113.098052 
L 352.975792 142.22978 
L 353.145351 146.029571 
L 353.314909 125.764021 
L 353.494442 123.230827 
L 353.683948 125.764021 
L 353.843532 125.764021 
L 354.023065 116.897843 
L 354.362182 147.296168 
L 354.53174 146.029571 
L 354.880831 127.030618 
L 355.05039 124.497424 
L 355.219948 119.431037 
L 355.389506 125.764021 
L 355.728623 146.029571 
L 355.898182 139.696586 
L 356.237299 110.564859 
L 356.406857 114.364649 
L 356.925506 144.762974 
L 357.254649 124.497424 
L 357.434182 115.631246 
L 357.773299 124.497424 
L 358.102442 156.162346 
L 358.451532 123.230827 
L 358.621091 120.697634 
L 358.790649 115.631246 
L 359.299325 148.562764 
L 359.808 119.431037 
L 359.977558 120.697634 
L 360.157091 124.497424 
L 360.496208 151.095958 
L 361.004883 120.697634 
L 361.344 127.030618 
L 361.513558 152.362555 
L 361.713039 138.42999 
L 361.882597 146.029571 
L 362.06213 140.963183 
L 362.221714 120.697634 
L 362.401247 118.16444 
L 362.73039 125.764021 
L 363.079481 147.296168 
L 363.249039 143.496377 
L 363.418597 120.697634 
L 363.588156 123.230827 
L 363.757714 119.431037 
L 363.927273 121.96423 
L 364.26639 153.629152 
L 364.775065 116.897843 
L 364.954597 110.564859 
L 365.473247 147.296168 
L 365.632831 146.029571 
L 365.981922 119.431037 
L 366.141506 116.897843 
L 366.321039 123.230827 
L 366.660156 143.496377 
L 366.829714 148.562764 
L 367.168831 119.431037 
L 367.33839 120.697634 
L 367.677506 133.363602 
L 367.847065 156.162346 
L 368.365714 118.16444 
L 368.694857 124.497424 
L 369.223481 146.029571 
L 369.383065 132.097005 
L 369.582545 130.830408 
L 369.921662 119.431037 
L 370.270753 128.297215 
L 370.430338 144.762974 
L 371.916468 118.16444 
L 372.086026 120.697634 
L 372.425143 134.630199 
L 372.774234 140.963183 
L 372.943792 119.431037 
L 373.113351 115.631246 
L 373.462442 120.697634 
L 373.791584 147.296168 
L 374.479792 113.098052 
L 374.988468 147.296168 
L 375.168 138.42999 
L 375.327584 121.96423 
L 375.497143 121.96423 
L 375.676675 116.897843 
L 376.015792 134.630199 
L 376.185351 148.562764 
L 376.354909 142.22978 
L 376.694026 110.564859 
L 377.212675 127.030618 
L 377.561766 144.762974 
L 378.070442 116.897843 
L 378.24 127.030618 
L 378.409558 129.563812 
L 378.589091 140.963183 
L 378.778597 139.696586 
L 378.938182 137.163393 
L 379.277299 121.96423 
L 379.616416 121.96423 
L 379.955532 148.562764 
L 380.125091 142.22978 
L 380.294649 120.697634 
L 380.464208 119.431037 
L 380.633766 119.431037 
L 380.803325 124.497424 
L 381.142442 147.296168 
L 381.312 138.42999 
L 381.471584 121.96423 
L 381.651117 118.16444 
L 381.810701 119.431037 
L 381.990234 127.030618 
L 382.149818 142.22978 
L 382.329351 143.496377 
L 382.498909 137.163393 
L 382.668468 119.431037 
L 383.007584 116.897843 
L 383.51626 143.496377 
L 384.014961 119.431037 
L 384.194494 115.631246 
L 384.53361 139.696586 
L 384.693195 142.22978 
L 384.862753 123.230827 
L 385.20187 116.897843 
L 385.381403 118.16444 
L 385.710545 148.562764 
L 385.880104 142.22978 
L 386.049662 113.098052 
L 386.219221 116.897843 
L 386.578286 114.364649 
L 386.757818 125.764021 
L 386.917403 146.029571 
L 387.096935 148.562764 
L 387.426078 124.497424 
L 387.60561 124.497424 
L 387.775169 113.098052 
L 388.27387 142.22978 
L 388.612987 124.497424 
L 388.952104 115.631246 
L 389.460779 143.496377 
L 389.799896 119.431037 
L 389.969455 106.765068 
L 390.47813 144.762974 
L 390.647688 139.696586 
L 390.807273 123.230827 
L 390.986805 118.16444 
L 391.14639 119.431037 
L 391.325922 121.96423 
L 391.485506 137.163393 
L 391.655065 142.22978 
L 391.834597 139.696586 
L 391.994182 124.497424 
L 392.173714 119.431037 
L 392.333299 119.431037 
L 392.672416 139.696586 
L 392.851948 144.762974 
L 393.021506 138.42999 
L 393.350649 118.16444 
L 393.530182 118.16444 
L 393.689766 130.830408 
L 394.028883 142.22978 
L 394.377974 120.697634 
L 394.737039 114.364649 
L 394.906597 115.631246 
L 395.245714 143.496377 
L 395.594805 130.830408 
L 395.923948 115.631246 
L 396.263065 125.764021 
L 396.612156 142.22978 
L 397.120831 91.565906 
L 397.29039 121.96423 
L 397.629506 143.496377 
L 397.799065 142.22978 
L 397.978597 134.630199 
L 398.15813 118.16444 
L 398.317714 116.897843 
L 398.487273 118.16444 
L 398.487273 118.16444 
" clip-path="url(#p7ebd0997de)" style="fill: none; stroke: #1f77b4; stroke-width: 1.5; stroke-linecap: square"/>
   </g>
   <g id="line2d_14">
    <path d="M 74.072104 154.895749 
L 74.660571 153.629152 
L 75.249039 149.829361 
L 75.837506 153.629152 
L 76.425974 152.362555 
L 77.004468 152.362555 
L 77.443325 151.095958 
L 78.031792 153.629152 
L 78.630234 153.629152 
L 79.208727 149.829361 
L 79.807169 156.162346 
L 80.246026 149.829361 
L 80.824519 147.296168 
L 81.403013 153.629152 
L 82.001455 149.829361 
L 82.60987 148.562764 
L 83.218286 148.562764 
L 83.806753 149.829361 
L 84.395221 159.962136 
L 84.993662 152.362555 
L 85.58213 149.829361 
L 86.170597 148.562764 
L 86.769039 152.362555 
L 87.357506 153.629152 
L 87.965922 147.296168 
L 88.55439 153.629152 
L 89.142857 146.029571 
L 89.741299 147.296168 
L 90.359688 140.963183 
L 90.95813 137.163393 
L 91.546597 140.963183 
L 92.135065 134.630199 
L 92.743481 132.097005 
L 93.331948 137.163393 
L 93.920416 137.163393 
L 94.508883 138.42999 
L 95.107325 140.963183 
L 95.705766 142.22978 
L 96.294234 138.42999 
L 96.892675 138.42999 
L 97.481143 135.896796 
L 98.109506 138.42999 
L 98.697974 137.163393 
L 99.286442 132.097005 
L 99.884883 124.497424 
L 100.473351 121.96423 
L 101.061818 110.564859 
L 101.66026 101.698681 
L 102.248727 95.365696 
L 102.847169 90.299309 
L 103.435636 86.499518 
L 104.024104 83.966325 
L 104.622545 87.766115 
L 105.211013 92.832503 
L 105.849351 94.099099 
L 106.138597 81.433131 
L 106.437818 100.432084 
L 107.026286 102.965277 
L 107.614753 108.031665 
L 108.203221 111.831455 
L 108.801662 118.16444 
L 109.39013 115.631246 
L 109.978597 97.89889 
L 110.587013 92.832503 
L 111.175481 101.698681 
L 111.773922 105.498471 
L 112.36239 115.631246 
L 113.579221 139.696586 
L 114.167688 138.42999 
L 114.76613 142.22978 
L 115.354597 153.629152 
L 115.943065 151.095958 
L 116.541506 151.095958 
L 117.129974 157.428942 
L 118.326857 222.025382 
L 118.915325 206.82622 
L 119.513766 163.761927 
L 120.112208 143.496377 
L 120.740571 158.695539 
L 121.329039 152.362555 
L 122.116987 152.362555 
L 123.303896 154.895749 
L 123.892364 153.629152 
L 124.500779 147.296168 
L 125.089247 149.829361 
L 125.687688 143.496377 
L 126.28613 154.895749 
L 126.874597 156.162346 
L 127.473039 153.629152 
L 128.061506 146.029571 
L 128.829506 147.296168 
L 129.278338 151.095958 
L 129.856831 161.228733 
L 130.455273 158.695539 
L 131.622234 161.228733 
L 132.210701 168.828314 
L 132.659532 162.49533 
L 133.826494 180.227686 
L 134.424935 219.492188 
L 135.003429 242.290932 
L 135.60187 173.894702 
L 136.210286 172.628105 
L 136.788779 175.161298 
L 137.387221 173.894702 
L 137.975688 189.093864 
L 138.57413 170.094911 
L 139.012987 172.628105 
L 139.591481 166.29512 
L 140.179948 171.361508 
L 140.768416 166.29512 
L 141.356883 162.49533 
L 141.955325 156.162346 
L 142.543792 152.362555 
L 142.982649 147.296168 
L 143.750649 153.629152 
L 144.339117 153.629152 
L 144.937558 147.296168 
L 146.114494 149.829361 
L 146.712935 149.829361 
L 147.311377 158.695539 
L 147.909818 158.695539 
L 148.498286 170.094911 
L 148.937143 173.894702 
L 149.52561 173.894702 
L 150.86213 295.488 
L 152.078961 203.026429 
L 152.677403 186.56067 
L 153.26587 176.427895 
L 153.864312 180.227686 
L 154.452779 177.694492 
L 155.041247 161.228733 
L 156.23813 135.896796 
L 156.846545 142.22978 
L 157.435013 143.496377 
L 158.023481 146.029571 
L 158.462338 140.963183 
L 159.230338 146.029571 
L 159.828779 144.762974 
L 160.417247 157.428942 
L 161.015688 156.162346 
L 161.61413 152.362555 
L 161.903377 135.896796 
L 162.202597 166.29512 
L 162.801039 163.761927 
L 163.389506 172.628105 
L 163.977974 173.894702 
L 165.015273 184.027476 
L 166.182234 233.424754 
L 166.960208 192.893654 
L 167.399065 184.027476 
L 169.184416 158.695539 
L 169.772883 140.963183 
L 170.969766 116.897843 
L 171.558234 120.697634 
L 172.136727 110.564859 
L 172.735169 108.031665 
L 173.323636 106.765068 
L 173.932052 106.765068 
L 174.500571 101.698681 
L 175.099013 108.031665 
L 175.697455 108.031665 
L 176.136312 114.364649 
L 176.884364 115.631246 
L 177.472831 118.16444 
L 178.51013 133.363602 
L 179.108571 140.963183 
L 179.866597 130.830408 
L 180.305455 137.163393 
L 181.073455 144.762974 
L 181.671896 140.963183 
L 182.260364 146.029571 
L 182.858805 147.296168 
L 183.447273 144.762974 
L 184.045714 146.029571 
L 184.65413 140.963183 
L 185.242597 143.496377 
L 185.841039 147.296168 
L 186.429506 144.762974 
L 187.017974 148.562764 
L 187.616416 148.562764 
L 188.234805 149.829361 
L 189.421714 142.22978 
L 190.010182 146.029571 
L 190.598649 144.762974 
L 191.187117 140.963183 
L 191.775584 138.42999 
L 192.224416 140.963183 
L 192.952519 135.896796 
L 193.401351 138.42999 
L 193.989818 140.963183 
L 194.578286 140.963183 
L 195.166753 142.22978 
L 196.343688 138.42999 
L 197.750026 144.762974 
L 198.936935 143.496377 
L 200.123844 146.029571 
L 201.300779 146.029571 
L 202.31813 142.22978 
L 203.195844 121.96423 
L 203.714494 144.762974 
L 204.901403 144.762974 
L 206.088312 140.963183 
L 207.285195 143.496377 
L 208.651636 143.496377 
L 209.678961 146.029571 
L 211.065351 142.22978 
L 212.25226 144.762974 
L 213.618701 143.496377 
L 214.815584 142.22978 
L 216.002494 147.296168 
L 217.019844 143.496377 
L 218.376312 146.029571 
L 218.745351 135.896796 
L 219.603117 146.029571 
L 220.959584 151.095958 
L 223.343377 146.029571 
L 224.54026 151.095958 
L 225.727169 148.562764 
L 227.113558 149.829361 
L 228.130909 147.296168 
L 228.819117 123.230827 
L 229.497351 149.829361 
L 230.68426 144.762974 
L 231.70161 139.696586 
L 233.068052 140.963183 
L 234.085403 147.296168 
L 235.651325 146.029571 
L 236.16 124.497424 
L 236.848208 148.562764 
L 238.035117 147.296168 
L 238.543792 127.030618 
L 239.052468 147.296168 
L 240.259325 144.762974 
L 241.615792 149.829361 
L 244.189091 149.829361 
L 245.395948 146.029571 
L 246.572883 151.095958 
L 247.769766 151.095958 
L 248.956675 147.296168 
L 249.644883 124.497424 
L 250.153558 149.829361 
L 250.522597 147.296168 
L 251.529974 146.029571 
L 252.038649 124.497424 
L 252.716883 143.496377 
L 253.72426 148.562764 
L 254.911169 151.095958 
L 255.918545 146.029571 
L 258.292364 146.029571 
L 259.279792 152.362555 
L 260.456727 147.296168 
L 261.474078 152.362555 
L 262.660987 147.296168 
L 263.837922 147.296168 
L 265.024831 142.22978 
L 266.042182 142.22978 
L 267.59813 147.296168 
L 268.615481 142.22978 
L 269.80239 143.496377 
L 271.168831 146.029571 
L 272.196156 144.762974 
L 272.87439 121.96423 
L 273.383065 146.029571 
L 274.769455 142.22978 
L 275.956364 140.963183 
L 277.153247 148.562764 
L 278.509714 143.496377 
L 279.028364 125.764021 
L 279.537039 142.22978 
L 280.733922 148.562764 
L 282.120312 151.095958 
L 283.486753 146.029571 
L 284.214857 125.764021 
L 284.883117 144.762974 
L 286.08 148.562764 
L 288.643325 148.562764 
L 289.670649 149.829361 
L 291.057039 144.762974 
L 292.253922 151.095958 
L 293.61039 148.562764 
L 294.797299 151.095958 
L 295.814649 152.362555 
L 297.171117 147.296168 
L 297.869299 128.297215 
L 298.577455 147.296168 
L 299.75439 152.362555 
L 300.951273 151.095958 
L 302.138182 147.296168 
L 303.345039 149.829361 
L 304.531948 149.829361 
L 305.718857 151.095958 
L 306.087896 135.896796 
L 306.935688 152.362555 
L 308.30213 157.428942 
L 309.489039 148.562764 
L 310.685922 147.296168 
L 311.37413 120.697634 
L 311.872831 147.296168 
L 313.069714 144.762974 
L 314.456104 147.296168 
L 315.463481 142.22978 
L 316.819948 148.562764 
L 317.837299 151.095958 
L 319.024208 146.029571 
L 319.532883 125.764021 
L 320.201143 148.562764 
L 321.378078 146.029571 
L 321.996468 147.296168 
L 323.173403 151.095958 
L 324.360312 147.296168 
L 325.377662 147.296168 
L 326.554597 149.829361 
L 327.073247 130.830408 
L 327.741506 151.095958 
L 328.768831 144.762974 
L 329.437091 124.497424 
L 330.145247 148.562764 
L 331.501714 144.762974 
L 332.698597 143.496377 
L 333.207273 128.297215 
L 333.715948 151.095958 
L 335.08239 152.362555 
L 335.601039 127.030618 
L 336.279273 149.829361 
L 337.466182 146.029571 
L 338.852571 151.095958 
L 340.059429 147.296168 
L 341.246338 148.562764 
L 342.443221 151.095958 
L 344.827013 148.562764 
L 345.83439 148.562764 
L 347.190857 149.829361 
L 348.208208 149.829361 
L 349.564675 146.029571 
L 350.761558 147.296168 
L 351.958442 147.296168 
L 353.145351 146.029571 
L 353.683948 125.764021 
L 354.362182 147.296168 
L 355.728623 146.029571 
L 356.925506 144.762974 
L 358.102442 156.162346 
L 359.299325 148.562764 
L 360.496208 151.095958 
L 361.513558 152.362555 
L 361.882597 146.029571 
L 363.079481 147.296168 
L 363.588156 123.230827 
L 364.26639 153.629152 
L 365.473247 147.296168 
L 366.829714 148.562764 
L 367.847065 156.162346 
L 369.223481 146.029571 
L 370.430338 144.762974 
L 372.774234 140.963183 
L 373.791584 147.296168 
L 374.988468 147.296168 
L 376.185351 148.562764 
L 377.561766 144.762974 
L 378.589091 140.963183 
L 379.955532 148.562764 
L 381.142442 147.296168 
L 382.329351 143.496377 
L 383.51626 143.496377 
L 384.693195 142.22978 
L 385.710545 148.562764 
L 386.219221 116.897843 
L 387.096935 148.562764 
L 388.27387 142.22978 
L 389.460779 143.496377 
L 390.47813 144.762974 
L 391.655065 142.22978 
L 392.851948 144.762974 
L 394.028883 142.22978 
L 395.245714 143.496377 
L 396.612156 142.22978 
L 397.629506 143.496377 
L 397.629506 143.496377 
" clip-path="url(#p7ebd0997de)" style="fill: none; stroke: #ff7f0e; stroke-width: 1.5; stroke-linecap: square"/>
   </g>
   <g id="patch_3">
    <path d="M 57.6 307.584 
L 57.6 41.472 
" style="fill: none; stroke: #000000; stroke-width: 0.8; stroke-linejoin: miter; stroke-linecap: square"/>
   </g>
   <g id="patch_4">
    <path d="M 414.72 307.584 
L 414.72 41.472 
" style="fill: none; stroke: #000000; stroke-width: 0.8; stroke-linejoin: miter; stroke-linecap: square"/>
   </g>
   <g id="patch_5">
    <path d="M 57.6 307.584 
L 414.72 307.584 
" style="fill: none; stroke: #000000; stroke-width: 0.8; stroke-linejoin: miter; stroke-linecap: square"/>
   </g>
   <g id="patch_6">
    <path d="M 57.6 41.472 
L 414.72 41.472 
" style="fill: none; stroke: #000000; stroke-width: 0.8; stroke-linejoin: miter; stroke-linecap: square"/>
   </g>
   <g id="legend_1">
    <g id="patch_7">
     <path d="M 320.7075 79.106375 
L 407.72 79.106375 
Q 409.72 79.106375 409.72 77.106375 
L 409.72 48.472 
Q 409.72 46.472 407.72 46.472 
L 320.7075 46.472 
Q 318.7075 46.472 318.7075 48.472 
L 318.7075 77.106375 
Q 318.7075 79.106375 320.7075 79.106375 
z
" style="fill: #ffffff; opacity: 0.8; stroke: #cccccc; stroke-linejoin: miter"/>
    </g>
    <g id="line2d_15">
     <path d="M 322.7075 54.570438 
L 332.7075 54.570438 
L 342.7075 54.570438 
" style="fill: none; stroke: #1f77b4; stroke-width: 1.5; stroke-linecap: square"/>
    </g>
    <g id="text_13">
     <!-- 2345 -->
     <g transform="translate(350.7075 58.070438)scale(0.1 -0.1)">
      <use xlink:href="#DejaVuSans-32"/>
      <use xlink:href="#DejaVuSans-33" x="63.623047"/>
      <use xlink:href="#DejaVuSans-34" x="127.246094"/>
      <use xlink:href="#DejaVuSans-35" x="190.869141"/>
     </g>
    </g>
    <g id="line2d_16">
     <path d="M 322.7075 69.248563 
L 332.7075 69.248563 
L 342.7075 69.248563 
" style="fill: none; stroke: #ff7f0e; stroke-width: 1.5; stroke-linecap: square"/>
    </g>
    <g id="text_14">
     <!-- 2345_enve -->
     <g transform="translate(350.7075 72.748563)scale(0.1 -0.1)">
      <defs>
       <path id="DejaVuSans-5f" d="M 3263 -1063 
L 3263 -1509 
L -63 -1509 
L -63 -1063 
L 3263 -1063 
z
" transform="scale(0.015625)"/>
       <path id="DejaVuSans-65" d="M 3597 1894 
L 3597 1613 
L 953 1613 
Q 991 1019 1311 708 
Q 1631 397 2203 397 
Q 2534 397 2845 478 
Q 3156 559 3463 722 
L 3463 178 
Q 3153 47 2828 -22 
Q 2503 -91 2169 -91 
Q 1331 -91 842 396 
Q 353 884 353 1716 
Q 353 2575 817 3079 
Q 1281 3584 2069 3584 
Q 2775 3584 3186 3129 
Q 3597 2675 3597 1894 
z
M 3022 2063 
Q 3016 2534 2758 2815 
Q 2500 3097 2075 3097 
Q 1594 3097 1305 2825 
Q 1016 2553 972 2059 
L 3022 2063 
z
" transform="scale(0.015625)"/>
       <path id="DejaVuSans-6e" d="M 3513 2113 
L 3513 0 
L 2938 0 
L 2938 2094 
Q 2938 2591 2744 2837 
Q 2550 3084 2163 3084 
Q 1697 3084 1428 2787 
Q 1159 2491 1159 1978 
L 1159 0 
L 581 0 
L 581 3500 
L 1159 3500 
L 1159 2956 
Q 1366 3272 1645 3428 
Q 1925 3584 2291 3584 
Q 2894 3584 3203 3211 
Q 3513 2838 3513 2113 
z
" transform="scale(0.015625)"/>
       <path id="DejaVuSans-76" d="M 191 3500 
L 800 3500 
L 1894 563 
L 2988 3500 
L 3597 3500 
L 2284 0 
L 1503 0 
L 191 3500 
z
" transform="scale(0.015625)"/>
      </defs>
      <use xlink:href="#DejaVuSans-32"/>
      <use xlink:href="#DejaVuSans-33" x="63.623047"/>
      <use xlink:href="#DejaVuSans-34" x="127.246094"/>
      <use xlink:href="#DejaVuSans-35" x="190.869141"/>
      <use xlink:href="#DejaVuSans-5f" x="254.492188"/>
      <use xlink:href="#DejaVuSans-65" x="304.492188"/>
      <use xlink:href="#DejaVuSans-6e" x="366.015625"/>
      <use xlink:href="#DejaVuSans-76" x="429.394531"/>
      <use xlink:href="#DejaVuSans-65" x="488.574219"/>
     </g>
    </g>
   </g>
  </g>
 </g>
 <defs>
  <clipPath id="p7ebd0997de">
   <rect x="57.6" y="41.472" width="357.12" height="266.112"/>
  </clipPath>
 </defs>
</svg>
