<?xml version="1.0" encoding="utf-8" standalone="no"?>
<!DOCTYPE svg PUBLIC "-//W3C//DTD SVG 1.1//EN"
  "http://www.w3.org/Graphics/SVG/1.1/DTD/svg11.dtd">
<svg xmlns:xlink="http://www.w3.org/1999/xlink" width="460.8pt" height="345.6pt" viewBox="0 0 460.8 345.6" xmlns="http://www.w3.org/2000/svg" version="1.1">
 <metadata>
  <rdf:RDF xmlns:dc="http://purl.org/dc/elements/1.1/" xmlns:cc="http://creativecommons.org/ns#" xmlns:rdf="http://www.w3.org/1999/02/22-rdf-syntax-ns#">
   <cc:Work>
    <dc:type rdf:resource="http://purl.org/dc/dcmitype/StillImage"/>
    <dc:date>2022-09-30T20:00:08.497342</dc:date>
    <dc:format>image/svg+xml</dc:format>
    <dc:creator>
     <cc:Agent>
      <dc:title>Matplotlib v3.5.3, https://matplotlib.org/</dc:title>
     </cc:Agent>
    </dc:creator>
   </cc:Work>
  </rdf:RDF>
 </metadata>
 <defs>
  <style type="text/css">*{stroke-linejoin: round; stroke-linecap: butt}</style>
 </defs>
 <g id="figure_1">
  <g id="patch_1">
   <path d="M 0 345.6 
L 460.8 345.6 
L 460.8 0 
L 0 0 
z
" style="fill: #ffffff"/>
  </g>
  <g id="axes_1">
   <g id="patch_2">
    <path d="M 57.6 307.584 
L 414.72 307.584 
L 414.72 41.472 
L 57.6 41.472 
z
" style="fill: #ffffff"/>
   </g>
   <g id="PathCollection_1">
    <defs>
     <path id="m659d37e994" d="M -3 3 
L 3 -3 
M -3 -3 
L 3 3 
" style="stroke: #ff0000; stroke-width: 1.5"/>
    </defs>
    <g clip-path="url(#p79f7027ab9)">
     <use xlink:href="#m659d37e994" x="118.237543" y="212.462201" style="fill: #ff0000; stroke: #ff0000; stroke-width: 1.5"/>
     <use xlink:href="#m659d37e994" x="166.255191" y="225.345515" style="fill: #ff0000; stroke: #ff0000; stroke-width: 1.5"/>
     <use xlink:href="#m659d37e994" x="134.970662" y="235.36587" style="fill: #ff0000; stroke: #ff0000; stroke-width: 1.5"/>
     <use xlink:href="#m659d37e994" x="150.883139" y="295.488" style="fill: #ff0000; stroke: #ff0000; stroke-width: 1.5"/>
    </g>
   </g>
   <g id="matplotlib.axis_1">
    <g id="xtick_1">
     <g id="line2d_1">
      <defs>
       <path id="mbd5a02d3f9" d="M 0 0 
L 0 3.5 
" style="stroke: #000000; stroke-width: 0.8"/>
      </defs>
      <g>
       <use xlink:href="#mbd5a02d3f9" x="73.182217" y="307.584" style="stroke: #000000; stroke-width: 0.8"/>
      </g>
     </g>
     <g id="text_1">
      <!-- 0 -->
      <g transform="translate(70.000967 322.182437)scale(0.1 -0.1)">
       <defs>
        <path id="DejaVuSans-30" d="M 2034 4250 
Q 1547 4250 1301 3770 
Q 1056 3291 1056 2328 
Q 1056 1369 1301 889 
Q 1547 409 2034 409 
Q 2525 409 2770 889 
Q 3016 1369 3016 2328 
Q 3016 3291 2770 3770 
Q 2525 4250 2034 4250 
z
M 2034 4750 
Q 2819 4750 3233 4129 
Q 3647 3509 3647 2328 
Q 3647 1150 3233 529 
Q 2819 -91 2034 -91 
Q 1250 -91 836 529 
Q 422 1150 422 2328 
Q 422 3509 836 4129 
Q 1250 4750 2034 4750 
z
" transform="scale(0.015625)"/>
       </defs>
       <use xlink:href="#DejaVuSans-30"/>
      </g>
     </g>
    </g>
    <g id="xtick_2">
     <g id="line2d_2">
      <g>
       <use xlink:href="#mbd5a02d3f9" x="123.221451" y="307.584" style="stroke: #000000; stroke-width: 0.8"/>
      </g>
     </g>
     <g id="text_2">
      <!-- 5 -->
      <g transform="translate(120.040201 322.182437)scale(0.1 -0.1)">
       <defs>
        <path id="DejaVuSans-35" d="M 691 4666 
L 3169 4666 
L 3169 4134 
L 1269 4134 
L 1269 2991 
Q 1406 3038 1543 3061 
Q 1681 3084 1819 3084 
Q 2600 3084 3056 2656 
Q 3513 2228 3513 1497 
Q 3513 744 3044 326 
Q 2575 -91 1722 -91 
Q 1428 -91 1123 -41 
Q 819 9 494 109 
L 494 744 
Q 775 591 1075 516 
Q 1375 441 1709 441 
Q 2250 441 2565 725 
Q 2881 1009 2881 1497 
Q 2881 1984 2565 2268 
Q 2250 2553 1709 2553 
Q 1456 2553 1204 2497 
Q 953 2441 691 2322 
L 691 4666 
z
" transform="scale(0.015625)"/>
       </defs>
       <use xlink:href="#DejaVuSans-35"/>
      </g>
     </g>
    </g>
    <g id="xtick_3">
     <g id="line2d_3">
      <g>
       <use xlink:href="#mbd5a02d3f9" x="173.260684" y="307.584" style="stroke: #000000; stroke-width: 0.8"/>
      </g>
     </g>
     <g id="text_3">
      <!-- 10 -->
      <g transform="translate(166.898184 322.182437)scale(0.1 -0.1)">
       <defs>
        <path id="DejaVuSans-31" d="M 794 531 
L 1825 531 
L 1825 4091 
L 703 3866 
L 703 4441 
L 1819 4666 
L 2450 4666 
L 2450 531 
L 3481 531 
L 3481 0 
L 794 0 
L 794 531 
z
" transform="scale(0.015625)"/>
       </defs>
       <use xlink:href="#DejaVuSans-31"/>
       <use xlink:href="#DejaVuSans-30" x="63.623047"/>
      </g>
     </g>
    </g>
    <g id="xtick_4">
     <g id="line2d_4">
      <g>
       <use xlink:href="#mbd5a02d3f9" x="223.299917" y="307.584" style="stroke: #000000; stroke-width: 0.8"/>
      </g>
     </g>
     <g id="text_4">
      <!-- 15 -->
      <g transform="translate(216.937417 322.182437)scale(0.1 -0.1)">
       <use xlink:href="#DejaVuSans-31"/>
       <use xlink:href="#DejaVuSans-35" x="63.623047"/>
      </g>
     </g>
    </g>
    <g id="xtick_5">
     <g id="line2d_5">
      <g>
       <use xlink:href="#mbd5a02d3f9" x="273.33915" y="307.584" style="stroke: #000000; stroke-width: 0.8"/>
      </g>
     </g>
     <g id="text_5">
      <!-- 20 -->
      <g transform="translate(266.97665 322.182437)scale(0.1 -0.1)">
       <defs>
        <path id="DejaVuSans-32" d="M 1228 531 
L 3431 531 
L 3431 0 
L 469 0 
L 469 531 
Q 828 903 1448 1529 
Q 2069 2156 2228 2338 
Q 2531 2678 2651 2914 
Q 2772 3150 2772 3378 
Q 2772 3750 2511 3984 
Q 2250 4219 1831 4219 
Q 1534 4219 1204 4116 
Q 875 4013 500 3803 
L 500 4441 
Q 881 4594 1212 4672 
Q 1544 4750 1819 4750 
Q 2544 4750 2975 4387 
Q 3406 4025 3406 3419 
Q 3406 3131 3298 2873 
Q 3191 2616 2906 2266 
Q 2828 2175 2409 1742 
Q 1991 1309 1228 531 
z
" transform="scale(0.015625)"/>
       </defs>
       <use xlink:href="#DejaVuSans-32"/>
       <use xlink:href="#DejaVuSans-30" x="63.623047"/>
      </g>
     </g>
    </g>
    <g id="xtick_6">
     <g id="line2d_6">
      <g>
       <use xlink:href="#mbd5a02d3f9" x="323.378384" y="307.584" style="stroke: #000000; stroke-width: 0.8"/>
      </g>
     </g>
     <g id="text_6">
      <!-- 25 -->
      <g transform="translate(317.015884 322.182437)scale(0.1 -0.1)">
       <use xlink:href="#DejaVuSans-32"/>
       <use xlink:href="#DejaVuSans-35" x="63.623047"/>
      </g>
     </g>
    </g>
    <g id="xtick_7">
     <g id="line2d_7">
      <g>
       <use xlink:href="#mbd5a02d3f9" x="373.417617" y="307.584" style="stroke: #000000; stroke-width: 0.8"/>
      </g>
     </g>
     <g id="text_7">
      <!-- 30 -->
      <g transform="translate(367.055117 322.182437)scale(0.1 -0.1)">
       <defs>
        <path id="DejaVuSans-33" d="M 2597 2516 
Q 3050 2419 3304 2112 
Q 3559 1806 3559 1356 
Q 3559 666 3084 287 
Q 2609 -91 1734 -91 
Q 1441 -91 1130 -33 
Q 819 25 488 141 
L 488 750 
Q 750 597 1062 519 
Q 1375 441 1716 441 
Q 2309 441 2620 675 
Q 2931 909 2931 1356 
Q 2931 1769 2642 2001 
Q 2353 2234 1838 2234 
L 1294 2234 
L 1294 2753 
L 1863 2753 
Q 2328 2753 2575 2939 
Q 2822 3125 2822 3475 
Q 2822 3834 2567 4026 
Q 2313 4219 1838 4219 
Q 1578 4219 1281 4162 
Q 984 4106 628 3988 
L 628 4550 
Q 988 4650 1302 4700 
Q 1616 4750 1894 4750 
Q 2613 4750 3031 4423 
Q 3450 4097 3450 3541 
Q 3450 3153 3228 2886 
Q 3006 2619 2597 2516 
z
" transform="scale(0.015625)"/>
       </defs>
       <use xlink:href="#DejaVuSans-33"/>
       <use xlink:href="#DejaVuSans-30" x="63.623047"/>
      </g>
     </g>
    </g>
   </g>
   <g id="matplotlib.axis_2">
    <g id="ytick_1">
     <g id="line2d_8">
      <defs>
       <path id="mbd983db4cf" d="M 0 0 
L -3.5 0 
" style="stroke: #000000; stroke-width: 0.8"/>
      </defs>
      <g>
       <use xlink:href="#mbd983db4cf" x="57.6" y="289.819342" style="stroke: #000000; stroke-width: 0.8"/>
      </g>
     </g>
     <g id="text_8">
      <!-- 2.6 -->
      <g transform="translate(34.696875 293.618561)scale(0.1 -0.1)">
       <defs>
        <path id="DejaVuSans-2e" d="M 684 794 
L 1344 794 
L 1344 0 
L 684 0 
L 684 794 
z
" transform="scale(0.015625)"/>
        <path id="DejaVuSans-36" d="M 2113 2584 
Q 1688 2584 1439 2293 
Q 1191 2003 1191 1497 
Q 1191 994 1439 701 
Q 1688 409 2113 409 
Q 2538 409 2786 701 
Q 3034 994 3034 1497 
Q 3034 2003 2786 2293 
Q 2538 2584 2113 2584 
z
M 3366 4563 
L 3366 3988 
Q 3128 4100 2886 4159 
Q 2644 4219 2406 4219 
Q 1781 4219 1451 3797 
Q 1122 3375 1075 2522 
Q 1259 2794 1537 2939 
Q 1816 3084 2150 3084 
Q 2853 3084 3261 2657 
Q 3669 2231 3669 1497 
Q 3669 778 3244 343 
Q 2819 -91 2113 -91 
Q 1303 -91 875 529 
Q 447 1150 447 2328 
Q 447 3434 972 4092 
Q 1497 4750 2381 4750 
Q 2619 4750 2861 4703 
Q 3103 4656 3366 4563 
z
" transform="scale(0.015625)"/>
       </defs>
       <use xlink:href="#DejaVuSans-32"/>
       <use xlink:href="#DejaVuSans-2e" x="63.623047"/>
       <use xlink:href="#DejaVuSans-36" x="95.410156"/>
      </g>
     </g>
    </g>
    <g id="ytick_2">
     <g id="line2d_9">
      <g>
       <use xlink:href="#mbd983db4cf" x="57.6" y="231.243209" style="stroke: #000000; stroke-width: 0.8"/>
      </g>
     </g>
     <g id="text_9">
      <!-- 2.8 -->
      <g transform="translate(34.696875 235.042428)scale(0.1 -0.1)">
       <defs>
        <path id="DejaVuSans-38" d="M 2034 2216 
Q 1584 2216 1326 1975 
Q 1069 1734 1069 1313 
Q 1069 891 1326 650 
Q 1584 409 2034 409 
Q 2484 409 2743 651 
Q 3003 894 3003 1313 
Q 3003 1734 2745 1975 
Q 2488 2216 2034 2216 
z
M 1403 2484 
Q 997 2584 770 2862 
Q 544 3141 544 3541 
Q 544 4100 942 4425 
Q 1341 4750 2034 4750 
Q 2731 4750 3128 4425 
Q 3525 4100 3525 3541 
Q 3525 3141 3298 2862 
Q 3072 2584 2669 2484 
Q 3125 2378 3379 2068 
Q 3634 1759 3634 1313 
Q 3634 634 3220 271 
Q 2806 -91 2034 -91 
Q 1263 -91 848 271 
Q 434 634 434 1313 
Q 434 1759 690 2068 
Q 947 2378 1403 2484 
z
M 1172 3481 
Q 1172 3119 1398 2916 
Q 1625 2713 2034 2713 
Q 2441 2713 2670 2916 
Q 2900 3119 2900 3481 
Q 2900 3844 2670 4047 
Q 2441 4250 2034 4250 
Q 1625 4250 1398 4047 
Q 1172 3844 1172 3481 
z
" transform="scale(0.015625)"/>
       </defs>
       <use xlink:href="#DejaVuSans-32"/>
       <use xlink:href="#DejaVuSans-2e" x="63.623047"/>
       <use xlink:href="#DejaVuSans-38" x="95.410156"/>
      </g>
     </g>
    </g>
    <g id="ytick_3">
     <g id="line2d_10">
      <g>
       <use xlink:href="#mbd983db4cf" x="57.6" y="172.667077" style="stroke: #000000; stroke-width: 0.8"/>
      </g>
     </g>
     <g id="text_10">
      <!-- 3.0 -->
      <g transform="translate(34.696875 176.466296)scale(0.1 -0.1)">
       <use xlink:href="#DejaVuSans-33"/>
       <use xlink:href="#DejaVuSans-2e" x="63.623047"/>
       <use xlink:href="#DejaVuSans-30" x="95.410156"/>
      </g>
     </g>
    </g>
    <g id="ytick_4">
     <g id="line2d_11">
      <g>
       <use xlink:href="#mbd983db4cf" x="57.6" y="114.090944" style="stroke: #000000; stroke-width: 0.8"/>
      </g>
     </g>
     <g id="text_11">
      <!-- 3.2 -->
      <g transform="translate(34.696875 117.890163)scale(0.1 -0.1)">
       <use xlink:href="#DejaVuSans-33"/>
       <use xlink:href="#DejaVuSans-2e" x="63.623047"/>
       <use xlink:href="#DejaVuSans-32" x="95.410156"/>
      </g>
     </g>
    </g>
    <g id="ytick_5">
     <g id="line2d_12">
      <g>
       <use xlink:href="#mbd983db4cf" x="57.6" y="55.514812" style="stroke: #000000; stroke-width: 0.8"/>
      </g>
     </g>
     <g id="text_12">
      <!-- 3.4 -->
      <g transform="translate(34.696875 59.314031)scale(0.1 -0.1)">
       <defs>
        <path id="DejaVuSans-34" d="M 2419 4116 
L 825 1625 
L 2419 1625 
L 2419 4116 
z
M 2253 4666 
L 3047 4666 
L 3047 1625 
L 3713 1625 
L 3713 1100 
L 3047 1100 
L 3047 0 
L 2419 0 
L 2419 1100 
L 313 1100 
L 313 1709 
L 2253 4666 
z
" transform="scale(0.015625)"/>
       </defs>
       <use xlink:href="#DejaVuSans-33"/>
       <use xlink:href="#DejaVuSans-2e" x="63.623047"/>
       <use xlink:href="#DejaVuSans-34" x="95.410156"/>
      </g>
     </g>
    </g>
   </g>
   <g id="line2d_13">
    <path d="M 73.832727 136.593799 
L 74.42319 135.16232 
L 75.013653 130.867882 
L 75.604116 135.16232 
L 76.194579 133.73084 
L 76.775034 133.73084 
L 77.215379 132.299361 
L 77.805842 135.16232 
L 78.406313 135.16232 
L 78.986768 130.867882 
L 79.587239 138.025278 
L 80.027584 130.867882 
L 80.608039 128.004923 
L 81.188495 135.16232 
L 81.788965 130.867882 
L 82.399444 129.436402 
L 83.009923 129.436402 
L 83.600386 130.867882 
L 84.190849 142.319716 
L 84.791319 133.73084 
L 85.381782 130.867882 
L 85.972245 129.436402 
L 86.572716 133.73084 
L 87.163179 135.16232 
L 87.773658 128.004923 
L 88.364121 135.16232 
L 88.954584 126.573444 
L 89.555054 128.004923 
L 90.175541 120.847527 
L 90.776012 116.553089 
L 91.366475 120.847527 
L 91.956938 113.69013 
L 92.567416 110.827172 
L 93.157879 116.553089 
L 93.748342 116.553089 
L 94.338805 117.984568 
L 94.939276 120.847527 
L 95.539747 122.279006 
L 96.13021 117.984568 
L 96.73068 117.984568 
L 97.321143 115.121609 
L 97.951638 117.984568 
L 98.542101 116.553089 
L 99.132564 110.827172 
L 99.733034 102.238296 
L 100.323497 99.375337 
L 100.91396 86.492024 
L 101.514431 76.471669 
L 102.104894 69.314272 
L 102.705365 63.588355 
L 103.295828 59.293917 
L 103.886291 56.430959 
L 104.486762 60.725396 
L 105.077225 66.451314 
L 105.717727 67.882793 
L 106.007954 53.568 
L 106.30819 75.040189 
L 106.898653 77.903148 
L 107.489116 83.629065 
L 108.079579 87.923503 
L 108.680049 95.080899 
L 109.270512 92.217941 
L 109.860975 72.177231 
L 110.471454 66.451314 
L 111.061917 76.471669 
L 111.662388 80.766107 
L 112.252851 92.217941 
L 113.473808 119.416047 
L 114.064271 117.984568 
L 114.664742 122.279006 
L 115.255205 135.16232 
L 115.845668 132.299361 
L 116.446138 132.299361 
L 117.036601 139.456757 
L 118.237543 212.462201 
L 118.828006 195.28445 
L 119.428477 146.614154 
L 120.028947 123.710485 
L 120.659442 140.888237 
L 121.249905 133.73084 
L 122.040525 133.73084 
L 123.231458 136.593799 
L 123.821921 135.16232 
L 124.4324 128.004923 
L 125.022863 130.867882 
L 125.623334 123.710485 
L 126.223805 136.593799 
L 126.814267 138.025278 
L 127.414738 135.16232 
L 128.005201 126.573444 
L 128.775805 128.004923 
L 129.226159 132.299361 
L 129.806614 143.751195 
L 130.407084 140.888237 
L 131.578002 143.751195 
L 132.168465 152.340071 
L 132.618819 145.182675 
L 133.789737 165.223385 
L 134.390207 209.599243 
L 134.970662 235.36587 
L 135.571133 158.065988 
L 136.181612 156.634509 
L 136.762067 159.497467 
L 137.362538 158.065988 
L 137.953001 175.24374 
L 138.553472 153.77155 
L 138.993817 156.634509 
L 139.574272 149.477112 
L 140.164735 155.20303 
L 140.755198 149.477112 
L 141.345661 145.182675 
L 141.946132 138.025278 
L 142.536595 133.73084 
L 142.97694 128.004923 
L 143.747544 135.16232 
L 144.338007 135.16232 
L 144.938478 128.004923 
L 146.119404 130.867882 
L 146.719874 130.867882 
L 147.320345 140.888237 
L 147.920816 140.888237 
L 148.511279 153.77155 
L 148.951624 158.065988 
L 149.542087 158.065988 
L 150.883139 295.488 
L 152.104096 190.990012 
L 152.704567 172.380781 
L 153.29503 160.928947 
L 153.895501 165.223385 
L 154.485963 162.360426 
L 155.076426 143.751195 
L 156.277368 115.121609 
L 156.887847 122.279006 
L 157.47831 123.710485 
L 158.068773 126.573444 
L 158.509118 120.847527 
L 159.279722 126.573444 
L 159.880193 125.141964 
L 160.470656 139.456757 
L 161.071127 138.025278 
L 161.671597 133.73084 
L 161.961825 115.121609 
L 162.26206 149.477112 
L 162.862531 146.614154 
L 163.452994 156.634509 
L 164.043457 158.065988 
L 165.084273 169.517822 
L 166.255191 225.345515 
L 167.035803 179.538178 
L 167.476148 169.517822 
L 169.267553 140.888237 
L 169.858016 120.847527 
L 171.058958 93.64942 
L 171.64942 97.943858 
L 172.229876 86.492024 
L 172.830346 83.629065 
L 173.420809 82.197586 
L 174.031288 82.197586 
L 174.601735 76.471669 
L 175.202206 83.629065 
L 175.802677 83.629065 
L 176.243022 90.786462 
L 176.993611 92.217941 
L 177.584074 95.080899 
L 178.62489 112.258651 
L 179.22536 120.847527 
L 179.985957 109.395692 
L 180.426302 116.553089 
L 181.196906 125.141964 
L 181.797377 120.847527 
L 182.38784 126.573444 
L 182.988311 128.004923 
L 183.578774 125.141964 
L 184.179244 126.573444 
L 184.789723 120.847527 
L 185.380186 123.710485 
L 185.980657 128.004923 
L 186.57112 125.141964 
L 187.161583 129.436402 
L 187.762054 129.436402 
L 188.38254 130.867882 
L 189.573474 122.279006 
L 190.163937 126.573444 
L 190.7544 125.141964 
L 191.344863 120.847527 
L 191.935326 117.984568 
L 192.385679 120.847527 
L 193.116252 115.121609 
L 193.566605 117.984568 
L 194.157068 120.847527 
L 194.747531 120.847527 
L 195.337993 122.279006 
L 196.518919 117.984568 
L 197.930026 125.141964 
L 199.12096 123.710485 
L 200.311893 126.573444 
L 201.492819 126.573444 
L 202.51362 122.279006 
L 203.39431 99.375337 
L 203.914718 125.141964 
L 205.105652 125.141964 
L 206.296586 120.847527 
L 207.497527 123.710485 
L 208.868602 123.710485 
L 209.89941 126.573444 
L 211.290501 122.279006 
L 212.481435 125.141964 
L 213.85251 123.710485 
L 215.053451 122.279006 
L 216.244385 128.004923 
L 217.265186 123.710485 
L 218.626253 126.573444 
L 218.996543 115.121609 
L 219.857218 126.573444 
L 221.218285 132.299361 
L 223.61016 126.573444 
L 224.811102 132.299361 
L 226.002036 129.436402 
L 227.393126 130.867882 
L 228.413927 128.004923 
L 229.104468 100.806817 
L 229.785002 130.867882 
L 230.975935 125.141964 
L 231.996736 119.416047 
L 233.367811 120.847527 
L 234.388611 128.004923 
L 235.959843 126.573444 
L 236.470243 102.238296 
L 237.160785 129.436402 
L 238.351718 128.004923 
L 238.862119 105.101254 
L 239.372519 128.004923 
L 240.583468 125.141964 
L 241.944535 130.867882 
L 244.52656 130.867882 
L 245.737509 126.573444 
L 246.918435 132.299361 
L 248.119377 132.299361 
L 249.310311 128.004923 
L 250.000852 102.238296 
L 250.511252 130.867882 
L 250.881542 128.004923 
L 251.892335 126.573444 
L 252.402735 102.238296 
L 253.083269 123.710485 
L 254.094061 129.436402 
L 255.284995 132.299361 
L 256.295787 126.573444 
L 258.677655 126.573444 
L 259.668432 133.73084 
L 260.849358 128.004923 
L 261.870158 133.73084 
L 263.061092 128.004923 
L 264.242018 128.004923 
L 265.432951 122.279006 
L 266.453752 122.279006 
L 268.014976 128.004923 
L 269.035776 122.279006 
L 270.22671 123.710485 
L 271.597785 126.573444 
L 272.628593 125.141964 
L 273.309127 99.375337 
L 273.819527 126.573444 
L 275.210618 122.279006 
L 276.401551 120.847527 
L 277.602493 129.436402 
L 278.96356 123.710485 
L 279.483968 103.669775 
L 279.994368 122.279006 
L 281.19531 129.436402 
L 282.586401 132.299361 
L 283.957476 126.573444 
L 284.688048 103.669775 
L 285.358574 125.141964 
L 286.559516 129.436402 
L 289.131532 129.436402 
L 290.162341 130.867882 
L 291.553431 125.141964 
L 292.754373 132.299361 
L 294.11544 129.436402 
L 295.306374 132.299361 
L 296.327174 133.73084 
L 297.688241 128.004923 
L 298.38879 106.532734 
L 299.099348 128.004923 
L 300.280274 133.73084 
L 301.481215 132.299361 
L 302.672149 128.004923 
L 303.883098 130.867882 
L 305.074032 130.867882 
L 306.264966 132.299361 
L 306.635256 115.121609 
L 307.485923 133.73084 
L 308.856998 139.456757 
L 310.047932 129.436402 
L 311.248873 128.004923 
L 311.939415 97.943858 
L 312.439807 128.004923 
L 313.640749 125.141964 
L 315.031839 128.004923 
L 316.042632 122.279006 
L 317.403699 129.436402 
L 318.424499 132.299361 
L 319.615433 126.573444 
L 320.125833 103.669775 
L 320.796359 129.436402 
L 321.977285 126.573444 
L 322.597772 128.004923 
L 323.778697 132.299361 
L 324.969631 128.004923 
L 325.990432 128.004923 
L 327.171357 130.867882 
L 327.691765 109.395692 
L 328.362291 132.299361 
L 329.393099 125.141964 
L 330.063625 102.238296 
L 330.774182 129.436402 
L 332.135249 125.141964 
L 333.336191 123.710485 
L 333.846591 106.532734 
L 334.356991 132.299361 
L 335.728066 133.73084 
L 336.248474 105.101254 
L 336.929008 130.867882 
L 338.119942 126.573444 
L 339.511032 132.299361 
L 340.721982 128.004923 
L 341.912916 129.436402 
L 343.113857 132.299361 
L 345.505733 129.436402 
L 346.516525 129.436402 
L 347.877592 130.867882 
L 348.898393 130.867882 
L 350.25946 126.573444 
L 351.460401 128.004923 
L 352.661343 128.004923 
L 353.852277 126.573444 
L 354.3927 103.669775 
L 355.073234 128.004923 
L 356.444309 126.573444 
L 357.645251 125.141964 
L 358.826176 138.025278 
L 360.027118 129.436402 
L 361.22806 132.299361 
L 362.24886 133.73084 
L 362.61915 126.573444 
L 363.820092 128.004923 
L 364.330492 100.806817 
L 365.011026 135.16232 
L 366.221975 128.004923 
L 367.583042 129.436402 
L 368.603843 138.025278 
L 369.984925 126.573444 
L 371.195875 125.141964 
L 373.547719 120.847527 
L 374.568519 128.004923 
L 375.769461 128.004923 
L 376.970402 129.436402 
L 378.351485 125.141964 
L 379.382293 120.847527 
L 380.753368 129.436402 
L 381.944302 128.004923 
L 383.135236 123.710485 
L 384.32617 123.710485 
L 385.507096 122.279006 
L 386.527896 129.436402 
L 387.038296 93.64942 
L 387.918987 129.436402 
L 389.099913 122.279006 
L 390.290846 123.710485 
L 391.311647 125.141964 
L 392.492573 122.279006 
L 393.693514 125.141964 
L 394.87444 122.279006 
L 396.095397 123.710485 
L 397.466472 122.279006 
L 398.487273 123.710485 
L 398.487273 123.710485 
" clip-path="url(#p79f7027ab9)" style="fill: none; stroke: #1f77b4; stroke-width: 1.5; stroke-linecap: square"/>
   </g>
   <g id="patch_3">
    <path d="M 57.6 307.584 
L 57.6 41.472 
" style="fill: none; stroke: #000000; stroke-width: 0.8; stroke-linejoin: miter; stroke-linecap: square"/>
   </g>
   <g id="patch_4">
    <path d="M 414.72 307.584 
L 414.72 41.472 
" style="fill: none; stroke: #000000; stroke-width: 0.8; stroke-linejoin: miter; stroke-linecap: square"/>
   </g>
   <g id="patch_5">
    <path d="M 57.6 307.584 
L 414.72 307.584 
" style="fill: none; stroke: #000000; stroke-width: 0.8; stroke-linejoin: miter; stroke-linecap: square"/>
   </g>
   <g id="patch_6">
    <path d="M 57.6 41.472 
L 414.72 41.472 
" style="fill: none; stroke: #000000; stroke-width: 0.8; stroke-linejoin: miter; stroke-linecap: square"/>
   </g>
  </g>
 </g>
 <defs>
  <clipPath id="p79f7027ab9">
   <rect x="57.6" y="41.472" width="357.12" height="266.112"/>
  </clipPath>
 </defs>
</svg>
