<?xml version="1.0" encoding="utf-8" standalone="no"?>
<!DOCTYPE svg PUBLIC "-//W3C//DTD SVG 1.1//EN"
  "http://www.w3.org/Graphics/SVG/1.1/DTD/svg11.dtd">
<svg xmlns:xlink="http://www.w3.org/1999/xlink" width="720pt" height="360pt" viewBox="0 0 720 360" xmlns="http://www.w3.org/2000/svg" version="1.1">
 <metadata>
  <rdf:RDF xmlns:dc="http://purl.org/dc/elements/1.1/" xmlns:cc="http://creativecommons.org/ns#" xmlns:rdf="http://www.w3.org/1999/02/22-rdf-syntax-ns#">
   <cc:Work>
    <dc:type rdf:resource="http://purl.org/dc/dcmitype/StillImage"/>
    <dc:date>2022-10-03T10:34:40.415054</dc:date>
    <dc:format>image/svg+xml</dc:format>
    <dc:creator>
     <cc:Agent>
      <dc:title>Matplotlib v3.5.3, https://matplotlib.org/</dc:title>
     </cc:Agent>
    </dc:creator>
   </cc:Work>
  </rdf:RDF>
 </metadata>
 <defs>
  <style type="text/css">*{stroke-linejoin: round; stroke-linecap: butt}</style>
 </defs>
 <g id="figure_1">
  <g id="patch_1">
   <path d="M 0 360 
L 720 360 
L 720 0 
L 0 0 
z
" style="fill: #ffffff"/>
  </g>
  <g id="axes_1">
   <g id="patch_2">
    <path d="M 90 320.4 
L 648 320.4 
L 648 43.2 
L 90 43.2 
z
" style="fill: #ffffff"/>
   </g>
   <g id="matplotlib.axis_1">
    <g id="xtick_1">
     <g id="line2d_1">
      <defs>
       <path id="m3dd43ecab6" d="M 0 0 
L 0 3.5 
" style="stroke: #000000; stroke-width: 0.8"/>
      </defs>
      <g>
       <use xlink:href="#m3dd43ecab6" x="145.062596" y="320.4" style="stroke: #000000; stroke-width: 0.8"/>
      </g>
     </g>
     <g id="text_1">
      <!-- 5 -->
      <g transform="translate(141.881346 334.998438)scale(0.1 -0.1)">
       <defs>
        <path id="DejaVuSans-35" d="M 691 4666 
L 3169 4666 
L 3169 4134 
L 1269 4134 
L 1269 2991 
Q 1406 3038 1543 3061 
Q 1681 3084 1819 3084 
Q 2600 3084 3056 2656 
Q 3513 2228 3513 1497 
Q 3513 744 3044 326 
Q 2575 -91 1722 -91 
Q 1428 -91 1123 -41 
Q 819 9 494 109 
L 494 744 
Q 775 591 1075 516 
Q 1375 441 1709 441 
Q 2250 441 2565 725 
Q 2881 1009 2881 1497 
Q 2881 1984 2565 2268 
Q 2250 2553 1709 2553 
Q 1456 2553 1204 2497 
Q 953 2441 691 2322 
L 691 4666 
z
" transform="scale(0.015625)"/>
       </defs>
       <use xlink:href="#DejaVuSans-35"/>
      </g>
     </g>
    </g>
    <g id="xtick_2">
     <g id="line2d_2">
      <g>
       <use xlink:href="#m3dd43ecab6" x="223.345424" y="320.4" style="stroke: #000000; stroke-width: 0.8"/>
      </g>
     </g>
     <g id="text_2">
      <!-- 10 -->
      <g transform="translate(216.982924 334.998438)scale(0.1 -0.1)">
       <defs>
        <path id="DejaVuSans-31" d="M 794 531 
L 1825 531 
L 1825 4091 
L 703 3866 
L 703 4441 
L 1819 4666 
L 2450 4666 
L 2450 531 
L 3481 531 
L 3481 0 
L 794 0 
L 794 531 
z
" transform="scale(0.015625)"/>
        <path id="DejaVuSans-30" d="M 2034 4250 
Q 1547 4250 1301 3770 
Q 1056 3291 1056 2328 
Q 1056 1369 1301 889 
Q 1547 409 2034 409 
Q 2525 409 2770 889 
Q 3016 1369 3016 2328 
Q 3016 3291 2770 3770 
Q 2525 4250 2034 4250 
z
M 2034 4750 
Q 2819 4750 3233 4129 
Q 3647 3509 3647 2328 
Q 3647 1150 3233 529 
Q 2819 -91 2034 -91 
Q 1250 -91 836 529 
Q 422 1150 422 2328 
Q 422 3509 836 4129 
Q 1250 4750 2034 4750 
z
" transform="scale(0.015625)"/>
       </defs>
       <use xlink:href="#DejaVuSans-31"/>
       <use xlink:href="#DejaVuSans-30" x="63.623047"/>
      </g>
     </g>
    </g>
    <g id="xtick_3">
     <g id="line2d_3">
      <g>
       <use xlink:href="#m3dd43ecab6" x="301.628252" y="320.4" style="stroke: #000000; stroke-width: 0.8"/>
      </g>
     </g>
     <g id="text_3">
      <!-- 15 -->
      <g transform="translate(295.265752 334.998438)scale(0.1 -0.1)">
       <use xlink:href="#DejaVuSans-31"/>
       <use xlink:href="#DejaVuSans-35" x="63.623047"/>
      </g>
     </g>
    </g>
    <g id="xtick_4">
     <g id="line2d_4">
      <g>
       <use xlink:href="#m3dd43ecab6" x="379.911081" y="320.4" style="stroke: #000000; stroke-width: 0.8"/>
      </g>
     </g>
     <g id="text_4">
      <!-- 20 -->
      <g transform="translate(373.548581 334.998438)scale(0.1 -0.1)">
       <defs>
        <path id="DejaVuSans-32" d="M 1228 531 
L 3431 531 
L 3431 0 
L 469 0 
L 469 531 
Q 828 903 1448 1529 
Q 2069 2156 2228 2338 
Q 2531 2678 2651 2914 
Q 2772 3150 2772 3378 
Q 2772 3750 2511 3984 
Q 2250 4219 1831 4219 
Q 1534 4219 1204 4116 
Q 875 4013 500 3803 
L 500 4441 
Q 881 4594 1212 4672 
Q 1544 4750 1819 4750 
Q 2544 4750 2975 4387 
Q 3406 4025 3406 3419 
Q 3406 3131 3298 2873 
Q 3191 2616 2906 2266 
Q 2828 2175 2409 1742 
Q 1991 1309 1228 531 
z
" transform="scale(0.015625)"/>
       </defs>
       <use xlink:href="#DejaVuSans-32"/>
       <use xlink:href="#DejaVuSans-30" x="63.623047"/>
      </g>
     </g>
    </g>
    <g id="xtick_5">
     <g id="line2d_5">
      <g>
       <use xlink:href="#m3dd43ecab6" x="458.193909" y="320.4" style="stroke: #000000; stroke-width: 0.8"/>
      </g>
     </g>
     <g id="text_5">
      <!-- 25 -->
      <g transform="translate(451.831409 334.998438)scale(0.1 -0.1)">
       <use xlink:href="#DejaVuSans-32"/>
       <use xlink:href="#DejaVuSans-35" x="63.623047"/>
      </g>
     </g>
    </g>
    <g id="xtick_6">
     <g id="line2d_6">
      <g>
       <use xlink:href="#m3dd43ecab6" x="536.476737" y="320.4" style="stroke: #000000; stroke-width: 0.8"/>
      </g>
     </g>
     <g id="text_6">
      <!-- 30 -->
      <g transform="translate(530.114237 334.998438)scale(0.1 -0.1)">
       <defs>
        <path id="DejaVuSans-33" d="M 2597 2516 
Q 3050 2419 3304 2112 
Q 3559 1806 3559 1356 
Q 3559 666 3084 287 
Q 2609 -91 1734 -91 
Q 1441 -91 1130 -33 
Q 819 25 488 141 
L 488 750 
Q 750 597 1062 519 
Q 1375 441 1716 441 
Q 2309 441 2620 675 
Q 2931 909 2931 1356 
Q 2931 1769 2642 2001 
Q 2353 2234 1838 2234 
L 1294 2234 
L 1294 2753 
L 1863 2753 
Q 2328 2753 2575 2939 
Q 2822 3125 2822 3475 
Q 2822 3834 2567 4026 
Q 2313 4219 1838 4219 
Q 1578 4219 1281 4162 
Q 984 4106 628 3988 
L 628 4550 
Q 988 4650 1302 4700 
Q 1616 4750 1894 4750 
Q 2613 4750 3031 4423 
Q 3450 4097 3450 3541 
Q 3450 3153 3228 2886 
Q 3006 2619 2597 2516 
z
" transform="scale(0.015625)"/>
       </defs>
       <use xlink:href="#DejaVuSans-33"/>
       <use xlink:href="#DejaVuSans-30" x="63.623047"/>
      </g>
     </g>
    </g>
    <g id="xtick_7">
     <g id="line2d_7">
      <g>
       <use xlink:href="#m3dd43ecab6" x="614.759565" y="320.4" style="stroke: #000000; stroke-width: 0.8"/>
      </g>
     </g>
     <g id="text_7">
      <!-- 35 -->
      <g transform="translate(608.397065 334.998438)scale(0.1 -0.1)">
       <use xlink:href="#DejaVuSans-33"/>
       <use xlink:href="#DejaVuSans-35" x="63.623047"/>
      </g>
     </g>
    </g>
    <g id="text_8">
     <!-- Time(s) -->
     <g transform="translate(350.260156 348.676562)scale(0.1 -0.1)">
      <defs>
       <path id="DejaVuSans-54" d="M -19 4666 
L 3928 4666 
L 3928 4134 
L 2272 4134 
L 2272 0 
L 1638 0 
L 1638 4134 
L -19 4134 
L -19 4666 
z
" transform="scale(0.015625)"/>
       <path id="DejaVuSans-69" d="M 603 3500 
L 1178 3500 
L 1178 0 
L 603 0 
L 603 3500 
z
M 603 4863 
L 1178 4863 
L 1178 4134 
L 603 4134 
L 603 4863 
z
" transform="scale(0.015625)"/>
       <path id="DejaVuSans-6d" d="M 3328 2828 
Q 3544 3216 3844 3400 
Q 4144 3584 4550 3584 
Q 5097 3584 5394 3201 
Q 5691 2819 5691 2113 
L 5691 0 
L 5113 0 
L 5113 2094 
Q 5113 2597 4934 2840 
Q 4756 3084 4391 3084 
Q 3944 3084 3684 2787 
Q 3425 2491 3425 1978 
L 3425 0 
L 2847 0 
L 2847 2094 
Q 2847 2600 2669 2842 
Q 2491 3084 2119 3084 
Q 1678 3084 1418 2786 
Q 1159 2488 1159 1978 
L 1159 0 
L 581 0 
L 581 3500 
L 1159 3500 
L 1159 2956 
Q 1356 3278 1631 3431 
Q 1906 3584 2284 3584 
Q 2666 3584 2933 3390 
Q 3200 3197 3328 2828 
z
" transform="scale(0.015625)"/>
       <path id="DejaVuSans-65" d="M 3597 1894 
L 3597 1613 
L 953 1613 
Q 991 1019 1311 708 
Q 1631 397 2203 397 
Q 2534 397 2845 478 
Q 3156 559 3463 722 
L 3463 178 
Q 3153 47 2828 -22 
Q 2503 -91 2169 -91 
Q 1331 -91 842 396 
Q 353 884 353 1716 
Q 353 2575 817 3079 
Q 1281 3584 2069 3584 
Q 2775 3584 3186 3129 
Q 3597 2675 3597 1894 
z
M 3022 2063 
Q 3016 2534 2758 2815 
Q 2500 3097 2075 3097 
Q 1594 3097 1305 2825 
Q 1016 2553 972 2059 
L 3022 2063 
z
" transform="scale(0.015625)"/>
       <path id="DejaVuSans-28" d="M 1984 4856 
Q 1566 4138 1362 3434 
Q 1159 2731 1159 2009 
Q 1159 1288 1364 580 
Q 1569 -128 1984 -844 
L 1484 -844 
Q 1016 -109 783 600 
Q 550 1309 550 2009 
Q 550 2706 781 3412 
Q 1013 4119 1484 4856 
L 1984 4856 
z
" transform="scale(0.015625)"/>
       <path id="DejaVuSans-73" d="M 2834 3397 
L 2834 2853 
Q 2591 2978 2328 3040 
Q 2066 3103 1784 3103 
Q 1356 3103 1142 2972 
Q 928 2841 928 2578 
Q 928 2378 1081 2264 
Q 1234 2150 1697 2047 
L 1894 2003 
Q 2506 1872 2764 1633 
Q 3022 1394 3022 966 
Q 3022 478 2636 193 
Q 2250 -91 1575 -91 
Q 1294 -91 989 -36 
Q 684 19 347 128 
L 347 722 
Q 666 556 975 473 
Q 1284 391 1588 391 
Q 1994 391 2212 530 
Q 2431 669 2431 922 
Q 2431 1156 2273 1281 
Q 2116 1406 1581 1522 
L 1381 1569 
Q 847 1681 609 1914 
Q 372 2147 372 2553 
Q 372 3047 722 3315 
Q 1072 3584 1716 3584 
Q 2034 3584 2315 3537 
Q 2597 3491 2834 3397 
z
" transform="scale(0.015625)"/>
       <path id="DejaVuSans-29" d="M 513 4856 
L 1013 4856 
Q 1481 4119 1714 3412 
Q 1947 2706 1947 2009 
Q 1947 1309 1714 600 
Q 1481 -109 1013 -844 
L 513 -844 
Q 928 -128 1133 580 
Q 1338 1288 1338 2009 
Q 1338 2731 1133 3434 
Q 928 4138 513 4856 
z
" transform="scale(0.015625)"/>
      </defs>
      <use xlink:href="#DejaVuSans-54"/>
      <use xlink:href="#DejaVuSans-69" x="57.958984"/>
      <use xlink:href="#DejaVuSans-6d" x="85.742188"/>
      <use xlink:href="#DejaVuSans-65" x="183.154297"/>
      <use xlink:href="#DejaVuSans-28" x="244.677734"/>
      <use xlink:href="#DejaVuSans-73" x="283.691406"/>
      <use xlink:href="#DejaVuSans-29" x="335.791016"/>
     </g>
    </g>
   </g>
   <g id="matplotlib.axis_2">
    <g id="ytick_1">
     <g id="line2d_8">
      <defs>
       <path id="m241b9b0b16" d="M 0 0 
L -3.5 0 
" style="stroke: #000000; stroke-width: 0.8"/>
      </defs>
      <g>
       <use xlink:href="#m241b9b0b16" x="90" y="277.871753" style="stroke: #000000; stroke-width: 0.8"/>
      </g>
     </g>
     <g id="text_9">
      <!-- 0.0 -->
      <g transform="translate(67.096875 281.670971)scale(0.1 -0.1)">
       <defs>
        <path id="DejaVuSans-2e" d="M 684 794 
L 1344 794 
L 1344 0 
L 684 0 
L 684 794 
z
" transform="scale(0.015625)"/>
       </defs>
       <use xlink:href="#DejaVuSans-30"/>
       <use xlink:href="#DejaVuSans-2e" x="63.623047"/>
       <use xlink:href="#DejaVuSans-30" x="95.410156"/>
      </g>
     </g>
    </g>
    <g id="ytick_2">
     <g id="line2d_9">
      <g>
       <use xlink:href="#m241b9b0b16" x="90" y="224.717938" style="stroke: #000000; stroke-width: 0.8"/>
      </g>
     </g>
     <g id="text_10">
      <!-- 0.1 -->
      <g transform="translate(67.096875 228.517157)scale(0.1 -0.1)">
       <use xlink:href="#DejaVuSans-30"/>
       <use xlink:href="#DejaVuSans-2e" x="63.623047"/>
       <use xlink:href="#DejaVuSans-31" x="95.410156"/>
      </g>
     </g>
    </g>
    <g id="ytick_3">
     <g id="line2d_10">
      <g>
       <use xlink:href="#m241b9b0b16" x="90" y="171.564124" style="stroke: #000000; stroke-width: 0.8"/>
      </g>
     </g>
     <g id="text_11">
      <!-- 0.2 -->
      <g transform="translate(67.096875 175.363342)scale(0.1 -0.1)">
       <use xlink:href="#DejaVuSans-30"/>
       <use xlink:href="#DejaVuSans-2e" x="63.623047"/>
       <use xlink:href="#DejaVuSans-32" x="95.410156"/>
      </g>
     </g>
    </g>
    <g id="ytick_4">
     <g id="line2d_11">
      <g>
       <use xlink:href="#m241b9b0b16" x="90" y="118.410309" style="stroke: #000000; stroke-width: 0.8"/>
      </g>
     </g>
     <g id="text_12">
      <!-- 0.3 -->
      <g transform="translate(67.096875 122.209528)scale(0.1 -0.1)">
       <use xlink:href="#DejaVuSans-30"/>
       <use xlink:href="#DejaVuSans-2e" x="63.623047"/>
       <use xlink:href="#DejaVuSans-33" x="95.410156"/>
      </g>
     </g>
    </g>
    <g id="ytick_5">
     <g id="line2d_12">
      <g>
       <use xlink:href="#m241b9b0b16" x="90" y="65.256495" style="stroke: #000000; stroke-width: 0.8"/>
      </g>
     </g>
     <g id="text_13">
      <!-- 0.4 -->
      <g transform="translate(67.096875 69.055714)scale(0.1 -0.1)">
       <defs>
        <path id="DejaVuSans-34" d="M 2419 4116 
L 825 1625 
L 2419 1625 
L 2419 4116 
z
M 2253 4666 
L 3047 4666 
L 3047 1625 
L 3713 1625 
L 3713 1100 
L 3047 1100 
L 3047 0 
L 2419 0 
L 2419 1100 
L 313 1100 
L 313 1709 
L 2253 4666 
z
" transform="scale(0.015625)"/>
       </defs>
       <use xlink:href="#DejaVuSans-30"/>
       <use xlink:href="#DejaVuSans-2e" x="63.623047"/>
       <use xlink:href="#DejaVuSans-34" x="95.410156"/>
      </g>
     </g>
    </g>
    <g id="text_14">
     <!-- Normalized Voltage(V) -->
     <g transform="translate(61.017187 237.822656)rotate(-90)scale(0.1 -0.1)">
      <defs>
       <path id="DejaVuSans-4e" d="M 628 4666 
L 1478 4666 
L 3547 763 
L 3547 4666 
L 4159 4666 
L 4159 0 
L 3309 0 
L 1241 3903 
L 1241 0 
L 628 0 
L 628 4666 
z
" transform="scale(0.015625)"/>
       <path id="DejaVuSans-6f" d="M 1959 3097 
Q 1497 3097 1228 2736 
Q 959 2375 959 1747 
Q 959 1119 1226 758 
Q 1494 397 1959 397 
Q 2419 397 2687 759 
Q 2956 1122 2956 1747 
Q 2956 2369 2687 2733 
Q 2419 3097 1959 3097 
z
M 1959 3584 
Q 2709 3584 3137 3096 
Q 3566 2609 3566 1747 
Q 3566 888 3137 398 
Q 2709 -91 1959 -91 
Q 1206 -91 779 398 
Q 353 888 353 1747 
Q 353 2609 779 3096 
Q 1206 3584 1959 3584 
z
" transform="scale(0.015625)"/>
       <path id="DejaVuSans-72" d="M 2631 2963 
Q 2534 3019 2420 3045 
Q 2306 3072 2169 3072 
Q 1681 3072 1420 2755 
Q 1159 2438 1159 1844 
L 1159 0 
L 581 0 
L 581 3500 
L 1159 3500 
L 1159 2956 
Q 1341 3275 1631 3429 
Q 1922 3584 2338 3584 
Q 2397 3584 2469 3576 
Q 2541 3569 2628 3553 
L 2631 2963 
z
" transform="scale(0.015625)"/>
       <path id="DejaVuSans-61" d="M 2194 1759 
Q 1497 1759 1228 1600 
Q 959 1441 959 1056 
Q 959 750 1161 570 
Q 1363 391 1709 391 
Q 2188 391 2477 730 
Q 2766 1069 2766 1631 
L 2766 1759 
L 2194 1759 
z
M 3341 1997 
L 3341 0 
L 2766 0 
L 2766 531 
Q 2569 213 2275 61 
Q 1981 -91 1556 -91 
Q 1019 -91 701 211 
Q 384 513 384 1019 
Q 384 1609 779 1909 
Q 1175 2209 1959 2209 
L 2766 2209 
L 2766 2266 
Q 2766 2663 2505 2880 
Q 2244 3097 1772 3097 
Q 1472 3097 1187 3025 
Q 903 2953 641 2809 
L 641 3341 
Q 956 3463 1253 3523 
Q 1550 3584 1831 3584 
Q 2591 3584 2966 3190 
Q 3341 2797 3341 1997 
z
" transform="scale(0.015625)"/>
       <path id="DejaVuSans-6c" d="M 603 4863 
L 1178 4863 
L 1178 0 
L 603 0 
L 603 4863 
z
" transform="scale(0.015625)"/>
       <path id="DejaVuSans-7a" d="M 353 3500 
L 3084 3500 
L 3084 2975 
L 922 459 
L 3084 459 
L 3084 0 
L 275 0 
L 275 525 
L 2438 3041 
L 353 3041 
L 353 3500 
z
" transform="scale(0.015625)"/>
       <path id="DejaVuSans-64" d="M 2906 2969 
L 2906 4863 
L 3481 4863 
L 3481 0 
L 2906 0 
L 2906 525 
Q 2725 213 2448 61 
Q 2172 -91 1784 -91 
Q 1150 -91 751 415 
Q 353 922 353 1747 
Q 353 2572 751 3078 
Q 1150 3584 1784 3584 
Q 2172 3584 2448 3432 
Q 2725 3281 2906 2969 
z
M 947 1747 
Q 947 1113 1208 752 
Q 1469 391 1925 391 
Q 2381 391 2643 752 
Q 2906 1113 2906 1747 
Q 2906 2381 2643 2742 
Q 2381 3103 1925 3103 
Q 1469 3103 1208 2742 
Q 947 2381 947 1747 
z
" transform="scale(0.015625)"/>
       <path id="DejaVuSans-20" transform="scale(0.015625)"/>
       <path id="DejaVuSans-56" d="M 1831 0 
L 50 4666 
L 709 4666 
L 2188 738 
L 3669 4666 
L 4325 4666 
L 2547 0 
L 1831 0 
z
" transform="scale(0.015625)"/>
       <path id="DejaVuSans-74" d="M 1172 4494 
L 1172 3500 
L 2356 3500 
L 2356 3053 
L 1172 3053 
L 1172 1153 
Q 1172 725 1289 603 
Q 1406 481 1766 481 
L 2356 481 
L 2356 0 
L 1766 0 
Q 1100 0 847 248 
Q 594 497 594 1153 
L 594 3053 
L 172 3053 
L 172 3500 
L 594 3500 
L 594 4494 
L 1172 4494 
z
" transform="scale(0.015625)"/>
       <path id="DejaVuSans-67" d="M 2906 1791 
Q 2906 2416 2648 2759 
Q 2391 3103 1925 3103 
Q 1463 3103 1205 2759 
Q 947 2416 947 1791 
Q 947 1169 1205 825 
Q 1463 481 1925 481 
Q 2391 481 2648 825 
Q 2906 1169 2906 1791 
z
M 3481 434 
Q 3481 -459 3084 -895 
Q 2688 -1331 1869 -1331 
Q 1566 -1331 1297 -1286 
Q 1028 -1241 775 -1147 
L 775 -588 
Q 1028 -725 1275 -790 
Q 1522 -856 1778 -856 
Q 2344 -856 2625 -561 
Q 2906 -266 2906 331 
L 2906 616 
Q 2728 306 2450 153 
Q 2172 0 1784 0 
Q 1141 0 747 490 
Q 353 981 353 1791 
Q 353 2603 747 3093 
Q 1141 3584 1784 3584 
Q 2172 3584 2450 3431 
Q 2728 3278 2906 2969 
L 2906 3500 
L 3481 3500 
L 3481 434 
z
" transform="scale(0.015625)"/>
      </defs>
      <use xlink:href="#DejaVuSans-4e"/>
      <use xlink:href="#DejaVuSans-6f" x="74.804688"/>
      <use xlink:href="#DejaVuSans-72" x="135.986328"/>
      <use xlink:href="#DejaVuSans-6d" x="175.349609"/>
      <use xlink:href="#DejaVuSans-61" x="272.761719"/>
      <use xlink:href="#DejaVuSans-6c" x="334.041016"/>
      <use xlink:href="#DejaVuSans-69" x="361.824219"/>
      <use xlink:href="#DejaVuSans-7a" x="389.607422"/>
      <use xlink:href="#DejaVuSans-65" x="442.097656"/>
      <use xlink:href="#DejaVuSans-64" x="503.621094"/>
      <use xlink:href="#DejaVuSans-20" x="567.097656"/>
      <use xlink:href="#DejaVuSans-56" x="598.884766"/>
      <use xlink:href="#DejaVuSans-6f" x="659.542969"/>
      <use xlink:href="#DejaVuSans-6c" x="720.724609"/>
      <use xlink:href="#DejaVuSans-74" x="748.507812"/>
      <use xlink:href="#DejaVuSans-61" x="787.716797"/>
      <use xlink:href="#DejaVuSans-67" x="848.996094"/>
      <use xlink:href="#DejaVuSans-65" x="912.472656"/>
      <use xlink:href="#DejaVuSans-28" x="973.996094"/>
      <use xlink:href="#DejaVuSans-56" x="1013.009766"/>
      <use xlink:href="#DejaVuSans-29" x="1081.417969"/>
     </g>
    </g>
   </g>
   <g id="line2d_13">
    <path d="M 115.363636 289.614433 
L 116.960606 250.645361 
L 117.884343 263.635052 
L 119.481313 271.428866 
L 120.389394 268.830928 
L 121.313131 274.026804 
L 123.802525 281.820619 
L 124.741919 271.428866 
L 126.338889 263.635052 
L 127.24697 261.037113 
L 129.125758 253.243299 
L 130.049495 266.23299 
L 130.973232 261.037113 
L 131.89697 258.439175 
L 132.836364 266.23299 
L 133.744444 266.23299 
L 135.372727 294.810309 
L 136.296465 268.830928 
L 137.204545 263.635052 
L 138.143939 284.418557 
L 139.067677 255.841237 
L 140.05404 271.428866 
L 140.962121 242.851546 
L 141.885859 268.830928 
L 142.809596 261.037113 
L 143.733333 248.047423 
L 144.641414 274.026804 
L 147.209091 255.841237 
L 148.132828 276.624742 
L 149.056566 258.439175 
L 149.964646 250.645361 
L 150.90404 261.037113 
L 151.859091 250.645361 
L 152.782828 250.645361 
L 153.722222 255.841237 
L 154.630303 266.23299 
L 155.569697 266.23299 
L 157.166667 261.037113 
L 158.106061 245.449485 
L 159.014141 242.851546 
L 159.937879 268.830928 
L 160.877273 253.243299 
L 161.80101 261.037113 
L 162.724747 266.23299 
L 164.306061 237.65567 
L 165.90303 245.449485 
L 166.842424 253.243299 
L 167.766162 253.243299 
L 168.689899 250.645361 
L 169.613636 255.841237 
L 170.537374 253.243299 
L 171.461111 253.243299 
L 172.384848 255.841237 
L 173.981818 242.851546 
L 174.936869 242.851546 
L 175.891919 253.243299 
L 176.815657 242.851546 
L 177.739394 258.439175 
L 178.647475 245.449485 
L 179.586869 240.253608 
L 180.494949 240.253608 
L 181.434343 235.057732 
L 183.062626 248.047423 
L 183.970707 266.23299 
L 184.910101 248.047423 
L 185.818182 235.057732 
L 186.741919 253.243299 
L 187.712626 245.449485 
L 188.636364 245.449485 
L 191.407576 229.861856 
L 192.34697 250.645361 
L 193.943939 229.861856 
L 195.807071 240.253608 
L 196.730808 248.047423 
L 197.670202 232.459794 
L 198.593939 227.263918 
L 202.320202 248.047423 
L 203.917172 235.057732 
L 204.840909 242.851546 
L 205.74899 229.861856 
L 206.657071 255.841237 
L 208.269697 245.449485 
L 209.193434 235.057732 
L 210.101515 240.253608 
L 211.025253 250.645361 
L 212.622222 245.449485 
L 214.50101 240.253608 
L 215.409091 235.057732 
L 216.348485 245.449485 
L 217.945455 245.449485 
L 218.869192 240.253608 
L 219.777273 232.459794 
L 220.685354 232.459794 
L 222.282323 224.665979 
L 223.221717 237.65567 
L 224.771717 235.057732 
L 225.711111 211.676289 
L 226.619192 229.861856 
L 227.558586 229.861856 
L 228.466667 240.253608 
L 230.094949 266.23299 
L 231.034343 242.851546 
L 231.942424 227.263918 
L 232.881818 224.665979 
L 233.789899 224.665979 
L 234.713636 250.645361 
L 235.637374 248.047423 
L 236.608081 219.470103 
L 237.547475 224.665979 
L 238.471212 216.872165 
L 239.379293 242.851546 
L 241.007576 229.861856 
L 241.915657 227.263918 
L 242.839394 232.459794 
L 243.763131 227.263918 
L 244.702525 224.665979 
L 245.626263 211.676289 
L 246.55 237.65567 
L 248.444444 219.470103 
L 249.352525 242.851546 
L 250.980808 242.851546 
L 252.828283 222.068041 
L 253.75202 216.872165 
L 254.675758 219.470103 
L 255.599495 242.851546 
L 256.523232 235.057732 
L 258.120202 216.872165 
L 259.075253 229.861856 
L 260.95404 206.480412 
L 261.877778 227.263918 
L 262.785859 229.861856 
L 263.725253 206.480412 
L 264.633333 227.263918 
L 265.572727 211.676289 
L 267.420202 232.459794 
L 269.032828 237.65567 
L 269.956566 209.078351 
L 270.864646 211.676289 
L 271.80404 206.480412 
L 272.774747 214.274227 
L 273.714141 229.861856 
L 275.54596 198.686598 
L 276.485354 224.665979 
L 277.409091 224.665979 
L 278.332828 227.263918 
L 279.256566 235.057732 
L 280.19596 237.65567 
L 281.824242 229.861856 
L 283.014141 216.872165 
L 283.937879 219.470103 
L 285.550505 229.861856 
L 286.489899 216.872165 
L 287.413636 240.253608 
L 288.35303 216.872165 
L 289.276768 211.676289 
L 290.184848 201.284536 
L 291.124242 224.665979 
L 292.04798 224.665979 
L 293.942424 203.882474 
L 294.866162 214.274227 
L 296.478788 240.253608 
L 297.386869 214.274227 
L 298.294949 216.872165 
L 299.218687 235.057732 
L 300.815657 216.872165 
L 301.755051 211.676289 
L 302.663131 216.872165 
L 303.586869 229.861856 
L 305.481313 216.872165 
L 307.062626 219.470103 
L 308.910101 214.274227 
L 310.757576 216.872165 
L 312.323232 206.480412 
L 313.904545 209.078351 
L 315.75202 201.284536 
L 317.646465 229.861856 
L 319.509596 222.068041 
L 320.636869 307.8 
L 323.846465 219.470103 
L 325.693939 224.665979 
L 327.290909 198.686598 
L 329.15404 222.068041 
L 331.001515 219.470103 
L 332.582828 211.676289 
L 334.164141 211.676289 
L 336.027273 214.274227 
L 337.874747 201.284536 
L 339.753535 201.284536 
L 341.60101 206.480412 
L 343.19798 193.490722 
L 345.358586 222.068041 
L 347.206061 201.284536 
L 349.069192 219.470103 
L 350.666162 214.274227 
L 352.529293 209.078351 
L 354.361111 214.274227 
L 356.286869 203.882474 
L 358.15 206.480412 
L 359.997475 190.892784 
L 361.860606 201.284536 
L 363.441919 196.08866 
L 365.305051 188.294845 
L 367.168182 206.480412 
L 369.04697 203.882474 
L 370.910101 193.490722 
L 372.788889 216.872165 
L 374.65202 198.686598 
L 376.499495 196.08866 
L 378.34697 177.903093 
L 379.943939 185.696907 
L 381.055556 305.202062 
L 382.120202 196.08866 
L 383.983333 206.480412 
L 385.564646 214.274227 
L 387.427778 222.068041 
L 389.306566 235.057732 
L 391.138384 211.676289 
L 393.001515 227.263918 
L 394.880303 227.263918 
L 396.743434 216.872165 
L 398.324747 214.274227 
L 399.906061 216.872165 
L 401.737879 219.470103 
L 403.319192 219.470103 
L 405.166667 216.872165 
L 407.045455 209.078351 
L 408.642424 216.872165 
L 410.474242 216.872165 
L 412.055556 180.501031 
L 413.918687 193.490722 
L 415.734848 211.676289 
L 417.331818 196.08866 
L 419.210606 203.882474 
L 421.073737 164.913402 
L 424.8 164.913402 
L 426.381313 188.294845 
L 428.228788 193.490722 
L 430.405051 180.501031 
L 432.268182 196.08866 
L 433.849495 203.882474 
L 435.712626 209.078351 
L 437.575758 206.480412 
L 439.438889 211.676289 
L 441.020202 216.872165 
L 443.180808 198.686598 
L 445.043939 201.284536 
L 446.907071 201.284536 
L 448.488384 188.294845 
L 450.351515 188.294845 
L 454.077778 193.490722 
L 455.987879 159.717526 
L 458.774747 146.727835 
L 460.622222 97.36701 
L 462.485354 66.191753 
L 464.082323 151.923711 
L 465.929798 183.098969 
L 467.792929 198.686598 
L 469.358586 214.274227 
L 471.206061 190.892784 
L 472.80303 193.490722 
L 474.650505 188.294845 
L 476.529293 175.305155 
L 478.392424 172.707216 
L 480.239899 115.552577 
L 482.15 73.985567 
L 483.74697 162.315464 
L 485.860606 190.892784 
L 487.723737 214.274227 
L 489.305051 206.480412 
L 491.168182 190.892784 
L 493.031313 180.501031 
L 494.925758 209.078351 
L 498.338889 79.181443 
L 500.186364 60.995876 
L 501.767677 55.8 
L 503.333333 159.717526 
L 505.180808 190.892784 
L 507.983333 201.284536 
L 509.564646 209.078351 
L 511.396465 206.480412 
L 512.993434 206.480412 
L 514.840909 193.490722 
L 516.672727 175.305155 
L 518.567172 105.160825 
L 520.179798 60.995876 
L 522.011616 84.37732 
L 525.487374 219.470103 
L 527.616667 232.459794 
L 529.464141 229.861856 
L 531.358586 235.057732 
L 533.221717 232.459794 
L 535.084848 237.65567 
L 536.681818 248.047423 
L 538.529293 232.459794 
L 540.408081 193.490722 
L 542.271212 219.470103 
L 544.165657 219.470103 
L 546.013131 216.872165 
L 547.860606 222.068041 
L 549.739394 216.872165 
L 551.586869 224.665979 
L 553.183838 219.470103 
L 555.328788 227.263918 
L 557.207576 211.676289 
L 558.788889 222.068041 
L 560.65202 209.078351 
L 562.499495 209.078351 
L 564.080808 229.861856 
L 566.225758 219.470103 
L 568.120202 216.872165 
L 569.717172 214.274227 
L 571.580303 214.274227 
L 573.427778 240.253608 
L 575.290909 206.480412 
L 576.887879 227.263918 
L 578.735354 232.459794 
L 580.911616 203.882474 
L 582.759091 219.470103 
L 584.356061 227.263918 
L 586.485354 211.676289 
L 588.066667 211.676289 
L 589.945455 206.480412 
L 591.808586 209.078351 
L 594.892929 203.882474 
L 596.489899 216.872165 
L 598.071212 180.501031 
L 599.918687 203.882474 
L 601.766162 219.470103 
L 603.347475 224.665979 
L 605.194949 209.078351 
L 606.478788 216.872165 
L 608.326263 222.068041 
L 611.770707 222.068041 
L 613.602525 206.480412 
L 615.183838 198.686598 
L 617.031313 211.676289 
L 618.910101 209.078351 
L 620.788889 216.872165 
L 622.636364 211.676289 
L 622.636364 211.676289 
" clip-path="url(#p248d8279ff)" style="fill: none; stroke: #1f77b4; stroke-width: 1.5; stroke-linecap: square"/>
   </g>
   <g id="patch_3">
    <path d="M 90 320.4 
L 90 43.2 
" style="fill: none; stroke: #000000; stroke-width: 0.8; stroke-linejoin: miter; stroke-linecap: square"/>
   </g>
   <g id="patch_4">
    <path d="M 648 320.4 
L 648 43.2 
" style="fill: none; stroke: #000000; stroke-width: 0.8; stroke-linejoin: miter; stroke-linecap: square"/>
   </g>
   <g id="patch_5">
    <path d="M 90 320.4 
L 648 320.4 
" style="fill: none; stroke: #000000; stroke-width: 0.8; stroke-linejoin: miter; stroke-linecap: square"/>
   </g>
   <g id="patch_6">
    <path d="M 90 43.2 
L 648 43.2 
" style="fill: none; stroke: #000000; stroke-width: 0.8; stroke-linejoin: miter; stroke-linecap: square"/>
   </g>
   <g id="text_15">
    <!-- T1234 -->
    <g transform="translate(350.065313 37.2)scale(0.12 -0.12)">
     <use xlink:href="#DejaVuSans-54"/>
     <use xlink:href="#DejaVuSans-31" x="61.083984"/>
     <use xlink:href="#DejaVuSans-32" x="124.707031"/>
     <use xlink:href="#DejaVuSans-33" x="188.330078"/>
     <use xlink:href="#DejaVuSans-34" x="251.953125"/>
    </g>
   </g>
   <g id="legend_1">
    <g id="patch_7">
     <path d="M 577.442188 65.878125 
L 641 65.878125 
Q 643 65.878125 643 63.878125 
L 643 50.2 
Q 643 48.2 641 48.2 
L 577.442188 48.2 
Q 575.442188 48.2 575.442188 50.2 
L 575.442188 63.878125 
Q 575.442188 65.878125 577.442188 65.878125 
z
" style="fill: #ffffff; opacity: 0.8; stroke: #cccccc; stroke-linejoin: miter"/>
    </g>
    <g id="line2d_14">
     <path d="M 579.442188 56.298437 
L 589.442188 56.298437 
L 599.442188 56.298437 
" style="fill: none; stroke: #1f77b4; stroke-width: 1.5; stroke-linecap: square"/>
    </g>
    <g id="text_16">
     <!-- T1234 -->
     <g transform="translate(607.442188 59.798437)scale(0.1 -0.1)">
      <use xlink:href="#DejaVuSans-54"/>
      <use xlink:href="#DejaVuSans-31" x="61.083984"/>
      <use xlink:href="#DejaVuSans-32" x="124.707031"/>
      <use xlink:href="#DejaVuSans-33" x="188.330078"/>
      <use xlink:href="#DejaVuSans-34" x="251.953125"/>
     </g>
    </g>
   </g>
  </g>
 </g>
 <defs>
  <clipPath id="p248d8279ff">
   <rect x="90" y="43.2" width="558" height="277.2"/>
  </clipPath>
 </defs>
</svg>
