<?xml version="1.0" encoding="utf-8" standalone="no"?>
<!DOCTYPE svg PUBLIC "-//W3C//DTD SVG 1.1//EN"
  "http://www.w3.org/Graphics/SVG/1.1/DTD/svg11.dtd">
<svg xmlns:xlink="http://www.w3.org/1999/xlink" width="460.8pt" height="345.6pt" viewBox="0 0 460.8 345.6" xmlns="http://www.w3.org/2000/svg" version="1.1">
 <metadata>
  <rdf:RDF xmlns:dc="http://purl.org/dc/elements/1.1/" xmlns:cc="http://creativecommons.org/ns#" xmlns:rdf="http://www.w3.org/1999/02/22-rdf-syntax-ns#">
   <cc:Work>
    <dc:type rdf:resource="http://purl.org/dc/dcmitype/StillImage"/>
    <dc:date>2022-10-03T10:34:40.576056</dc:date>
    <dc:format>image/svg+xml</dc:format>
    <dc:creator>
     <cc:Agent>
      <dc:title>Matplotlib v3.5.3, https://matplotlib.org/</dc:title>
     </cc:Agent>
    </dc:creator>
   </cc:Work>
  </rdf:RDF>
 </metadata>
 <defs>
  <style type="text/css">*{stroke-linejoin: round; stroke-linecap: butt}</style>
 </defs>
 <g id="figure_1">
  <g id="patch_1">
   <path d="M 0 345.6 
L 460.8 345.6 
L 460.8 0 
L 0 0 
z
" style="fill: #ffffff"/>
  </g>
  <g id="axes_1">
   <g id="patch_2">
    <path d="M 57.6 307.584 
L 414.72 307.584 
L 414.72 41.472 
L 57.6 41.472 
z
" style="fill: #ffffff"/>
   </g>
   <g id="PathCollection_1">
    <defs>
     <path id="m41f0a6524d" d="M -3 3 
L 3 -3 
M -3 -3 
L 3 3 
" style="stroke: #ff0000; stroke-width: 1.5"/>
    </defs>
    <g clip-path="url(#p4969e939ef)">
     <use xlink:href="#m41f0a6524d" x="74.854788" y="240.619546" style="fill: #ff0000; stroke: #ff0000; stroke-width: 1.5"/>
     <use xlink:href="#m41f0a6524d" x="77.049212" y="258.077691" style="fill: #ff0000; stroke: #ff0000; stroke-width: 1.5"/>
     <use xlink:href="#m41f0a6524d" x="82.640485" y="243.113567" style="fill: #ff0000; stroke: #ff0000; stroke-width: 1.5"/>
     <use xlink:href="#m41f0a6524d" x="84.414061" y="248.101608" style="fill: #ff0000; stroke: #ff0000; stroke-width: 1.5"/>
     <use xlink:href="#m41f0a6524d" x="87.810909" y="253.089649" style="fill: #ff0000; stroke: #ff0000; stroke-width: 1.5"/>
     <use xlink:href="#m41f0a6524d" x="89.003313" y="245.607588" style="fill: #ff0000; stroke: #ff0000; stroke-width: 1.5"/>
     <use xlink:href="#m41f0a6524d" x="90.215758" y="233.137485" style="fill: #ff0000; stroke: #ff0000; stroke-width: 1.5"/>
     <use xlink:href="#m41f0a6524d" x="91.989333" y="238.125526" style="fill: #ff0000; stroke: #ff0000; stroke-width: 1.5"/>
     <use xlink:href="#m41f0a6524d" x="94.213818" y="245.607588" style="fill: #ff0000; stroke: #ff0000; stroke-width: 1.5"/>
     <use xlink:href="#m41f0a6524d" x="95.977374" y="240.619546" style="fill: #ff0000; stroke: #ff0000; stroke-width: 1.5"/>
     <use xlink:href="#m41f0a6524d" x="97.189818" y="240.619546" style="fill: #ff0000; stroke: #ff0000; stroke-width: 1.5"/>
     <use xlink:href="#m41f0a6524d" x="101.769051" y="233.137485" style="fill: #ff0000; stroke: #ff0000; stroke-width: 1.5"/>
     <use xlink:href="#m41f0a6524d" x="102.961455" y="243.113567" style="fill: #ff0000; stroke: #ff0000; stroke-width: 1.5"/>
     <use xlink:href="#m41f0a6524d" x="105.155879" y="228.149443" style="fill: #ff0000; stroke: #ff0000; stroke-width: 1.5"/>
     <use xlink:href="#m41f0a6524d" x="107.961535" y="240.619546" style="fill: #ff0000; stroke: #ff0000; stroke-width: 1.5"/>
     <use xlink:href="#m41f0a6524d" x="109.143919" y="243.113567" style="fill: #ff0000; stroke: #ff0000; stroke-width: 1.5"/>
     <use xlink:href="#m41f0a6524d" x="111.348364" y="233.137485" style="fill: #ff0000; stroke: #ff0000; stroke-width: 1.5"/>
     <use xlink:href="#m41f0a6524d" x="113.16202" y="233.137485" style="fill: #ff0000; stroke: #ff0000; stroke-width: 1.5"/>
     <use xlink:href="#m41f0a6524d" x="116.11798" y="225.655423" style="fill: #ff0000; stroke: #ff0000; stroke-width: 1.5"/>
     <use xlink:href="#m41f0a6524d" x="118.923636" y="225.655423" style="fill: #ff0000; stroke: #ff0000; stroke-width: 1.5"/>
     <use xlink:href="#m41f0a6524d" x="122.500848" y="220.667381" style="fill: #ff0000; stroke: #ff0000; stroke-width: 1.5"/>
     <use xlink:href="#m41f0a6524d" x="124.124121" y="220.667381" style="fill: #ff0000; stroke: #ff0000; stroke-width: 1.5"/>
     <use xlink:href="#m41f0a6524d" x="127.100121" y="218.173361" style="fill: #ff0000; stroke: #ff0000; stroke-width: 1.5"/>
     <use xlink:href="#m41f0a6524d" x="130.50699" y="225.655423" style="fill: #ff0000; stroke: #ff0000; stroke-width: 1.5"/>
     <use xlink:href="#m41f0a6524d" x="131.679354" y="220.667381" style="fill: #ff0000; stroke: #ff0000; stroke-width: 1.5"/>
     <use xlink:href="#m41f0a6524d" x="133.883798" y="225.655423" style="fill: #ff0000; stroke: #ff0000; stroke-width: 1.5"/>
     <use xlink:href="#m41f0a6524d" x="137.861818" y="225.655423" style="fill: #ff0000; stroke: #ff0000; stroke-width: 1.5"/>
     <use xlink:href="#m41f0a6524d" x="142.260687" y="215.67934" style="fill: #ff0000; stroke: #ff0000; stroke-width: 1.5"/>
     <use xlink:href="#m41f0a6524d" x="144.455111" y="203.209237" style="fill: #ff0000; stroke: #ff0000; stroke-width: 1.5"/>
     <use xlink:href="#m41f0a6524d" x="149.044364" y="215.67934" style="fill: #ff0000; stroke: #ff0000; stroke-width: 1.5"/>
     <use xlink:href="#m41f0a6524d" x="151.429172" y="210.691299" style="fill: #ff0000; stroke: #ff0000; stroke-width: 1.5"/>
     <use xlink:href="#m41f0a6524d" x="152.621576" y="208.197278" style="fill: #ff0000; stroke: #ff0000; stroke-width: 1.5"/>
     <use xlink:href="#m41f0a6524d" x="154.82602" y="218.173361" style="fill: #ff0000; stroke: #ff0000; stroke-width: 1.5"/>
     <use xlink:href="#m41f0a6524d" x="157.200808" y="203.209237" style="fill: #ff0000; stroke: #ff0000; stroke-width: 1.5"/>
     <use xlink:href="#m41f0a6524d" x="159.004444" y="210.691299" style="fill: #ff0000; stroke: #ff0000; stroke-width: 1.5"/>
     <use xlink:href="#m41f0a6524d" x="162.401293" y="208.197278" style="fill: #ff0000; stroke: #ff0000; stroke-width: 1.5"/>
     <use xlink:href="#m41f0a6524d" x="165.196929" y="208.197278" style="fill: #ff0000; stroke: #ff0000; stroke-width: 1.5"/>
     <use xlink:href="#m41f0a6524d" x="167.010586" y="198.221196" style="fill: #ff0000; stroke: #ff0000; stroke-width: 1.5"/>
     <use xlink:href="#m41f0a6524d" x="168.784162" y="198.221196" style="fill: #ff0000; stroke: #ff0000; stroke-width: 1.5"/>
     <use xlink:href="#m41f0a6524d" x="169.966545" y="203.209237" style="fill: #ff0000; stroke: #ff0000; stroke-width: 1.5"/>
     <use xlink:href="#m41f0a6524d" x="172.772202" y="200.715216" style="fill: #ff0000; stroke: #ff0000; stroke-width: 1.5"/>
     <use xlink:href="#m41f0a6524d" x="173.954586" y="198.221196" style="fill: #ff0000; stroke: #ff0000; stroke-width: 1.5"/>
     <use xlink:href="#m41f0a6524d" x="176.349414" y="190.739134" style="fill: #ff0000; stroke: #ff0000; stroke-width: 1.5"/>
     <use xlink:href="#m41f0a6524d" x="181.129051" y="208.197278" style="fill: #ff0000; stroke: #ff0000; stroke-width: 1.5"/>
     <use xlink:href="#m41f0a6524d" x="183.353535" y="208.197278" style="fill: #ff0000; stroke: #ff0000; stroke-width: 1.5"/>
     <use xlink:href="#m41f0a6524d" x="185.718303" y="193.233155" style="fill: #ff0000; stroke: #ff0000; stroke-width: 1.5"/>
     <use xlink:href="#m41f0a6524d" x="188.123152" y="195.727175" style="fill: #ff0000; stroke: #ff0000; stroke-width: 1.5"/>
     <use xlink:href="#m41f0a6524d" x="190.327596" y="205.703258" style="fill: #ff0000; stroke: #ff0000; stroke-width: 1.5"/>
     <use xlink:href="#m41f0a6524d" x="193.123232" y="203.209237" style="fill: #ff0000; stroke: #ff0000; stroke-width: 1.5"/>
     <use xlink:href="#m41f0a6524d" x="195.50804" y="208.197278" style="fill: #ff0000; stroke: #ff0000; stroke-width: 1.5"/>
     <use xlink:href="#m41f0a6524d" x="197.702465" y="205.703258" style="fill: #ff0000; stroke: #ff0000; stroke-width: 1.5"/>
     <use xlink:href="#m41f0a6524d" x="199.886869" y="198.221196" style="fill: #ff0000; stroke: #ff0000; stroke-width: 1.5"/>
     <use xlink:href="#m41f0a6524d" x="202.081293" y="193.233155" style="fill: #ff0000; stroke: #ff0000; stroke-width: 1.5"/>
     <use xlink:href="#m41f0a6524d" x="204.486141" y="213.18532" style="fill: #ff0000; stroke: #ff0000; stroke-width: 1.5"/>
     <use xlink:href="#m41f0a6524d" x="207.261737" y="210.691299" style="fill: #ff0000; stroke: #ff0000; stroke-width: 1.5"/>
     <use xlink:href="#m41f0a6524d" x="209.466182" y="190.739134" style="fill: #ff0000; stroke: #ff0000; stroke-width: 1.5"/>
     <use xlink:href="#m41f0a6524d" x="212.85301" y="203.209237" style="fill: #ff0000; stroke: #ff0000; stroke-width: 1.5"/>
     <use xlink:href="#m41f0a6524d" x="216.239838" y="193.233155" style="fill: #ff0000; stroke: #ff0000; stroke-width: 1.5"/>
     <use xlink:href="#m41f0a6524d" x="219.646707" y="185.751093" style="fill: #ff0000; stroke: #ff0000; stroke-width: 1.5"/>
     <use xlink:href="#m41f0a6524d" x="222.211879" y="193.233155" style="fill: #ff0000; stroke: #ff0000; stroke-width: 1.5"/>
     <use xlink:href="#m41f0a6524d" x="225.618747" y="200.715216" style="fill: #ff0000; stroke: #ff0000; stroke-width: 1.5"/>
     <use xlink:href="#m41f0a6524d" x="228.023596" y="195.727175" style="fill: #ff0000; stroke: #ff0000; stroke-width: 1.5"/>
     <use xlink:href="#m41f0a6524d" x="230.398384" y="183.257072" style="fill: #ff0000; stroke: #ff0000; stroke-width: 1.5"/>
     <use xlink:href="#m41f0a6524d" x="233.795232" y="180.763052" style="fill: #ff0000; stroke: #ff0000; stroke-width: 1.5"/>
     <use xlink:href="#m41f0a6524d" x="237.382465" y="185.751093" style="fill: #ff0000; stroke: #ff0000; stroke-width: 1.5"/>
     <use xlink:href="#m41f0a6524d" x="242.142061" y="170.786969" style="fill: #ff0000; stroke: #ff0000; stroke-width: 1.5"/>
     <use xlink:href="#m41f0a6524d" x="244.556929" y="188.245113" style="fill: #ff0000; stroke: #ff0000; stroke-width: 1.5"/>
     <use xlink:href="#m41f0a6524d" x="250.328566" y="203.209237" style="fill: #ff0000; stroke: #ff0000; stroke-width: 1.5"/>
     <use xlink:href="#m41f0a6524d" x="254.927838" y="205.703258" style="fill: #ff0000; stroke: #ff0000; stroke-width: 1.5"/>
     <use xlink:href="#m41f0a6524d" x="260.509091" y="200.715216" style="fill: #ff0000; stroke: #ff0000; stroke-width: 1.5"/>
     <use xlink:href="#m41f0a6524d" x="263.715556" y="173.28099" style="fill: #ff0000; stroke: #ff0000; stroke-width: 1.5"/>
     <use xlink:href="#m41f0a6524d" x="267.092364" y="188.245113" style="fill: #ff0000; stroke: #ff0000; stroke-width: 1.5"/>
     <use xlink:href="#m41f0a6524d" x="270.679596" y="158.316866" style="fill: #ff0000; stroke: #ff0000; stroke-width: 1.5"/>
     <use xlink:href="#m41f0a6524d" x="275.459232" y="173.28099" style="fill: #ff0000; stroke: #ff0000; stroke-width: 1.5"/>
     <use xlink:href="#m41f0a6524d" x="280.048485" y="198.221196" style="fill: #ff0000; stroke: #ff0000; stroke-width: 1.5"/>
     <use xlink:href="#m41f0a6524d" x="283.635717" y="190.739134" style="fill: #ff0000; stroke: #ff0000; stroke-width: 1.5"/>
     <use xlink:href="#m41f0a6524d" x="287.032566" y="180.763052" style="fill: #ff0000; stroke: #ff0000; stroke-width: 1.5"/>
     <use xlink:href="#m41f0a6524d" x="295.990626" y="63.544082" style="fill: #ff0000; stroke: #ff0000; stroke-width: 1.5"/>
     <use xlink:href="#m41f0a6524d" x="301.571879" y="183.257072" style="fill: #ff0000; stroke: #ff0000; stroke-width: 1.5"/>
     <use xlink:href="#m41f0a6524d" x="308.576" y="71.026144" style="fill: #ff0000; stroke: #ff0000; stroke-width: 1.5"/>
     <use xlink:href="#m41f0a6524d" x="315.54004" y="173.28099" style="fill: #ff0000; stroke: #ff0000; stroke-width: 1.5"/>
     <use xlink:href="#m41f0a6524d" x="321.131313" y="53.568" style="fill: #ff0000; stroke: #ff0000; stroke-width: 1.5"/>
     <use xlink:href="#m41f0a6524d" x="332.915071" y="58.556041" style="fill: #ff0000; stroke: #ff0000; stroke-width: 1.5"/>
     <use xlink:href="#m41f0a6524d" x="338.857051" y="220.667381" style="fill: #ff0000; stroke: #ff0000; stroke-width: 1.5"/>
     <use xlink:href="#m41f0a6524d" x="341.261899" y="223.161402" style="fill: #ff0000; stroke: #ff0000; stroke-width: 1.5"/>
     <use xlink:href="#m41f0a6524d" x="345.861172" y="185.751093" style="fill: #ff0000; stroke: #ff0000; stroke-width: 1.5"/>
     <use xlink:href="#m41f0a6524d" x="349.448404" y="208.197278" style="fill: #ff0000; stroke: #ff0000; stroke-width: 1.5"/>
     <use xlink:href="#m41f0a6524d" x="351.833212" y="208.197278" style="fill: #ff0000; stroke: #ff0000; stroke-width: 1.5"/>
     <use xlink:href="#m41f0a6524d" x="354.037657" y="210.691299" style="fill: #ff0000; stroke: #ff0000; stroke-width: 1.5"/>
     <use xlink:href="#m41f0a6524d" x="356.612848" y="203.209237" style="fill: #ff0000; stroke: #ff0000; stroke-width: 1.5"/>
     <use xlink:href="#m41f0a6524d" x="358.817293" y="200.715216" style="fill: #ff0000; stroke: #ff0000; stroke-width: 1.5"/>
     <use xlink:href="#m41f0a6524d" x="364.61899" y="205.703258" style="fill: #ff0000; stroke: #ff0000; stroke-width: 1.5"/>
     <use xlink:href="#m41f0a6524d" x="368.186182" y="198.221196" style="fill: #ff0000; stroke: #ff0000; stroke-width: 1.5"/>
     <use xlink:href="#m41f0a6524d" x="371.783434" y="195.727175" style="fill: #ff0000; stroke: #ff0000; stroke-width: 1.5"/>
     <use xlink:href="#m41f0a6524d" x="377.565091" y="198.221196" style="fill: #ff0000; stroke: #ff0000; stroke-width: 1.5"/>
     <use xlink:href="#m41f0a6524d" x="380.731475" y="195.727175" style="fill: #ff0000; stroke: #ff0000; stroke-width: 1.5"/>
     <use xlink:href="#m41f0a6524d" x="382.765576" y="173.28099" style="fill: #ff0000; stroke: #ff0000; stroke-width: 1.5"/>
     <use xlink:href="#m41f0a6524d" x="387.324768" y="200.715216" style="fill: #ff0000; stroke: #ff0000; stroke-width: 1.5"/>
     <use xlink:href="#m41f0a6524d" x="393.717657" y="190.739134" style="fill: #ff0000; stroke: #ff0000; stroke-width: 1.5"/>
     <use xlink:href="#m41f0a6524d" x="396.102465" y="200.715216" style="fill: #ff0000; stroke: #ff0000; stroke-width: 1.5"/>
    </g>
   </g>
   <g id="matplotlib.axis_1">
    <g id="xtick_1">
     <g id="line2d_1">
      <defs>
       <path id="m653a0bcc05" d="M 0 0 
L 0 3.5 
" style="stroke: #000000; stroke-width: 0.8"/>
      </defs>
      <g>
       <use xlink:href="#m653a0bcc05" x="92.840061" y="307.584" style="stroke: #000000; stroke-width: 0.8"/>
      </g>
     </g>
     <g id="text_1">
      <!-- 5 -->
      <g transform="translate(89.658811 322.182437)scale(0.1 -0.1)">
       <defs>
        <path id="DejaVuSans-35" d="M 691 4666 
L 3169 4666 
L 3169 4134 
L 1269 4134 
L 1269 2991 
Q 1406 3038 1543 3061 
Q 1681 3084 1819 3084 
Q 2600 3084 3056 2656 
Q 3513 2228 3513 1497 
Q 3513 744 3044 326 
Q 2575 -91 1722 -91 
Q 1428 -91 1123 -41 
Q 819 9 494 109 
L 494 744 
Q 775 591 1075 516 
Q 1375 441 1709 441 
Q 2250 441 2565 725 
Q 2881 1009 2881 1497 
Q 2881 1984 2565 2268 
Q 2250 2553 1709 2553 
Q 1456 2553 1204 2497 
Q 953 2441 691 2322 
L 691 4666 
z
" transform="scale(0.015625)"/>
       </defs>
       <use xlink:href="#DejaVuSans-35"/>
      </g>
     </g>
    </g>
    <g id="xtick_2">
     <g id="line2d_2">
      <g>
       <use xlink:href="#m653a0bcc05" x="142.941071" y="307.584" style="stroke: #000000; stroke-width: 0.8"/>
      </g>
     </g>
     <g id="text_2">
      <!-- 10 -->
      <g transform="translate(136.578571 322.182437)scale(0.1 -0.1)">
       <defs>
        <path id="DejaVuSans-31" d="M 794 531 
L 1825 531 
L 1825 4091 
L 703 3866 
L 703 4441 
L 1819 4666 
L 2450 4666 
L 2450 531 
L 3481 531 
L 3481 0 
L 794 0 
L 794 531 
z
" transform="scale(0.015625)"/>
        <path id="DejaVuSans-30" d="M 2034 4250 
Q 1547 4250 1301 3770 
Q 1056 3291 1056 2328 
Q 1056 1369 1301 889 
Q 1547 409 2034 409 
Q 2525 409 2770 889 
Q 3016 1369 3016 2328 
Q 3016 3291 2770 3770 
Q 2525 4250 2034 4250 
z
M 2034 4750 
Q 2819 4750 3233 4129 
Q 3647 3509 3647 2328 
Q 3647 1150 3233 529 
Q 2819 -91 2034 -91 
Q 1250 -91 836 529 
Q 422 1150 422 2328 
Q 422 3509 836 4129 
Q 1250 4750 2034 4750 
z
" transform="scale(0.015625)"/>
       </defs>
       <use xlink:href="#DejaVuSans-31"/>
       <use xlink:href="#DejaVuSans-30" x="63.623047"/>
      </g>
     </g>
    </g>
    <g id="xtick_3">
     <g id="line2d_3">
      <g>
       <use xlink:href="#m653a0bcc05" x="193.042081" y="307.584" style="stroke: #000000; stroke-width: 0.8"/>
      </g>
     </g>
     <g id="text_3">
      <!-- 15 -->
      <g transform="translate(186.679581 322.182437)scale(0.1 -0.1)">
       <use xlink:href="#DejaVuSans-31"/>
       <use xlink:href="#DejaVuSans-35" x="63.623047"/>
      </g>
     </g>
    </g>
    <g id="xtick_4">
     <g id="line2d_4">
      <g>
       <use xlink:href="#m653a0bcc05" x="243.143092" y="307.584" style="stroke: #000000; stroke-width: 0.8"/>
      </g>
     </g>
     <g id="text_4">
      <!-- 20 -->
      <g transform="translate(236.780592 322.182437)scale(0.1 -0.1)">
       <defs>
        <path id="DejaVuSans-32" d="M 1228 531 
L 3431 531 
L 3431 0 
L 469 0 
L 469 531 
Q 828 903 1448 1529 
Q 2069 2156 2228 2338 
Q 2531 2678 2651 2914 
Q 2772 3150 2772 3378 
Q 2772 3750 2511 3984 
Q 2250 4219 1831 4219 
Q 1534 4219 1204 4116 
Q 875 4013 500 3803 
L 500 4441 
Q 881 4594 1212 4672 
Q 1544 4750 1819 4750 
Q 2544 4750 2975 4387 
Q 3406 4025 3406 3419 
Q 3406 3131 3298 2873 
Q 3191 2616 2906 2266 
Q 2828 2175 2409 1742 
Q 1991 1309 1228 531 
z
" transform="scale(0.015625)"/>
       </defs>
       <use xlink:href="#DejaVuSans-32"/>
       <use xlink:href="#DejaVuSans-30" x="63.623047"/>
      </g>
     </g>
    </g>
    <g id="xtick_5">
     <g id="line2d_5">
      <g>
       <use xlink:href="#m653a0bcc05" x="293.244102" y="307.584" style="stroke: #000000; stroke-width: 0.8"/>
      </g>
     </g>
     <g id="text_5">
      <!-- 25 -->
      <g transform="translate(286.881602 322.182437)scale(0.1 -0.1)">
       <use xlink:href="#DejaVuSans-32"/>
       <use xlink:href="#DejaVuSans-35" x="63.623047"/>
      </g>
     </g>
    </g>
    <g id="xtick_6">
     <g id="line2d_6">
      <g>
       <use xlink:href="#m653a0bcc05" x="343.345112" y="307.584" style="stroke: #000000; stroke-width: 0.8"/>
      </g>
     </g>
     <g id="text_6">
      <!-- 30 -->
      <g transform="translate(336.982612 322.182437)scale(0.1 -0.1)">
       <defs>
        <path id="DejaVuSans-33" d="M 2597 2516 
Q 3050 2419 3304 2112 
Q 3559 1806 3559 1356 
Q 3559 666 3084 287 
Q 2609 -91 1734 -91 
Q 1441 -91 1130 -33 
Q 819 25 488 141 
L 488 750 
Q 750 597 1062 519 
Q 1375 441 1716 441 
Q 2309 441 2620 675 
Q 2931 909 2931 1356 
Q 2931 1769 2642 2001 
Q 2353 2234 1838 2234 
L 1294 2234 
L 1294 2753 
L 1863 2753 
Q 2328 2753 2575 2939 
Q 2822 3125 2822 3475 
Q 2822 3834 2567 4026 
Q 2313 4219 1838 4219 
Q 1578 4219 1281 4162 
Q 984 4106 628 3988 
L 628 4550 
Q 988 4650 1302 4700 
Q 1616 4750 1894 4750 
Q 2613 4750 3031 4423 
Q 3450 4097 3450 3541 
Q 3450 3153 3228 2886 
Q 3006 2619 2597 2516 
z
" transform="scale(0.015625)"/>
       </defs>
       <use xlink:href="#DejaVuSans-33"/>
       <use xlink:href="#DejaVuSans-30" x="63.623047"/>
      </g>
     </g>
    </g>
    <g id="xtick_7">
     <g id="line2d_7">
      <g>
       <use xlink:href="#m653a0bcc05" x="393.446122" y="307.584" style="stroke: #000000; stroke-width: 0.8"/>
      </g>
     </g>
     <g id="text_7">
      <!-- 35 -->
      <g transform="translate(387.083622 322.182437)scale(0.1 -0.1)">
       <use xlink:href="#DejaVuSans-33"/>
       <use xlink:href="#DejaVuSans-35" x="63.623047"/>
      </g>
     </g>
    </g>
    <g id="text_8">
     <!-- Time(s) -->
     <g transform="translate(217.420156 335.860562)scale(0.1 -0.1)">
      <defs>
       <path id="DejaVuSans-54" d="M -19 4666 
L 3928 4666 
L 3928 4134 
L 2272 4134 
L 2272 0 
L 1638 0 
L 1638 4134 
L -19 4134 
L -19 4666 
z
" transform="scale(0.015625)"/>
       <path id="DejaVuSans-69" d="M 603 3500 
L 1178 3500 
L 1178 0 
L 603 0 
L 603 3500 
z
M 603 4863 
L 1178 4863 
L 1178 4134 
L 603 4134 
L 603 4863 
z
" transform="scale(0.015625)"/>
       <path id="DejaVuSans-6d" d="M 3328 2828 
Q 3544 3216 3844 3400 
Q 4144 3584 4550 3584 
Q 5097 3584 5394 3201 
Q 5691 2819 5691 2113 
L 5691 0 
L 5113 0 
L 5113 2094 
Q 5113 2597 4934 2840 
Q 4756 3084 4391 3084 
Q 3944 3084 3684 2787 
Q 3425 2491 3425 1978 
L 3425 0 
L 2847 0 
L 2847 2094 
Q 2847 2600 2669 2842 
Q 2491 3084 2119 3084 
Q 1678 3084 1418 2786 
Q 1159 2488 1159 1978 
L 1159 0 
L 581 0 
L 581 3500 
L 1159 3500 
L 1159 2956 
Q 1356 3278 1631 3431 
Q 1906 3584 2284 3584 
Q 2666 3584 2933 3390 
Q 3200 3197 3328 2828 
z
" transform="scale(0.015625)"/>
       <path id="DejaVuSans-65" d="M 3597 1894 
L 3597 1613 
L 953 1613 
Q 991 1019 1311 708 
Q 1631 397 2203 397 
Q 2534 397 2845 478 
Q 3156 559 3463 722 
L 3463 178 
Q 3153 47 2828 -22 
Q 2503 -91 2169 -91 
Q 1331 -91 842 396 
Q 353 884 353 1716 
Q 353 2575 817 3079 
Q 1281 3584 2069 3584 
Q 2775 3584 3186 3129 
Q 3597 2675 3597 1894 
z
M 3022 2063 
Q 3016 2534 2758 2815 
Q 2500 3097 2075 3097 
Q 1594 3097 1305 2825 
Q 1016 2553 972 2059 
L 3022 2063 
z
" transform="scale(0.015625)"/>
       <path id="DejaVuSans-28" d="M 1984 4856 
Q 1566 4138 1362 3434 
Q 1159 2731 1159 2009 
Q 1159 1288 1364 580 
Q 1569 -128 1984 -844 
L 1484 -844 
Q 1016 -109 783 600 
Q 550 1309 550 2009 
Q 550 2706 781 3412 
Q 1013 4119 1484 4856 
L 1984 4856 
z
" transform="scale(0.015625)"/>
       <path id="DejaVuSans-73" d="M 2834 3397 
L 2834 2853 
Q 2591 2978 2328 3040 
Q 2066 3103 1784 3103 
Q 1356 3103 1142 2972 
Q 928 2841 928 2578 
Q 928 2378 1081 2264 
Q 1234 2150 1697 2047 
L 1894 2003 
Q 2506 1872 2764 1633 
Q 3022 1394 3022 966 
Q 3022 478 2636 193 
Q 2250 -91 1575 -91 
Q 1294 -91 989 -36 
Q 684 19 347 128 
L 347 722 
Q 666 556 975 473 
Q 1284 391 1588 391 
Q 1994 391 2212 530 
Q 2431 669 2431 922 
Q 2431 1156 2273 1281 
Q 2116 1406 1581 1522 
L 1381 1569 
Q 847 1681 609 1914 
Q 372 2147 372 2553 
Q 372 3047 722 3315 
Q 1072 3584 1716 3584 
Q 2034 3584 2315 3537 
Q 2597 3491 2834 3397 
z
" transform="scale(0.015625)"/>
       <path id="DejaVuSans-29" d="M 513 4856 
L 1013 4856 
Q 1481 4119 1714 3412 
Q 1947 2706 1947 2009 
Q 1947 1309 1714 600 
Q 1481 -109 1013 -844 
L 513 -844 
Q 928 -128 1133 580 
Q 1338 1288 1338 2009 
Q 1338 2731 1133 3434 
Q 928 4138 513 4856 
z
" transform="scale(0.015625)"/>
      </defs>
      <use xlink:href="#DejaVuSans-54"/>
      <use xlink:href="#DejaVuSans-69" x="57.958984"/>
      <use xlink:href="#DejaVuSans-6d" x="85.742188"/>
      <use xlink:href="#DejaVuSans-65" x="183.154297"/>
      <use xlink:href="#DejaVuSans-28" x="244.677734"/>
      <use xlink:href="#DejaVuSans-73" x="283.691406"/>
      <use xlink:href="#DejaVuSans-29" x="335.791016"/>
     </g>
    </g>
   </g>
   <g id="matplotlib.axis_2">
    <g id="ytick_1">
     <g id="line2d_8">
      <defs>
       <path id="m63a3d857dd" d="M 0 0 
L -3.5 0 
" style="stroke: #000000; stroke-width: 0.8"/>
      </defs>
      <g>
       <use xlink:href="#m63a3d857dd" x="57.6" y="266.756882" style="stroke: #000000; stroke-width: 0.8"/>
      </g>
     </g>
     <g id="text_9">
      <!-- 0.0 -->
      <g transform="translate(34.696875 270.556101)scale(0.1 -0.1)">
       <defs>
        <path id="DejaVuSans-2e" d="M 684 794 
L 1344 794 
L 1344 0 
L 684 0 
L 684 794 
z
" transform="scale(0.015625)"/>
       </defs>
       <use xlink:href="#DejaVuSans-30"/>
       <use xlink:href="#DejaVuSans-2e" x="63.623047"/>
       <use xlink:href="#DejaVuSans-30" x="95.410156"/>
      </g>
     </g>
    </g>
    <g id="ytick_2">
     <g id="line2d_9">
      <g>
       <use xlink:href="#m63a3d857dd" x="57.6" y="215.729221" style="stroke: #000000; stroke-width: 0.8"/>
      </g>
     </g>
     <g id="text_10">
      <!-- 0.1 -->
      <g transform="translate(34.696875 219.528439)scale(0.1 -0.1)">
       <use xlink:href="#DejaVuSans-30"/>
       <use xlink:href="#DejaVuSans-2e" x="63.623047"/>
       <use xlink:href="#DejaVuSans-31" x="95.410156"/>
      </g>
     </g>
    </g>
    <g id="ytick_3">
     <g id="line2d_10">
      <g>
       <use xlink:href="#m63a3d857dd" x="57.6" y="164.701559" style="stroke: #000000; stroke-width: 0.8"/>
      </g>
     </g>
     <g id="text_11">
      <!-- 0.2 -->
      <g transform="translate(34.696875 168.500778)scale(0.1 -0.1)">
       <use xlink:href="#DejaVuSans-30"/>
       <use xlink:href="#DejaVuSans-2e" x="63.623047"/>
       <use xlink:href="#DejaVuSans-32" x="95.410156"/>
      </g>
     </g>
    </g>
    <g id="ytick_4">
     <g id="line2d_11">
      <g>
       <use xlink:href="#m63a3d857dd" x="57.6" y="113.673897" style="stroke: #000000; stroke-width: 0.8"/>
      </g>
     </g>
     <g id="text_12">
      <!-- 0.3 -->
      <g transform="translate(34.696875 117.473116)scale(0.1 -0.1)">
       <use xlink:href="#DejaVuSans-30"/>
       <use xlink:href="#DejaVuSans-2e" x="63.623047"/>
       <use xlink:href="#DejaVuSans-33" x="95.410156"/>
      </g>
     </g>
    </g>
    <g id="ytick_5">
     <g id="line2d_12">
      <g>
       <use xlink:href="#m63a3d857dd" x="57.6" y="62.646235" style="stroke: #000000; stroke-width: 0.8"/>
      </g>
     </g>
     <g id="text_13">
      <!-- 0.4 -->
      <g transform="translate(34.696875 66.445454)scale(0.1 -0.1)">
       <defs>
        <path id="DejaVuSans-34" d="M 2419 4116 
L 825 1625 
L 2419 1625 
L 2419 4116 
z
M 2253 4666 
L 3047 4666 
L 3047 1625 
L 3713 1625 
L 3713 1100 
L 3047 1100 
L 3047 0 
L 2419 0 
L 2419 1100 
L 313 1100 
L 313 1709 
L 2253 4666 
z
" transform="scale(0.015625)"/>
       </defs>
       <use xlink:href="#DejaVuSans-30"/>
       <use xlink:href="#DejaVuSans-2e" x="63.623047"/>
       <use xlink:href="#DejaVuSans-34" x="95.410156"/>
      </g>
     </g>
    </g>
    <g id="text_14">
     <!-- Normalized Voltage(V) -->
     <g transform="translate(28.617187 230.550656)rotate(-90)scale(0.1 -0.1)">
      <defs>
       <path id="DejaVuSans-4e" d="M 628 4666 
L 1478 4666 
L 3547 763 
L 3547 4666 
L 4159 4666 
L 4159 0 
L 3309 0 
L 1241 3903 
L 1241 0 
L 628 0 
L 628 4666 
z
" transform="scale(0.015625)"/>
       <path id="DejaVuSans-6f" d="M 1959 3097 
Q 1497 3097 1228 2736 
Q 959 2375 959 1747 
Q 959 1119 1226 758 
Q 1494 397 1959 397 
Q 2419 397 2687 759 
Q 2956 1122 2956 1747 
Q 2956 2369 2687 2733 
Q 2419 3097 1959 3097 
z
M 1959 3584 
Q 2709 3584 3137 3096 
Q 3566 2609 3566 1747 
Q 3566 888 3137 398 
Q 2709 -91 1959 -91 
Q 1206 -91 779 398 
Q 353 888 353 1747 
Q 353 2609 779 3096 
Q 1206 3584 1959 3584 
z
" transform="scale(0.015625)"/>
       <path id="DejaVuSans-72" d="M 2631 2963 
Q 2534 3019 2420 3045 
Q 2306 3072 2169 3072 
Q 1681 3072 1420 2755 
Q 1159 2438 1159 1844 
L 1159 0 
L 581 0 
L 581 3500 
L 1159 3500 
L 1159 2956 
Q 1341 3275 1631 3429 
Q 1922 3584 2338 3584 
Q 2397 3584 2469 3576 
Q 2541 3569 2628 3553 
L 2631 2963 
z
" transform="scale(0.015625)"/>
       <path id="DejaVuSans-61" d="M 2194 1759 
Q 1497 1759 1228 1600 
Q 959 1441 959 1056 
Q 959 750 1161 570 
Q 1363 391 1709 391 
Q 2188 391 2477 730 
Q 2766 1069 2766 1631 
L 2766 1759 
L 2194 1759 
z
M 3341 1997 
L 3341 0 
L 2766 0 
L 2766 531 
Q 2569 213 2275 61 
Q 1981 -91 1556 -91 
Q 1019 -91 701 211 
Q 384 513 384 1019 
Q 384 1609 779 1909 
Q 1175 2209 1959 2209 
L 2766 2209 
L 2766 2266 
Q 2766 2663 2505 2880 
Q 2244 3097 1772 3097 
Q 1472 3097 1187 3025 
Q 903 2953 641 2809 
L 641 3341 
Q 956 3463 1253 3523 
Q 1550 3584 1831 3584 
Q 2591 3584 2966 3190 
Q 3341 2797 3341 1997 
z
" transform="scale(0.015625)"/>
       <path id="DejaVuSans-6c" d="M 603 4863 
L 1178 4863 
L 1178 0 
L 603 0 
L 603 4863 
z
" transform="scale(0.015625)"/>
       <path id="DejaVuSans-7a" d="M 353 3500 
L 3084 3500 
L 3084 2975 
L 922 459 
L 3084 459 
L 3084 0 
L 275 0 
L 275 525 
L 2438 3041 
L 353 3041 
L 353 3500 
z
" transform="scale(0.015625)"/>
       <path id="DejaVuSans-64" d="M 2906 2969 
L 2906 4863 
L 3481 4863 
L 3481 0 
L 2906 0 
L 2906 525 
Q 2725 213 2448 61 
Q 2172 -91 1784 -91 
Q 1150 -91 751 415 
Q 353 922 353 1747 
Q 353 2572 751 3078 
Q 1150 3584 1784 3584 
Q 2172 3584 2448 3432 
Q 2725 3281 2906 2969 
z
M 947 1747 
Q 947 1113 1208 752 
Q 1469 391 1925 391 
Q 2381 391 2643 752 
Q 2906 1113 2906 1747 
Q 2906 2381 2643 2742 
Q 2381 3103 1925 3103 
Q 1469 3103 1208 2742 
Q 947 2381 947 1747 
z
" transform="scale(0.015625)"/>
       <path id="DejaVuSans-20" transform="scale(0.015625)"/>
       <path id="DejaVuSans-56" d="M 1831 0 
L 50 4666 
L 709 4666 
L 2188 738 
L 3669 4666 
L 4325 4666 
L 2547 0 
L 1831 0 
z
" transform="scale(0.015625)"/>
       <path id="DejaVuSans-74" d="M 1172 4494 
L 1172 3500 
L 2356 3500 
L 2356 3053 
L 1172 3053 
L 1172 1153 
Q 1172 725 1289 603 
Q 1406 481 1766 481 
L 2356 481 
L 2356 0 
L 1766 0 
Q 1100 0 847 248 
Q 594 497 594 1153 
L 594 3053 
L 172 3053 
L 172 3500 
L 594 3500 
L 594 4494 
L 1172 4494 
z
" transform="scale(0.015625)"/>
       <path id="DejaVuSans-67" d="M 2906 1791 
Q 2906 2416 2648 2759 
Q 2391 3103 1925 3103 
Q 1463 3103 1205 2759 
Q 947 2416 947 1791 
Q 947 1169 1205 825 
Q 1463 481 1925 481 
Q 2391 481 2648 825 
Q 2906 1169 2906 1791 
z
M 3481 434 
Q 3481 -459 3084 -895 
Q 2688 -1331 1869 -1331 
Q 1566 -1331 1297 -1286 
Q 1028 -1241 775 -1147 
L 775 -588 
Q 1028 -725 1275 -790 
Q 1522 -856 1778 -856 
Q 2344 -856 2625 -561 
Q 2906 -266 2906 331 
L 2906 616 
Q 2728 306 2450 153 
Q 2172 0 1784 0 
Q 1141 0 747 490 
Q 353 981 353 1791 
Q 353 2603 747 3093 
Q 1141 3584 1784 3584 
Q 2172 3584 2450 3431 
Q 2728 3278 2906 2969 
L 2906 3500 
L 3481 3500 
L 3481 434 
z
" transform="scale(0.015625)"/>
      </defs>
      <use xlink:href="#DejaVuSans-4e"/>
      <use xlink:href="#DejaVuSans-6f" x="74.804688"/>
      <use xlink:href="#DejaVuSans-72" x="135.986328"/>
      <use xlink:href="#DejaVuSans-6d" x="175.349609"/>
      <use xlink:href="#DejaVuSans-61" x="272.761719"/>
      <use xlink:href="#DejaVuSans-6c" x="334.041016"/>
      <use xlink:href="#DejaVuSans-69" x="361.824219"/>
      <use xlink:href="#DejaVuSans-7a" x="389.607422"/>
      <use xlink:href="#DejaVuSans-65" x="442.097656"/>
      <use xlink:href="#DejaVuSans-64" x="503.621094"/>
      <use xlink:href="#DejaVuSans-20" x="567.097656"/>
      <use xlink:href="#DejaVuSans-56" x="598.884766"/>
      <use xlink:href="#DejaVuSans-6f" x="659.542969"/>
      <use xlink:href="#DejaVuSans-6c" x="720.724609"/>
      <use xlink:href="#DejaVuSans-74" x="748.507812"/>
      <use xlink:href="#DejaVuSans-61" x="787.716797"/>
      <use xlink:href="#DejaVuSans-67" x="848.996094"/>
      <use xlink:href="#DejaVuSans-65" x="912.472656"/>
      <use xlink:href="#DejaVuSans-28" x="973.996094"/>
      <use xlink:href="#DejaVuSans-56" x="1013.009766"/>
      <use xlink:href="#DejaVuSans-29" x="1081.417969"/>
     </g>
    </g>
   </g>
   <g id="line2d_13">
    <path d="M 73.832727 278.029856 
L 74.854788 240.619546 
L 75.44598 253.089649 
L 76.46804 260.571711 
L 77.049212 258.077691 
L 77.640404 263.065732 
L 79.233616 270.547794 
L 79.834828 260.571711 
L 80.856889 253.089649 
L 81.438061 250.595629 
L 82.640485 243.113567 
L 83.231677 255.58367 
L 83.822869 250.595629 
L 84.414061 248.101608 
L 85.015273 255.58367 
L 85.596444 255.58367 
L 86.638545 283.017897 
L 87.229737 258.077691 
L 87.810909 253.089649 
L 88.412121 273.041814 
L 89.003313 245.607588 
L 89.634586 260.571711 
L 90.215758 233.137485 
L 90.806949 258.077691 
L 91.398141 250.595629 
L 91.989333 238.125526 
L 92.570505 263.065732 
L 94.213818 245.607588 
L 94.80501 265.559753 
L 95.396202 248.101608 
L 95.977374 240.619546 
L 96.578586 250.595629 
L 97.189818 240.619546 
L 97.78101 240.619546 
L 98.382222 245.607588 
L 98.963394 255.58367 
L 99.564606 255.58367 
L 100.586667 250.595629 
L 101.187879 235.631505 
L 101.769051 233.137485 
L 102.360242 258.077691 
L 102.961455 243.113567 
L 103.552646 250.595629 
L 104.143838 255.58367 
L 105.155879 228.149443 
L 106.177939 235.631505 
L 106.779152 243.113567 
L 107.370343 243.113567 
L 107.961535 240.619546 
L 108.552727 245.607588 
L 109.143919 243.113567 
L 109.735111 243.113567 
L 110.326303 245.607588 
L 111.348364 233.137485 
L 111.959596 233.137485 
L 112.570828 243.113567 
L 113.16202 233.137485 
L 113.753212 248.101608 
L 114.334384 235.631505 
L 114.935596 230.643464 
L 115.516768 230.643464 
L 116.11798 225.655423 
L 117.160081 238.125526 
L 117.741253 255.58367 
L 118.342465 238.125526 
L 118.923636 225.655423 
L 119.514828 243.113567 
L 120.136081 235.631505 
L 120.727273 235.631505 
L 122.500848 220.667381 
L 123.102061 240.619546 
L 124.124121 220.667381 
L 125.316525 230.643464 
L 125.907717 238.125526 
L 126.508929 223.161402 
L 127.100121 218.173361 
L 129.484929 238.125526 
L 130.50699 225.655423 
L 131.098182 233.137485 
L 131.679354 220.667381 
L 132.260525 245.607588 
L 133.292606 235.631505 
L 133.883798 225.655423 
L 134.46497 230.643464 
L 135.056162 240.619546 
L 136.699475 233.137485 
L 137.280646 230.643464 
L 137.861818 225.655423 
L 138.46303 235.631505 
L 139.485091 235.631505 
L 140.076283 230.643464 
L 140.657455 223.161402 
L 141.238626 223.161402 
L 142.260687 215.67934 
L 142.861899 228.149443 
L 143.853899 225.655423 
L 144.455111 203.209237 
L 145.036283 220.667381 
L 145.637495 220.667381 
L 146.218667 230.643464 
L 147.260768 255.58367 
L 147.86198 233.137485 
L 148.443152 218.173361 
L 149.044364 215.67934 
L 149.625535 215.67934 
L 150.216727 240.619546 
L 150.807919 238.125526 
L 151.429172 210.691299 
L 152.030384 215.67934 
L 152.621576 208.197278 
L 153.202747 233.137485 
L 154.244848 220.667381 
L 154.82602 218.173361 
L 155.417212 223.161402 
L 156.008404 218.173361 
L 156.609616 215.67934 
L 157.200808 203.209237 
L 157.792 228.149443 
L 159.004444 210.691299 
L 159.585616 233.137485 
L 160.627717 233.137485 
L 161.810101 213.18532 
L 162.401293 208.197278 
L 162.992485 210.691299 
L 163.583677 233.137485 
L 164.174869 225.655423 
L 165.196929 208.197278 
L 165.808162 220.667381 
L 167.010586 198.221196 
L 167.601778 218.173361 
L 168.182949 220.667381 
L 168.784162 198.221196 
L 169.365333 218.173361 
L 169.966545 203.209237 
L 171.148929 223.161402 
L 172.18101 228.149443 
L 172.772202 200.715216 
L 173.353374 203.209237 
L 173.954586 198.221196 
L 174.575838 205.703258 
L 175.177051 220.667381 
L 176.349414 190.739134 
L 176.950626 215.67934 
L 177.541818 215.67934 
L 178.13301 218.173361 
L 178.724202 225.655423 
L 179.325414 228.149443 
L 180.367515 220.667381 
L 181.129051 208.197278 
L 181.720242 210.691299 
L 182.752323 220.667381 
L 183.353535 208.197278 
L 183.944727 230.643464 
L 184.545939 208.197278 
L 185.137131 203.209237 
L 185.718303 193.233155 
L 186.319515 215.67934 
L 186.910707 215.67934 
L 188.123152 195.727175 
L 188.714343 205.703258 
L 189.746424 230.643464 
L 190.327596 205.703258 
L 190.908768 208.197278 
L 191.49996 225.655423 
L 192.52202 208.197278 
L 193.123232 203.209237 
L 193.704404 208.197278 
L 194.295596 220.667381 
L 195.50804 208.197278 
L 196.520081 210.691299 
L 197.702465 205.703258 
L 198.884848 208.197278 
L 199.886869 198.221196 
L 200.898909 200.715216 
L 202.081293 193.233155 
L 203.293737 220.667381 
L 204.486141 213.18532 
L 205.207596 295.488 
L 207.261737 210.691299 
L 208.444121 215.67934 
L 209.466182 190.739134 
L 210.658586 213.18532 
L 211.84097 210.691299 
L 212.85301 203.209237 
L 213.865051 203.209237 
L 215.057455 205.703258 
L 216.239838 193.233155 
L 217.442263 193.233155 
L 218.624646 198.221196 
L 219.646707 185.751093 
L 221.029495 213.18532 
L 222.211879 193.233155 
L 223.404283 210.691299 
L 224.426343 205.703258 
L 225.618747 200.715216 
L 226.791111 205.703258 
L 228.023596 195.727175 
L 229.216 198.221196 
L 230.398384 183.257072 
L 231.590788 193.233155 
L 232.602828 188.245113 
L 233.795232 180.763052 
L 234.987636 198.221196 
L 236.190061 195.727175 
L 237.382465 185.751093 
L 238.584889 208.197278 
L 239.777293 190.739134 
L 240.959677 188.245113 
L 242.142061 170.786969 
L 243.164121 178.269031 
L 243.875556 292.993979 
L 244.556929 188.245113 
L 245.749333 198.221196 
L 246.761374 205.703258 
L 247.953778 213.18532 
L 249.156202 225.655423 
L 250.328566 203.209237 
L 251.52097 218.173361 
L 252.723394 218.173361 
L 253.915798 208.197278 
L 254.927838 205.703258 
L 255.939879 208.197278 
L 257.112242 210.691299 
L 258.124283 210.691299 
L 259.306667 208.197278 
L 260.509091 200.715216 
L 261.531152 208.197278 
L 262.703515 208.197278 
L 263.715556 173.28099 
L 264.90796 185.751093 
L 266.070303 203.209237 
L 267.092364 188.245113 
L 268.294788 195.727175 
L 269.487192 158.316866 
L 271.872 158.316866 
L 272.88404 180.763052 
L 274.066424 185.751093 
L 275.459232 173.28099 
L 276.651636 188.245113 
L 277.663677 195.727175 
L 278.856081 200.715216 
L 280.048485 198.221196 
L 281.240889 203.209237 
L 282.252929 208.197278 
L 283.635717 190.739134 
L 284.828121 193.233155 
L 286.020525 193.233155 
L 287.032566 180.763052 
L 288.22497 180.763052 
L 290.609778 185.751093 
L 291.832242 153.328825 
L 293.615838 140.858722 
L 294.798222 93.47233 
L 295.990626 63.544082 
L 297.012687 145.846763 
L 298.195071 175.77501 
L 299.387475 190.739134 
L 300.389495 205.703258 
L 301.571879 183.257072 
L 302.593939 185.751093 
L 303.776323 180.763052 
L 304.978747 168.292948 
L 306.171152 165.798928 
L 307.353535 110.930474 
L 308.576 71.026144 
L 309.598061 155.822845 
L 312.143192 205.703258 
L 313.155232 198.221196 
L 314.347636 183.257072 
L 315.54004 173.28099 
L 316.752485 200.715216 
L 318.936889 76.014186 
L 320.119273 58.556041 
L 321.131313 53.568 
L 322.133333 153.328825 
L 323.315717 183.257072 
L 325.109333 193.233155 
L 326.121374 200.715216 
L 327.293737 198.221196 
L 328.315798 198.221196 
L 329.498182 185.751093 
L 330.670545 168.292948 
L 331.88299 100.954392 
L 332.915071 58.556041 
L 334.087434 81.002227 
L 336.311919 210.691299 
L 337.674667 223.161402 
L 338.857051 220.667381 
L 340.069495 225.655423 
L 341.261899 223.161402 
L 342.454303 228.149443 
L 343.476364 238.125526 
L 344.658747 223.161402 
L 345.861172 185.751093 
L 347.053576 210.691299 
L 348.26602 210.691299 
L 349.448404 208.197278 
L 350.630788 213.18532 
L 351.833212 208.197278 
L 353.015596 215.67934 
L 354.037657 210.691299 
L 355.410424 218.173361 
L 356.612848 203.209237 
L 357.624889 213.18532 
L 358.817293 200.715216 
L 359.999677 200.715216 
L 361.011717 220.667381 
L 362.384485 210.691299 
L 363.596929 208.197278 
L 364.61899 205.703258 
L 365.811394 205.703258 
L 366.993778 230.643464 
L 368.186182 198.221196 
L 369.208242 218.173361 
L 370.390626 223.161402 
L 371.783434 195.727175 
L 372.965818 210.691299 
L 373.987879 218.173361 
L 375.350626 203.209237 
L 376.362667 203.209237 
L 377.565091 198.221196 
L 378.757495 200.715216 
L 380.731475 195.727175 
L 381.753535 208.197278 
L 382.765576 173.28099 
L 383.94796 195.727175 
L 385.130343 210.691299 
L 386.142384 215.67934 
L 387.324768 200.715216 
L 388.146424 208.197278 
L 389.328808 213.18532 
L 391.533253 213.18532 
L 392.705616 198.221196 
L 393.717657 190.739134 
L 394.90004 203.209237 
L 396.102465 200.715216 
L 397.304889 208.197278 
L 398.487273 203.209237 
L 398.487273 203.209237 
" clip-path="url(#p4969e939ef)" style="fill: none; stroke: #1f77b4; stroke-width: 1.5; stroke-linecap: square"/>
   </g>
   <g id="patch_3">
    <path d="M 57.6 307.584 
L 57.6 41.472 
" style="fill: none; stroke: #000000; stroke-width: 0.8; stroke-linejoin: miter; stroke-linecap: square"/>
   </g>
   <g id="patch_4">
    <path d="M 414.72 307.584 
L 414.72 41.472 
" style="fill: none; stroke: #000000; stroke-width: 0.8; stroke-linejoin: miter; stroke-linecap: square"/>
   </g>
   <g id="patch_5">
    <path d="M 57.6 307.584 
L 414.72 307.584 
" style="fill: none; stroke: #000000; stroke-width: 0.8; stroke-linejoin: miter; stroke-linecap: square"/>
   </g>
   <g id="patch_6">
    <path d="M 57.6 41.472 
L 414.72 41.472 
" style="fill: none; stroke: #000000; stroke-width: 0.8; stroke-linejoin: miter; stroke-linecap: square"/>
   </g>
   <g id="text_15">
    <!-- T1234 -->
    <g transform="translate(217.225313 35.472)scale(0.12 -0.12)">
     <use xlink:href="#DejaVuSans-54"/>
     <use xlink:href="#DejaVuSans-31" x="61.083984"/>
     <use xlink:href="#DejaVuSans-32" x="124.707031"/>
     <use xlink:href="#DejaVuSans-33" x="188.330078"/>
     <use xlink:href="#DejaVuSans-34" x="251.953125"/>
    </g>
   </g>
  </g>
 </g>
 <defs>
  <clipPath id="p4969e939ef">
   <rect x="57.6" y="41.472" width="357.12" height="266.112"/>
  </clipPath>
 </defs>
</svg>
