<?xml version="1.0" encoding="utf-8" standalone="no"?>
<!DOCTYPE svg PUBLIC "-//W3C//DTD SVG 1.1//EN"
  "http://www.w3.org/Graphics/SVG/1.1/DTD/svg11.dtd">
<svg xmlns:xlink="http://www.w3.org/1999/xlink" width="720pt" height="360pt" viewBox="0 0 720 360" xmlns="http://www.w3.org/2000/svg" version="1.1">
 <metadata>
  <rdf:RDF xmlns:dc="http://purl.org/dc/elements/1.1/" xmlns:cc="http://creativecommons.org/ns#" xmlns:rdf="http://www.w3.org/1999/02/22-rdf-syntax-ns#">
   <cc:Work>
    <dc:type rdf:resource="http://purl.org/dc/dcmitype/StillImage"/>
    <dc:date>2022-10-03T10:34:40.205086</dc:date>
    <dc:format>image/svg+xml</dc:format>
    <dc:creator>
     <cc:Agent>
      <dc:title>Matplotlib v3.5.3, https://matplotlib.org/</dc:title>
     </cc:Agent>
    </dc:creator>
   </cc:Work>
  </rdf:RDF>
 </metadata>
 <defs>
  <style type="text/css">*{stroke-linejoin: round; stroke-linecap: butt}</style>
 </defs>
 <g id="figure_1">
  <g id="patch_1">
   <path d="M 0 360 
L 720 360 
L 720 0 
L 0 0 
z
" style="fill: #ffffff"/>
  </g>
  <g id="axes_1">
   <g id="patch_2">
    <path d="M 90 320.4 
L 648 320.4 
L 648 43.2 
L 90 43.2 
z
" style="fill: #ffffff"/>
   </g>
   <g id="matplotlib.axis_1">
    <g id="xtick_1">
     <g id="line2d_1">
      <defs>
       <path id="m38e6540480" d="M 0 0 
L 0 3.5 
" style="stroke: #000000; stroke-width: 0.8"/>
      </defs>
      <g>
       <use xlink:href="#m38e6540480" x="115.021169" y="320.4" style="stroke: #000000; stroke-width: 0.8"/>
      </g>
     </g>
     <g id="text_1">
      <!-- 0 -->
      <g transform="translate(111.839919 334.998438)scale(0.1 -0.1)">
       <defs>
        <path id="DejaVuSans-30" d="M 2034 4250 
Q 1547 4250 1301 3770 
Q 1056 3291 1056 2328 
Q 1056 1369 1301 889 
Q 1547 409 2034 409 
Q 2525 409 2770 889 
Q 3016 1369 3016 2328 
Q 3016 3291 2770 3770 
Q 2525 4250 2034 4250 
z
M 2034 4750 
Q 2819 4750 3233 4129 
Q 3647 3509 3647 2328 
Q 3647 1150 3233 529 
Q 2819 -91 2034 -91 
Q 1250 -91 836 529 
Q 422 1150 422 2328 
Q 422 3509 836 4129 
Q 1250 4750 2034 4750 
z
" transform="scale(0.015625)"/>
       </defs>
       <use xlink:href="#DejaVuSans-30"/>
      </g>
     </g>
    </g>
    <g id="xtick_2">
     <g id="line2d_2">
      <g>
       <use xlink:href="#m38e6540480" x="192.854772" y="320.4" style="stroke: #000000; stroke-width: 0.8"/>
      </g>
     </g>
     <g id="text_2">
      <!-- 5 -->
      <g transform="translate(189.673522 334.998438)scale(0.1 -0.1)">
       <defs>
        <path id="DejaVuSans-35" d="M 691 4666 
L 3169 4666 
L 3169 4134 
L 1269 4134 
L 1269 2991 
Q 1406 3038 1543 3061 
Q 1681 3084 1819 3084 
Q 2600 3084 3056 2656 
Q 3513 2228 3513 1497 
Q 3513 744 3044 326 
Q 2575 -91 1722 -91 
Q 1428 -91 1123 -41 
Q 819 9 494 109 
L 494 744 
Q 775 591 1075 516 
Q 1375 441 1709 441 
Q 2250 441 2565 725 
Q 2881 1009 2881 1497 
Q 2881 1984 2565 2268 
Q 2250 2553 1709 2553 
Q 1456 2553 1204 2497 
Q 953 2441 691 2322 
L 691 4666 
z
" transform="scale(0.015625)"/>
       </defs>
       <use xlink:href="#DejaVuSans-35"/>
      </g>
     </g>
    </g>
    <g id="xtick_3">
     <g id="line2d_3">
      <g>
       <use xlink:href="#m38e6540480" x="270.688375" y="320.4" style="stroke: #000000; stroke-width: 0.8"/>
      </g>
     </g>
     <g id="text_3">
      <!-- 10 -->
      <g transform="translate(264.325875 334.998438)scale(0.1 -0.1)">
       <defs>
        <path id="DejaVuSans-31" d="M 794 531 
L 1825 531 
L 1825 4091 
L 703 3866 
L 703 4441 
L 1819 4666 
L 2450 4666 
L 2450 531 
L 3481 531 
L 3481 0 
L 794 0 
L 794 531 
z
" transform="scale(0.015625)"/>
       </defs>
       <use xlink:href="#DejaVuSans-31"/>
       <use xlink:href="#DejaVuSans-30" x="63.623047"/>
      </g>
     </g>
    </g>
    <g id="xtick_4">
     <g id="line2d_4">
      <g>
       <use xlink:href="#m38e6540480" x="348.521979" y="320.4" style="stroke: #000000; stroke-width: 0.8"/>
      </g>
     </g>
     <g id="text_4">
      <!-- 15 -->
      <g transform="translate(342.159479 334.998438)scale(0.1 -0.1)">
       <use xlink:href="#DejaVuSans-31"/>
       <use xlink:href="#DejaVuSans-35" x="63.623047"/>
      </g>
     </g>
    </g>
    <g id="xtick_5">
     <g id="line2d_5">
      <g>
       <use xlink:href="#m38e6540480" x="426.355582" y="320.4" style="stroke: #000000; stroke-width: 0.8"/>
      </g>
     </g>
     <g id="text_5">
      <!-- 20 -->
      <g transform="translate(419.993082 334.998438)scale(0.1 -0.1)">
       <defs>
        <path id="DejaVuSans-32" d="M 1228 531 
L 3431 531 
L 3431 0 
L 469 0 
L 469 531 
Q 828 903 1448 1529 
Q 2069 2156 2228 2338 
Q 2531 2678 2651 2914 
Q 2772 3150 2772 3378 
Q 2772 3750 2511 3984 
Q 2250 4219 1831 4219 
Q 1534 4219 1204 4116 
Q 875 4013 500 3803 
L 500 4441 
Q 881 4594 1212 4672 
Q 1544 4750 1819 4750 
Q 2544 4750 2975 4387 
Q 3406 4025 3406 3419 
Q 3406 3131 3298 2873 
Q 3191 2616 2906 2266 
Q 2828 2175 2409 1742 
Q 1991 1309 1228 531 
z
" transform="scale(0.015625)"/>
       </defs>
       <use xlink:href="#DejaVuSans-32"/>
       <use xlink:href="#DejaVuSans-30" x="63.623047"/>
      </g>
     </g>
    </g>
    <g id="xtick_6">
     <g id="line2d_6">
      <g>
       <use xlink:href="#m38e6540480" x="504.189186" y="320.4" style="stroke: #000000; stroke-width: 0.8"/>
      </g>
     </g>
     <g id="text_6">
      <!-- 25 -->
      <g transform="translate(497.826686 334.998438)scale(0.1 -0.1)">
       <use xlink:href="#DejaVuSans-32"/>
       <use xlink:href="#DejaVuSans-35" x="63.623047"/>
      </g>
     </g>
    </g>
    <g id="xtick_7">
     <g id="line2d_7">
      <g>
       <use xlink:href="#m38e6540480" x="582.022789" y="320.4" style="stroke: #000000; stroke-width: 0.8"/>
      </g>
     </g>
     <g id="text_7">
      <!-- 30 -->
      <g transform="translate(575.660289 334.998438)scale(0.1 -0.1)">
       <defs>
        <path id="DejaVuSans-33" d="M 2597 2516 
Q 3050 2419 3304 2112 
Q 3559 1806 3559 1356 
Q 3559 666 3084 287 
Q 2609 -91 1734 -91 
Q 1441 -91 1130 -33 
Q 819 25 488 141 
L 488 750 
Q 750 597 1062 519 
Q 1375 441 1716 441 
Q 2309 441 2620 675 
Q 2931 909 2931 1356 
Q 2931 1769 2642 2001 
Q 2353 2234 1838 2234 
L 1294 2234 
L 1294 2753 
L 1863 2753 
Q 2328 2753 2575 2939 
Q 2822 3125 2822 3475 
Q 2822 3834 2567 4026 
Q 2313 4219 1838 4219 
Q 1578 4219 1281 4162 
Q 984 4106 628 3988 
L 628 4550 
Q 988 4650 1302 4700 
Q 1616 4750 1894 4750 
Q 2613 4750 3031 4423 
Q 3450 4097 3450 3541 
Q 3450 3153 3228 2886 
Q 3006 2619 2597 2516 
z
" transform="scale(0.015625)"/>
       </defs>
       <use xlink:href="#DejaVuSans-33"/>
       <use xlink:href="#DejaVuSans-30" x="63.623047"/>
      </g>
     </g>
    </g>
   </g>
   <g id="matplotlib.axis_2">
    <g id="ytick_1">
     <g id="line2d_8">
      <defs>
       <path id="m514fc4c1eb" d="M 0 0 
L -3.5 0 
" style="stroke: #000000; stroke-width: 0.8"/>
      </defs>
      <g>
       <use xlink:href="#m514fc4c1eb" x="90" y="319.085217" style="stroke: #000000; stroke-width: 0.8"/>
      </g>
     </g>
     <g id="text_8">
      <!-- −3.3 -->
      <g transform="translate(58.717187 322.884436)scale(0.1 -0.1)">
       <defs>
        <path id="DejaVuSans-2212" d="M 678 2272 
L 4684 2272 
L 4684 1741 
L 678 1741 
L 678 2272 
z
" transform="scale(0.015625)"/>
        <path id="DejaVuSans-2e" d="M 684 794 
L 1344 794 
L 1344 0 
L 684 0 
L 684 794 
z
" transform="scale(0.015625)"/>
       </defs>
       <use xlink:href="#DejaVuSans-2212"/>
       <use xlink:href="#DejaVuSans-33" x="83.789062"/>
       <use xlink:href="#DejaVuSans-2e" x="147.412109"/>
       <use xlink:href="#DejaVuSans-33" x="179.199219"/>
      </g>
     </g>
    </g>
    <g id="ytick_2">
     <g id="line2d_9">
      <g>
       <use xlink:href="#m514fc4c1eb" x="90" y="281.723478" style="stroke: #000000; stroke-width: 0.8"/>
      </g>
     </g>
     <g id="text_9">
      <!-- −3.2 -->
      <g transform="translate(58.717187 285.522697)scale(0.1 -0.1)">
       <use xlink:href="#DejaVuSans-2212"/>
       <use xlink:href="#DejaVuSans-33" x="83.789062"/>
       <use xlink:href="#DejaVuSans-2e" x="147.412109"/>
       <use xlink:href="#DejaVuSans-32" x="179.199219"/>
      </g>
     </g>
    </g>
    <g id="ytick_3">
     <g id="line2d_10">
      <g>
       <use xlink:href="#m514fc4c1eb" x="90" y="244.361739" style="stroke: #000000; stroke-width: 0.8"/>
      </g>
     </g>
     <g id="text_10">
      <!-- −3.1 -->
      <g transform="translate(58.717187 248.160958)scale(0.1 -0.1)">
       <use xlink:href="#DejaVuSans-2212"/>
       <use xlink:href="#DejaVuSans-33" x="83.789062"/>
       <use xlink:href="#DejaVuSans-2e" x="147.412109"/>
       <use xlink:href="#DejaVuSans-31" x="179.199219"/>
      </g>
     </g>
    </g>
    <g id="ytick_4">
     <g id="line2d_11">
      <g>
       <use xlink:href="#m514fc4c1eb" x="90" y="207" style="stroke: #000000; stroke-width: 0.8"/>
      </g>
     </g>
     <g id="text_11">
      <!-- −3.0 -->
      <g transform="translate(58.717187 210.799219)scale(0.1 -0.1)">
       <use xlink:href="#DejaVuSans-2212"/>
       <use xlink:href="#DejaVuSans-33" x="83.789062"/>
       <use xlink:href="#DejaVuSans-2e" x="147.412109"/>
       <use xlink:href="#DejaVuSans-30" x="179.199219"/>
      </g>
     </g>
    </g>
    <g id="ytick_5">
     <g id="line2d_12">
      <g>
       <use xlink:href="#m514fc4c1eb" x="90" y="169.638261" style="stroke: #000000; stroke-width: 0.8"/>
      </g>
     </g>
     <g id="text_12">
      <!-- −2.9 -->
      <g transform="translate(58.717187 173.43748)scale(0.1 -0.1)">
       <defs>
        <path id="DejaVuSans-39" d="M 703 97 
L 703 672 
Q 941 559 1184 500 
Q 1428 441 1663 441 
Q 2288 441 2617 861 
Q 2947 1281 2994 2138 
Q 2813 1869 2534 1725 
Q 2256 1581 1919 1581 
Q 1219 1581 811 2004 
Q 403 2428 403 3163 
Q 403 3881 828 4315 
Q 1253 4750 1959 4750 
Q 2769 4750 3195 4129 
Q 3622 3509 3622 2328 
Q 3622 1225 3098 567 
Q 2575 -91 1691 -91 
Q 1453 -91 1209 -44 
Q 966 3 703 97 
z
M 1959 2075 
Q 2384 2075 2632 2365 
Q 2881 2656 2881 3163 
Q 2881 3666 2632 3958 
Q 2384 4250 1959 4250 
Q 1534 4250 1286 3958 
Q 1038 3666 1038 3163 
Q 1038 2656 1286 2365 
Q 1534 2075 1959 2075 
z
" transform="scale(0.015625)"/>
       </defs>
       <use xlink:href="#DejaVuSans-2212"/>
       <use xlink:href="#DejaVuSans-32" x="83.789062"/>
       <use xlink:href="#DejaVuSans-2e" x="147.412109"/>
       <use xlink:href="#DejaVuSans-39" x="179.199219"/>
      </g>
     </g>
    </g>
    <g id="ytick_6">
     <g id="line2d_13">
      <g>
       <use xlink:href="#m514fc4c1eb" x="90" y="132.276522" style="stroke: #000000; stroke-width: 0.8"/>
      </g>
     </g>
     <g id="text_13">
      <!-- −2.8 -->
      <g transform="translate(58.717187 136.07574)scale(0.1 -0.1)">
       <defs>
        <path id="DejaVuSans-38" d="M 2034 2216 
Q 1584 2216 1326 1975 
Q 1069 1734 1069 1313 
Q 1069 891 1326 650 
Q 1584 409 2034 409 
Q 2484 409 2743 651 
Q 3003 894 3003 1313 
Q 3003 1734 2745 1975 
Q 2488 2216 2034 2216 
z
M 1403 2484 
Q 997 2584 770 2862 
Q 544 3141 544 3541 
Q 544 4100 942 4425 
Q 1341 4750 2034 4750 
Q 2731 4750 3128 4425 
Q 3525 4100 3525 3541 
Q 3525 3141 3298 2862 
Q 3072 2584 2669 2484 
Q 3125 2378 3379 2068 
Q 3634 1759 3634 1313 
Q 3634 634 3220 271 
Q 2806 -91 2034 -91 
Q 1263 -91 848 271 
Q 434 634 434 1313 
Q 434 1759 690 2068 
Q 947 2378 1403 2484 
z
M 1172 3481 
Q 1172 3119 1398 2916 
Q 1625 2713 2034 2713 
Q 2441 2713 2670 2916 
Q 2900 3119 2900 3481 
Q 2900 3844 2670 4047 
Q 2441 4250 2034 4250 
Q 1625 4250 1398 4047 
Q 1172 3844 1172 3481 
z
" transform="scale(0.015625)"/>
       </defs>
       <use xlink:href="#DejaVuSans-2212"/>
       <use xlink:href="#DejaVuSans-32" x="83.789062"/>
       <use xlink:href="#DejaVuSans-2e" x="147.412109"/>
       <use xlink:href="#DejaVuSans-38" x="179.199219"/>
      </g>
     </g>
    </g>
    <g id="ytick_7">
     <g id="line2d_14">
      <g>
       <use xlink:href="#m514fc4c1eb" x="90" y="94.914783" style="stroke: #000000; stroke-width: 0.8"/>
      </g>
     </g>
     <g id="text_14">
      <!-- −2.7 -->
      <g transform="translate(58.717187 98.714001)scale(0.1 -0.1)">
       <defs>
        <path id="DejaVuSans-37" d="M 525 4666 
L 3525 4666 
L 3525 4397 
L 1831 0 
L 1172 0 
L 2766 4134 
L 525 4134 
L 525 4666 
z
" transform="scale(0.015625)"/>
       </defs>
       <use xlink:href="#DejaVuSans-2212"/>
       <use xlink:href="#DejaVuSans-32" x="83.789062"/>
       <use xlink:href="#DejaVuSans-2e" x="147.412109"/>
       <use xlink:href="#DejaVuSans-37" x="179.199219"/>
      </g>
     </g>
    </g>
    <g id="ytick_8">
     <g id="line2d_15">
      <g>
       <use xlink:href="#m514fc4c1eb" x="90" y="57.553043" style="stroke: #000000; stroke-width: 0.8"/>
      </g>
     </g>
     <g id="text_15">
      <!-- −2.6 -->
      <g transform="translate(58.717187 61.352262)scale(0.1 -0.1)">
       <defs>
        <path id="DejaVuSans-36" d="M 2113 2584 
Q 1688 2584 1439 2293 
Q 1191 2003 1191 1497 
Q 1191 994 1439 701 
Q 1688 409 2113 409 
Q 2538 409 2786 701 
Q 3034 994 3034 1497 
Q 3034 2003 2786 2293 
Q 2538 2584 2113 2584 
z
M 3366 4563 
L 3366 3988 
Q 3128 4100 2886 4159 
Q 2644 4219 2406 4219 
Q 1781 4219 1451 3797 
Q 1122 3375 1075 2522 
Q 1259 2794 1537 2939 
Q 1816 3084 2150 3084 
Q 2853 3084 3261 2657 
Q 3669 2231 3669 1497 
Q 3669 778 3244 343 
Q 2819 -91 2113 -91 
Q 1303 -91 875 529 
Q 447 1150 447 2328 
Q 447 3434 972 4092 
Q 1497 4750 2381 4750 
Q 2619 4750 2861 4703 
Q 3103 4656 3366 4563 
z
" transform="scale(0.015625)"/>
       </defs>
       <use xlink:href="#DejaVuSans-2212"/>
       <use xlink:href="#DejaVuSans-32" x="83.789062"/>
       <use xlink:href="#DejaVuSans-2e" x="147.412109"/>
       <use xlink:href="#DejaVuSans-36" x="179.199219"/>
      </g>
     </g>
    </g>
   </g>
   <g id="line2d_16">
    <path d="M 115.363636 284.06087 
L 115.737238 274.930435 
L 115.970738 295.017391 
L 116.188673 232.930435 
L 116.422173 220.147826 
L 116.640107 271.278261 
L 116.873608 280.408696 
L 117.107109 223.8 
L 117.325043 242.06087 
L 117.542977 293.191304 
L 117.792045 260.321739 
L 118.009979 192.756522 
L 118.227913 267.626087 
L 118.461414 296.843478 
L 118.710481 256.669565 
L 118.928415 201.886957 
L 119.37985 307.8 
L 119.597784 232.930435 
L 119.846852 221.973913 
L 120.064786 287.713043 
L 120.28272 287.713043 
L 120.516221 207.365217 
L 120.734155 232.930435 
L 120.967656 300.495652 
L 121.201157 271.278261 
L 121.419091 205.53913 
L 121.886092 300.495652 
L 122.337527 209.191304 
L 122.555461 276.756522 
L 122.773395 287.713043 
L 123.022463 227.452174 
L 123.240397 220.147826 
L 123.458331 296.843478 
L 123.691832 274.930435 
L 123.925333 212.843478 
L 124.143267 236.582609 
L 124.376768 287.713043 
L 124.812636 214.669565 
L 125.279637 291.365217 
L 125.746639 207.365217 
L 126.198074 302.321739 
L 126.431575 231.104348 
L 126.649509 211.017391 
L 126.867443 269.452174 
L 127.100944 280.408696 
L 127.334445 201.886957 
L 127.552379 223.8 
L 127.785879 291.365217 
L 128.003814 258.495652 
L 128.237314 200.06087 
L 128.735449 285.886957 
L 128.96895 278.582609 
L 129.186884 238.408696 
L 129.420385 227.452174 
L 129.653886 295.017391 
L 129.87182 269.452174 
L 130.105321 194.582609 
L 130.338822 223.8 
L 130.556756 282.234783 
L 130.790257 263.973913 
L 131.023757 203.713043 
L 131.475192 298.669565 
L 131.942194 200.06087 
L 132.160128 263.973913 
L 132.409196 291.365217 
L 132.86063 198.234783 
L 133.327632 287.713043 
L 133.794634 203.713043 
L 134.012568 265.8 
L 134.246069 295.017391 
L 134.479569 229.278261 
L 134.697503 203.713043 
L 134.946571 273.104348 
L 135.164505 282.234783 
L 135.398006 216.495652 
L 135.631507 216.495652 
L 135.849441 293.191304 
L 136.082942 273.104348 
L 136.316442 223.8 
L 136.534377 225.626087 
L 136.767877 291.365217 
L 137.001378 267.626087 
L 137.234879 205.53913 
L 137.686314 289.53913 
L 137.919815 260.321739 
L 138.137749 201.886957 
L 138.60475 287.713043 
L 138.822684 242.06087 
L 139.071752 216.495652 
L 139.50762 273.104348 
L 139.772254 243.886957 
L 139.990189 196.408696 
L 140.223689 253.017391 
L 140.45719 273.104348 
L 140.721824 271.278261 
L 140.970892 207.365217 
L 141.188826 234.756522 
L 141.40676 285.886957 
L 141.655828 258.495652 
L 141.873762 187.278261 
L 142.340763 295.017391 
L 142.792198 205.53913 
L 143.243633 304.147826 
L 143.710635 200.06087 
L 143.944136 267.626087 
L 144.16207 289.53913 
L 144.629071 190.930435 
L 144.847005 265.8 
L 145.080506 284.06087 
L 145.314007 225.626087 
L 145.531941 209.191304 
L 145.781009 285.886957 
L 145.998943 267.626087 
L 146.216877 212.843478 
L 146.465944 214.669565 
L 146.683878 285.886957 
L 146.948513 273.104348 
L 147.166447 214.669565 
L 147.384381 203.713043 
L 147.633448 273.104348 
L 147.851382 260.321739 
L 148.084883 196.408696 
L 148.318384 225.626087 
L 148.536318 291.365217 
L 148.769819 262.147826 
L 149.00332 211.017391 
L 149.221254 234.756522 
L 149.454755 295.017391 
L 149.921756 198.234783 
L 150.373191 293.191304 
L 150.824626 192.756522 
L 151.291628 289.53913 
L 151.509562 221.973913 
L 151.758629 200.06087 
L 151.976563 269.452174 
L 152.225631 287.713043 
L 152.474698 253.017391 
L 152.708199 192.756522 
L 153.175201 291.365217 
L 153.626636 192.756522 
L 154.093637 289.53913 
L 154.327138 253.017391 
L 154.560639 196.408696 
L 155.027641 296.843478 
L 155.245575 227.452174 
L 155.463509 203.713043 
L 155.93051 285.886957 
L 156.148445 218.321739 
L 156.397512 203.713043 
L 156.83338 282.234783 
L 157.082448 207.365217 
L 157.300382 214.669565 
L 157.549449 280.408696 
L 157.767384 256.669565 
L 157.985318 200.06087 
L 158.234385 225.626087 
L 158.452319 282.234783 
L 158.670253 254.843478 
L 158.919321 189.104348 
L 159.355189 274.930435 
L 159.822191 187.278261 
L 160.289192 291.365217 
L 160.507126 229.278261 
L 160.740627 205.53913 
L 161.207629 271.278261 
L 161.67463 194.582609 
L 162.126065 276.756522 
L 162.359566 211.017391 
L 162.593067 200.06087 
L 162.811001 271.278261 
L 163.044502 274.930435 
L 163.278003 211.017391 
L 163.511503 203.713043 
L 163.745004 273.104348 
L 163.962938 265.8 
L 164.196439 205.53913 
L 164.616741 284.06087 
L 165.083742 183.626087 
L 165.301676 260.321739 
L 165.535177 274.930435 
L 165.768678 221.973913 
L 165.986612 201.886957 
L 166.23568 265.8 
L 166.453614 271.278261 
L 166.671548 189.104348 
L 166.920615 207.365217 
L 167.138549 265.8 
L 167.356483 262.147826 
L 167.605551 194.582609 
L 168.056986 265.8 
L 168.306053 276.756522 
L 168.523988 194.582609 
L 168.757488 221.973913 
L 168.990989 273.104348 
L 169.208923 247.53913 
L 169.442424 192.756522 
L 169.893859 280.408696 
L 170.360861 196.408696 
L 170.827862 276.756522 
L 171.279297 194.582609 
L 171.730732 282.234783 
L 171.964233 214.669565 
L 172.197734 194.582609 
L 172.431234 256.669565 
L 172.649169 271.278261 
L 172.882669 203.713043 
L 173.11617 196.408696 
L 173.567605 262.147826 
L 173.801106 198.234783 
L 174.01904 216.495652 
L 174.252541 274.930435 
L 174.486042 260.321739 
L 174.703976 187.278261 
L 174.953043 225.626087 
L 175.186544 295.017391 
L 175.653546 187.278261 
L 176.151681 254.843478 
L 176.369615 260.321739 
L 176.603116 194.582609 
L 176.836616 194.582609 
L 177.070117 265.8 
L 177.288051 260.321739 
L 177.521552 187.278261 
L 177.755053 203.713043 
L 177.972987 269.452174 
L 178.222055 249.365217 
L 178.439989 198.234783 
L 178.657923 218.321739 
L 178.90699 271.278261 
L 179.342858 189.104348 
L 179.80986 273.104348 
L 180.276862 185.452174 
L 180.728297 285.886957 
L 180.961797 211.017391 
L 181.179731 185.452174 
L 181.413232 254.843478 
L 181.646733 274.930435 
L 181.880234 207.365217 
L 182.113735 181.8 
L 182.347236 251.191304 
L 182.580736 273.104348 
L 182.814237 209.191304 
L 183.047738 201.886957 
L 183.265672 251.191304 
L 183.499173 274.930435 
L 183.732674 190.930435 
L 183.950608 196.408696 
L 184.184109 263.973913 
L 184.417609 247.53913 
L 184.635543 203.713043 
L 184.884611 220.147826 
L 185.102545 269.452174 
L 185.320479 242.06087 
L 185.569547 190.930435 
L 186.020982 263.973913 
L 186.254482 247.53913 
L 186.472416 181.8 
L 186.939418 282.234783 
L 187.390853 194.582609 
L 187.888988 280.408696 
L 188.138056 256.669565 
L 188.35599 189.104348 
L 188.573924 207.365217 
L 188.822991 269.452174 
L 189.040925 238.408696 
L 189.274426 189.104348 
L 189.523494 205.53913 
L 189.741428 258.495652 
L 189.974929 251.191304 
L 190.208429 185.452174 
L 190.44193 214.669565 
L 190.659864 278.582609 
L 190.893365 240.234783 
L 191.126866 181.8 
L 191.578301 273.104348 
L 192.029736 178.147826 
L 192.496737 276.756522 
L 192.730238 212.843478 
L 192.963739 192.756522 
L 193.181673 247.53913 
L 193.415174 265.8 
L 193.648675 201.886957 
L 193.866609 203.713043 
L 194.115676 265.8 
L 194.33361 271.278261 
L 194.551545 178.147826 
L 194.800612 209.191304 
L 195.018546 273.104348 
L 195.252047 251.191304 
L 195.485548 181.8 
L 195.936983 267.626087 
L 196.170483 249.365217 
L 196.403984 185.452174 
L 196.637485 214.669565 
L 196.870986 271.278261 
L 197.104487 245.713043 
L 197.322421 190.930435 
L 197.571488 209.191304 
L 197.789422 260.321739 
L 198.022923 240.234783 
L 198.256424 179.973913 
L 198.723426 280.408696 
L 199.174861 176.321739 
L 199.408361 231.104348 
L 199.672996 254.843478 
L 201.805636 271.278261 
L 202.194804 238.408696 
L 202.412738 271.278261 
L 202.630673 218.321739 
L 202.87974 190.930435 
L 203.097674 253.017391 
L 203.315608 267.626087 
L 203.549109 207.365217 
L 203.78261 211.017391 
L 204.000544 262.147826 
L 204.234045 254.843478 
L 204.467546 181.8 
L 204.701046 218.321739 
L 204.918981 276.756522 
L 205.385982 187.278261 
L 205.82185 274.930435 
L 206.288852 178.147826 
L 206.506786 245.713043 
L 206.740287 260.321739 
L 206.973788 207.365217 
L 207.191722 196.408696 
L 207.425223 256.669565 
L 207.658723 278.582609 
L 207.876657 200.06087 
L 208.110158 203.713043 
L 208.328092 269.452174 
L 208.561593 251.191304 
L 208.795094 189.104348 
L 209.246529 276.756522 
L 209.495596 238.408696 
L 209.71353 181.8 
L 210.180532 276.756522 
L 210.6164 185.452174 
L 210.849901 254.843478 
L 211.067835 265.8 
L 211.301336 198.234783 
L 211.534837 192.756522 
L 211.752771 260.321739 
L 212.001838 254.843478 
L 212.219773 194.582609 
L 212.437707 211.017391 
L 212.671207 273.104348 
L 212.904708 238.408696 
L 213.122642 189.104348 
L 213.402843 189.104348 
L 213.620777 254.843478 
L 213.838711 249.365217 
L 214.087779 187.278261 
L 214.305713 214.669565 
L 214.523647 271.278261 
L 214.757148 245.713043 
L 214.990649 185.452174 
L 215.442084 280.408696 
L 215.893519 181.8 
L 216.127019 254.843478 
L 216.36052 282.234783 
L 216.578454 221.973913 
L 216.827522 189.104348 
L 217.045456 251.191304 
L 217.26339 278.582609 
L 217.496891 192.756522 
L 217.730392 189.104348 
L 217.948326 267.626087 
L 218.181827 251.191304 
L 218.415327 189.104348 
L 218.648828 198.234783 
L 218.866762 271.278261 
L 219.084696 240.234783 
L 219.333764 185.452174 
L 219.769632 263.973913 
L 220.236634 179.973913 
L 220.454568 245.713043 
L 220.688069 274.930435 
L 220.906003 203.713043 
L 221.139503 179.973913 
L 221.373004 260.321739 
L 221.590938 249.365217 
L 221.824439 183.626087 
L 222.05794 200.06087 
L 222.275874 269.452174 
L 222.493808 242.06087 
L 222.727309 174.495652 
L 223.178744 262.147826 
L 223.427811 238.408696 
L 223.661312 183.626087 
L 224.112747 269.452174 
L 224.330681 207.365217 
L 224.548615 183.626087 
L 224.797683 251.191304 
L 225.015617 262.147826 
L 225.202418 181.8 
L 225.451485 212.843478 
L 225.669419 276.756522 
L 226.136421 165.365217 
L 226.603422 282.234783 
L 227.039291 178.147826 
L 227.288358 236.582609 
L 227.506292 260.321739 
L 227.973294 178.147826 
L 228.191228 251.191304 
L 228.424729 254.843478 
L 228.65823 198.234783 
L 228.876164 185.452174 
L 229.109664 265.8 
L 229.343165 249.365217 
L 229.576666 196.408696 
L 229.7946 198.234783 
L 230.028101 253.017391 
L 230.261602 245.713043 
L 230.495103 203.713043 
L 230.74417 212.843478 
L 230.962104 262.147826 
L 231.180038 251.191304 
L 231.429106 187.278261 
L 231.64704 203.713043 
L 231.864974 260.321739 
L 232.114042 236.582609 
L 232.331976 176.321739 
L 232.581043 218.321739 
L 232.798977 278.582609 
L 233.265979 174.495652 
L 233.717414 262.147826 
L 233.950915 201.886957 
L 234.168849 174.495652 
L 234.40235 254.843478 
L 234.63585 269.452174 
L 234.853784 212.843478 
L 235.087285 192.756522 
L 235.320786 247.53913 
L 235.554287 263.973913 
L 235.772221 205.53913 
L 236.005722 190.930435 
L 236.239223 267.626087 
L 236.457157 251.191304 
L 236.706224 198.234783 
L 236.970858 170.843478 
L 237.188793 243.886957 
L 237.43786 269.452174 
L 237.904862 174.495652 
L 238.356297 274.930435 
L 238.823298 169.017391 
L 239.041232 247.53913 
L 239.274733 269.452174 
L 239.508234 201.886957 
L 239.726168 187.278261 
L 239.959669 254.843478 
L 240.19317 253.017391 
L 240.411104 200.06087 
L 240.660171 203.713043 
L 240.878105 247.53913 
L 241.096039 249.365217 
L 241.345107 178.147826 
L 241.563041 201.886957 
L 241.796542 267.626087 
L 242.030043 238.408696 
L 242.247977 176.321739 
L 242.481478 214.669565 
L 242.714978 271.278261 
L 243.166413 179.973913 
L 243.633415 265.8 
L 243.851349 207.365217 
L 244.08485 176.321739 
L 244.318351 245.713043 
L 244.567418 265.8 
L 245.018853 174.495652 
L 245.485855 262.147826 
L 245.703789 198.234783 
L 245.93729 165.365217 
L 246.17079 245.713043 
L 246.388724 260.321739 
L 246.637792 194.582609 
L 246.855726 183.626087 
L 247.07366 262.147826 
L 247.322728 258.495652 
L 247.540662 189.104348 
L 247.774163 189.104348 
L 248.007663 260.321739 
L 248.225597 243.886957 
L 248.459098 178.147826 
L 248.739299 170.843478 
L 248.957233 227.452174 
L 249.206301 262.147826 
L 249.424235 198.234783 
L 249.642169 187.278261 
L 249.891237 247.53913 
L 250.109171 267.626087 
L 250.327105 192.756522 
L 250.576172 200.06087 
L 250.794106 265.8 
L 251.01204 258.495652 
L 251.261108 187.278261 
L 251.479042 200.06087 
L 251.712543 247.53913 
L 251.96161 251.191304 
L 252.179545 179.973913 
L 252.413045 194.582609 
L 252.646546 258.495652 
L 252.86448 238.408696 
L 253.097981 172.669565 
L 253.331482 207.365217 
L 253.564983 278.582609 
L 254.016418 169.017391 
L 254.467852 262.147826 
L 254.934854 170.843478 
L 255.401856 267.626087 
L 255.61979 205.53913 
L 255.853291 187.278261 
L 256.086791 247.53913 
L 256.304726 258.495652 
L 256.538226 190.930435 
L 256.771727 181.8 
L 256.989661 242.06087 
L 257.238729 247.53913 
L 257.456663 185.452174 
L 257.674597 196.408696 
L 257.923664 262.147826 
L 258.141599 240.234783 
L 258.359533 169.017391 
L 258.842101 253.017391 
L 259.075602 238.408696 
L 259.309103 178.147826 
L 259.527037 203.713043 
L 259.760538 262.147826 
L 259.994038 232.930435 
L 260.211972 176.321739 
L 260.492173 174.495652 
L 260.725674 242.06087 
L 260.943608 251.191304 
L 261.177109 161.713043 
L 261.41061 190.930435 
L 261.628544 258.495652 
L 261.877612 247.53913 
L 262.095546 176.321739 
L 262.31348 203.713043 
L 262.562547 276.756522 
L 262.998415 178.147826 
L 263.247483 211.017391 
L 263.465417 269.452174 
L 263.932419 161.713043 
L 264.383854 271.278261 
L 264.617354 196.408696 
L 264.835288 176.321739 
L 265.30229 262.147826 
L 265.535791 192.756522 
L 265.769292 165.365217 
L 266.002793 234.756522 
L 266.236293 263.973913 
L 266.469794 200.06087 
L 266.687728 172.669565 
L 266.921229 238.408696 
L 267.15473 249.365217 
L 267.388231 192.756522 
L 267.606165 179.973913 
L 267.839666 254.843478 
L 268.073166 254.843478 
L 268.2911 187.278261 
L 268.524601 192.756522 
L 268.758102 284.06087 
L 269.209537 183.626087 
L 269.443038 207.365217 
L 269.660972 262.147826 
L 269.910039 221.973913 
L 270.127974 163.53913 
L 270.345908 221.973913 
L 270.594975 256.669565 
L 271.030843 165.365217 
L 271.279911 234.756522 
L 271.497845 256.669565 
L 271.964847 161.713043 
L 272.229481 196.408696 
L 272.462982 254.843478 
L 272.696482 227.452174 
L 272.929983 167.191304 
L 273.179051 203.713043 
L 273.396985 254.843478 
L 273.863986 178.147826 
L 274.081921 205.53913 
L 274.315421 262.147826 
L 274.548922 229.278261 
L 274.782423 167.191304 
L 275.249425 260.321739 
L 275.685293 156.234783 
L 276.152294 265.8 
L 276.385795 196.408696 
L 276.619296 174.495652 
L 276.83723 234.756522 
L 277.086298 263.973913 
L 277.304232 200.06087 
L 277.537733 174.495652 
L 277.771233 238.408696 
L 278.004734 254.843478 
L 278.222668 190.930435 
L 278.456169 176.321739 
L 278.68967 256.669565 
L 278.907604 242.06087 
L 279.156672 187.278261 
L 279.374606 181.8 
L 279.59254 245.713043 
L 279.841607 247.53913 
L 280.075108 192.756522 
L 280.308609 183.626087 
L 280.54211 236.582609 
L 280.77561 242.06087 
L 280.993545 190.930435 
L 281.227045 187.278261 
L 281.460546 249.365217 
L 281.67848 242.06087 
L 281.927548 178.147826 
L 282.145482 203.713043 
L 282.394549 269.452174 
L 282.612484 218.321739 
L 283.110619 169.017391 
L 283.344119 238.408696 
L 283.562053 254.843478 
L 284.029055 170.843478 
L 284.246989 251.191304 
L 284.496057 253.017391 
L 284.713991 172.669565 
L 284.947492 181.8 
L 285.180992 247.53913 
L 285.414493 238.408696 
L 285.632427 178.147826 
L 285.865928 200.06087 
L 286.099429 256.669565 
L 286.317363 223.8 
L 286.566431 169.017391 
L 287.017865 245.713043 
L 287.266933 231.104348 
L 287.484867 185.452174 
L 287.733935 194.582609 
L 287.951869 260.321739 
L 288.41887 169.017391 
L 288.870305 258.495652 
L 289.103806 225.626087 
L 289.337307 165.365217 
L 289.804308 256.669565 
L 290.240177 158.06087 
L 290.707178 282.234783 
L 290.940679 196.408696 
L 291.17418 174.495652 
L 291.407681 232.930435 
L 291.625615 253.017391 
L 291.859116 187.278261 
L 292.092616 174.495652 
L 292.31055 234.756522 
L 292.559618 247.53913 
L 292.777552 176.321739 
L 292.995486 190.930435 
L 293.244554 240.234783 
L 293.462488 242.06087 
L 293.97619 159.886957 
L 294.443191 260.321739 
L 294.894626 167.191304 
L 295.346061 269.452174 
L 295.579562 190.930435 
L 295.813063 192.756522 
L 296.030997 251.191304 
L 296.248931 251.191304 
L 296.497998 185.452174 
L 296.715932 190.930435 
L 296.933867 260.321739 
L 297.182934 234.756522 
L 297.400868 167.191304 
L 297.852303 253.017391 
L 298.303738 169.017391 
L 298.77074 267.626087 
L 299.00424 198.234783 
L 299.222174 181.8 
L 299.440109 236.582609 
L 299.689176 249.365217 
L 299.90711 181.8 
L 300.125044 187.278261 
L 300.374112 240.234783 
L 300.592046 220.147826 
L 300.80998 169.017391 
L 301.043481 196.408696 
L 301.292548 247.53913 
L 301.510482 231.104348 
L 301.743983 165.365217 
L 302.195418 258.495652 
L 302.646853 169.017391 
L 303.113855 262.147826 
L 303.331789 198.234783 
L 303.56529 178.147826 
L 303.79879 238.408696 
L 304.016724 256.669565 
L 304.421459 238.408696 
L 304.670527 260.321739 
L 304.919594 240.234783 
L 305.448863 169.017391 
L 305.713497 181.8 
L 306.227199 263.973913 
L 306.5074 249.365217 
L 307.021102 170.843478 
L 307.285736 179.973913 
L 307.534803 196.408696 
L 307.815004 254.843478 
L 308.064072 265.8 
L 308.857975 167.191304 
L 309.122609 189.104348 
L 309.651877 258.495652 
L 309.916512 253.017391 
L 310.430213 192.756522 
L 310.694848 169.017391 
L 310.959482 200.06087 
L 311.208549 247.53913 
L 311.473184 262.147826 
L 312.25152 161.713043 
L 313.045422 265.8 
L 313.310057 240.234783 
L 313.823758 163.53913 
L 314.088393 183.626087 
L 314.617661 251.191304 
L 314.866729 265.8 
L 315.395997 176.321739 
L 315.660632 158.06087 
L 316.174333 240.234783 
L 316.750302 271.278261 
L 317.030503 251.191304 
L 317.544205 178.147826 
L 317.808839 183.626087 
L 318.073473 203.713043 
L 318.353674 245.713043 
L 318.602742 260.321739 
L 319.396645 172.669565 
L 319.661279 174.495652 
L 320.190547 254.843478 
L 320.517448 232.930435 
L 322.914723 240.234783 
L 323.428425 190.930435 
L 323.708626 170.843478 
L 324.237895 251.191304 
L 324.486962 253.017391 
L 324.751596 232.930435 
L 325.031797 185.452174 
L 325.280865 176.321739 
L 325.545499 174.495652 
L 325.810133 209.191304 
L 326.074768 260.321739 
L 326.339402 260.321739 
L 327.133305 156.234783 
L 327.397939 174.495652 
L 327.662573 232.930435 
L 327.927207 254.843478 
L 328.176275 256.669565 
L 328.705543 185.452174 
L 328.985744 172.669565 
L 329.250379 187.278261 
L 329.499446 238.408696 
L 329.779647 254.843478 
L 330.028715 243.886957 
L 330.557983 174.495652 
L 330.822617 170.843478 
L 331.102818 189.104348 
L 331.336319 262.147826 
L 331.600954 253.017391 
L 331.865588 218.321739 
L 332.114655 170.843478 
L 332.394856 165.365217 
L 332.643924 189.104348 
L 332.924125 232.930435 
L 333.188759 256.669565 
L 333.718028 207.365217 
L 333.967095 165.365217 
L 334.247296 172.669565 
L 334.760998 232.930435 
L 335.025632 251.191304 
L 335.819535 167.191304 
L 336.068602 170.843478 
L 336.597871 245.713043 
L 336.878072 256.669565 
L 337.127139 225.626087 
L 337.391774 174.495652 
L 337.656408 158.06087 
L 338.185676 236.582609 
L 338.450311 245.713043 
L 338.714945 234.756522 
L 338.979579 201.886957 
L 339.244213 190.930435 
L 339.524414 158.06087 
L 339.789049 179.973913 
L 340.038116 232.930435 
L 340.318317 251.191304 
L 340.567385 238.408696 
L 341.361287 161.713043 
L 341.890556 234.756522 
L 342.139623 249.365217 
L 342.419824 238.408696 
L 342.949093 152.582609 
L 343.213727 176.321739 
L 343.525062 167.191304 
L 344.038763 260.321739 
L 344.303398 249.365217 
L 344.832666 185.452174 
L 345.0973 172.669565 
L 345.346368 190.930435 
L 345.626569 229.278261 
L 345.875636 247.53913 
L 346.155837 243.886957 
L 346.404905 200.06087 
L 346.934173 158.06087 
L 347.198808 212.843478 
L 347.743643 249.365217 
L 347.99271 238.408696 
L 348.521979 172.669565 
L 348.786613 170.843478 
L 349.051247 201.886957 
L 349.315882 218.321739 
L 349.596083 253.017391 
L 349.84515 227.452174 
L 350.109784 179.973913 
L 350.374419 167.191304 
L 350.639053 170.843478 
L 351.168321 253.017391 
L 351.417389 240.234783 
L 351.69759 212.843478 
L 351.946657 172.669565 
L 352.226858 163.53913 
L 352.74056 231.104348 
L 353.005194 251.191304 
L 353.269829 242.06087 
L 353.534463 203.713043 
L 354.048165 167.191304 
L 354.328366 200.06087 
L 354.577433 247.53913 
L 354.857634 249.365217 
L 355.371336 198.234783 
L 355.651537 169.017391 
L 355.962871 159.886957 
L 356.227506 167.191304 
L 356.49214 198.234783 
L 356.756774 247.53913 
L 357.021408 260.321739 
L 357.815311 161.713043 
L 358.064379 174.495652 
L 358.593647 234.756522 
L 358.873848 247.53913 
L 359.652184 150.756522 
L 360.446087 245.713043 
L 360.695155 236.582609 
L 361.504624 158.06087 
L 361.753692 203.713043 
L 362.28296 254.843478 
L 362.547594 238.408696 
L 363.076863 154.408696 
L 363.32593 167.191304 
L 363.621698 200.06087 
L 363.870766 249.365217 
L 364.150967 254.843478 
L 364.400034 227.452174 
L 364.929303 148.930435 
L 365.193937 167.191304 
L 365.723205 254.843478 
L 365.972273 249.365217 
L 366.781742 161.713043 
L 367.560078 247.53913 
L 367.824713 242.06087 
L 368.136047 232.930435 
L 368.649749 159.886957 
L 368.92995 179.973913 
L 369.179017 183.626087 
L 369.459218 240.234783 
L 369.708286 247.53913 
L 369.97292 221.973913 
L 370.502189 152.582609 
L 371.296091 240.234783 
L 371.560726 243.886957 
L 371.840927 229.278261 
L 372.105561 181.8 
L 372.370195 169.017391 
L 372.619263 179.973913 
L 373.148531 247.53913 
L 373.428732 254.843478 
L 374.222635 156.234783 
L 375.000971 245.713043 
L 375.265605 240.234783 
L 375.794874 161.713043 
L 376.059508 154.408696 
L 376.853411 263.973913 
L 377.647313 148.930435 
L 377.896381 141.626087 
L 378.176582 209.191304 
L 378.425649 232.930435 
L 378.70585 245.713043 
L 379.484186 147.104348 
L 380.293656 234.756522 
L 380.589424 231.104348 
L 380.869625 253.017391 
L 381.647961 154.408696 
L 381.912595 176.321739 
L 382.177229 221.973913 
L 382.441863 243.886957 
L 382.706498 236.582609 
L 383.220199 170.843478 
L 383.5004 161.713043 
L 383.765035 190.930435 
L 384.029669 240.234783 
L 384.294303 258.495652 
L 384.543371 238.408696 
L 385.072639 167.191304 
L 385.35284 170.843478 
L 385.866542 258.495652 
L 386.131176 265.8 
L 386.39581 238.408696 
L 386.644878 196.408696 
L 386.925079 172.669565 
L 387.174146 190.930435 
L 387.454347 249.365217 
L 387.718982 262.147826 
L 387.999183 285.886957 
L 388.263817 256.669565 
L 388.512884 209.191304 
L 388.793085 181.8 
L 389.042153 196.408696 
L 389.571421 263.973913 
L 389.836056 256.669565 
L 390.10069 236.582609 
L 390.365324 170.843478 
L 390.614392 165.365217 
L 391.14366 242.06087 
L 391.423861 267.626087 
L 391.688495 251.191304 
L 391.937563 221.973913 
L 392.217764 205.53913 
L 392.466831 176.321739 
L 392.778166 179.973913 
L 393.291868 269.452174 
L 393.556502 274.930435 
L 394.08577 189.104348 
L 394.334838 176.321739 
L 394.599472 198.234783 
L 395.128741 271.278261 
L 395.393375 254.843478 
L 395.907077 170.843478 
L 396.187278 169.017391 
L 396.451912 218.321739 
L 396.965614 267.626087 
L 397.230248 236.582609 
L 397.494882 189.104348 
L 397.759516 167.191304 
L 398.273218 242.06087 
L 398.537853 258.495652 
L 398.802487 243.886957 
L 399.331755 169.017391 
L 399.580823 183.626087 
L 400.110091 254.843478 
L 400.374726 262.147826 
L 401.153062 170.843478 
L 401.68233 242.06087 
L 401.946964 254.843478 
L 402.196032 236.582609 
L 402.7253 170.843478 
L 402.989935 183.626087 
L 403.239002 232.930435 
L 403.503636 262.147826 
L 403.768271 260.321739 
L 404.297539 189.104348 
L 404.562173 169.017391 
L 404.826808 194.582609 
L 405.122575 196.408696 
L 405.402776 247.53913 
L 405.651844 262.147826 
L 405.932045 242.06087 
L 406.43018 163.53913 
L 406.710381 174.495652 
L 406.959448 234.756522 
L 407.224083 262.147826 
L 407.488717 245.713043 
L 407.737784 218.321739 
L 408.017985 169.017391 
L 408.267053 169.017391 
L 408.796321 236.582609 
L 409.045389 256.669565 
L 409.32559 232.930435 
L 409.574657 190.930435 
L 409.839292 169.017391 
L 410.103926 183.626087 
L 410.352994 238.408696 
L 410.633194 262.147826 
L 410.882262 251.191304 
L 411.411531 143.452174 
L 412.189867 247.53913 
L 412.454501 258.495652 
L 412.734702 238.408696 
L 412.983769 187.278261 
L 413.26397 152.582609 
L 413.513038 181.8 
L 413.762105 231.104348 
L 414.042306 254.843478 
L 414.291374 258.495652 
L 414.820642 167.191304 
L 415.06971 165.365217 
L 415.598978 236.582609 
L 415.848046 251.191304 
L 416.128247 221.973913 
L 416.657515 154.408696 
L 416.906583 181.8 
L 417.202351 194.582609 
L 417.482552 236.582609 
L 417.731619 254.843478 
L 418.525522 159.886957 
L 418.790156 161.713043 
L 419.319425 240.234783 
L 419.584059 231.104348 
L 419.833126 212.843478 
L 420.377962 132.495652 
L 420.658163 139.8 
L 421.171864 225.626087 
L 421.436499 221.973913 
L 421.701133 196.408696 
L 421.965767 143.452174 
L 422.230401 132.495652 
L 422.479469 141.626087 
L 423.024304 203.713043 
L 423.288938 201.886957 
L 423.80264 139.8 
L 424.082841 132.495652 
L 424.861177 243.886957 
L 425.390446 183.626087 
L 425.65508 148.930435 
L 425.919714 148.930435 
L 426.184348 200.06087 
L 426.713617 247.53913 
L 426.962685 221.973913 
L 427.491953 152.582609 
L 428.021222 211.017391 
L 428.285856 242.06087 
L 428.566057 242.06087 
L 429.095325 169.017391 
L 429.655727 143.452174 
L 429.935928 154.408696 
L 430.184996 216.495652 
L 430.44963 249.365217 
L 430.714264 243.886957 
L 431.243533 167.191304 
L 431.508167 154.408696 
L 432.037435 223.8 
L 432.286503 240.234783 
L 432.566704 221.973913 
L 433.080406 159.886957 
L 433.360607 161.713043 
L 433.889875 243.886957 
L 434.138943 254.843478 
L 434.403577 207.365217 
L 434.932846 163.53913 
L 435.19748 189.104348 
L 435.711182 253.017391 
L 435.991383 254.843478 
L 436.520651 176.321739 
L 436.785285 161.713043 
L 437.04992 174.495652 
L 437.314554 232.930435 
L 437.579188 256.669565 
L 437.859389 253.017391 
L 438.373091 176.321739 
L 438.637725 165.365217 
L 438.902359 192.756522 
L 439.166994 240.234783 
L 439.431628 260.321739 
L 439.680695 249.365217 
L 440.209964 169.017391 
L 440.739232 201.886957 
L 441.003867 247.53913 
L 441.268501 260.321739 
L 441.533135 236.582609 
L 441.844469 229.278261 
L 442.358171 156.234783 
L 442.638372 172.669565 
L 442.88744 227.452174 
L 443.167641 254.843478 
L 443.416708 251.191304 
L 443.945977 165.365217 
L 444.210611 158.06087 
L 444.475245 211.017391 
L 444.755446 234.756522 
L 445.284715 249.365217 
L 445.813983 172.669565 
L 446.063051 158.06087 
L 446.327685 185.452174 
L 446.592319 229.278261 
L 446.856954 251.191304 
L 447.121588 229.278261 
L 447.63529 148.930435 
L 447.915491 167.191304 
L 448.164558 209.191304 
L 448.693827 249.365217 
L 449.223095 170.843478 
L 449.487729 148.930435 
L 449.76793 172.669565 
L 450.016998 214.669565 
L 450.281632 240.234783 
L 450.546266 240.234783 
L 450.810901 211.017391 
L 451.059968 163.53913 
L 451.340169 150.756522 
L 451.589237 200.06087 
L 452.118505 234.756522 
L 452.383139 236.582609 
L 452.647774 181.8 
L 453.192609 152.582609 
L 453.457243 174.495652 
L 453.706311 223.8 
L 453.986512 231.104348 
L 454.282279 229.278261 
L 454.56248 205.53913 
L 455.091749 128.843478 
L 455.340816 150.756522 
L 455.870085 214.669565 
L 456.134719 236.582609 
L 456.41492 211.017391 
L 456.726254 211.017391 
L 457.862625 119.713043 
L 458.656528 189.104348 
L 458.905595 200.06087 
L 459.699498 85.017391 
L 459.964132 110.582609 
L 460.228767 152.582609 
L 460.508968 165.365217 
L 460.758035 156.234783 
L 461.287304 74.06087 
L 461.551938 63.104348 
L 462.081206 147.104348 
L 462.330274 174.495652 
L 462.859542 132.495652 
L 463.139743 123.365217 
L 463.404378 136.147826 
L 463.933646 231.104348 
L 464.182714 253.017391 
L 464.462915 221.973913 
L 464.976616 145.278261 
L 465.770519 249.365217 
L 466.05072 251.191304 
L 466.299788 225.626087 
L 466.829056 156.234783 
L 467.358325 200.06087 
L 467.591826 249.365217 
L 467.85646 225.626087 
L 468.121094 176.321739 
L 468.385728 167.191304 
L 468.650363 172.669565 
L 468.914997 218.321739 
L 469.179631 243.886957 
L 469.444265 243.886957 
L 470.222601 150.756522 
L 470.502802 181.8 
L 470.75187 231.104348 
L 471.032071 251.191304 
L 471.281138 238.408696 
L 471.810407 152.582609 
L 472.075041 163.53913 
L 472.60431 240.234783 
L 472.868944 243.886957 
L 473.133578 216.495652 
L 473.398212 170.843478 
L 473.64728 148.930435 
L 473.927481 165.365217 
L 474.721384 247.53913 
L 475.515286 139.8 
L 475.779921 158.06087 
L 476.309189 231.104348 
L 476.573823 238.408696 
L 477.103092 158.06087 
L 477.367726 137.973913 
L 477.896995 200.06087 
L 478.146062 221.973913 
L 478.426263 198.234783 
L 478.675331 147.104348 
L 479.204599 97.8 
L 479.469233 128.843478 
L 479.780568 125.191304 
L 480.029635 163.53913 
L 480.29427 169.017391 
L 481.103739 68.582609 
L 481.352807 83.191304 
L 481.882075 156.234783 
L 482.162276 174.495652 
L 482.42691 158.06087 
L 482.691545 130.669565 
L 482.940612 132.495652 
L 483.220813 143.452174 
L 483.750082 242.06087 
L 483.999149 247.53913 
L 484.263783 216.495652 
L 484.528418 158.06087 
L 484.793052 150.756522 
L 485.073253 179.973913 
L 485.32232 225.626087 
L 485.586955 243.886957 
L 485.851589 238.408696 
L 486.380857 172.669565 
L 486.645492 167.191304 
L 487.17476 249.365217 
L 487.423828 238.408696 
L 487.704029 236.582609 
L 487.953096 185.452174 
L 488.21773 161.713043 
L 488.482365 165.365217 
L 489.011633 238.408696 
L 489.276267 243.886957 
L 489.540902 214.669565 
L 489.805536 170.843478 
L 490.07017 150.756522 
L 490.350371 158.06087 
L 490.864073 236.582609 
L 491.144274 242.06087 
L 491.393341 212.843478 
L 491.673542 165.365217 
L 491.92261 143.452174 
L 492.218378 150.756522 
L 492.498579 179.973913 
L 492.747646 229.278261 
L 493.01228 238.408696 
L 493.276915 229.278261 
L 493.525982 179.973913 
L 493.806183 163.53913 
L 494.055251 163.53913 
L 494.319885 216.495652 
L 494.584519 238.408696 
L 494.833587 231.104348 
L 495.113788 189.104348 
L 495.362855 121.53913 
L 495.892124 161.713043 
L 496.141191 205.53913 
L 496.421392 187.278261 
L 496.67046 158.06087 
L 496.935094 101.452174 
L 497.199728 72.234783 
L 497.978064 161.713043 
L 498.227132 154.408696 
L 498.771967 74.06087 
L 499.036601 59.452174 
L 499.301236 90.495652 
L 499.550303 136.147826 
L 499.830504 161.713043 
L 500.079572 132.495652 
L 500.60884 55.8 
L 500.857908 92.321739 
L 501.387176 187.278261 
L 501.65181 189.104348 
L 501.916445 148.930435 
L 502.165512 128.843478 
L 502.445713 143.452174 
L 502.959415 238.408696 
L 503.224049 256.669565 
L 504.002385 150.756522 
L 504.422687 225.626087 
L 504.687321 185.452174 
L 504.951955 170.843478 
L 505.216589 174.495652 
L 505.745858 249.365217 
L 505.994925 245.713043 
L 506.788828 158.06087 
L 507.053462 183.626087 
L 507.318097 247.53913 
L 507.582731 245.713043 
L 507.847365 236.582609 
L 508.361067 163.53913 
L 508.625701 176.321739 
L 509.15497 243.886957 
L 509.404037 254.843478 
L 509.933306 189.104348 
L 510.182373 161.713043 
L 510.462574 187.278261 
L 510.711642 231.104348 
L 510.991843 256.669565 
L 511.24091 236.582609 
L 511.489978 183.626087 
L 511.770179 161.713043 
L 512.019246 170.843478 
L 512.548515 253.017391 
L 512.797582 236.582609 
L 513.326851 158.06087 
L 513.607052 152.582609 
L 514.120754 238.408696 
L 514.400955 245.713043 
L 514.930223 178.147826 
L 515.179291 143.452174 
L 515.428358 139.8 
L 515.957627 223.8 
L 516.237828 212.843478 
L 516.486895 178.147826 
L 516.782663 161.713043 
L 517.062864 103.278261 
L 517.311931 90.495652 
L 518.105834 170.843478 
L 518.370468 154.408696 
L 518.915304 59.452174 
L 519.164371 70.408696 
L 519.429005 90.495652 
L 519.69364 134.321739 
L 519.958274 125.191304 
L 520.222908 130.669565 
L 520.487542 86.843478 
L 520.73661 75.886957 
L 521.016811 79.53913 
L 521.546079 179.973913 
L 521.810714 189.104348 
L 522.059781 181.8 
L 522.339982 119.713043 
L 522.604616 132.495652 
L 522.869251 150.756522 
L 523.398519 249.365217 
L 523.663153 258.495652 
L 523.927788 242.06087 
L 524.192422 170.843478 
L 524.457056 174.495652 
L 524.706124 196.408696 
L 524.986325 240.234783 
L 525.235392 254.843478 
L 525.515593 256.669565 
L 526.029295 181.8 
L 526.309496 179.973913 
L 526.558564 221.973913 
L 527.087832 269.452174 
L 527.352466 254.843478 
L 527.881735 185.452174 
L 528.146369 178.147826 
L 528.411003 229.278261 
L 528.660071 254.843478 
L 528.986972 251.191304 
L 529.236039 269.452174 
L 530.029942 181.8 
L 530.574777 225.626087 
L 530.839412 265.8 
L 531.104046 269.452174 
L 531.353113 243.886957 
L 531.633314 189.104348 
L 531.882382 179.973913 
L 532.162583 192.756522 
L 532.41165 245.713043 
L 532.676285 274.930435 
L 532.956486 265.8 
L 533.205553 227.452174 
L 533.734822 183.626087 
L 533.999456 205.53913 
L 534.528725 269.452174 
L 534.793359 247.53913 
L 535.322627 190.930435 
L 535.587262 192.756522 
L 536.11653 262.147826 
L 536.381164 274.930435 
L 536.910433 205.53913 
L 537.1595 179.973913 
L 537.439701 192.756522 
L 538.218037 273.104348 
L 539.027507 152.582609 
L 539.82141 271.278261 
L 540.070477 265.8 
L 540.599746 190.930435 
L 540.879947 170.843478 
L 541.129014 190.930435 
L 541.440348 200.06087 
L 541.704983 249.365217 
L 541.95405 256.669565 
L 542.234251 247.53913 
L 542.76352 170.843478 
L 543.028154 181.8 
L 543.557423 245.713043 
L 543.80649 258.495652 
L 544.086691 238.408696 
L 544.335759 192.756522 
L 544.600393 169.017391 
L 544.865027 185.452174 
L 545.378729 253.017391 
L 545.65893 253.017391 
L 546.437266 172.669565 
L 547.246735 253.017391 
L 547.51137 258.495652 
L 547.776004 211.017391 
L 548.305272 169.017391 
L 548.834541 229.278261 
L 549.083608 258.495652 
L 549.348243 249.365217 
L 549.877511 178.147826 
L 550.142145 174.495652 
L 550.655847 254.843478 
L 551.200682 236.582609 
L 551.465317 192.756522 
L 551.729951 170.843478 
L 551.979018 178.147826 
L 552.508287 254.843478 
L 552.788488 260.321739 
L 553.30219 189.104348 
L 553.613524 198.234783 
L 553.862592 176.321739 
L 554.142793 200.06087 
L 554.39186 242.06087 
L 554.656494 251.191304 
L 554.936695 242.06087 
L 555.465964 170.843478 
L 555.730598 165.365217 
L 556.508934 276.756522 
L 556.789135 245.713043 
L 557.038203 194.582609 
L 557.302837 172.669565 
L 557.567471 174.495652 
L 557.832105 231.104348 
L 558.361374 262.147826 
L 559.155277 163.53913 
L 559.419911 185.452174 
L 559.933613 263.973913 
L 560.462881 231.104348 
L 560.743082 179.973913 
L 560.99215 163.53913 
L 561.521418 243.886957 
L 561.786052 260.321739 
L 562.050687 242.06087 
L 562.564388 178.147826 
L 562.844589 179.973913 
L 563.109224 201.886957 
L 563.638492 260.321739 
L 563.903126 238.408696 
L 564.432395 172.669565 
L 564.697029 170.843478 
L 564.961663 225.626087 
L 565.490932 262.147826 
L 565.739999 221.973913 
L 566.066901 220.147826 
L 566.315968 178.147826 
L 566.580602 169.017391 
L 566.845237 192.756522 
L 567.109871 240.234783 
L 567.374505 263.973913 
L 567.639139 242.06087 
L 568.168408 167.191304 
L 568.417475 176.321739 
L 568.697676 203.713043 
L 568.946744 243.886957 
L 569.211378 260.321739 
L 569.740647 203.713043 
L 570.020848 167.191304 
L 570.534549 220.147826 
L 570.799184 254.843478 
L 571.063818 269.452174 
L 571.344019 242.06087 
L 571.593086 189.104348 
L 571.857721 185.452174 
L 572.137922 187.278261 
L 572.386989 229.278261 
L 572.66719 251.191304 
L 572.916258 258.495652 
L 573.180892 227.452174 
L 573.445526 176.321739 
L 573.71016 161.713043 
L 574.239429 236.582609 
L 574.488497 256.669565 
L 574.768698 256.669565 
L 575.297966 176.321739 
L 575.5626 176.321739 
L 575.811668 201.886957 
L 576.091869 243.886957 
L 576.340936 256.669565 
L 576.605571 243.886957 
L 576.870205 196.408696 
L 577.134839 179.973913 
L 577.399473 181.8 
L 577.913175 256.669565 
L 578.489144 260.321739 
L 578.769345 240.234783 
L 579.298613 159.886957 
L 579.563247 176.321739 
L 579.827882 223.8 
L 580.092516 242.06087 
L 580.35715 251.191304 
L 580.621784 231.104348 
L 580.886419 185.452174 
L 581.135486 170.843478 
L 581.415687 187.278261 
L 581.664755 231.104348 
L 582.194023 260.321739 
L 582.723292 176.321739 
L 582.987926 179.973913 
L 583.517195 245.713043 
L 583.781829 256.669565 
L 584.046463 243.886957 
L 584.311097 198.234783 
L 584.560165 176.321739 
L 584.840366 165.365217 
L 585.089433 223.8 
L 585.369634 247.53913 
L 585.634269 256.669565 
L 585.883336 234.756522 
L 586.412605 165.365217 
L 586.692806 190.930435 
L 586.941873 236.582609 
L 587.206507 256.669565 
L 587.486708 260.321739 
L 588.280611 161.713043 
L 588.529679 183.626087 
L 589.074514 245.713043 
L 589.339148 254.843478 
L 590.133051 163.53913 
L 590.382118 192.756522 
L 590.693453 196.408696 
L 590.958087 234.756522 
L 591.207155 253.017391 
L 591.549622 242.06087 
L 593.199695 159.886957 
L 593.728963 258.495652 
L 593.993598 254.843478 
L 594.258232 232.930435 
L 594.507299 192.756522 
L 594.7875 169.017391 
L 595.036568 183.626087 
L 595.565836 247.53913 
L 595.830471 254.843478 
L 596.095105 214.669565 
L 596.359739 143.452174 
L 596.873441 196.408696 
L 597.402709 263.973913 
L 598.196612 159.886957 
L 598.44568 185.452174 
L 598.974948 262.147826 
L 599.255149 249.365217 
L 599.753284 183.626087 
L 600.033485 170.843478 
L 600.562754 251.191304 
L 600.811821 253.017391 
L 601.076455 232.930435 
L 601.605724 174.495652 
L 601.885925 179.973913 
L 602.399627 253.017391 
L 602.664261 254.843478 
L 603.442597 163.53913 
L 604.2365 269.452174 
L 604.719068 169.017391 
L 604.983702 174.495652 
L 605.762038 269.452174 
L 606.555941 172.669565 
L 606.820575 176.321739 
L 607.069643 232.930435 
L 607.349844 234.756522 
L 607.598911 262.147826 
L 607.863546 209.191304 
L 608.377247 172.669565 
L 609.186717 256.669565 
L 609.451351 247.53913 
L 609.98062 172.669565 
L 610.229687 174.495652 
L 610.509888 225.626087 
L 610.758956 238.408696 
L 611.008023 263.973913 
L 611.537292 178.147826 
L 611.801926 161.713043 
L 612.331195 240.234783 
L 612.595829 247.53913 
L 612.844896 245.713043 
L 613.109531 187.278261 
L 613.374165 156.234783 
L 613.638799 170.843478 
L 613.903433 238.408696 
L 614.152501 258.495652 
L 614.417135 254.843478 
L 614.681769 211.017391 
L 614.946404 194.582609 
L 615.211038 165.365217 
L 615.460105 211.017391 
L 615.989374 256.669565 
L 616.254008 231.104348 
L 616.565343 220.147826 
L 616.81441 183.626087 
L 617.079044 163.53913 
L 617.359245 185.452174 
L 617.888514 254.843478 
L 618.153148 245.713043 
L 618.402216 225.626087 
L 618.682417 179.973913 
L 618.947051 169.017391 
L 619.211685 192.756522 
L 619.725387 258.495652 
L 620.005588 240.234783 
L 620.783924 165.365217 
L 621.313192 240.234783 
L 621.577827 251.191304 
L 621.858028 236.582609 
L 622.107095 200.06087 
L 622.636364 176.321739 
L 622.636364 176.321739 
" clip-path="url(#p3c0ab28168)" style="fill: none; stroke: #1f77b4; stroke-width: 1.5; stroke-linecap: square"/>
   </g>
   <g id="line2d_17">
    <path d="M 116.422173 220.147826 
L 118.009979 192.756522 
L 118.928415 201.886957 
L 120.516221 207.365217 
L 121.419091 205.53913 
L 122.337527 209.191304 
L 124.812636 214.669565 
L 125.746639 207.365217 
L 127.334445 201.886957 
L 128.237314 200.06087 
L 130.105321 194.582609 
L 131.023757 203.713043 
L 131.942194 200.06087 
L 132.86063 198.234783 
L 133.794634 203.713043 
L 134.697503 203.713043 
L 136.316442 223.8 
L 137.234879 205.53913 
L 138.137749 201.886957 
L 139.071752 216.495652 
L 139.990189 196.408696 
L 140.970892 207.365217 
L 141.873762 187.278261 
L 142.792198 205.53913 
L 143.710635 200.06087 
L 144.629071 190.930435 
L 145.531941 209.191304 
L 148.084883 196.408696 
L 149.00332 211.017391 
L 149.921756 198.234783 
L 150.824626 192.756522 
L 151.758629 200.06087 
L 152.708199 192.756522 
L 153.626636 192.756522 
L 154.560639 196.408696 
L 155.463509 203.713043 
L 156.397512 203.713043 
L 157.985318 200.06087 
L 158.919321 189.104348 
L 159.822191 187.278261 
L 160.740627 205.53913 
L 161.67463 194.582609 
L 162.593067 200.06087 
L 163.511503 203.713043 
L 165.083742 183.626087 
L 166.671548 189.104348 
L 167.605551 194.582609 
L 168.523988 194.582609 
L 169.442424 192.756522 
L 170.360861 196.408696 
L 171.279297 194.582609 
L 172.197734 194.582609 
L 173.11617 196.408696 
L 174.703976 187.278261 
L 175.653546 187.278261 
L 176.603116 194.582609 
L 177.521552 187.278261 
L 178.439989 198.234783 
L 179.342858 189.104348 
L 180.276862 185.452174 
L 181.179731 185.452174 
L 182.113735 181.8 
L 183.732674 190.930435 
L 184.635543 203.713043 
L 185.569547 190.930435 
L 186.472416 181.8 
L 187.390853 194.582609 
L 188.35599 189.104348 
L 189.274426 189.104348 
L 192.029736 178.147826 
L 192.963739 192.756522 
L 194.551545 178.147826 
L 196.403984 185.452174 
L 197.322421 190.930435 
L 198.256424 179.973913 
L 199.174861 176.321739 
L 202.87974 190.930435 
L 204.467546 181.8 
L 205.385982 187.278261 
L 206.288852 178.147826 
L 207.191722 196.408696 
L 208.795094 189.104348 
L 209.71353 181.8 
L 210.6164 185.452174 
L 211.534837 192.756522 
L 213.122642 189.104348 
L 214.990649 185.452174 
L 215.893519 181.8 
L 216.827522 189.104348 
L 218.415327 189.104348 
L 219.333764 185.452174 
L 220.236634 179.973913 
L 221.139503 179.973913 
L 222.727309 174.495652 
L 223.661312 183.626087 
L 225.202418 181.8 
L 226.136421 165.365217 
L 227.039291 178.147826 
L 227.973294 178.147826 
L 228.876164 185.452174 
L 230.495103 203.713043 
L 231.429106 187.278261 
L 232.331976 176.321739 
L 233.265979 174.495652 
L 234.168849 174.495652 
L 235.087285 192.756522 
L 236.005722 190.930435 
L 236.970858 170.843478 
L 237.904862 174.495652 
L 238.823298 169.017391 
L 239.726168 187.278261 
L 241.345107 178.147826 
L 242.247977 176.321739 
L 243.166413 179.973913 
L 244.08485 176.321739 
L 245.018853 174.495652 
L 245.93729 165.365217 
L 246.855726 183.626087 
L 248.739299 170.843478 
L 249.642169 187.278261 
L 251.261108 187.278261 
L 253.097981 172.669565 
L 254.016418 169.017391 
L 254.934854 170.843478 
L 255.853291 187.278261 
L 256.771727 181.8 
L 258.359533 169.017391 
L 259.309103 178.147826 
L 261.177109 161.713043 
L 262.095546 176.321739 
L 262.998415 178.147826 
L 263.932419 161.713043 
L 264.835288 176.321739 
L 265.769292 165.365217 
L 267.606165 179.973913 
L 269.209537 183.626087 
L 270.127974 163.53913 
L 271.030843 165.365217 
L 271.964847 161.713043 
L 272.929983 167.191304 
L 273.863986 178.147826 
L 275.685293 156.234783 
L 276.619296 174.495652 
L 277.537733 174.495652 
L 278.456169 176.321739 
L 279.374606 181.8 
L 280.308609 183.626087 
L 281.927548 178.147826 
L 283.110619 169.017391 
L 284.029055 170.843478 
L 285.632427 178.147826 
L 286.566431 169.017391 
L 287.484867 185.452174 
L 288.41887 169.017391 
L 289.337307 165.365217 
L 290.240177 158.06087 
L 291.17418 174.495652 
L 292.092616 174.495652 
L 293.97619 159.886957 
L 294.894626 167.191304 
L 296.497998 185.452174 
L 297.400868 167.191304 
L 298.303738 169.017391 
L 299.222174 181.8 
L 300.80998 169.017391 
L 301.743983 165.365217 
L 302.646853 169.017391 
L 303.56529 178.147826 
L 305.448863 169.017391 
L 307.021102 170.843478 
L 308.857975 167.191304 
L 310.694848 169.017391 
L 312.25152 161.713043 
L 313.823758 163.53913 
L 315.660632 158.06087 
L 317.544205 178.147826 
L 319.396645 172.669565 
L 320.517448 232.930435 
L 323.708626 170.843478 
L 325.545499 174.495652 
L 327.133305 156.234783 
L 328.985744 172.669565 
L 330.822617 170.843478 
L 332.394856 165.365217 
L 333.967095 165.365217 
L 335.819535 167.191304 
L 337.656408 158.06087 
L 339.524414 158.06087 
L 341.361287 161.713043 
L 342.949093 152.582609 
L 345.0973 172.669565 
L 346.934173 158.06087 
L 348.786613 170.843478 
L 350.374419 167.191304 
L 352.226858 163.53913 
L 354.048165 167.191304 
L 355.962871 159.886957 
L 357.815311 161.713043 
L 359.652184 150.756522 
L 361.504624 158.06087 
L 363.076863 154.408696 
L 364.929303 148.930435 
L 366.781742 161.713043 
L 368.649749 159.886957 
L 370.502189 152.582609 
L 372.370195 169.017391 
L 374.222635 156.234783 
L 376.059508 154.408696 
L 377.896381 141.626087 
L 379.484186 147.104348 
L 380.589424 231.104348 
L 381.647961 154.408696 
L 383.5004 161.713043 
L 385.072639 167.191304 
L 386.925079 172.669565 
L 388.793085 181.8 
L 390.614392 165.365217 
L 392.466831 176.321739 
L 394.334838 176.321739 
L 396.187278 169.017391 
L 397.759516 167.191304 
L 399.331755 169.017391 
L 401.153062 170.843478 
L 402.7253 170.843478 
L 404.562173 169.017391 
L 406.43018 163.53913 
L 408.017985 169.017391 
L 409.839292 169.017391 
L 411.411531 143.452174 
L 413.26397 152.582609 
L 415.06971 165.365217 
L 416.657515 154.408696 
L 418.525522 159.886957 
L 420.377962 132.495652 
L 424.082841 132.495652 
L 425.65508 148.930435 
L 427.491953 152.582609 
L 429.655727 143.452174 
L 431.508167 154.408696 
L 433.080406 159.886957 
L 434.932846 163.53913 
L 436.785285 161.713043 
L 438.637725 165.365217 
L 440.209964 169.017391 
L 442.358171 156.234783 
L 444.210611 158.06087 
L 446.063051 158.06087 
L 447.63529 148.930435 
L 449.487729 148.930435 
L 453.192609 152.582609 
L 455.091749 128.843478 
L 457.862625 119.713043 
L 459.699498 85.017391 
L 461.551938 63.104348 
L 463.139743 123.365217 
L 464.976616 145.278261 
L 466.829056 156.234783 
L 468.385728 167.191304 
L 470.222601 150.756522 
L 471.810407 152.582609 
L 473.64728 148.930435 
L 475.515286 139.8 
L 477.367726 137.973913 
L 479.204599 97.8 
L 481.103739 68.582609 
L 482.691545 130.669565 
L 484.793052 150.756522 
L 486.645492 167.191304 
L 488.21773 161.713043 
L 490.07017 150.756522 
L 491.92261 143.452174 
L 493.806183 163.53913 
L 497.199728 72.234783 
L 499.036601 59.452174 
L 500.60884 55.8 
L 502.165512 128.843478 
L 504.002385 150.756522 
L 506.788828 158.06087 
L 508.361067 163.53913 
L 510.182373 161.713043 
L 511.770179 161.713043 
L 513.607052 152.582609 
L 515.428358 139.8 
L 517.311931 90.495652 
L 518.915304 59.452174 
L 520.73661 75.886957 
L 524.192422 170.843478 
L 526.309496 179.973913 
L 528.146369 178.147826 
L 530.029942 181.8 
L 531.882382 179.973913 
L 533.734822 183.626087 
L 535.322627 190.930435 
L 537.1595 179.973913 
L 539.027507 152.582609 
L 540.879947 170.843478 
L 542.76352 170.843478 
L 544.600393 169.017391 
L 546.437266 172.669565 
L 548.305272 169.017391 
L 550.142145 174.495652 
L 551.729951 170.843478 
L 553.862592 176.321739 
L 555.730598 165.365217 
L 557.302837 172.669565 
L 559.155277 163.53913 
L 560.99215 163.53913 
L 562.564388 178.147826 
L 564.697029 170.843478 
L 566.580602 169.017391 
L 568.168408 167.191304 
L 570.020848 167.191304 
L 571.857721 185.452174 
L 573.71016 161.713043 
L 575.297966 176.321739 
L 577.134839 179.973913 
L 579.298613 159.886957 
L 581.135486 170.843478 
L 582.723292 176.321739 
L 584.840366 165.365217 
L 586.412605 165.365217 
L 588.280611 161.713043 
L 590.133051 163.53913 
L 593.199695 159.886957 
L 594.7875 169.017391 
L 596.359739 143.452174 
L 598.196612 159.886957 
L 600.033485 170.843478 
L 601.605724 174.495652 
L 603.442597 163.53913 
L 604.719068 169.017391 
L 606.555941 172.669565 
L 609.98062 172.669565 
L 611.801926 161.713043 
L 613.374165 156.234783 
L 615.211038 165.365217 
L 617.079044 163.53913 
L 618.947051 169.017391 
L 620.783924 165.365217 
L 620.783924 165.365217 
" clip-path="url(#p3c0ab28168)" style="fill: none; stroke: #ff7f0e; stroke-width: 1.5; stroke-linecap: square"/>
   </g>
   <g id="patch_3">
    <path d="M 90 320.4 
L 90 43.2 
" style="fill: none; stroke: #000000; stroke-width: 0.8; stroke-linejoin: miter; stroke-linecap: square"/>
   </g>
   <g id="patch_4">
    <path d="M 648 320.4 
L 648 43.2 
" style="fill: none; stroke: #000000; stroke-width: 0.8; stroke-linejoin: miter; stroke-linecap: square"/>
   </g>
   <g id="patch_5">
    <path d="M 90 320.4 
L 648 320.4 
" style="fill: none; stroke: #000000; stroke-width: 0.8; stroke-linejoin: miter; stroke-linecap: square"/>
   </g>
   <g id="patch_6">
    <path d="M 90 43.2 
L 648 43.2 
" style="fill: none; stroke: #000000; stroke-width: 0.8; stroke-linejoin: miter; stroke-linecap: square"/>
   </g>
   <g id="text_16">
    <!-- T1234 -->
    <g transform="translate(350.065313 37.2)scale(0.12 -0.12)">
     <defs>
      <path id="DejaVuSans-54" d="M -19 4666 
L 3928 4666 
L 3928 4134 
L 2272 4134 
L 2272 0 
L 1638 0 
L 1638 4134 
L -19 4134 
L -19 4666 
z
" transform="scale(0.015625)"/>
      <path id="DejaVuSans-34" d="M 2419 4116 
L 825 1625 
L 2419 1625 
L 2419 4116 
z
M 2253 4666 
L 3047 4666 
L 3047 1625 
L 3713 1625 
L 3713 1100 
L 3047 1100 
L 3047 0 
L 2419 0 
L 2419 1100 
L 313 1100 
L 313 1709 
L 2253 4666 
z
" transform="scale(0.015625)"/>
     </defs>
     <use xlink:href="#DejaVuSans-54"/>
     <use xlink:href="#DejaVuSans-31" x="61.083984"/>
     <use xlink:href="#DejaVuSans-32" x="124.707031"/>
     <use xlink:href="#DejaVuSans-33" x="188.330078"/>
     <use xlink:href="#DejaVuSans-34" x="251.953125"/>
    </g>
   </g>
   <g id="legend_1">
    <g id="patch_7">
     <path d="M 547.879688 80.834375 
L 641 80.834375 
Q 643 80.834375 643 78.834375 
L 643 50.2 
Q 643 48.2 641 48.2 
L 547.879688 48.2 
Q 545.879688 48.2 545.879688 50.2 
L 545.879688 78.834375 
Q 545.879688 80.834375 547.879688 80.834375 
z
" style="fill: #ffffff; opacity: 0.8; stroke: #cccccc; stroke-linejoin: miter"/>
    </g>
    <g id="line2d_18">
     <path d="M 549.879688 56.298437 
L 559.879688 56.298437 
L 569.879688 56.298437 
" style="fill: none; stroke: #1f77b4; stroke-width: 1.5; stroke-linecap: square"/>
    </g>
    <g id="text_17">
     <!-- T1234 -->
     <g transform="translate(577.879688 59.798437)scale(0.1 -0.1)">
      <use xlink:href="#DejaVuSans-54"/>
      <use xlink:href="#DejaVuSans-31" x="61.083984"/>
      <use xlink:href="#DejaVuSans-32" x="124.707031"/>
      <use xlink:href="#DejaVuSans-33" x="188.330078"/>
      <use xlink:href="#DejaVuSans-34" x="251.953125"/>
     </g>
    </g>
    <g id="line2d_19">
     <path d="M 549.879688 70.976562 
L 559.879688 70.976562 
L 569.879688 70.976562 
" style="fill: none; stroke: #ff7f0e; stroke-width: 1.5; stroke-linecap: square"/>
    </g>
    <g id="text_18">
     <!-- T1234_enve -->
     <g transform="translate(577.879688 74.476562)scale(0.1 -0.1)">
      <defs>
       <path id="DejaVuSans-5f" d="M 3263 -1063 
L 3263 -1509 
L -63 -1509 
L -63 -1063 
L 3263 -1063 
z
" transform="scale(0.015625)"/>
       <path id="DejaVuSans-65" d="M 3597 1894 
L 3597 1613 
L 953 1613 
Q 991 1019 1311 708 
Q 1631 397 2203 397 
Q 2534 397 2845 478 
Q 3156 559 3463 722 
L 3463 178 
Q 3153 47 2828 -22 
Q 2503 -91 2169 -91 
Q 1331 -91 842 396 
Q 353 884 353 1716 
Q 353 2575 817 3079 
Q 1281 3584 2069 3584 
Q 2775 3584 3186 3129 
Q 3597 2675 3597 1894 
z
M 3022 2063 
Q 3016 2534 2758 2815 
Q 2500 3097 2075 3097 
Q 1594 3097 1305 2825 
Q 1016 2553 972 2059 
L 3022 2063 
z
" transform="scale(0.015625)"/>
       <path id="DejaVuSans-6e" d="M 3513 2113 
L 3513 0 
L 2938 0 
L 2938 2094 
Q 2938 2591 2744 2837 
Q 2550 3084 2163 3084 
Q 1697 3084 1428 2787 
Q 1159 2491 1159 1978 
L 1159 0 
L 581 0 
L 581 3500 
L 1159 3500 
L 1159 2956 
Q 1366 3272 1645 3428 
Q 1925 3584 2291 3584 
Q 2894 3584 3203 3211 
Q 3513 2838 3513 2113 
z
" transform="scale(0.015625)"/>
       <path id="DejaVuSans-76" d="M 191 3500 
L 800 3500 
L 1894 563 
L 2988 3500 
L 3597 3500 
L 2284 0 
L 1503 0 
L 191 3500 
z
" transform="scale(0.015625)"/>
      </defs>
      <use xlink:href="#DejaVuSans-54"/>
      <use xlink:href="#DejaVuSans-31" x="61.083984"/>
      <use xlink:href="#DejaVuSans-32" x="124.707031"/>
      <use xlink:href="#DejaVuSans-33" x="188.330078"/>
      <use xlink:href="#DejaVuSans-34" x="251.953125"/>
      <use xlink:href="#DejaVuSans-5f" x="315.576172"/>
      <use xlink:href="#DejaVuSans-65" x="365.576172"/>
      <use xlink:href="#DejaVuSans-6e" x="427.099609"/>
      <use xlink:href="#DejaVuSans-76" x="490.478516"/>
      <use xlink:href="#DejaVuSans-65" x="549.658203"/>
     </g>
    </g>
   </g>
  </g>
 </g>
 <defs>
  <clipPath id="p3c0ab28168">
   <rect x="90" y="43.2" width="558" height="277.2"/>
  </clipPath>
 </defs>
</svg>
